<?xml version="1.0" encoding="UTF-8" standalone="no"?>
<svg
   xmlns:dc="http://purl.org/dc/elements/1.1/"
   xmlns:cc="http://creativecommons.org/ns#"
   xmlns:rdf="http://www.w3.org/1999/02/22-rdf-syntax-ns#"
   xmlns:svg="http://www.w3.org/2000/svg"
   xmlns="http://www.w3.org/2000/svg"
   xmlns:xlink="http://www.w3.org/1999/xlink"
   xmlns:sodipodi="http://sodipodi.sourceforge.net/DTD/sodipodi-0.dtd"
   xmlns:inkscape="http://www.inkscape.org/namespaces/inkscape"
   width="148mm"
   height="280mm"
   viewBox="0 0 148 280"
   version="1.1"
   id="svg8"
   inkscape:version="1.0.1 (3bc2e813f5, 2020-09-07)"
   sodipodi:docname="refman-7x.svg"
   inkscape:export-filename="/home/mntmn/code/reform-handbook/src/source/_static/illustrations/7t-callouts.png"
   inkscape:export-xdpi="600.0954"
   inkscape:export-ydpi="600.0954">
  <defs
     id="defs2" />
  <sodipodi:namedview
     id="base"
     pagecolor="#ffffff"
     bordercolor="#666666"
     borderopacity="1.0"
     inkscape:pageopacity="0.0"
     inkscape:pageshadow="2"
     inkscape:zoom="1.979899"
     inkscape:cx="352.14675"
     inkscape:cy="718.03012"
     inkscape:document-units="mm"
     inkscape:current-layer="layer1"
     inkscape:document-rotation="0"
     showgrid="false"
     inkscape:window-width="2560"
     inkscape:window-height="1406"
     inkscape:window-x="0"
     inkscape:window-y="0"
     inkscape:window-maximized="1"
     inkscape:snap-global="true">
    <inkscape:grid
       type="xygrid"
       id="grid10"
       units="mm"
       spacingx="10"
       spacingy="10" />
  </sodipodi:namedview>
  <metadata
     id="metadata5">
    <rdf:RDF>
      <cc:Work
         rdf:about="">
        <dc:format>image/svg+xml</dc:format>
        <dc:type
           rdf:resource="http://purl.org/dc/dcmitype/StillImage" />
        <dc:title></dc:title>
      </cc:Work>
    </rdf:RDF>
  </metadata>
  <g
     inkscape:label="Layer 1"
     inkscape:groupmode="layer"
     id="layer1">
    <image
       sodipodi:absref="/home/mntmn/code/reform-handbook/src/source/_static/illustrations/7t.png"
       xlink:href="../_static/illustrations/7t.png"
       width="130.49016"
       height="254.42348"
       preserveAspectRatio="none"
       id="image917"
       x="9.7684412"
       y="10.024235" />
    <g
       aria-label="Lid"
       id="text130-3-5-6-3"
       style="font-size:3.52777px;line-height:1.25;font-family:Inter;-inkscape-font-specification:Inter;stroke-width:0.264583">
      <path
         d="m 14.577904,120.02412 h 1.503311 v -0.27561 h -1.192627 v -2.29004 h -0.310684 z"
         style="stroke-width:0.264583"
         id="path1807" />
      <path
         d="m 16.522179,120.02412 h 0.295652 v -1.92424 h -0.295652 z m 0.150332,-2.24495 c 0.115253,0 0.210463,-0.0902 0.210463,-0.20044 0,-0.11024 -0.09521,-0.20044 -0.210463,-0.20044 -0.115254,0 -0.210464,0.0902 -0.210464,0.20044 0,0.11024 0.09521,0.20044 0.210464,0.20044 z"
         style="stroke-width:0.264583"
         id="path1809" />
      <path
         d="m 18.08562,120.0642 c 0.370817,0 0.496093,-0.2305 0.561236,-0.33573 h 0.03508 v 0.29565 h 0.285629 v -2.56565 h -0.295651 v 0.94708 h -0.02506 c -0.06514,-0.10022 -0.180397,-0.33073 -0.556225,-0.33073 -0.486071,0 -0.82181,0.38585 -0.82181,0.99219 0,0.61134 0.335739,0.99719 0.816799,0.99719 z m 0.04009,-0.26558 c -0.370817,0 -0.561236,-0.32572 -0.561236,-0.73662 0,-0.4059 0.185408,-0.72159 0.561236,-0.72159 0.360795,0 0.551214,0.29064 0.551214,0.72159 0,0.43596 -0.19543,0.73662 -0.551214,0.73662 z"
         style="stroke-width:0.264583"
         id="path1811" />
    </g>
    <path
       style="fill:none;stroke:fuchsia;stroke-width:0.264999;stroke-linecap:butt;stroke-linejoin:miter;stroke-miterlimit:4;stroke-dasharray:none;stroke-opacity:1"
       d="M 51.589604,120 H 20"
       id="path200-7-5-1"
       sodipodi:nodetypes="cc" />
    <g
       aria-label="Cup"
       id="text130-3-5-6-3-3-5"
       style="font-size:3.52777px;line-height:1.25;font-family:Inter;-inkscape-font-specification:Inter;stroke-width:0.264583">
      <path
         d="m 112.9317,218.26022 c -0.0952,-0.52616 -0.51613,-0.83684 -1.03227,-0.83684 -0.65645,0 -1.13249,0.50612 -1.13249,1.3179 0,0.81179 0.47604,1.31791 1.13249,1.31791 0.51614,0 0.93706,-0.31069 1.03227,-0.83685 h -0.31068 c -0.0752,0.35579 -0.38084,0.54621 -0.72159,0.54621 -0.46603,0 -0.83183,-0.3608 -0.83183,-1.02727 0,-0.66646 0.3658,-1.02726 0.83183,-1.02726 0.34075,0 0.64642,0.19042 0.72159,0.5462 z"
         style="stroke-width:0.264583"
         id="path1814" />
      <path
         d="m 114.60539,219.23738 c 0,0.36079 -0.27561,0.52615 -0.49609,0.52615 -0.24555,0 -0.42093,-0.18039 -0.42093,-0.46101 v -1.20265 h -0.29565 v 1.22269 c 0,0.49109 0.26057,0.7266 0.62137,0.7266 0.29064,0 0.48106,-0.15534 0.57125,-0.35077 h 0.02 v 0.32572 h 0.29565 v -1.92424 h -0.29565 z"
         style="stroke-width:0.264583"
         id="path1816" />
      <path
         d="m 115.44223,220.7457 h 0.29565 v -1.01724 h 0.025 c 0.0652,0.10523 0.19042,0.33574 0.56124,0.33574 0.48106,0 0.8168,-0.38585 0.8168,-0.9972 0,-0.60633 -0.33574,-0.99218 -0.82181,-0.99218 -0.37583,0 -0.49108,0.2305 -0.55623,0.33072 h -0.0351 v -0.30567 h -0.28563 z m 0.29064,-1.68371 c 0,-0.43095 0.19042,-0.72159 0.55121,-0.72159 0.37583,0 0.56124,0.3157 0.56124,0.72159 0,0.4109 -0.19042,0.73662 -0.56124,0.73662 -0.35578,0 -0.55121,-0.30066 -0.55121,-0.73662 z"
         style="stroke-width:0.264583"
         id="path1818" />
    </g>
    <path
       style="fill:none;stroke:fuchsia;stroke-width:0.264999;stroke-linecap:butt;stroke-linejoin:miter;stroke-miterlimit:4;stroke-dasharray:none;stroke-opacity:1"
       d="m 110,220 -30,0"
       id="path200-7-5-1-7-5"
       sodipodi:nodetypes="cc" />
    <g
       aria-label="Sensor"
       id="text130-3-5-6-3-3-5-6"
       style="font-size:3.52777px;line-height:1.25;font-family:Inter;-inkscape-font-specification:Inter;stroke-width:0.264583">
      <path
         d="m 19.746264,238.09987 h 0.300663 c -0.01378,-0.3871 -0.370817,-0.67649 -0.86691,-0.67649 -0.491081,0 -0.876931,0.28563 -0.876931,0.71658 0,0.34576 0.250552,0.55121 0.651435,0.66647 l 0.315695,0.0902 c 0.270596,0.0752 0.511126,0.17037 0.511126,0.42593 0,0.28062 -0.270596,0.46603 -0.62638,0.46603 -0.305673,0 -0.576269,-0.1353 -0.601324,-0.42594 h -0.320707 c 0.03007,0.42093 0.370817,0.70656 0.922031,0.70656 0.591302,0 0.927042,-0.32572 0.927042,-0.74164 0,-0.48105 -0.456004,-0.6364 -0.721589,-0.70655 l -0.260574,-0.0702 c -0.19042,-0.0501 -0.496093,-0.15033 -0.496093,-0.42593 0,-0.24554 0.225497,-0.42594 0.566247,-0.42594 0.310684,0 0.546203,0.14782 0.576269,0.40088 z"
         style="stroke-width:0.264583"
         id="path1821" />
      <path
         d="m 21.359815,240.0642 c 0.39086,0 0.67649,-0.19543 0.766688,-0.48607 l -0.285629,-0.0802 c -0.07516,0.20044 -0.249299,0.30066 -0.481059,0.30066 -0.347015,0 -0.586292,-0.22424 -0.600072,-0.6364 h 1.396826 v -0.12528 c 0,-0.71657 -0.425938,-0.96211 -0.826821,-0.96211 -0.521147,0 -0.866909,0.4109 -0.866909,1.0022 0,0.59131 0.34075,0.98718 0.896976,0.98718 z m -0.600072,-1.15755 c 0.02004,-0.29941 0.23176,-0.56625 0.570005,-0.56625 0.320707,0 0.526159,0.24053 0.526159,0.56625 z"
         style="stroke-width:0.264583"
         id="path1823" />
      <path
         d="m 22.903213,238.86656 c 0,-0.33574 0.207958,-0.52616 0.491081,-0.52616 0.274355,0 0.440972,0.17915 0.440972,0.48106 v 1.20265 h 0.295651 v -1.22269 c 0,-0.49109 -0.261827,-0.7266 -0.651435,-0.7266 -0.29064,0 -0.471037,0.13028 -0.561236,0.32571 h -0.02505 v -0.30066 h -0.285629 v 1.92424 h 0.295651 z"
         style="stroke-width:0.264583"
         id="path1825" />
      <path
         d="m 26.035106,238.53082 c -0.0927,-0.2731 -0.300662,-0.456 -0.681501,-0.456 -0.405894,0 -0.706556,0.2305 -0.706556,0.55622 0,0.26559 0.157848,0.44348 0.511126,0.52616 l 0.320706,0.0752 c 0.194178,0.0451 0.285629,0.1378 0.285629,0.27059 0,0.16537 -0.175386,0.30066 -0.450993,0.30066 -0.241782,0 -0.393366,-0.10398 -0.445982,-0.31068 l -0.280618,0.0701 c 0.0689,0.32697 0.338245,0.50111 0.731611,0.50111 0.447235,0 0.751656,-0.24429 0.751656,-0.57627 0,-0.26809 -0.16787,-0.43722 -0.511126,-0.52115 l -0.285629,-0.0702 c -0.228002,-0.0564 -0.330729,-0.1328 -0.330729,-0.28062 0,-0.16537 0.175387,-0.28563 0.410905,-0.28563 0.258069,0 0.364553,0.14281 0.415916,0.27561 z"
         style="stroke-width:0.264583"
         id="path1827" />
      <path
         d="m 27.297883,240.0642 c 0.521148,0 0.871921,-0.39587 0.871921,-0.99219 0,-0.60132 -0.350773,-0.99719 -0.871921,-0.99719 -0.521148,0 -0.87192,0.39587 -0.87192,0.99719 0,0.59632 0.350772,0.99219 0.87192,0.99219 z m 0,-0.26559 c -0.395872,0 -0.576269,-0.34075 -0.576269,-0.7266 0,-0.38585 0.180397,-0.73161 0.576269,-0.73161 0.395872,0 0.576269,0.34576 0.576269,0.73161 0,0.38585 -0.180397,0.7266 -0.576269,0.7266 z"
         style="stroke-width:0.264583"
         id="path1829" />
      <path
         d="m 28.620795,240.02411 h 0.295651 v -1.21768 c 0,-0.25932 0.205452,-0.451 0.486071,-0.451 0.07391,0 0.129034,0.0138 0.170375,0.0351 l 0.100221,-0.25055 c -0.06013,-0.0426 -0.139057,-0.0702 -0.245541,-0.0702 -0.233014,0 -0.432202,0.13029 -0.501104,0.32071 h -0.02004 v -0.29064 h -0.285629 z"
         style="stroke-width:0.264583"
         id="path1831" />
    </g>
    <path
       style="fill:none;stroke:fuchsia;stroke-width:0.264999;stroke-linecap:butt;stroke-linejoin:miter;stroke-miterlimit:4;stroke-dasharray:none;stroke-opacity:1"
       d="M 51.058116,240 H 30"
       id="path200-7-5-1-7-5-9"
       sodipodi:nodetypes="cc" />
  </g>
</svg>
