<?xml version="1.0" encoding="UTF-8" standalone="no"?>
<svg
   xmlns:dc="http://purl.org/dc/elements/1.1/"
   xmlns:cc="http://creativecommons.org/ns#"
   xmlns:rdf="http://www.w3.org/1999/02/22-rdf-syntax-ns#"
   xmlns:svg="http://www.w3.org/2000/svg"
   xmlns="http://www.w3.org/2000/svg"
   xmlns:xlink="http://www.w3.org/1999/xlink"
   xmlns:sodipodi="http://sodipodi.sourceforge.net/DTD/sodipodi-0.dtd"
   xmlns:inkscape="http://www.inkscape.org/namespaces/inkscape"
   width="148mm"
   height="115mm"
   viewBox="0 0 148 115"
   version="1.1"
   id="svg8"
   inkscape:version="1.0.1 (3bc2e813f5, 2020-09-07)"
   sodipodi:docname="refman-9x.svg"
   inkscape:export-filename="/home/mntmn/code/reform-handbook/src/source/_static/illustrations/2t-callouts.png"
   inkscape:export-xdpi="600.0954"
   inkscape:export-ydpi="600.0954">
  <defs
     id="defs2" />
  <sodipodi:namedview
     id="base"
     pagecolor="#ffffff"
     bordercolor="#666666"
     borderopacity="1.0"
     inkscape:pageopacity="0.0"
     inkscape:pageshadow="2"
     inkscape:zoom="1.4"
     inkscape:cx="337.76311"
     inkscape:cy="200.82942"
     inkscape:document-units="mm"
     inkscape:current-layer="layer1"
     inkscape:document-rotation="0"
     showgrid="true"
     inkscape:window-width="2560"
     inkscape:window-height="1406"
     inkscape:window-x="0"
     inkscape:window-y="0"
     inkscape:window-maximized="1">
    <inkscape:grid
       type="xygrid"
       id="grid10"
       units="mm"
       spacingx="10"
       spacingy="10" />
  </sodipodi:namedview>
  <metadata
     id="metadata5">
    <rdf:RDF>
      <cc:Work
         rdf:about="">
        <dc:format>image/svg+xml</dc:format>
        <dc:type
           rdf:resource="http://purl.org/dc/dcmitype/StillImage" />
        <dc:title></dc:title>
      </cc:Work>
    </rdf:RDF>
  </metadata>
  <g
     inkscape:label="Layer 1"
     inkscape:groupmode="layer"
     id="layer1">
    <image
       sodipodi:absref="/home/mntmn/code/reform-handbook/src/source/_static/illustrations/9.png"
       xlink:href="../_static/illustrations/9.png"
       width="130"
       height="84.099525"
       preserveAspectRatio="none"
       id="image2293"
       x="10"
       y="17.060471" />
    <g
       aria-label="Touch Surface"
       id="text130-3-5-6"
       style="font-size:3.52777px;line-height:1.25;font-family:Inter;-inkscape-font-specification:Inter;stroke-width:0.264583">
      <path
         d="m 35.167015,17.734511 h 0.806776 v 2.290044 h 0.310685 v -2.290044 h 0.806777 v -0.275607 h -1.924238 z"
         style="stroke-width:0.264583"
         id="path16697" />
      <path
         d="m 38.033321,20.064644 c 0.521148,0 0.87192,-0.395872 0.87192,-0.992186 0,-0.601324 -0.350772,-0.997196 -0.87192,-0.997196 -0.521148,0 -0.871921,0.395872 -0.871921,0.997196 0,0.596314 0.350773,0.992186 0.871921,0.992186 z m 0,-0.265585 c -0.395872,0 -0.576269,-0.340751 -0.576269,-0.726601 0,-0.38585 0.180397,-0.731611 0.576269,-0.731611 0.395872,0 0.576269,0.345761 0.576269,0.731611 0,0.38585 -0.180397,0.726601 -0.576269,0.726601 z"
         style="stroke-width:0.264583"
         id="path16699" />
      <path
         d="m 40.568903,19.237822 c 0,0.360795 -0.275607,0.526159 -0.496093,0.526159 -0.245541,0 -0.420927,-0.180397 -0.420927,-0.461015 v -1.202649 h -0.295651 v 1.222693 c 0,0.491082 0.260574,0.7266 0.621368,0.7266 0.29064,0 0.48106,-0.155342 0.571258,-0.350772 h 0.02004 v 0.325717 h 0.295651 v -1.924238 h -0.295651 z"
         style="stroke-width:0.264583"
         id="path16701" />
      <path
         d="m 42.187464,20.064644 c 0.425939,0 0.706557,-0.260574 0.756667,-0.601325 H 42.64848 c -0.05512,0.210464 -0.230508,0.33574 -0.461016,0.33574 -0.350772,0 -0.576269,-0.290641 -0.576269,-0.736623 0,-0.43596 0.230508,-0.721589 0.576269,-0.721589 0.260574,0 0.415916,0.160353 0.461016,0.335739 h 0.295651 c -0.05011,-0.360794 -0.355784,-0.601324 -0.761678,-0.601324 -0.521147,0 -0.866909,0.410905 -0.866909,0.997196 0,0.576269 0.330728,0.992186 0.87192,0.992186 z"
         style="stroke-width:0.264583"
         id="path16703" />
      <path
         d="m 43.670726,18.867006 c 0,-0.33574 0.214222,-0.526159 0.506115,-0.526159 0.278112,0 0.445982,0.175386 0.445982,0.481059 v 1.202649 h 0.295651 v -1.222693 c 0,-0.49484 -0.263079,-0.7266 -0.656446,-0.7266 -0.303167,0 -0.476048,0.126529 -0.566247,0.325717 h -0.02505 v -0.942075 h -0.295651 v 2.565651 h 0.295651 z"
         style="stroke-width:0.264583"
         id="path16705" />
      <path
         d="m 47.89502,18.100317 h 0.300662 c -0.01378,-0.387103 -0.370817,-0.67649 -0.86691,-0.67649 -0.491081,0 -0.876931,0.285629 -0.876931,0.716578 0,0.345762 0.250552,0.551214 0.651435,0.666468 l 0.315695,0.0902 c 0.270596,0.07516 0.511126,0.170375 0.511126,0.425938 0,0.280618 -0.270596,0.466026 -0.62638,0.466026 -0.305673,0 -0.576269,-0.135298 -0.601324,-0.425938 h -0.320707 c 0.03007,0.420927 0.370817,0.706557 0.922031,0.706557 0.591303,0 0.927042,-0.325718 0.927042,-0.741634 0,-0.481059 -0.456004,-0.636402 -0.721589,-0.706556 l -0.260574,-0.07015 c -0.19042,-0.05011 -0.496093,-0.150331 -0.496093,-0.425938 0,-0.245541 0.225497,-0.425938 0.566247,-0.425938 0.310685,0 0.546203,0.147826 0.57627,0.400883 z"
         style="stroke-width:0.264583"
         id="path16707" />
      <path
         d="m 49.914464,19.237822 c 0,0.360795 -0.275607,0.526159 -0.496093,0.526159 -0.24554,0 -0.420927,-0.180397 -0.420927,-0.461015 v -1.202649 h -0.295651 v 1.222693 c 0,0.491082 0.260574,0.7266 0.621369,0.7266 0.29064,0 0.481059,-0.155342 0.571258,-0.350772 h 0.02004 v 0.325717 h 0.295651 v -1.924238 h -0.295651 z"
         style="stroke-width:0.264583"
         id="path16709" />
      <path
         d="m 50.751304,20.024555 h 0.295651 v -1.217682 c 0,-0.260574 0.205453,-0.450993 0.486071,-0.450993 0.07892,0 0.160353,0.01503 0.180397,0.02004 v -0.300662 c -0.03382,-0.0025 -0.111495,-0.005 -0.155342,-0.005 -0.230508,0 -0.430949,0.130287 -0.501104,0.320706 h -0.02004 v -0.29064 h -0.285629 z"
         style="stroke-width:0.264583"
         id="path16711" />
      <path
         d="m 53.041342,18.100317 h -0.430949 v -0.19543 c 0,-0.19042 0.08018,-0.290641 0.275607,-0.290641 0.08519,0 0.135298,0.02004 0.165364,0.03007 l 0.08519,-0.255563 c -0.0451,-0.02004 -0.135298,-0.05011 -0.280618,-0.05011 -0.275607,0 -0.541192,0.165365 -0.541192,0.496093 v 0.265585 h -0.310684 v 0.250552 h 0.310684 v 1.673686 h 0.295652 v -1.673686 h 0.430949 z"
         style="stroke-width:0.264583"
         id="path16713" />
      <path
         d="m 53.943321,20.069655 c 0.335739,0 0.511126,-0.180398 0.571258,-0.305674 h 0.01503 v 0.260574 h 0.295651 v -1.267792 c 0,-0.611347 -0.466026,-0.681501 -0.711567,-0.681501 -0.29064,0 -0.621368,0.100221 -0.7717,0.450993 l 0.280619,0.100221 c 0.06514,-0.140309 0.219232,-0.29064 0.501103,-0.29064 0.271849,0 0.405894,0.144067 0.405894,0.390861 v 0.01002 c 0,0.142814 -0.14532,0.130287 -0.496092,0.175386 -0.357037,0.04635 -0.746645,0.125276 -0.746645,0.566247 0,0.375828 0.29064,0.591303 0.656446,0.591303 z m 0.0451,-0.265585 c -0.235518,0 -0.405894,-0.105232 -0.405894,-0.310685 0,-0.225496 0.205453,-0.295651 0.43596,-0.325717 0.125276,-0.01503 0.461016,-0.05011 0.511126,-0.110243 v 0.270596 c 0,0.24053 -0.190419,0.476049 -0.541192,0.476049 z"
         style="stroke-width:0.264583"
         id="path16715" />
      <path
         d="m 56.148172,20.064644 c 0.425938,0 0.706556,-0.260574 0.756666,-0.601325 h -0.295651 c -0.05512,0.210464 -0.230508,0.33574 -0.461015,0.33574 -0.350773,0 -0.57627,-0.290641 -0.57627,-0.736623 0,-0.43596 0.230508,-0.721589 0.57627,-0.721589 0.260573,0 0.415916,0.160353 0.461015,0.335739 h 0.295651 c -0.05011,-0.360794 -0.355783,-0.601324 -0.761677,-0.601324 -0.521148,0 -0.86691,0.410905 -0.86691,0.997196 0,0.576269 0.330729,0.992186 0.871921,0.992186 z"
         style="stroke-width:0.264583"
         id="path16717" />
      <path
         d="m 58.142559,20.064644 c 0.39086,0 0.676489,-0.195431 0.766688,-0.486071 l -0.285629,-0.08018 c -0.07517,0.200442 -0.249299,0.300663 -0.481059,0.300663 -0.347015,0 -0.586292,-0.224244 -0.600072,-0.636402 h 1.396826 v -0.125276 c 0,-0.716578 -0.425938,-0.962119 -0.826821,-0.962119 -0.521148,0 -0.866909,0.410905 -0.866909,1.002207 0,0.591303 0.34075,0.987175 0.896976,0.987175 z m -0.600072,-1.15755 c 0.02004,-0.29941 0.23176,-0.566247 0.570005,-0.566247 0.320707,0 0.526159,0.24053 0.526159,0.566247 z"
         style="stroke-width:0.264583"
         id="path16719" />
    </g>
    <path
       style="fill:none;stroke:#ff0000;stroke-width:0.265;stroke-linecap:butt;stroke-linejoin:miter;stroke-miterlimit:4;stroke-dasharray:none;stroke-opacity:1"
       d="m 60,19.945827 h 10 v 40"
       id="path200"
       sodipodi:nodetypes="ccc" />
  </g>
</svg>
