<?xml version="1.0" encoding="UTF-8" standalone="no"?>
<svg
   xmlns:dc="http://purl.org/dc/elements/1.1/"
   xmlns:cc="http://creativecommons.org/ns#"
   xmlns:rdf="http://www.w3.org/1999/02/22-rdf-syntax-ns#"
   xmlns:svg="http://www.w3.org/2000/svg"
   xmlns="http://www.w3.org/2000/svg"
   xmlns:xlink="http://www.w3.org/1999/xlink"
   xmlns:sodipodi="http://sodipodi.sourceforge.net/DTD/sodipodi-0.dtd"
   xmlns:inkscape="http://www.inkscape.org/namespaces/inkscape"
   width="148mm"
   height="115mm"
   viewBox="0 0 148 115"
   version="1.1"
   id="svg8"
   inkscape:version="1.0.1 (3bc2e813f5, 2020-09-07)"
   sodipodi:docname="refman-8-2x.svg"
   inkscape:export-filename="/home/mntmn/code/reform-handbook/src/source/_static/illustrations/8-2-callouts.png"
   inkscape:export-xdpi="600.0954"
   inkscape:export-ydpi="600.0954">
  <defs
     id="defs2" />
  <sodipodi:namedview
     id="base"
     pagecolor="#ffffff"
     bordercolor="#666666"
     borderopacity="1.0"
     inkscape:pageopacity="0.0"
     inkscape:pageshadow="2"
     inkscape:zoom="1.979899"
     inkscape:cx="309.98494"
     inkscape:cy="212.17264"
     inkscape:document-units="mm"
     inkscape:current-layer="layer1"
     inkscape:document-rotation="0"
     showgrid="true"
     inkscape:window-width="2560"
     inkscape:window-height="1406"
     inkscape:window-x="0"
     inkscape:window-y="0"
     inkscape:window-maximized="1"
     inkscape:snap-global="false">
    <inkscape:grid
       type="xygrid"
       id="grid10"
       units="mm"
       spacingx="10"
       spacingy="10" />
  </sodipodi:namedview>
  <metadata
     id="metadata5">
    <rdf:RDF>
      <cc:Work
         rdf:about="">
        <dc:format>image/svg+xml</dc:format>
        <dc:type
           rdf:resource="http://purl.org/dc/dcmitype/StillImage" />
        <dc:title></dc:title>
      </cc:Work>
    </rdf:RDF>
  </metadata>
  <g
     inkscape:label="Layer 1"
     inkscape:groupmode="layer"
     id="layer1">
    <image
       sodipodi:absref="/home/mntmn/code/reform-handbook/src/source/_static/illustrations/8-2.png"
       xlink:href="../_static/illustrations/8-2.png"
       y="17.598461"
       x="10"
       id="image1795"
       preserveAspectRatio="none"
       height="86.446213"
       width="129.99999" />
    <g
       aria-label="Capactive Touch Sensor"
       id="text130-3-5-6"
       style="font-size:3.52777px;line-height:1.25;font-family:Inter;-inkscape-font-specification:Inter;stroke-width:0.264583">
      <path
         d="m 10.819027,18.26067 c -0.09521,-0.526159 -0.516137,-0.836843 -1.0322739,-0.836843 -0.6564458,0 -1.1324943,0.506115 -1.1324943,1.317903 0,0.811788 0.4760485,1.317902 1.1324943,1.317902 0.5161369,0 0.9370639,-0.310684 1.0322739,-0.836843 h -0.310685 c -0.07517,0.355784 -0.380838,0.546203 -0.7215889,0.546203 -0.4660264,0 -0.8318321,-0.360794 -0.8318321,-1.027262 0,-0.666468 0.3658057,-1.027263 0.8318321,-1.027263 0.3407509,0 0.6464239,0.19042 0.7215889,0.546203 z"
         style="stroke-width:0.264583"
         id="path20618" />
      <path
         d="m 11.846287,20.069655 c 0.335739,0 0.511126,-0.180398 0.571258,-0.305674 h 0.01503 v 0.260574 h 0.295651 v -1.267792 c 0,-0.611347 -0.466026,-0.681501 -0.711567,-0.681501 -0.29064,0 -0.621368,0.100221 -0.7717,0.450993 l 0.280619,0.100221 c 0.06514,-0.140309 0.219232,-0.29064 0.501103,-0.29064 0.271849,0 0.405894,0.144067 0.405894,0.390861 v 0.01002 c 0,0.142814 -0.14532,0.130287 -0.496092,0.175386 -0.357037,0.04635 -0.746645,0.125276 -0.746645,0.566247 0,0.375828 0.29064,0.591303 0.656446,0.591303 z m 0.0451,-0.265585 c -0.235518,0 -0.405894,-0.105232 -0.405894,-0.310685 0,-0.225496 0.205453,-0.295651 0.43596,-0.325717 0.125276,-0.01503 0.461016,-0.05011 0.511126,-0.110243 v 0.270596 c 0,0.24053 -0.190419,0.476049 -0.541192,0.476049 z"
         style="stroke-width:0.264583"
         id="path20620" />
      <path
         d="m 13.269416,20.746145 h 0.295651 v -1.017241 h 0.02506 c 0.06514,0.105232 0.190419,0.33574 0.561236,0.33574 0.481059,0 0.816799,-0.38585 0.816799,-0.997197 0,-0.606335 -0.33574,-0.992185 -0.82181,-0.992185 -0.375828,0 -0.491082,0.230508 -0.556225,0.330728 h -0.03508 v -0.305673 h -0.285629 z m 0.29064,-1.683709 c 0,-0.430949 0.19042,-0.721589 0.551215,-0.721589 0.375827,0 0.561236,0.315695 0.561236,0.721589 0,0.410905 -0.19042,0.736623 -0.561236,0.736623 -0.355784,0 -0.551215,-0.300663 -0.551215,-0.736623 z"
         style="stroke-width:0.264583"
         id="path20622" />
      <path
         d="m 15.985392,20.069655 c 0.335739,0 0.511126,-0.180398 0.571258,-0.305674 h 0.01503 v 0.260574 h 0.295651 v -1.267792 c 0,-0.611347 -0.466026,-0.681501 -0.711567,-0.681501 -0.29064,0 -0.621369,0.100221 -0.7717,0.450993 l 0.280618,0.100221 c 0.06514,-0.140309 0.219233,-0.29064 0.501104,-0.29064 0.271849,0 0.405894,0.144067 0.405894,0.390861 v 0.01002 c 0,0.142814 -0.14532,0.130287 -0.496093,0.175386 -0.357036,0.04635 -0.746644,0.125276 -0.746644,0.566247 0,0.375828 0.29064,0.591303 0.656446,0.591303 z m 0.0451,-0.265585 c -0.235519,0 -0.405894,-0.105232 -0.405894,-0.310685 0,-0.225496 0.205453,-0.295651 0.43596,-0.325717 0.125276,-0.01503 0.461016,-0.05011 0.511126,-0.110243 v 0.270596 c 0,0.24053 -0.190419,0.476049 -0.541192,0.476049 z"
         style="stroke-width:0.264583"
         id="path20624" />
      <path
         d="m 18.190243,20.064644 c 0.425938,0 0.706556,-0.260574 0.756667,-0.601325 h -0.295652 c -0.05512,0.210464 -0.230507,0.33574 -0.461015,0.33574 -0.350773,0 -0.576269,-0.290641 -0.576269,-0.736623 0,-0.43596 0.230507,-0.721589 0.576269,-0.721589 0.260574,0 0.415916,0.160353 0.461015,0.335739 h 0.295652 c -0.05011,-0.360794 -0.355784,-0.601324 -0.761678,-0.601324 -0.521148,0 -0.86691,0.410905 -0.86691,0.997196 0,0.576269 0.330729,0.992186 0.871921,0.992186 z"
         style="stroke-width:0.264583"
         id="path20626" />
      <path
         d="M 20.214696,18.100317 H 19.803791 V 17.639302 H 19.50814 v 0.461015 H 19.2175 v 0.250552 h 0.29064 v 1.202649 c 0,0.335739 0.270596,0.496092 0.521148,0.496092 0.110243,0 0.180397,-0.02004 0.220485,-0.03508 l -0.06013,-0.265585 c -0.02506,0.005 -0.06514,0.01503 -0.130287,0.01503 -0.130287,0 -0.255563,-0.04009 -0.255563,-0.29064 v -1.122472 h 0.410905 z"
         style="stroke-width:0.264583"
         id="path20628" />
      <path
         d="m 20.660677,20.024555 h 0.295652 v -1.924238 h -0.295652 z m 0.150332,-2.244944 c 0.115253,0 0.210463,-0.0902 0.210463,-0.200442 0,-0.110243 -0.09521,-0.200441 -0.210463,-0.200441 -0.115254,0 -0.210464,0.0902 -0.210464,0.200441 0,0.110243 0.09521,0.200442 0.210464,0.200442 z"
         style="stroke-width:0.264583"
         id="path20630" />
      <path
         d="m 23.070984,18.100317 h -0.320707 l -0.53117,1.533377 h -0.02004 l -0.53117,-1.533377 h -0.320706 l 0.711567,1.924238 h 0.300662 z"
         style="stroke-width:0.264583"
         id="path20632" />
      <path
         d="m 24.198461,20.064644 c 0.390861,0 0.67649,-0.195431 0.766689,-0.486071 l -0.285629,-0.08018 c -0.07517,0.200442 -0.2493,0.300663 -0.48106,0.300663 -0.347014,0 -0.586291,-0.224244 -0.600072,-0.636402 h 1.396827 v -0.125276 c 0,-0.716578 -0.425938,-0.962119 -0.826821,-0.962119 -0.521148,0 -0.86691,0.410905 -0.86691,1.002207 0,0.591303 0.340751,0.987175 0.896976,0.987175 z m -0.600072,-1.15755 c 0.02004,-0.29941 0.231761,-0.566247 0.570006,-0.566247 0.320706,0 0.526159,0.24053 0.526159,0.566247 z"
         style="stroke-width:0.264583"
         id="path20634" />
      <path
         d="m 26.338166,17.734511 h 0.806777 v 2.290044 h 0.310684 v -2.290044 h 0.806777 v -0.275607 h -1.924238 z"
         style="stroke-width:0.264583"
         id="path20636" />
      <path
         d="m 29.204472,20.064644 c 0.521148,0 0.87192,-0.395872 0.87192,-0.992186 0,-0.601324 -0.350772,-0.997196 -0.87192,-0.997196 -0.521148,0 -0.871921,0.395872 -0.871921,0.997196 0,0.596314 0.350773,0.992186 0.871921,0.992186 z m 0,-0.265585 c -0.395872,0 -0.57627,-0.340751 -0.57627,-0.726601 0,-0.38585 0.180398,-0.731611 0.57627,-0.731611 0.395872,0 0.576269,0.345761 0.576269,0.731611 0,0.38585 -0.180397,0.726601 -0.576269,0.726601 z"
         style="stroke-width:0.264583"
         id="path20638" />
      <path
         d="m 31.740054,19.237822 c 0,0.360795 -0.275607,0.526159 -0.496092,0.526159 -0.245541,0 -0.420928,-0.180397 -0.420928,-0.461015 v -1.202649 h -0.295651 v 1.222693 c 0,0.491082 0.260574,0.7266 0.621369,0.7266 0.29064,0 0.481059,-0.155342 0.571258,-0.350772 h 0.02004 v 0.325717 h 0.295651 v -1.924238 h -0.295651 z"
         style="stroke-width:0.264583"
         id="path20640" />
      <path
         d="m 33.358616,20.064644 c 0.425938,0 0.706556,-0.260574 0.756667,-0.601325 h -0.295652 c -0.05512,0.210464 -0.230507,0.33574 -0.461015,0.33574 -0.350773,0 -0.576269,-0.290641 -0.576269,-0.736623 0,-0.43596 0.230507,-0.721589 0.576269,-0.721589 0.260574,0 0.415916,0.160353 0.461015,0.335739 h 0.295652 c -0.05011,-0.360794 -0.355784,-0.601324 -0.761678,-0.601324 -0.521148,0 -0.866909,0.410905 -0.866909,0.997196 0,0.576269 0.330728,0.992186 0.87192,0.992186 z"
         style="stroke-width:0.264583"
         id="path20642" />
      <path
         d="m 34.841877,18.867006 c 0,-0.33574 0.214222,-0.526159 0.506115,-0.526159 0.278112,0 0.445982,0.175386 0.445982,0.481059 v 1.202649 h 0.295651 v -1.222693 c 0,-0.49484 -0.263079,-0.7266 -0.656445,-0.7266 -0.303168,0 -0.476049,0.126529 -0.566248,0.325717 h -0.02506 v -0.942075 h -0.295651 v 2.565651 h 0.295651 z"
         style="stroke-width:0.264583"
         id="path20644" />
      <path
         d="m 39.06617,18.100317 h 0.300662 c -0.01378,-0.387103 -0.370817,-0.67649 -0.866909,-0.67649 -0.491082,0 -0.876932,0.285629 -0.876932,0.716578 0,0.345762 0.250552,0.551214 0.651435,0.666468 l 0.315695,0.0902 c 0.270596,0.07516 0.511126,0.170375 0.511126,0.425938 0,0.280618 -0.270596,0.466026 -0.62638,0.466026 -0.305673,0 -0.576269,-0.135298 -0.601324,-0.425938 h -0.320706 c 0.03007,0.420927 0.370816,0.706557 0.92203,0.706557 0.591303,0 0.927042,-0.325718 0.927042,-0.741634 0,-0.481059 -0.456004,-0.636402 -0.721589,-0.706556 l -0.260574,-0.07015 c -0.190419,-0.05011 -0.496093,-0.150331 -0.496093,-0.425938 0,-0.245541 0.225497,-0.425938 0.566247,-0.425938 0.310685,0 0.546203,0.147826 0.57627,0.400883 z"
         style="stroke-width:0.264583"
         id="path20646" />
      <path
         d="m 40.67972,20.064644 c 0.390861,0 0.67649,-0.195431 0.766689,-0.486071 l -0.285629,-0.08018 c -0.07517,0.200442 -0.249299,0.300663 -0.48106,0.300663 -0.347014,0 -0.586291,-0.224244 -0.600071,-0.636402 h 1.396826 v -0.125276 c 0,-0.716578 -0.425938,-0.962119 -0.826821,-0.962119 -0.521148,0 -0.866909,0.410905 -0.866909,1.002207 0,0.591303 0.34075,0.987175 0.896975,0.987175 z m -0.600071,-1.15755 c 0.02004,-0.29941 0.23176,-0.566247 0.570005,-0.566247 0.320706,0 0.526159,0.24053 0.526159,0.566247 z"
         style="stroke-width:0.264583"
         id="path20648" />
      <path
         d="m 42.22312,18.867006 c 0,-0.33574 0.207958,-0.526159 0.491082,-0.526159 0.274354,0 0.440971,0.179144 0.440971,0.481059 v 1.202649 h 0.295651 v -1.222693 c 0,-0.491081 -0.261827,-0.7266 -0.651435,-0.7266 -0.29064,0 -0.471037,0.130287 -0.561236,0.325717 h -0.02505 v -0.300662 h -0.285629 v 1.924238 h 0.295651 z"
         style="stroke-width:0.264583"
         id="path20650" />
      <path
         d="m 45.355012,18.531266 c -0.09271,-0.273101 -0.300663,-0.456004 -0.681501,-0.456004 -0.405894,0 -0.706557,0.230508 -0.706557,0.556225 0,0.265585 0.157848,0.443477 0.511126,0.526159 l 0.320707,0.07517 c 0.194177,0.0451 0.285629,0.137804 0.285629,0.270596 0,0.165365 -0.175387,0.300663 -0.450994,0.300663 -0.241782,0 -0.393366,-0.103979 -0.445982,-0.310685 l -0.280618,0.07015 c 0.0689,0.32697 0.338245,0.501104 0.731611,0.501104 0.447235,0 0.751656,-0.244289 0.751656,-0.57627 0,-0.26809 -0.16787,-0.437213 -0.511126,-0.521148 l -0.285629,-0.07015 c -0.228002,-0.05637 -0.330728,-0.132793 -0.330728,-0.280618 0,-0.165364 0.175386,-0.285629 0.410905,-0.285629 0.258068,0 0.364553,0.142814 0.415916,0.275607 z"
         style="stroke-width:0.264583"
         id="path20652" />
      <path
         d="m 46.61779,20.064644 c 0.521148,0 0.871921,-0.395872 0.871921,-0.992186 0,-0.601324 -0.350773,-0.997196 -0.871921,-0.997196 -0.521147,0 -0.87192,0.395872 -0.87192,0.997196 0,0.596314 0.350773,0.992186 0.87192,0.992186 z m 0,-0.265585 c -0.395872,0 -0.576269,-0.340751 -0.576269,-0.726601 0,-0.38585 0.180397,-0.731611 0.576269,-0.731611 0.395872,0 0.57627,0.345761 0.57627,0.731611 0,0.38585 -0.180398,0.726601 -0.57627,0.726601 z"
         style="stroke-width:0.264583"
         id="path20654" />
      <path
         d="m 47.940702,20.024555 h 0.295651 v -1.217682 c 0,-0.259321 0.205453,-0.450993 0.486071,-0.450993 0.07391,0 0.129034,0.01378 0.170375,0.03508 l 0.100221,-0.250552 c -0.06013,-0.04259 -0.139057,-0.07015 -0.245541,-0.07015 -0.233013,0 -0.432202,0.130287 -0.501104,0.320706 h -0.02004 v -0.29064 h -0.285629 z"
         style="stroke-width:0.264583"
         id="path20656" />
    </g>
    <path
       style="fill:none;stroke:#ff0000;stroke-width:0.265;stroke-linecap:butt;stroke-linejoin:miter;stroke-miterlimit:4;stroke-dasharray:none;stroke-opacity:1"
       d="m 49.246099,19.945827 0.645567,0 v 40"
       id="path200"
       sodipodi:nodetypes="ccc" />
    <g
       aria-label="USB Port"
       id="text130-3-5-6-3"
       style="font-size:3.52777px;line-height:1.25;font-family:Inter;-inkscape-font-specification:Inter;stroke-width:0.264583">
      <path
         d="m 83.308472,97.445717 v 1.698741 c 0,0.400883 -0.320706,0.621369 -0.686512,0.621369 -0.365806,0 -0.686512,-0.220486 -0.686512,-0.621369 v -1.698741 h -0.310684 v 1.698741 c 0,0.57627 0.456004,0.912012 0.997196,0.912012 0.541192,0 0.997196,-0.335742 0.997196,-0.912012 v -1.698741 z"
         style="stroke-width:0.264583"
         id="path20720" />
      <path
         d="m 85.643611,98.08713 h 0.300662 c -0.01378,-0.387103 -0.370817,-0.67649 -0.866909,-0.67649 -0.491082,0 -0.876932,0.285629 -0.876932,0.716578 0,0.345761 0.250552,0.551214 0.651435,0.666468 l 0.315695,0.0902 c 0.270596,0.07517 0.511126,0.170376 0.511126,0.425939 0,0.280618 -0.270596,0.466026 -0.626379,0.466026 -0.305674,0 -0.57627,-0.135298 -0.601325,-0.425938 h -0.320706 c 0.03007,0.420927 0.370816,0.706559 0.922031,0.706559 0.591302,0 0.927041,-0.32572 0.927041,-0.741636 0,-0.48106 -0.456004,-0.636402 -0.721589,-0.706557 l -0.260574,-0.07015 c -0.190419,-0.05011 -0.496093,-0.150331 -0.496093,-0.425938 0,-0.245541 0.225497,-0.425938 0.566248,-0.425938 0.310684,0 0.546203,0.147825 0.576269,0.400883 z"
         style="stroke-width:0.264583"
         id="path20722" />
      <path
         d="m 86.490472,100.01137 h 0.927042 c 0.606336,0 0.856888,-0.295653 0.856888,-0.681503 0,-0.405894 -0.280618,-0.62638 -0.516137,-0.641413 v -0.02505 c 0.220485,-0.06013 0.415916,-0.205453 0.415916,-0.536181 0,-0.375828 -0.250552,-0.681501 -0.786733,-0.681501 h -0.896976 z m 0.310685,-0.275609 v -0.891965 h 0.63139 c 0.33574,0 0.546203,0.225497 0.546203,0.486071 0,0.225496 -0.155342,0.405894 -0.561236,0.405894 z m 0,-1.162561 v -0.851876 h 0.586291 c 0.340751,0 0.491082,0.180397 0.491082,0.405894 0,0.270596 -0.220486,0.445982 -0.501104,0.445982 z"
         style="stroke-width:0.264583"
         id="path20724" />
      <path
         d="m 89.777705,100.01137 h 0.310685 v -0.937066 h 0.561236 c 0.597566,0 0.866909,-0.3633 0.866909,-0.816799 0,-0.453499 -0.269343,-0.811788 -0.87192,-0.811788 h -0.86691 z m 0.310685,-1.212673 v -1.077373 h 0.546203 c 0.417168,0 0.576269,0.228002 0.576269,0.536181 0,0.308179 -0.159101,0.541192 -0.571258,0.541192 z"
         style="stroke-width:0.264583"
         id="path20726" />
      <path
         d="m 92.739227,100.05146 c 0.521148,0 0.871921,-0.395876 0.871921,-0.992189 0,-0.601325 -0.350773,-0.997197 -0.871921,-0.997197 -0.521147,0 -0.87192,0.395872 -0.87192,0.997197 0,0.596313 0.350773,0.992189 0.87192,0.992189 z m 0,-0.265589 c -0.395871,0 -0.576269,-0.34075 -0.576269,-0.7266 0,-0.38585 0.180398,-0.731612 0.576269,-0.731612 0.395872,0 0.57627,0.345762 0.57627,0.731612 0,0.38585 -0.180398,0.7266 -0.57627,0.7266 z"
         style="stroke-width:0.264583"
         id="path20728" />
      <path
         d="m 94.062138,100.01137 h 0.295651 v -1.217684 c 0,-0.260574 0.205453,-0.450994 0.486071,-0.450994 0.07892,0 0.160353,0.01503 0.180397,0.02004 v -0.300663 c -0.03382,-0.0025 -0.111495,-0.005 -0.155342,-0.005 -0.230508,0 -0.430949,0.130287 -0.501104,0.320707 h -0.02004 v -0.29064 h -0.285629 z"
         style="stroke-width:0.264583"
         id="path20730" />
      <path
         d="m 96.332131,98.08713 h -0.410905 v -0.461016 h -0.295652 v 0.461016 h -0.29064 v 0.250551 h 0.29064 v 1.202649 c 0,0.33574 0.270596,0.49609 0.521148,0.49609 0.110243,0 0.180398,-0.02 0.220486,-0.0351 l -0.06013,-0.265589 c -0.02505,0.005 -0.06514,0.01503 -0.130287,0.01503 -0.130287,0 -0.255562,-0.04009 -0.255562,-0.29064 v -1.122473 h 0.410905 z"
         style="stroke-width:0.264583"
         id="path20732" />
    </g>
    <path
       style="fill:none;stroke:#ff0000;stroke-width:0.264999;stroke-linecap:butt;stroke-linejoin:miter;stroke-miterlimit:4;stroke-dasharray:none;stroke-opacity:1"
       d="m 80.673545,99.988457 h -0.64557 V 75.334153"
       id="path200-7"
       sodipodi:nodetypes="ccc" />
    <g
       aria-label="ATmega32U2"
       id="text130-3-5-6-3-5"
       style="font-size:3.52777px;line-height:1.25;font-family:Inter;-inkscape-font-specification:Inter;stroke-width:0.264583">
      <path
         d="m 91.807144,90.155533 0.258068,-0.726601 h 1.037285 l 0.258068,0.726601 h 0.325718 l -0.942075,-2.565651 h -0.320707 l -0.942075,2.565651 z m 0.355783,-1.002208 0.410905,-1.157549 h 0.02005 l 0.410905,1.157549 z"
         style="stroke-width:0.264583"
         id="path20699" />
      <path
         d="m 93.646191,87.865489 h 0.806777 v 2.290044 h 0.310684 v -2.290044 h 0.806777 v -0.275607 h -1.924238 z"
         style="stroke-width:0.264583"
         id="path20701" />
      <path
         d="m 95.810948,90.155533 h 0.295651 v -1.202649 c 0,-0.281871 0.205453,-0.48106 0.43596,-0.48106 0.224244,0 0.380839,0.146573 0.380839,0.365806 v 1.317903 h 0.300662 v -1.252759 c 0,-0.248047 0.155342,-0.43095 0.425938,-0.43095 0.210464,0 0.390861,0.111496 0.390861,0.395872 v 1.287837 h 0.295652 v -1.287837 c 0,-0.452246 -0.243036,-0.661457 -0.586292,-0.661457 -0.275607,0 -0.477301,0.126529 -0.576269,0.325718 h -0.02004 c -0.09521,-0.205453 -0.26308,-0.325718 -0.516137,-0.325718 -0.250552,0 -0.43596,0.120265 -0.516137,0.325718 h -0.02506 v -0.300662 h -0.285629 z"
         style="stroke-width:0.264583"
         id="path20703" />
      <path
         d="m 99.684479,90.195621 c 0.390861,0 0.676491,-0.19543 0.766691,-0.48607 l -0.28563,-0.08018 c -0.0752,0.200441 -0.2493,0.300662 -0.481061,0.300662 -0.347014,0 -0.586291,-0.224244 -0.600072,-0.636402 h 1.396823 v -0.125275 c 0,-0.716579 -0.42593,-0.96212 -0.826817,-0.96212 -0.521148,0 -0.866909,0.410905 -0.866909,1.002208 0,0.591302 0.34075,0.987174 0.896975,0.987174 z m -0.600072,-1.157549 c 0.02004,-0.29941 0.231761,-0.566248 0.570006,-0.566248 0.320706,0 0.526157,0.24053 0.526157,0.566248 z"
         style="stroke-width:0.264583"
         id="path20705" />
      <path
         d="m 101.70894,90.91721 c 0.46101,0 0.83183,-0.210463 0.83183,-0.706556 v -1.979359 h -0.28563 v 0.305673 h -0.0301 c -0.0651,-0.100221 -0.18541,-0.330729 -0.56123,-0.330729 -0.48607,0 -0.82181,0.38585 -0.82181,0.977153 0,0.601324 0.35077,0.942075 0.8168,0.942075 0.37582,0 0.49609,-0.220486 0.56123,-0.325718 h 0.0251 v 0.390861 c 0,0.320706 -0.2255,0.466027 -0.53618,0.466027 -0.34952,0 -0.47229,-0.184156 -0.55122,-0.290641 l -0.23552,0.165365 c 0.12027,0.201694 0.35704,0.385849 0.78674,0.385849 z m -0.01,-1.057328 c -0.37081,0 -0.56123,-0.280618 -0.56123,-0.681501 0,-0.390861 0.18541,-0.706557 0.56123,-0.706557 0.3608,0 0.55122,0.290641 0.55122,0.706557 0,0.425938 -0.19543,0.681501 -0.55122,0.681501 z"
         style="stroke-width:0.264583"
         id="path20707" />
      <path
         d="m 103.6482,90.200632 c 0.33574,0 0.51113,-0.180397 0.57126,-0.305673 h 0.015 v 0.260574 h 0.29565 V 88.88774 c 0,-0.611346 -0.46602,-0.681501 -0.71156,-0.681501 -0.29064,0 -0.62137,0.100221 -0.7717,0.450994 l 0.28061,0.100221 c 0.0652,-0.14031 0.21924,-0.290641 0.50111,-0.290641 0.27185,0 0.40589,0.144068 0.40589,0.390861 v 0.01002 c 0,0.142815 -0.14532,0.130287 -0.49609,0.175387 -0.35704,0.04635 -0.74665,0.125276 -0.74665,0.566247 0,0.375828 0.29064,0.591302 0.65645,0.591302 z m 0.0451,-0.265585 c -0.23552,0 -0.40589,-0.105232 -0.40589,-0.310684 0,-0.225497 0.20545,-0.295651 0.43596,-0.325717 0.12527,-0.01503 0.46101,-0.05011 0.51112,-0.110243 v 0.270596 c 0,0.240529 -0.19042,0.476048 -0.54119,0.476048 z"
         style="stroke-width:0.264583"
         id="path20709" />
      <path
         d="m 105.93323,90.19061 c 0.49734,0 0.86691,-0.311937 0.86691,-0.731611 0,-0.325718 -0.19293,-0.562489 -0.51614,-0.616358 v -0.02004 c 0.25932,-0.07892 0.42093,-0.291893 0.42093,-0.58128 0,-0.3633 -0.28688,-0.686512 -0.76168,-0.686512 -0.44348,0 -0.81179,0.273101 -0.82682,0.67649 h 0.30066 c 0.0113,-0.255563 0.25431,-0.405894 0.52115,-0.405894 0.28312,0 0.46603,0.171628 0.46603,0.430949 0,0.270596 -0.21172,0.445982 -0.51614,0.445982 h -0.20545 v 0.275607 h 0.20545 c 0.38961,0 0.60634,0.197936 0.60634,0.48106 0,0.271848 -0.23678,0.456004 -0.56625,0.456004 -0.29691,0 -0.53242,-0.152837 -0.55122,-0.400883 h -0.31569 c 0.0188,0.403389 0.37457,0.67649 0.87192,0.67649 z"
         style="stroke-width:0.264583"
         id="path20711" />
      <path
         d="m 107.31126,90.155533 h 1.61856 v -0.275607 h -1.19262 v -0.02004 l 0.57627,-0.616358 c 0.44097,-0.47229 0.57125,-0.692776 0.57125,-0.977152 0,-0.395872 -0.3207,-0.711567 -0.7717,-0.711567 -0.44974,0 -0.79174,0.305673 -0.79174,0.756666 h 0.29565 c 0,-0.291893 0.18917,-0.48607 0.48607,-0.48607 0.27811,0 0.49108,0.170375 0.49108,0.440971 0,0.236771 -0.13905,0.412158 -0.43596,0.736622 l -0.84686,0.927042 z"
         style="stroke-width:0.264583"
         id="path20713" />
      <path
         d="m 111.17476,87.589882 v 1.698741 c 0,0.400883 -0.3207,0.621369 -0.68651,0.621369 -0.3658,0 -0.68651,-0.220486 -0.68651,-0.621369 v -1.698741 h -0.31069 v 1.698741 c 0,0.57627 0.45601,0.912009 0.9972,0.912009 0.54119,0 0.9972,-0.335739 0.9972,-0.912009 v -1.698741 z"
         style="stroke-width:0.264583"
         id="path20715" />
      <path
         d="m 112.06171,90.155533 h 1.61857 v -0.275607 h -1.19263 v -0.02004 l 0.57627,-0.616358 c 0.44097,-0.47229 0.57126,-0.692776 0.57126,-0.977152 0,-0.395872 -0.32071,-0.711567 -0.7717,-0.711567 -0.44974,0 -0.79175,0.305673 -0.79175,0.756666 h 0.29566 c 0,-0.291893 0.18916,-0.48607 0.48607,-0.48607 0.27811,0 0.49108,0.170375 0.49108,0.440971 0,0.236771 -0.13906,0.412158 -0.43596,0.736622 l -0.84687,0.927042 z"
         style="stroke-width:0.264583"
         id="path20717" />
    </g>
    <path
       style="fill:none;stroke:#ff0000;stroke-width:0.264999;stroke-linecap:butt;stroke-linejoin:miter;stroke-miterlimit:4;stroke-dasharray:none;stroke-opacity:1"
       d="m 90.656194,90.000094 h -0.64557 V 65.478315"
       id="path200-7-5"
       sodipodi:nodetypes="ccc" />
    <g
       aria-label="Flashing Switch"
       id="text130-3-5-6-3-5-6"
       style="font-size:3.52777px;line-height:1.25;font-family:Inter;-inkscape-font-specification:Inter;stroke-width:0.264583">
      <path
         d="m 111.64416,80.070412 h 0.31068 v -1.147528 h 1.11245 v -0.275607 h -1.11245 v -0.866909 h 1.22771 v -0.275607 h -1.53839 z"
         style="stroke-width:0.264583"
         id="path20670" />
      <path
         d="m 113.96928,77.504761 h -0.29566 v 2.565651 h 0.29566 z"
         style="stroke-width:0.264583"
         id="path20672" />
      <path
         d="m 115.07671,80.115511 c 0.33574,0 0.51113,-0.180397 0.57126,-0.305673 h 0.015 v 0.260574 h 0.29565 v -1.267793 c 0,-0.611346 -0.46602,-0.681501 -0.71156,-0.681501 -0.29064,0 -0.62137,0.100221 -0.7717,0.450994 l 0.28062,0.10022 c 0.0651,-0.140309 0.21923,-0.29064 0.5011,-0.29064 0.27185,0 0.40589,0.144068 0.40589,0.390861 v 0.01002 c 0,0.142815 -0.14532,0.130287 -0.49609,0.175386 -0.35704,0.04635 -0.74664,0.125276 -0.74664,0.566248 0,0.375827 0.29064,0.591302 0.65644,0.591302 z m 0.0451,-0.265585 c -0.23552,0 -0.40589,-0.105232 -0.40589,-0.310684 0,-0.225497 0.20545,-0.295651 0.43596,-0.325718 0.12527,-0.01503 0.46101,-0.05011 0.51112,-0.110242 v 0.270596 c 0,0.240529 -0.19042,0.476048 -0.54119,0.476048 z"
         style="stroke-width:0.264583"
         id="path20674" />
      <path
         d="m 117.86284,78.577123 c -0.0927,-0.273102 -0.30066,-0.456005 -0.6815,-0.456005 -0.40589,0 -0.70655,0.230508 -0.70655,0.556225 0,0.265585 0.15784,0.443477 0.51112,0.526159 l 0.32071,0.07517 c 0.19418,0.0451 0.28563,0.137803 0.28563,0.270596 0,0.165364 -0.17539,0.300662 -0.451,0.300662 -0.24178,0 -0.39336,-0.103979 -0.44598,-0.310684 l -0.28062,0.07015 c 0.0689,0.32697 0.33825,0.501104 0.73162,0.501104 0.44723,0 0.75165,-0.244288 0.75165,-0.576269 0,-0.268091 -0.16787,-0.437213 -0.51112,-0.521148 l -0.28563,-0.07015 c -0.22801,-0.05637 -0.33073,-0.132792 -0.33073,-0.280618 0,-0.165364 0.17538,-0.285629 0.4109,-0.285629 0.25807,0 0.36456,0.142815 0.41592,0.275607 z"
         style="stroke-width:0.264583"
         id="path20676" />
      <path
         d="m 118.63955,78.912862 c 0,-0.335739 0.21422,-0.526159 0.50612,-0.526159 0.27811,0 0.44598,0.175387 0.44598,0.48106 v 1.202649 h 0.29565 v -1.222693 c 0,-0.49484 -0.26308,-0.726601 -0.65645,-0.726601 -0.30316,0 -0.47605,0.126529 -0.56624,0.325718 h -0.0251 v -0.942075 h -0.29565 v 2.565651 h 0.29565 z"
         style="stroke-width:0.264583"
         id="path20678" />
      <path
         d="m 120.42849,80.070412 h 0.29565 v -1.924239 h -0.29565 z m 0.15033,-2.244945 c 0.11525,0 0.21046,-0.0902 0.21046,-0.200441 0,-0.110243 -0.0952,-0.200442 -0.21046,-0.200442 -0.11526,0 -0.21047,0.0902 -0.21047,0.200442 0,0.110242 0.0952,0.200441 0.21047,0.200441 z"
         style="stroke-width:0.264583"
         id="path20680" />
      <path
         d="m 121.56098,78.912862 c 0,-0.335739 0.20796,-0.526159 0.49108,-0.526159 0.27435,0 0.44097,0.179145 0.44097,0.48106 v 1.202649 h 0.29565 v -1.222693 c 0,-0.491082 -0.26182,-0.726601 -0.65143,-0.726601 -0.29064,0 -0.47104,0.130287 -0.56124,0.325718 h -0.025 v -0.300663 h -0.28563 v 1.924239 h 0.29565 z"
         style="stroke-width:0.264583"
         id="path20682" />
      <path
         d="m 124.10658,80.832089 c 0.46102,0 0.83183,-0.210463 0.83183,-0.706556 v -1.97936 h -0.28563 v 0.305674 h -0.0301 c -0.0652,-0.100221 -0.18541,-0.330729 -0.56124,-0.330729 -0.48607,0 -0.82181,0.38585 -0.82181,0.977153 0,0.601324 0.35077,0.942074 0.8168,0.942074 0.37583,0 0.49609,-0.220485 0.56124,-0.325717 h 0.025 v 0.390861 c 0,0.320706 -0.2255,0.466026 -0.53618,0.466026 -0.34952,0 -0.47229,-0.184155 -0.55121,-0.29064 l -0.23552,0.165364 c 0.12026,0.201695 0.35703,0.38585 0.78673,0.38585 z m -0.01,-1.057329 c -0.37082,0 -0.56124,-0.280618 -0.56124,-0.681501 0,-0.39086 0.18541,-0.706556 0.56124,-0.706556 0.36079,0 0.55121,0.29064 0.55121,0.706556 0,0.425939 -0.19543,0.681501 -0.55121,0.681501 z"
         style="stroke-width:0.264583"
         id="path20684" />
      <path
         d="m 127.91496,78.146173 h 0.30066 c -0.0138,-0.387102 -0.37082,-0.67649 -0.86691,-0.67649 -0.49108,0 -0.87693,0.28563 -0.87693,0.716579 0,0.345761 0.25055,0.551214 0.65143,0.666468 l 0.3157,0.0902 c 0.27059,0.07517 0.51112,0.170376 0.51112,0.425939 0,0.280618 -0.27059,0.466026 -0.62638,0.466026 -0.30567,0 -0.57627,-0.135298 -0.60132,-0.425938 h -0.32071 c 0.0301,0.420927 0.37082,0.706556 0.92203,0.706556 0.59131,0 0.92704,-0.325717 0.92704,-0.741633 0,-0.48106 -0.456,-0.636402 -0.72158,-0.706557 l -0.26058,-0.07015 c -0.19042,-0.05011 -0.49609,-0.150331 -0.49609,-0.425938 0,-0.245541 0.2255,-0.425938 0.56625,-0.425938 0.31068,0 0.5462,0.147825 0.57627,0.400882 z"
         style="stroke-width:0.264583"
         id="path20686" />
      <path
         d="m 129.15769,80.070412 h 0.29064 l 0.42093,-1.478256 h 0.0301 l 0.42093,1.478256 h 0.29064 l 0.58629,-1.924239 h -0.31068 l -0.41592,1.468234 h -0.02 l -0.4059,-1.468234 h -0.31569 l -0.41091,1.473245 h -0.02 l -0.41592,-1.473245 h -0.31068 z"
         style="stroke-width:0.264583"
         id="path20688" />
      <path
         d="m 131.58804,80.070412 h 0.29565 v -1.924239 h -0.29565 z m 0.15033,-2.244945 c 0.11525,0 0.21046,-0.0902 0.21046,-0.200441 0,-0.110243 -0.0952,-0.200442 -0.21046,-0.200442 -0.11526,0 -0.21047,0.0902 -0.21047,0.200442 0,0.110242 0.0952,0.200441 0.21047,0.200441 z"
         style="stroke-width:0.264583"
         id="path20690" />
      <path
         d="m 133.26172,78.146173 h -0.41091 v -0.461015 h -0.29565 v 0.461015 h -0.29064 v 0.250552 h 0.29064 v 1.202649 c 0,0.33574 0.2706,0.496093 0.52115,0.496093 0.11024,0 0.1804,-0.02004 0.22049,-0.03508 l -0.0601,-0.265585 c -0.025,0.005 -0.0651,0.01503 -0.13028,0.01503 -0.13029,0 -0.25557,-0.04009 -0.25557,-0.29064 v -1.122473 h 0.41091 z"
         style="stroke-width:0.264583"
         id="path20692" />
      <path
         d="m 134.46938,80.1105 c 0.42593,0 0.70655,-0.260574 0.75666,-0.601324 h -0.29565 c -0.0551,0.210463 -0.23051,0.335739 -0.46101,0.335739 -0.35078,0 -0.57627,-0.29064 -0.57627,-0.736622 0,-0.435961 0.23051,-0.72159 0.57627,-0.72159 0.26057,0 0.41591,0.160353 0.46101,0.33574 h 0.29565 c -0.0501,-0.360795 -0.35578,-0.601325 -0.76167,-0.601325 -0.52115,0 -0.86691,0.410905 -0.86691,0.997197 0,0.576269 0.33072,0.992185 0.87192,0.992185 z"
         style="stroke-width:0.264583"
         id="path20694" />
      <path
         d="m 135.95264,78.912862 c 0,-0.335739 0.21422,-0.526159 0.50611,-0.526159 0.27812,0 0.44598,0.175387 0.44598,0.48106 v 1.202649 h 0.29566 v -1.222693 c 0,-0.49484 -0.26308,-0.726601 -0.65645,-0.726601 -0.30317,0 -0.47605,0.126529 -0.56625,0.325718 h -0.025 v -0.942075 h -0.29565 v 2.565651 h 0.29565 z"
         style="stroke-width:0.264583"
         id="path20696" />
    </g>
    <path
       style="fill:none;stroke:#ff0000;stroke-width:0.264999;stroke-linecap:butt;stroke-linejoin:miter;stroke-miterlimit:4;stroke-dasharray:none;stroke-opacity:1"
       d="m 110.69293,80.040599 h -0.64557 l 0,-14.441106"
       id="path200-7-5-9"
       sodipodi:nodetypes="ccc" />
    <g
       aria-label="Reset"
       id="text130-3-5-6-3-5-6-3"
       style="font-size:3.52777px;line-height:1.25;font-family:Inter;-inkscape-font-specification:Inter;stroke-width:0.264583">
      <path
         d="m 111.76878,19.997463 h 0.31069 v -1.002207 h 0.56123 c 0.0226,0 0.0439,0 0.0652,-0.0013 l 0.54119,1.00346 h 0.36079 l -0.58002,-1.059834 c 0.32697,-0.111496 0.4798,-0.378333 0.4798,-0.719084 0,-0.453499 -0.27059,-0.786733 -0.87192,-0.786733 h -0.86691 z m 0.31069,-1.282825 v -1.007219 h 0.5462 c 0.41592,0 0.57627,0.202947 0.57627,0.511126 0,0.308179 -0.16035,0.496093 -0.57126,0.496093 z"
         style="stroke-width:0.264583"
         id="path20659" />
      <path
         d="m 114.77039,20.037552 c 0.39086,0 0.67649,-0.195431 0.76669,-0.486071 l -0.28563,-0.08018 c -0.0752,0.200442 -0.2493,0.300663 -0.48106,0.300663 -0.34701,0 -0.58629,-0.224244 -0.60007,-0.636402 h 1.39683 v -0.125276 c 0,-0.716578 -0.42594,-0.962119 -0.82682,-0.962119 -0.52115,0 -0.86691,0.410905 -0.86691,1.002207 0,0.591303 0.34075,0.987175 0.89697,0.987175 z m -0.60007,-1.15755 c 0.02,-0.299409 0.23176,-0.566247 0.57001,-0.566247 0.3207,0 0.52616,0.24053 0.52616,0.566247 z"
         style="stroke-width:0.264583"
         id="path20661" />
      <path
         d="m 117.38114,18.504174 c -0.0927,-0.273101 -0.30066,-0.456004 -0.6815,-0.456004 -0.40589,0 -0.70656,0.230508 -0.70656,0.556225 0,0.265585 0.15785,0.443477 0.51113,0.526159 l 0.32071,0.07516 c 0.19417,0.0451 0.28563,0.137804 0.28563,0.270596 0,0.165365 -0.17539,0.300663 -0.451,0.300663 -0.24178,0 -0.39336,-0.103979 -0.44598,-0.310685 l -0.28062,0.07015 c 0.0689,0.32697 0.33825,0.501104 0.73161,0.501104 0.44724,0 0.75166,-0.244289 0.75166,-0.57627 0,-0.26809 -0.16787,-0.437213 -0.51113,-0.521148 l -0.28563,-0.07015 c -0.228,-0.05637 -0.33072,-0.132793 -0.33072,-0.280618 0,-0.165364 0.17538,-0.285629 0.4109,-0.285629 0.25807,0 0.36455,0.142814 0.41592,0.275607 z"
         style="stroke-width:0.264583"
         id="path20663" />
      <path
         d="m 118.66897,20.037552 c 0.39086,0 0.67649,-0.195431 0.76669,-0.486071 l -0.28563,-0.08018 c -0.0752,0.200442 -0.2493,0.300663 -0.48106,0.300663 -0.34701,0 -0.58629,-0.224244 -0.60007,-0.636402 h 1.39683 v -0.125276 c 0,-0.716578 -0.42594,-0.962119 -0.82682,-0.962119 -0.52115,0 -0.86691,0.410905 -0.86691,1.002207 0,0.591303 0.34075,0.987175 0.89697,0.987175 z m -0.60007,-1.15755 c 0.02,-0.299409 0.23176,-0.566247 0.57001,-0.566247 0.3207,0 0.52616,0.24053 0.52616,0.566247 z"
         style="stroke-width:0.264583"
         id="path20665" />
      <path
         d="m 120.75356,18.073225 h -0.4109 V 17.61221 h -0.29565 v 0.461015 h -0.29064 v 0.250552 h 0.29064 v 1.202649 c 0,0.335739 0.27059,0.496092 0.52115,0.496092 0.11024,0 0.18039,-0.02004 0.22048,-0.03508 l -0.0601,-0.265585 c -0.0251,0.005 -0.0651,0.01503 -0.13029,0.01503 -0.13029,0 -0.25556,-0.04009 -0.25556,-0.29064 v -1.122472 h 0.4109 z"
         style="stroke-width:0.264583"
         id="path20667" />
    </g>
    <path
       style="fill:none;stroke:red;stroke-width:0.264999;stroke-linecap:butt;stroke-linejoin:miter;stroke-miterlimit:4;stroke-dasharray:none;stroke-opacity:1"
       d="m 110.90196,19.992599 h -4.48689 l 0,38.79096"
       id="path200-75"
       sodipodi:nodetypes="ccc" />
  </g>
</svg>
