<?xml version="1.0" encoding="UTF-8" standalone="no"?>
<svg
   xmlns:dc="http://purl.org/dc/elements/1.1/"
   xmlns:cc="http://creativecommons.org/ns#"
   xmlns:rdf="http://www.w3.org/1999/02/22-rdf-syntax-ns#"
   xmlns:svg="http://www.w3.org/2000/svg"
   xmlns="http://www.w3.org/2000/svg"
   xmlns:xlink="http://www.w3.org/1999/xlink"
   xmlns:sodipodi="http://sodipodi.sourceforge.net/DTD/sodipodi-0.dtd"
   xmlns:inkscape="http://www.inkscape.org/namespaces/inkscape"
   width="148mm"
   height="130mm"
   viewBox="0 0 148 130"
   version="1.1"
   id="svg8"
   inkscape:version="1.0.1 (3bc2e813f5, 2020-09-07)"
   sodipodi:docname="refman-6x.svg"
   inkscape:export-filename="/home/mntmn/code/reform-handbook/src/source/_static/illustrations/6t-callouts.png"
   inkscape:export-xdpi="600.0954"
   inkscape:export-ydpi="600.0954">
  <defs
     id="defs2" />
  <sodipodi:namedview
     id="base"
     pagecolor="#ffffff"
     bordercolor="#666666"
     borderopacity="1.0"
     inkscape:pageopacity="0.0"
     inkscape:pageshadow="2"
     inkscape:zoom="1.4"
     inkscape:cx="380.45893"
     inkscape:cy="305.53828"
     inkscape:document-units="mm"
     inkscape:current-layer="text130-3"
     inkscape:document-rotation="0"
     showgrid="true"
     inkscape:window-width="2560"
     inkscape:window-height="1406"
     inkscape:window-x="0"
     inkscape:window-y="0"
     inkscape:window-maximized="1">
    <inkscape:grid
       type="xygrid"
       id="grid10"
       units="mm"
       spacingx="10"
       spacingy="10" />
  </sodipodi:namedview>
  <metadata
     id="metadata5">
    <rdf:RDF>
      <cc:Work
         rdf:about="">
        <dc:format>image/svg+xml</dc:format>
        <dc:type
           rdf:resource="http://purl.org/dc/dcmitype/StillImage" />
        <dc:title />
      </cc:Work>
    </rdf:RDF>
  </metadata>
  <g
     inkscape:label="Layer 1"
     inkscape:groupmode="layer"
     id="layer1">
    <image
       sodipodi:absref="/home/mntmn/code/reform-handbook/src/source/_static/illustrations/6.png"
       xlink:href="../_static/illustrations/6.png"
       y="29.525009"
       x="10"
       id="image2630"
       preserveAspectRatio="none"
       height="80.410461"
       width="130" />
    <g
       aria-label="Left Button"
       id="text130"
       style="font-size:3.52777px;line-height:1.25;font-family:Inter;-inkscape-font-specification:Inter;stroke-width:0.264583">
      <path
         d="m 10.310684,40 h 1.503311 v -0.275607 h -1.192626 v -2.290044 h -0.310685 z"
         style="stroke-width:0.264583"
         id="path14295" />
      <path
         d="m 13.061737,40.040088 c 0.390861,0 0.67649,-0.19543 0.766689,-0.48607 l -0.28563,-0.08018 c -0.07516,0.200442 -0.249299,0.300662 -0.481059,0.300662 -0.347014,0 -0.586291,-0.224244 -0.600072,-0.636401 h 1.396827 v -0.125276 c 0,-0.716579 -0.425938,-0.962119 -0.826821,-0.962119 -0.521148,0 -0.86691,0.410905 -0.86691,1.002207 0,0.591302 0.340751,0.987174 0.896976,0.987174 z m -0.600072,-1.157549 c 0.02004,-0.29941 0.231761,-0.566247 0.570006,-0.566247 0.320706,0 0.526159,0.240529 0.526159,0.566247 z"
         style="stroke-width:0.264583"
         id="path14297" />
      <path
         d="m 15.166371,38.075762 h -0.430949 v -0.195431 c 0,-0.190419 0.08018,-0.29064 0.275607,-0.29064 0.08519,0 0.135298,0.02004 0.165364,0.03007 l 0.08519,-0.255562 c -0.0451,-0.02005 -0.135298,-0.05011 -0.280618,-0.05011 -0.275607,0 -0.541192,0.165364 -0.541192,0.496093 v 0.265585 h -0.310684 v 0.250552 h 0.310684 V 40 h 0.295651 v -1.673686 h 0.430949 z"
         style="stroke-width:0.264583"
         id="path14299" />
      <path
         d="m 16.419126,38.075762 h -0.410905 v -0.461016 h -0.295652 v 0.461016 h -0.29064 v 0.250552 h 0.29064 v 1.202649 c 0,0.335739 0.270596,0.496092 0.521148,0.496092 0.110243,0 0.180398,-0.02004 0.220486,-0.03508 l -0.06013,-0.265585 c -0.02506,0.005 -0.06514,0.01503 -0.130287,0.01503 -0.130287,0 -0.255563,-0.04009 -0.255563,-0.29064 v -1.122472 h 0.410905 z"
         style="stroke-width:0.264583"
         id="path14301" />
      <path
         d="m 17.897374,40 h 0.927042 c 0.606335,0 0.856887,-0.295651 0.856887,-0.681501 0,-0.405894 -0.280618,-0.62638 -0.516137,-0.641413 v -0.02506 c 0.220486,-0.06013 0.415916,-0.205452 0.415916,-0.536181 0,-0.375828 -0.250552,-0.681501 -0.786733,-0.681501 h -0.896975 z m 0.310684,-0.275607 v -0.891965 h 0.631391 c 0.335739,0 0.546203,0.225497 0.546203,0.486071 0,0.225497 -0.155342,0.405894 -0.561236,0.405894 z m 0,-1.162561 v -0.851876 h 0.586291 c 0.340751,0 0.491082,0.180397 0.491082,0.405894 0,0.270596 -0.220486,0.445982 -0.501104,0.445982 z"
         style="stroke-width:0.264583"
         id="path14303" />
      <path
         d="m 21.36501,39.213267 c 0,0.360795 -0.275607,0.526159 -0.496092,0.526159 -0.245541,0 -0.420927,-0.180397 -0.420927,-0.461015 v -1.202649 h -0.295652 v 1.222693 c 0,0.491081 0.260574,0.7266 0.621369,0.7266 0.29064,0 0.48106,-0.155342 0.571258,-0.350772 h 0.02004 V 40 h 0.295652 V 38.075762 H 21.36501 Z"
         style="stroke-width:0.264583"
         id="path14305" />
      <path
         d="m 23.038694,38.075762 h -0.410905 v -0.461016 h -0.295652 v 0.461016 h -0.29064 v 0.250552 h 0.29064 v 1.202649 c 0,0.335739 0.270596,0.496092 0.521148,0.496092 0.110243,0 0.180398,-0.02004 0.220486,-0.03508 l -0.06013,-0.265585 c -0.02506,0.005 -0.06514,0.01503 -0.130287,0.01503 -0.130287,0 -0.255562,-0.04009 -0.255562,-0.29064 v -1.122472 h 0.410905 z"
         style="stroke-width:0.264583"
         id="path14307" />
      <path
         d="m 24.321518,38.075762 h -0.410905 v -0.461016 h -0.295651 v 0.461016 h -0.29064 v 0.250552 h 0.29064 v 1.202649 c 0,0.335739 0.270596,0.496092 0.521148,0.496092 0.110243,0 0.180397,-0.02004 0.220485,-0.03508 l -0.06013,-0.265585 c -0.02505,0.005 -0.06514,0.01503 -0.130287,0.01503 -0.130287,0 -0.255563,-0.04009 -0.255563,-0.29064 v -1.122472 h 0.410905 z"
         style="stroke-width:0.264583"
         id="path14309" />
      <path
         d="m 25.529176,40.040088 c 0.521148,0 0.87192,-0.395872 0.87192,-0.992185 0,-0.601324 -0.350772,-0.997196 -0.87192,-0.997196 -0.521148,0 -0.871921,0.395872 -0.871921,0.997196 0,0.596313 0.350773,0.992185 0.871921,0.992185 z m 0,-0.265585 c -0.395872,0 -0.576269,-0.34075 -0.576269,-0.7266 0,-0.38585 0.180397,-0.731611 0.576269,-0.731611 0.395872,0 0.576269,0.345761 0.576269,0.731611 0,0.38585 -0.180397,0.7266 -0.576269,0.7266 z"
         style="stroke-width:0.264583"
         id="path14311" />
      <path
         d="m 27.147739,38.84245 c 0,-0.335739 0.207958,-0.526158 0.491081,-0.526158 0.274355,0 0.440972,0.179144 0.440972,0.481059 V 40 h 0.295651 v -1.222693 c 0,-0.491082 -0.261827,-0.7266 -0.651435,-0.7266 -0.29064,0 -0.471038,0.130287 -0.561236,0.325717 h -0.02506 v -0.300662 h -0.28563 V 40 h 0.295652 z"
         style="stroke-width:0.264583"
         id="path14313" />
    </g>
    <path
       style="fill:none;stroke:red;stroke-width:0.265;stroke-linecap:butt;stroke-linejoin:miter;stroke-miterlimit:4;stroke-dasharray:none;stroke-opacity:1"
       d="m 30,39.999999 h 9.999999 v 19.999999"
       id="path132" />
    <g
       aria-label="Right Button"
       id="text130-3"
       style="font-size:3.52777px;line-height:1.25;font-family:Inter;-inkscape-font-specification:Inter;stroke-width:0.264583">
      <path
         d="M 48.194016,20.000002 H 48.5047 v -1.002207 h 0.561236 c 0.02255,0 0.04385,0 0.06514,-0.0013 l 0.541192,1.00346 h 0.360794 l -0.580027,-1.059834 c 0.32697,-0.111496 0.479806,-0.378334 0.479806,-0.719084 0,-0.453499 -0.270596,-0.786733 -0.87192,-0.786733 H 48.194016 Z M 48.5047,18.717176 v -1.007218 h 0.546203 c 0.415916,0 0.576269,0.202947 0.576269,0.511126 0,0.308179 -0.160353,0.496092 -0.571258,0.496092 z"
         style="stroke-width:0.264583"
         id="path14272" />
      <path
         d="m 50.408892,20.000002 h 0.295651 v -1.924238 h -0.295651 z m 0.150331,-2.244945 c 0.115254,0 0.210464,-0.0902 0.210464,-0.200441 0,-0.110243 -0.09521,-0.200442 -0.210464,-0.200442 -0.115254,0 -0.210463,0.0902 -0.210463,0.200442 0,0.110243 0.09521,0.200441 0.210463,0.200441 z"
         style="stroke-width:0.264583"
         id="path14274" />
      <path
         d="m 52.022443,20.76168 c 0.461015,0 0.831832,-0.210464 0.831832,-0.706557 v -1.979359 h -0.285629 v 0.305673 h -0.03007 c -0.06514,-0.100221 -0.185409,-0.330728 -0.561236,-0.330728 -0.486071,0 -0.82181,0.385849 -0.82181,0.977152 0,0.601324 0.350772,0.942075 0.816799,0.942075 0.375827,0 0.496092,-0.220486 0.561236,-0.325718 h 0.02506 v 0.390861 c 0,0.320707 -0.225497,0.466027 -0.536181,0.466027 -0.34952,0 -0.47229,-0.184156 -0.551214,-0.290641 L 51.23571,20.37583 c 0.120265,0.201694 0.357037,0.38585 0.786733,0.38585 z m -0.01002,-1.057329 c -0.370817,0 -0.561236,-0.280618 -0.561236,-0.681501 0,-0.390861 0.185408,-0.706557 0.561236,-0.706557 0.360795,0 0.551214,0.290641 0.551214,0.706557 0,0.425938 -0.19543,0.681501 -0.551214,0.681501 z"
         style="stroke-width:0.264583"
         id="path14276" />
      <path
         d="m 53.691111,18.842452 c 0,-0.335739 0.214222,-0.526159 0.506115,-0.526159 0.278113,0 0.445982,0.175387 0.445982,0.48106 v 1.202649 h 0.295651 v -1.222693 c 0,-0.49484 -0.263079,-0.7266 -0.656445,-0.7266 -0.303168,0 -0.476049,0.126528 -0.566248,0.325717 h -0.02506 V 17.434351 H 53.39546 v 2.565651 h 0.295651 z"
         style="stroke-width:0.264583"
         id="path14278" />
      <path
         d="m 56.316891,18.075764 h -0.410905 v -0.461016 h -0.295651 v 0.461016 h -0.29064 v 0.250552 h 0.29064 v 1.202648 c 0,0.33574 0.270596,0.496093 0.521148,0.496093 0.110243,0 0.180397,-0.02004 0.220486,-0.03508 l -0.06013,-0.265585 c -0.02506,0.005 -0.06514,0.01503 -0.130287,0.01503 -0.130287,0 -0.255563,-0.04009 -0.255563,-0.29064 v -1.122472 h 0.410905 z"
         style="stroke-width:0.264583"
         id="path14280" />
      <path
         d="m 57.795139,20.000002 h 0.927042 c 0.606336,0 0.856888,-0.295651 0.856888,-0.681501 0,-0.405894 -0.280619,-0.62638 -0.516137,-0.641413 v -0.02506 c 0.220485,-0.06013 0.415916,-0.205453 0.415916,-0.536181 0,-0.375828 -0.250552,-0.681501 -0.786733,-0.681501 h -0.896976 z m 0.310685,-0.275607 V 18.83243 h 0.63139 c 0.33574,0 0.546203,0.225497 0.546203,0.486071 0,0.225497 -0.155342,0.405894 -0.561236,0.405894 z m 0,-1.162561 v -0.851876 h 0.586291 c 0.340751,0 0.491082,0.180397 0.491082,0.405894 0,0.270596 -0.220486,0.445982 -0.501104,0.445982 z"
         style="stroke-width:0.264583"
         id="path14282" />
      <path
         d="m 61.262776,19.213269 c 0,0.360795 -0.275607,0.526159 -0.496092,0.526159 -0.245541,0 -0.420927,-0.180397 -0.420927,-0.461015 v -1.202649 h -0.295651 v 1.222693 c 0,0.491081 0.260573,0.7266 0.621368,0.7266 0.29064,0 0.48106,-0.155342 0.571258,-0.350772 h 0.02004 v 0.325717 h 0.295652 v -1.924238 h -0.295652 z"
         style="stroke-width:0.264583"
         id="path14284" />
      <path
         d="m 62.93646,18.075764 h -0.410905 v -0.461016 h -0.295652 v 0.461016 h -0.29064 v 0.250552 h 0.29064 v 1.202648 c 0,0.33574 0.270596,0.496093 0.521148,0.496093 0.110243,0 0.180398,-0.02004 0.220486,-0.03508 l -0.06013,-0.265585 c -0.02505,0.005 -0.06514,0.01503 -0.130286,0.01503 -0.130287,0 -0.255563,-0.04009 -0.255563,-0.29064 v -1.122472 h 0.410905 z"
         style="stroke-width:0.264583"
         id="path14286" />
      <path
         d="m 64.219284,18.075764 h -0.410905 v -0.461016 h -0.295651 v 0.461016 h -0.29064 v 0.250552 h 0.29064 v 1.202648 c 0,0.33574 0.270596,0.496093 0.521148,0.496093 0.110243,0 0.180397,-0.02004 0.220485,-0.03508 l -0.06013,-0.265585 c -0.02506,0.005 -0.06514,0.01503 -0.130287,0.01503 -0.130287,0 -0.255563,-0.04009 -0.255563,-0.29064 v -1.122472 h 0.410905 z"
         style="stroke-width:0.264583"
         id="path14288" />
      <path
         d="m 65.426942,20.04009 c 0.521148,0 0.87192,-0.395872 0.87192,-0.992185 0,-0.601325 -0.350772,-0.997196 -0.87192,-0.997196 -0.521148,0 -0.87192,0.395871 -0.87192,0.997196 0,0.596313 0.350772,0.992185 0.87192,0.992185 z m 0,-0.265585 c -0.395872,0 -0.576269,-0.34075 -0.576269,-0.7266 0,-0.38585 0.180397,-0.731612 0.576269,-0.731612 0.395872,0 0.576269,0.345762 0.576269,0.731612 0,0.38585 -0.180397,0.7266 -0.576269,0.7266 z"
         style="stroke-width:0.264583"
         id="path14290" />
      <path
         d="m 67.045503,18.842452 c 0,-0.335739 0.207958,-0.526159 0.491081,-0.526159 0.274355,0 0.440972,0.179145 0.440972,0.48106 v 1.202649 h 0.295651 v -1.222693 c 0,-0.491082 -0.261827,-0.7266 -0.651435,-0.7266 -0.29064,0 -0.471037,0.130286 -0.561236,0.325717 h -0.02505 v -0.300662 h -0.285629 v 1.924238 h 0.295651 z"
         style="stroke-width:0.264583"
         id="path14292" />
    </g>
    <path
       style="fill:none;stroke:red;stroke-width:0.265;stroke-linecap:butt;stroke-linejoin:miter;stroke-miterlimit:4;stroke-dasharray:none;stroke-opacity:1"
       d="m 70,20 h 9.999998 v 19.999999"
       id="path132-7" />
    <g
       aria-label="Wheel Mode"
       id="text130-3-5"
       style="font-size:3.52777px;line-height:1.25;font-family:Inter;-inkscape-font-specification:Inter;stroke-width:0.264583">
      <path
         d="m 121.66685,29.967279 h 0.3207 l 0.56625,-2.044503 h 0.02 l 0.56624,2.044503 h 0.32071 l 0.70154,-2.565651 h -0.31569 l -0.53618,2.089603 h -0.0251 l -0.5462,-2.089603 h -0.35077 l -0.54621,2.089603 h -0.0251 L 121.281,27.401628 h -0.3157 z"
         style="stroke-width:0.264583"
         id="path14253" />
      <path
         d="m 124.80375,28.80973 c 0,-0.33574 0.21422,-0.526159 0.50612,-0.526159 0.27811,0 0.44598,0.175386 0.44598,0.48106 v 1.202648 h 0.29565 v -1.222693 c 0,-0.494839 -0.26308,-0.7266 -0.65645,-0.7266 -0.30316,0 -0.47604,0.126529 -0.56624,0.325717 h -0.0251 v -0.942075 h -0.29565 v 2.565651 h 0.29565 z"
         style="stroke-width:0.264583"
         id="path14255" />
      <path
         d="m 127.39947,30.007368 c 0.39086,0 0.67649,-0.195431 0.76668,-0.486071 l -0.28563,-0.08018 c -0.0752,0.200441 -0.24929,0.300662 -0.48105,0.300662 -0.34702,0 -0.5863,-0.224244 -0.60008,-0.636402 h 1.39683 v -0.125276 c 0,-0.716578 -0.42594,-0.962119 -0.82682,-0.962119 -0.52115,0 -0.86691,0.410905 -0.86691,1.002207 0,0.591303 0.34075,0.987175 0.89698,0.987175 z m -0.60008,-1.15755 c 0.02,-0.299409 0.23176,-0.566247 0.57001,-0.566247 0.32071,0 0.52616,0.24053 0.52616,0.566247 z"
         style="stroke-width:0.264583"
         id="path14257" />
      <path
         d="m 129.45399,30.007368 c 0.39086,0 0.67649,-0.195431 0.76669,-0.486071 l -0.28563,-0.08018 c -0.0752,0.200441 -0.2493,0.300662 -0.48106,0.300662 -0.34702,0 -0.58629,-0.224244 -0.60007,-0.636402 h 1.39682 v -0.125276 c 0,-0.716578 -0.42593,-0.962119 -0.82682,-0.962119 -0.52115,0 -0.86691,0.410905 -0.86691,1.002207 0,0.591303 0.34075,0.987175 0.89698,0.987175 z m -0.60007,-1.15755 c 0.02,-0.299409 0.23176,-0.566247 0.57,-0.566247 0.32071,0 0.52616,0.24053 0.52616,0.566247 z"
         style="stroke-width:0.264583"
         id="path14259" />
      <path
         d="m 130.99739,27.401628 h -0.29565 v 2.565651 h 0.29565 z"
         style="stroke-width:0.264583"
         id="path14261" />
      <path
         d="m 132.57084,27.401628 v 2.565651 h 0.29064 v -1.949293 h 0.0251 l 0.80176,1.949293 h 0.28062 l 0.80177,-1.949293 h 0.025 v 1.949293 h 0.29064 v -2.565651 h -0.37081 l -0.87192,2.129691 h -0.0301 l -0.87192,-2.129691 z"
         style="stroke-width:0.264583"
         id="path14263" />
      <path
         d="m 136.52956,30.007368 c 0.52114,0 0.87192,-0.395872 0.87192,-0.992186 0,-0.601324 -0.35078,-0.997196 -0.87192,-0.997196 -0.52115,0 -0.87192,0.395872 -0.87192,0.997196 0,0.596314 0.35077,0.992186 0.87192,0.992186 z m 0,-0.265585 c -0.39588,0 -0.57627,-0.340751 -0.57627,-0.726601 0,-0.385849 0.18039,-0.731611 0.57627,-0.731611 0.39587,0 0.57626,0.345762 0.57626,0.731611 0,0.38585 -0.18039,0.726601 -0.57626,0.726601 z"
         style="stroke-width:0.264583"
         id="path14265" />
      <path
         d="m 138.57907,30.007368 c 0.37081,0 0.49609,-0.230508 0.56123,-0.33574 h 0.0351 v 0.295651 h 0.28563 v -2.565651 h -0.29565 v 0.947086 h -0.0251 c -0.0651,-0.10022 -0.18039,-0.330728 -0.55622,-0.330728 -0.48607,0 -0.82181,0.38585 -0.82181,0.992185 0,0.611347 0.33574,0.997197 0.8168,0.997197 z m 0.0401,-0.265585 c -0.37082,0 -0.56124,-0.325718 -0.56124,-0.736623 0,-0.405894 0.18541,-0.721589 0.56124,-0.721589 0.36079,0 0.55121,0.29064 0.55121,0.721589 0,0.435961 -0.19543,0.736623 -0.55121,0.736623 z"
         style="stroke-width:0.264583"
         id="path14267" />
      <path
         d="m 140.84906,30.007368 c 0.39086,0 0.67649,-0.195431 0.76669,-0.486071 l -0.28563,-0.08018 c -0.0752,0.200441 -0.2493,0.300662 -0.48106,0.300662 -0.34701,0 -0.58629,-0.224244 -0.60007,-0.636402 h 1.39683 v -0.125276 c 0,-0.716578 -0.42594,-0.962119 -0.82682,-0.962119 -0.52115,0 -0.86691,0.410905 -0.86691,1.002207 0,0.591303 0.34075,0.987175 0.89697,0.987175 z m -0.60007,-1.15755 c 0.02,-0.299409 0.23176,-0.566247 0.57001,-0.566247 0.3207,0 0.52615,0.24053 0.52615,0.566247 z"
         style="stroke-width:0.264583"
         id="path14269" />
    </g>
    <path
       style="fill:none;stroke:red;stroke-width:0.265;stroke-linecap:butt;stroke-linejoin:miter;stroke-miterlimit:4;stroke-dasharray:none;stroke-opacity:1"
       d="M 120,30 H 110 V 50"
       id="path178" />
    <g
       aria-label="Wheel Mode"
       id="text130-3-5-6"
       style="font-size:3.52777px;line-height:1.25;font-family:Inter;-inkscape-font-specification:Inter;stroke-width:0.264583">
      <path
         d="m 8.4100683,109.97825 h 0.3207063 l 0.5662472,-2.0445 h 0.020044 l 0.5662471,2.0445 H 10.20402 l 0.701545,-2.56565 h -0.315696 l -0.536181,2.0896 h -0.02506 L 9.4824302,107.4126 H 9.1316576 l -0.546203,2.0896 h -0.025055 l -0.536181,-2.0896 H 7.7085231 Z"
         style="stroke-width:0.264583"
         id="path14341" />
      <path
         d="m 11.546972,108.8207 c 0,-0.33574 0.214222,-0.52616 0.506115,-0.52616 0.278112,0 0.445982,0.17539 0.445982,0.48106 v 1.20265 h 0.295651 v -1.22269 c 0,-0.49484 -0.263079,-0.7266 -0.656446,-0.7266 -0.303167,0 -0.476048,0.12652 -0.566247,0.32571 h -0.02506 v -0.94207 h -0.295651 v 2.56565 h 0.295651 z"
         style="stroke-width:0.264583"
         id="path14343" />
      <path
         d="m 14.142686,110.01834 c 0.390861,0 0.67649,-0.19543 0.766688,-0.48607 l -0.285629,-0.0802 c -0.07517,0.20044 -0.249299,0.30066 -0.481059,0.30066 -0.347014,0 -0.586292,-0.22424 -0.600072,-0.6364 h 1.396827 v -0.12528 c 0,-0.71657 -0.425938,-0.96211 -0.826821,-0.96211 -0.521148,0 -0.86691,0.4109 -0.86691,1.0022 0,0.5913 0.340751,0.98718 0.896976,0.98718 z m -0.600072,-1.15755 c 0.02004,-0.29941 0.231761,-0.56625 0.570006,-0.56625 0.320706,0 0.526158,0.24053 0.526158,0.56625 z"
         style="stroke-width:0.264583"
         id="path14345" />
      <path
         d="m 16.197209,110.01834 c 0.390861,0 0.67649,-0.19543 0.766689,-0.48607 l -0.285629,-0.0802 c -0.07517,0.20044 -0.249299,0.30066 -0.48106,0.30066 -0.347014,0 -0.586291,-0.22424 -0.600071,-0.6364 h 1.396826 v -0.12528 c 0,-0.71657 -0.425938,-0.96211 -0.826821,-0.96211 -0.521148,0 -0.866909,0.4109 -0.866909,1.0022 0,0.5913 0.34075,0.98718 0.896975,0.98718 z m -0.600071,-1.15755 c 0.02004,-0.29941 0.23176,-0.56625 0.570005,-0.56625 0.320706,0 0.526159,0.24053 0.526159,0.56625 z"
         style="stroke-width:0.264583"
         id="path14347" />
      <path
         d="m 17.740608,107.4126 h -0.295651 v 2.56565 h 0.295651 z"
         style="stroke-width:0.264583"
         id="path14349" />
      <path
         d="m 19.314064,107.4126 v 2.56565 h 0.29064 v -1.94929 h 0.02505 l 0.801766,1.94929 h 0.280618 l 0.801766,-1.94929 h 0.02505 v 1.94929 h 0.29064 v -2.56565 h -0.370817 l -0.87192,2.12969 h -0.03007 L 19.68488,107.4126 Z"
         style="stroke-width:0.264583"
         id="path14351" />
      <path
         d="m 23.272776,110.01834 c 0.521148,0 0.871921,-0.39588 0.871921,-0.99219 0,-0.60132 -0.350773,-0.99719 -0.871921,-0.99719 -0.521148,0 -0.87192,0.39587 -0.87192,0.99719 0,0.59631 0.350772,0.99219 0.87192,0.99219 z m 0,-0.26559 c -0.395872,0 -0.576269,-0.34075 -0.576269,-0.7266 0,-0.38585 0.180397,-0.73161 0.576269,-0.73161 0.395872,0 0.57627,0.34576 0.57627,0.73161 0,0.38585 -0.180398,0.7266 -0.57627,0.7266 z"
         style="stroke-width:0.264583"
         id="path14353" />
      <path
         d="m 25.322288,110.01834 c 0.370817,0 0.496093,-0.23051 0.561236,-0.33574 h 0.03508 v 0.29565 h 0.285629 V 107.4126 H 25.90858 v 0.94708 h -0.02506 c -0.06514,-0.10022 -0.180397,-0.33072 -0.556225,-0.33072 -0.48607,0 -0.82181,0.38585 -0.82181,0.99218 0,0.61135 0.33574,0.9972 0.816799,0.9972 z m 0.04009,-0.26559 c -0.370816,0 -0.561236,-0.32572 -0.561236,-0.73662 0,-0.40589 0.185409,-0.72159 0.561236,-0.72159 0.360795,0 0.551215,0.29064 0.551215,0.72159 0,0.43596 -0.195431,0.73662 -0.551215,0.73662 z"
         style="stroke-width:0.264583"
         id="path14355" />
      <path
         d="m 27.592282,110.01834 c 0.390861,0 0.67649,-0.19543 0.766689,-0.48607 l -0.285629,-0.0802 c -0.07517,0.20044 -0.249299,0.30066 -0.48106,0.30066 -0.347014,0 -0.586291,-0.22424 -0.600071,-0.6364 h 1.396826 v -0.12528 c 0,-0.71657 -0.425938,-0.96211 -0.826821,-0.96211 -0.521148,0 -0.866909,0.4109 -0.866909,1.0022 0,0.5913 0.34075,0.98718 0.896975,0.98718 z m -0.600071,-1.15755 c 0.02004,-0.29941 0.23176,-0.56625 0.570005,-0.56625 0.320706,0 0.526159,0.24053 0.526159,0.56625 z"
         style="stroke-width:0.264583"
         id="path14357" />
    </g>
    <path
       style="fill:none;stroke:red;stroke-width:0.265;stroke-linecap:butt;stroke-linejoin:miter;stroke-miterlimit:4;stroke-dasharray:none;stroke-opacity:1"
       d="M 30,110 H 59.999998 V 79.999998"
       id="path200" />
    <path
       style="fill:none;stroke:red;stroke-width:0.265;stroke-linecap:butt;stroke-linejoin:miter;stroke-miterlimit:4;stroke-dasharray:none;stroke-opacity:1"
       d="M 89.999999,69.999999 V 110 H 100"
       id="path204" />
    <g
       aria-label="Middle Button"
       id="text130-3-5-6-9"
       style="font-size:3.52777px;line-height:1.25;font-family:Inter;-inkscape-font-specification:Inter;stroke-width:0.264583">
      <path
         d="m 101.50629,107.42906 v 2.56565 h 0.29064 v -1.94929 h 0.0251 l 0.80177,1.94929 h 0.28061 l 0.80177,-1.94929 h 0.025 v 1.94929 h 0.29064 v -2.56565 h -0.37081 l -0.87192,2.12969 h -0.0301 l -0.87192,-2.12969 z"
         style="stroke-width:0.264583"
         id="path14316" />
      <path
         d="m 104.68329,109.99471 h 0.29565 v -1.92424 h -0.29565 z m 0.15033,-2.24494 c 0.11525,0 0.21046,-0.0902 0.21046,-0.20044 0,-0.11025 -0.0952,-0.20044 -0.21046,-0.20044 -0.11526,0 -0.21047,0.0902 -0.21047,0.20044 0,0.11024 0.0952,0.20044 0.21047,0.20044 z"
         style="stroke-width:0.264583"
         id="path14318" />
      <path
         d="m 106.24673,110.0348 c 0.37081,0 0.49609,-0.23051 0.56123,-0.33574 h 0.0351 v 0.29565 h 0.28563 v -2.56565 h -0.29565 v 0.94709 h -0.0251 c -0.0651,-0.10022 -0.18039,-0.33073 -0.55622,-0.33073 -0.48607,0 -0.82181,0.38585 -0.82181,0.99218 0,0.61135 0.33574,0.9972 0.8168,0.9972 z m 0.0401,-0.26558 c -0.37081,0 -0.56123,-0.32572 -0.56123,-0.73663 0,-0.40589 0.18541,-0.72159 0.56123,-0.72159 0.3608,0 0.55122,0.29064 0.55122,0.72159 0,0.43596 -0.19543,0.73663 -0.55122,0.73663 z"
         style="stroke-width:0.264583"
         id="path14320" />
      <path
         d="m 108.43654,110.0348 c 0.37082,0 0.4961,-0.23051 0.56124,-0.33574 h 0.0351 v 0.29565 h 0.28563 v -2.56565 h -0.29566 v 0.94709 h -0.025 c -0.0651,-0.10022 -0.1804,-0.33073 -0.55623,-0.33073 -0.48607,0 -0.82181,0.38585 -0.82181,0.99218 0,0.61135 0.33574,0.9972 0.8168,0.9972 z m 0.0401,-0.26558 c -0.37081,0 -0.56123,-0.32572 -0.56123,-0.73663 0,-0.40589 0.1854,-0.72159 0.56123,-0.72159 0.3608,0 0.55122,0.29064 0.55122,0.72159 0,0.43596 -0.19543,0.73663 -0.55122,0.73663 z"
         style="stroke-width:0.264583"
         id="path14322" />
      <path
         d="m 110.19541,107.42906 h -0.29565 v 2.56565 h 0.29565 z"
         style="stroke-width:0.264583"
         id="path14324" />
      <path
         d="m 111.54338,110.0348 c 0.39086,0 0.67649,-0.19543 0.76669,-0.48607 l -0.28563,-0.0802 c -0.0752,0.20045 -0.2493,0.30067 -0.48106,0.30067 -0.34702,0 -0.58629,-0.22425 -0.60007,-0.63641 h 1.39682 v -0.12527 c 0,-0.71658 -0.42593,-0.96212 -0.82682,-0.96212 -0.52115,0 -0.86691,0.4109 -0.86691,1.00221 0,0.5913 0.34075,0.98717 0.89698,0.98717 z m -0.60007,-1.15755 c 0.02,-0.29941 0.23176,-0.56625 0.57,-0.56625 0.32071,0 0.52616,0.24053 0.52616,0.56625 z"
         style="stroke-width:0.264583"
         id="path14326" />
      <path
         d="m 113.82339,109.99471 h 0.92704 c 0.60634,0 0.85689,-0.29565 0.85689,-0.6815 0,-0.40589 -0.28062,-0.62638 -0.51614,-0.64141 v -0.0251 c 0.22049,-0.0601 0.41592,-0.20545 0.41592,-0.53618 0,-0.37582 -0.25055,-0.6815 -0.78673,-0.6815 h -0.89698 z m 0.31069,-0.2756 v -0.89197 h 0.63139 c 0.33574,0 0.5462,0.2255 0.5462,0.48607 0,0.2255 -0.15534,0.4059 -0.56124,0.4059 z m 0,-1.16256 v -0.85188 h 0.58629 c 0.34075,0 0.49108,0.1804 0.49108,0.40589 0,0.2706 -0.22049,0.44599 -0.5011,0.44599 z"
         style="stroke-width:0.264583"
         id="path14328" />
      <path
         d="m 117.29103,109.20798 c 0,0.36079 -0.27561,0.52616 -0.49609,0.52616 -0.24554,0 -0.42093,-0.1804 -0.42093,-0.46102 v -1.20265 h -0.29565 v 1.2227 c 0,0.49108 0.26057,0.7266 0.62137,0.7266 0.29064,0 0.48106,-0.15534 0.57125,-0.35077 h 0.0201 v 0.32571 h 0.29565 v -1.92424 h -0.29565 z"
         style="stroke-width:0.264583"
         id="path14330" />
      <path
         d="m 118.96471,108.07047 h -0.4109 v -0.46101 h -0.29565 v 0.46101 h -0.29064 v 0.25056 h 0.29064 v 1.20265 c 0,0.33573 0.27059,0.49609 0.52114,0.49609 0.11025,0 0.1804,-0.02 0.22049,-0.0351 l -0.0601,-0.26558 c -0.0251,0.005 -0.0652,0.015 -0.13029,0.015 -0.13029,0 -0.25556,-0.0401 -0.25556,-0.29064 v -1.12247 h 0.4109 z"
         style="stroke-width:0.264583"
         id="path14332" />
      <path
         d="m 120.24754,108.07047 h -0.41091 v -0.46101 h -0.29565 v 0.46101 h -0.29064 v 0.25056 h 0.29064 v 1.20265 c 0,0.33573 0.2706,0.49609 0.52115,0.49609 0.11024,0 0.18039,-0.02 0.22048,-0.0351 l -0.0601,-0.26558 c -0.0251,0.005 -0.0651,0.015 -0.13029,0.015 -0.13028,0 -0.25556,-0.0401 -0.25556,-0.29064 v -1.12247 h 0.41091 z"
         style="stroke-width:0.264583"
         id="path14334" />
      <path
         d="m 121.4552,110.0348 c 0.52114,0 0.87192,-0.39587 0.87192,-0.99218 0,-0.60133 -0.35078,-0.9972 -0.87192,-0.9972 -0.52115,0 -0.87192,0.39587 -0.87192,0.9972 0,0.59631 0.35077,0.99218 0.87192,0.99218 z m 0,-0.26558 c -0.39588,0 -0.57627,-0.34075 -0.57627,-0.7266 0,-0.38585 0.18039,-0.73162 0.57627,-0.73162 0.39587,0 0.57626,0.34577 0.57626,0.73162 0,0.38585 -0.18039,0.7266 -0.57626,0.7266 z"
         style="stroke-width:0.264583"
         id="path14336" />
      <path
         d="m 123.07376,108.83716 c 0,-0.33574 0.20795,-0.52616 0.49108,-0.52616 0.27435,0 0.44097,0.17915 0.44097,0.48106 v 1.20265 h 0.29565 v -1.22269 c 0,-0.49108 -0.26183,-0.7266 -0.65143,-0.7266 -0.29064,0 -0.47104,0.13029 -0.56124,0.32572 h -0.0251 v -0.30067 h -0.28562 v 1.92424 h 0.29565 z"
         style="stroke-width:0.264583"
         id="path14338" />
    </g>
  </g>
</svg>
