<?xml version="1.0" encoding="UTF-8" standalone="no"?>
<svg
   xmlns:dc="http://purl.org/dc/elements/1.1/"
   xmlns:cc="http://creativecommons.org/ns#"
   xmlns:rdf="http://www.w3.org/1999/02/22-rdf-syntax-ns#"
   xmlns:svg="http://www.w3.org/2000/svg"
   xmlns="http://www.w3.org/2000/svg"
   xmlns:xlink="http://www.w3.org/1999/xlink"
   xmlns:sodipodi="http://sodipodi.sourceforge.net/DTD/sodipodi-0.dtd"
   xmlns:inkscape="http://www.inkscape.org/namespaces/inkscape"
   width="148mm"
   height="110mm"
   viewBox="0 0 148 110"
   version="1.1"
   id="svg8"
   inkscape:version="1.0.1 (3bc2e813f5, 2020-09-07)"
   sodipodi:docname="refman-21x.svg"
   inkscape:export-filename="/home/mntmn/code/reform-handbook/src/source/_static/illustrations/21-callouts.png"
   inkscape:export-xdpi="600.0954"
   inkscape:export-ydpi="600.0954">
  <defs
     id="defs2" />
  <sodipodi:namedview
     id="base"
     pagecolor="#ffffff"
     bordercolor="#666666"
     borderopacity="1.0"
     inkscape:pageopacity="0.0"
     inkscape:pageshadow="2"
     inkscape:zoom="1.4"
     inkscape:cx="323.17104"
     inkscape:cy="267.95382"
     inkscape:document-units="mm"
     inkscape:current-layer="layer1"
     inkscape:document-rotation="0"
     showgrid="true"
     inkscape:window-width="2560"
     inkscape:window-height="1406"
     inkscape:window-x="0"
     inkscape:window-y="0"
     inkscape:window-maximized="1"
     inkscape:snap-global="false">
    <inkscape:grid
       type="xygrid"
       id="grid10"
       units="mm"
       spacingx="10"
       spacingy="10" />
  </sodipodi:namedview>
  <metadata
     id="metadata5">
    <rdf:RDF>
      <cc:Work
         rdf:about="">
        <dc:format>image/svg+xml</dc:format>
        <dc:type
           rdf:resource="http://purl.org/dc/dcmitype/StillImage" />
        <dc:title></dc:title>
      </cc:Work>
    </rdf:RDF>
  </metadata>
  <g
     inkscape:label="Layer 1"
     inkscape:groupmode="layer"
     id="layer1">
    <image
       sodipodi:absref="/home/mntmn/code/reform-handbook/src/source/_static/illustrations/21t.png"
       xlink:href="../_static/illustrations/21t.png"
       width="109.63025"
       height="74.964378"
       preserveAspectRatio="none"
       id="image6782"
       x="20.103657"
       y="18.937204" />
    <g
       aria-label="OLED Display"
       id="text130-3-5-6-3"
       style="font-size:3.52777px;line-height:1.25;font-family:Inter;-inkscape-font-specification:Inter;stroke-width:0.264583">
      <path
         d="m 73.790661,88.737133 c 0,-0.811788 -0.476049,-1.317903 -1.132495,-1.317903 -0.656445,0 -1.132494,0.506115 -1.132494,1.317903 0,0.811788 0.476049,1.317903 1.132494,1.317903 0.656446,0 1.132495,-0.506115 1.132495,-1.317903 z m -0.300663,0 c 0,0.666468 -0.365805,1.027263 -0.831832,1.027263 -0.466026,0 -0.831832,-0.360795 -0.831832,-1.027263 0,-0.666468 0.365806,-1.027263 0.831832,-1.027263 0.466027,0 0.831832,0.360795 0.831832,1.027263 z"
         style="stroke-width:0.264583"
         id="path6233" />
      <path
         d="m 74.311803,90.019958 h 1.503311 v -0.275607 h -1.192627 v -2.290043 h -0.310684 z"
         style="stroke-width:0.264583"
         id="path6235" />
      <path
         d="m 76.296167,90.019958 h 1.568455 v -0.275607 h -1.257771 v -0.87192 h 1.15755 v -0.275607 h -1.15755 v -0.866909 h 1.237726 v -0.275607 h -1.54841 z"
         style="stroke-width:0.264583"
         id="path6237" />
      <path
         d="m 79.197556,90.019958 c 0.781722,0 1.222693,-0.48607 1.222693,-1.287836 0,-0.796755 -0.440971,-1.277814 -1.187616,-1.277814 h -0.826821 v 2.56565 z m -0.481059,-0.275607 v -2.014436 h 0.496092 c 0.601325,0 0.906998,0.380838 0.906998,1.002207 0,0.62638 -0.305673,1.012229 -0.942075,1.012229 z"
         style="stroke-width:0.264583"
         id="path6239" />
      <path
         d="m 82.725313,90.019958 c 0.781722,0 1.222693,-0.48607 1.222693,-1.287836 0,-0.796755 -0.440971,-1.277814 -1.187616,-1.277814 h -0.826821 v 2.56565 z m -0.48106,-0.275607 v -2.014436 h 0.496093 c 0.601324,0 0.906998,0.380838 0.906998,1.002207 0,0.62638 -0.305674,1.012229 -0.942075,1.012229 z"
         style="stroke-width:0.264583"
         id="path6241" />
      <path
         d="M 84.429059,90.019958 H 84.72471 V 88.09572 h -0.295651 z m 0.150331,-2.244944 c 0.115253,0 0.210463,-0.0902 0.210463,-0.200442 0,-0.110242 -0.09521,-0.200441 -0.210463,-0.200441 -0.115254,0 -0.210464,0.0902 -0.210464,0.200441 0,0.110243 0.09521,0.200442 0.210464,0.200442 z"
         style="stroke-width:0.264583"
         id="path6243" />
      <path
         d="m 86.6289,88.526669 c -0.0927,-0.273101 -0.300662,-0.456004 -0.681501,-0.456004 -0.405894,0 -0.706556,0.230508 -0.706556,0.556225 0,0.265585 0.157848,0.443477 0.511126,0.526159 l 0.320706,0.07517 c 0.194178,0.0451 0.285629,0.137803 0.285629,0.270596 0,0.165364 -0.175386,0.300662 -0.450993,0.300662 -0.241783,0 -0.393366,-0.103979 -0.445982,-0.310684 l -0.280618,0.07015 c 0.0689,0.32697 0.338245,0.501104 0.731611,0.501104 0.447235,0 0.751656,-0.244288 0.751656,-0.576269 0,-0.268091 -0.16787,-0.437213 -0.511126,-0.521148 l -0.285629,-0.07015 c -0.228003,-0.05637 -0.330729,-0.132792 -0.330729,-0.280618 0,-0.165364 0.175386,-0.285629 0.410905,-0.285629 0.258069,0 0.364553,0.142815 0.415916,0.275607 z"
         style="stroke-width:0.264583"
         id="path6245" />
      <path
         d="m 87.109956,90.741548 h 0.295651 v -1.017241 h 0.02506 c 0.06514,0.105232 0.190419,0.33574 0.561236,0.33574 0.481059,0 0.816799,-0.38585 0.816799,-0.997197 0,-0.606335 -0.33574,-0.992185 -0.82181,-0.992185 -0.375828,0 -0.491082,0.230508 -0.556225,0.330729 h -0.03508 V 88.09572 h -0.285629 z m 0.29064,-1.683709 c 0,-0.430949 0.19042,-0.721589 0.551214,-0.721589 0.375828,0 0.561237,0.315695 0.561237,0.721589 0,0.410905 -0.19042,0.736623 -0.561237,0.736623 -0.355783,0 -0.551214,-0.300662 -0.551214,-0.736623 z"
         style="stroke-width:0.264583"
         id="path6247" />
      <path
         d="m 89.555335,87.454308 h -0.295651 v 2.56565 h 0.295651 z"
         style="stroke-width:0.264583"
         id="path6249" />
      <path
         d="m 90.662771,90.065058 c 0.335739,0 0.511126,-0.180398 0.571258,-0.305673 h 0.01503 v 0.260573 h 0.295651 v -1.267792 c 0,-0.611346 -0.466026,-0.681501 -0.711567,-0.681501 -0.29064,0 -0.621368,0.100221 -0.7717,0.450993 l 0.280619,0.100221 c 0.06514,-0.140309 0.219232,-0.29064 0.501103,-0.29064 0.271849,0 0.405894,0.144067 0.405894,0.390861 v 0.01002 c 0,0.142815 -0.14532,0.130287 -0.496092,0.175386 -0.357037,0.04635 -0.746645,0.125276 -0.746645,0.566247 0,0.375828 0.29064,0.591303 0.656446,0.591303 z m 0.0451,-0.265585 c -0.235518,0 -0.405894,-0.105232 -0.405894,-0.310684 0,-0.225497 0.205453,-0.295652 0.43596,-0.325718 0.125276,-0.01503 0.461016,-0.05011 0.511126,-0.110243 v 0.270596 c 0,0.24053 -0.190419,0.476049 -0.541192,0.476049 z"
         style="stroke-width:0.264583"
         id="path6251" />
      <path
         d="m 92.196139,90.766603 c 0.270596,0 0.456004,-0.140309 0.566247,-0.43596 l 0.826821,-2.234923 h -0.320706 l -0.53117,1.533378 h -0.02004 l -0.53117,-1.533378 h -0.320706 l 0.711567,1.934261 -0.06514,0.180397 c -0.103979,0.288135 -0.240529,0.315695 -0.456004,0.260574 l -0.07516,0.260574 c 0.03007,0.01503 0.115253,0.03508 0.215474,0.03508 z"
         style="stroke-width:0.264583"
         id="path6253" />
    </g>
    <path
       style="fill:none;stroke:#ff0000;stroke-width:0.264999;stroke-linecap:butt;stroke-linejoin:miter;stroke-miterlimit:4;stroke-dasharray:none;stroke-opacity:1"
       d="m 70.669954,89.978471 h -0.64557 V 72.664452"
       id="path200-7"
       sodipodi:nodetypes="ccc" />
    <g
       aria-label="Flex Cable to Keyboard"
       id="text130-3-5-6-3-7"
       style="font-size:3.52777px;line-height:1.25;font-family:Inter;-inkscape-font-specification:Inter;stroke-width:0.264583">
      <path
         d="m 60.359051,19.86442 h 0.310684 v -1.147528 h 1.11245 v -0.275607 h -1.11245 v -0.866909 h 1.227704 v -0.275607 h -1.538388 z"
         style="stroke-width:0.264583"
         id="path6194" />
      <path
         d="m 62.684169,17.298769 h -0.295651 v 2.565651 h 0.295651 z"
         style="stroke-width:0.264583"
         id="path6196" />
      <path
         d="m 64.032135,19.904508 c 0.390861,0 0.67649,-0.19543 0.766689,-0.48607 l -0.285629,-0.08018 c -0.07517,0.200442 -0.249299,0.300662 -0.48106,0.300662 -0.347014,0 -0.586291,-0.224244 -0.600071,-0.636401 h 1.396826 v -0.125276 c 0,-0.716579 -0.425938,-0.962119 -0.826821,-0.962119 -0.521148,0 -0.866909,0.410905 -0.866909,1.002207 0,0.591302 0.34075,0.987174 0.896975,0.987174 z m -0.600071,-1.157549 c 0.02004,-0.29941 0.23176,-0.566247 0.570005,-0.566247 0.320707,0 0.526159,0.240529 0.526159,0.566247 z"
         style="stroke-width:0.264583"
         id="path6198" />
      <path
         d="m 65.450252,17.940182 h -0.34075 l 0.611346,0.962119 -0.611346,0.962119 h 0.34075 l 0.461016,-0.746645 0.461015,0.746645 h 0.340751 l -0.621369,-0.962119 0.621369,-0.962119 h -0.340751 l -0.461015,0.786733 z"
         style="stroke-width:0.264583"
         id="path6200" />
      <path
         d="m 70.230773,18.100535 c -0.09521,-0.526159 -0.516137,-0.836843 -1.032274,-0.836843 -0.656446,0 -1.132494,0.506114 -1.132494,1.317902 0,0.811788 0.476048,1.317903 1.132494,1.317903 0.516137,0 0.937064,-0.310684 1.032274,-0.836843 h -0.310685 c -0.07517,0.355784 -0.380838,0.546203 -0.721589,0.546203 -0.466026,0 -0.831832,-0.360795 -0.831832,-1.027263 0,-0.666467 0.365806,-1.027262 0.831832,-1.027262 0.340751,0 0.646424,0.190419 0.721589,0.546203 z"
         style="stroke-width:0.264583"
         id="path6202" />
      <path
         d="m 71.258033,19.909519 c 0.33574,0 0.511126,-0.180397 0.571259,-0.305673 h 0.01503 v 0.260574 h 0.295651 v -1.267792 c 0,-0.611347 -0.466026,-0.681501 -0.711567,-0.681501 -0.29064,0 -0.621369,0.10022 -0.7717,0.450993 l 0.280618,0.100221 c 0.06514,-0.140309 0.219233,-0.290641 0.501104,-0.290641 0.271849,0 0.405894,0.144068 0.405894,0.390861 v 0.01002 c 0,0.142815 -0.14532,0.130287 -0.496093,0.175387 -0.357036,0.04635 -0.746644,0.125276 -0.746644,0.566247 0,0.375828 0.29064,0.591302 0.656445,0.591302 z m 0.0451,-0.265585 c -0.235519,0 -0.405894,-0.105231 -0.405894,-0.310684 0,-0.225497 0.205452,-0.295651 0.43596,-0.325717 0.125276,-0.01503 0.461015,-0.05011 0.511126,-0.110243 v 0.270596 c 0,0.24053 -0.19042,0.476048 -0.541192,0.476048 z"
         style="stroke-width:0.264583"
         id="path6204" />
      <path
         d="m 72.721251,19.86442 h 0.285629 v -0.295651 h 0.03508 c 0.06514,0.105232 0.190419,0.335739 0.561236,0.335739 0.48106,0 0.816799,-0.38585 0.816799,-0.997196 0,-0.606336 -0.335739,-0.992185 -0.82181,-0.992185 -0.375828,0 -0.491082,0.230507 -0.556225,0.330728 h -0.02505 v -0.947086 h -0.295651 z m 0.29064,-0.962119 c 0,-0.430949 0.190419,-0.721589 0.551214,-0.721589 0.375828,0 0.561236,0.315695 0.561236,0.721589 0,0.410905 -0.190419,0.736622 -0.561236,0.736622 -0.355784,0 -0.551214,-0.300662 -0.551214,-0.736622 z"
         style="stroke-width:0.264583"
         id="path6206" />
      <path
         d="M 75.166631,17.298769 H 74.87098 v 2.565651 h 0.295651 z"
         style="stroke-width:0.264583"
         id="path6208" />
      <path
         d="m 76.514597,19.904508 c 0.390861,0 0.67649,-0.19543 0.766689,-0.48607 l -0.285629,-0.08018 c -0.07517,0.200442 -0.249299,0.300662 -0.48106,0.300662 -0.347014,0 -0.586291,-0.224244 -0.600071,-0.636401 h 1.396826 v -0.125276 c 0,-0.716579 -0.425938,-0.962119 -0.826821,-0.962119 -0.521148,0 -0.866909,0.410905 -0.866909,1.002207 0,0.591302 0.34075,0.987174 0.896975,0.987174 z m -0.600071,-1.157549 c 0.02004,-0.29941 0.23176,-0.566247 0.570005,-0.566247 0.320706,0 0.526159,0.240529 0.526159,0.566247 z"
         style="stroke-width:0.264583"
         id="path6210" />
      <path
         d="M 79.591366,17.940182 H 79.180461 V 17.479166 H 78.88481 v 0.461016 h -0.29064 v 0.250552 h 0.29064 v 1.202648 c 0,0.33574 0.270596,0.496093 0.521148,0.496093 0.110242,0 0.180397,-0.02004 0.220485,-0.03508 l -0.06013,-0.265585 c -0.02505,0.005 -0.06514,0.01503 -0.130287,0.01503 -0.130287,0 -0.255563,-0.04009 -0.255563,-0.29064 v -1.122472 h 0.410905 z"
         style="stroke-width:0.264583"
         id="path6212" />
      <path
         d="m 80.799024,19.904508 c 0.521148,0 0.87192,-0.395872 0.87192,-0.992185 0,-0.601325 -0.350772,-0.997196 -0.87192,-0.997196 -0.521148,0 -0.871921,0.395871 -0.871921,0.997196 0,0.596313 0.350773,0.992185 0.871921,0.992185 z m 0,-0.265585 c -0.395872,0 -0.576269,-0.34075 -0.576269,-0.7266 0,-0.38585 0.180397,-0.731611 0.576269,-0.731611 0.395872,0 0.576269,0.345761 0.576269,0.731611 0,0.38585 -0.180397,0.7266 -0.576269,0.7266 z"
         style="stroke-width:0.264583"
         id="path6214" />
      <path
         d="m 83.154202,19.86442 h 0.310684 v -0.831832 l 0.320706,-0.360795 0.891965,1.192627 h 0.375828 l -1.077373,-1.408101 1.077373,-1.15755 h -0.405894 l -1.152539,1.272803 h -0.03007 v -1.272803 h -0.310684 z"
         style="stroke-width:0.264583"
         id="path6216" />
      <path
         d="m 86.080638,19.904508 c 0.390861,0 0.67649,-0.19543 0.766689,-0.48607 l -0.285629,-0.08018 c -0.07517,0.200442 -0.249299,0.300662 -0.48106,0.300662 -0.347014,0 -0.586291,-0.224244 -0.600071,-0.636401 h 1.396826 v -0.125276 c 0,-0.716579 -0.425938,-0.962119 -0.826821,-0.962119 -0.521148,0 -0.866909,0.410905 -0.866909,1.002207 0,0.591302 0.34075,0.987174 0.896975,0.987174 z m -0.600071,-1.157549 c 0.02004,-0.29941 0.23176,-0.566247 0.570005,-0.566247 0.320706,0 0.526159,0.240529 0.526159,0.566247 z"
         style="stroke-width:0.264583"
         id="path6218" />
      <path
         d="m 87.508782,20.611064 c 0.270596,0 0.456005,-0.140309 0.566247,-0.43596 l 0.826821,-2.234922 h -0.320706 l -0.53117,1.533377 h -0.02004 l -0.53117,-1.533377 h -0.320706 l 0.711567,1.93426 -0.06514,0.180397 c -0.10398,0.288135 -0.24053,0.315696 -0.456005,0.260574 l -0.07516,0.260574 c 0.03007,0.01503 0.115253,0.03508 0.215474,0.03508 z"
         style="stroke-width:0.264583"
         id="path6220" />
      <path
         d="m 89.332798,19.86442 h 0.285629 v -0.295651 h 0.03508 c 0.06514,0.105232 0.19042,0.335739 0.561237,0.335739 0.481059,0 0.816799,-0.38585 0.816799,-0.997196 0,-0.606336 -0.33574,-0.992185 -0.82181,-0.992185 -0.375828,0 -0.491082,0.230507 -0.556226,0.330728 h -0.02505 v -0.947086 h -0.295651 z m 0.29064,-0.962119 c 0,-0.430949 0.19042,-0.721589 0.551214,-0.721589 0.375828,0 0.561236,0.315695 0.561236,0.721589 0,0.410905 -0.190419,0.736622 -0.561236,0.736622 -0.355783,0 -0.551214,-0.300662 -0.551214,-0.736622 z"
         style="stroke-width:0.264583"
         id="path6222" />
      <path
         d="m 92.264249,19.904508 c 0.521148,0 0.87192,-0.395872 0.87192,-0.992185 0,-0.601325 -0.350772,-0.997196 -0.87192,-0.997196 -0.521148,0 -0.87192,0.395871 -0.87192,0.997196 0,0.596313 0.350772,0.992185 0.87192,0.992185 z m 0,-0.265585 c -0.395872,0 -0.576269,-0.34075 -0.576269,-0.7266 0,-0.38585 0.180397,-0.731611 0.576269,-0.731611 0.395872,0 0.576269,0.345761 0.576269,0.731611 0,0.38585 -0.180397,0.7266 -0.576269,0.7266 z"
         style="stroke-width:0.264583"
         id="path6224" />
      <path
         d="m 94.153406,19.909519 c 0.335739,0 0.511126,-0.180397 0.571258,-0.305673 h 0.01503 v 0.260574 h 0.295651 v -1.267792 c 0,-0.611347 -0.466026,-0.681501 -0.711567,-0.681501 -0.29064,0 -0.621368,0.10022 -0.7717,0.450993 l 0.280618,0.100221 c 0.06514,-0.140309 0.219233,-0.290641 0.501104,-0.290641 0.271849,0 0.405894,0.144068 0.405894,0.390861 v 0.01002 c 0,0.142815 -0.14532,0.130287 -0.496093,0.175387 -0.357036,0.04635 -0.746644,0.125276 -0.746644,0.566247 0,0.375828 0.29064,0.591302 0.656446,0.591302 z m 0.0451,-0.265585 c -0.235519,0 -0.405894,-0.105231 -0.405894,-0.310684 0,-0.225497 0.205453,-0.295651 0.43596,-0.325717 0.125276,-0.01503 0.461016,-0.05011 0.511126,-0.110243 v 0.270596 c 0,0.24053 -0.190419,0.476048 -0.541192,0.476048 z"
         style="stroke-width:0.264583"
         id="path6226" />
      <path
         d="m 95.576539,19.86442 h 0.295651 v -1.217682 c 0,-0.259321 0.205452,-0.450993 0.48607,-0.450993 0.07391,0 0.129035,0.01378 0.170376,0.03508 l 0.10022,-0.250552 c -0.06013,-0.04259 -0.139056,-0.07015 -0.245541,-0.07015 -0.233013,0 -0.432201,0.130286 -0.501103,0.320706 h -0.02004 v -0.29064 h -0.285629 z"
         style="stroke-width:0.264583"
         id="path6228" />
      <path
         d="m 97.595982,19.904508 c 0.370816,0 0.496092,-0.230507 0.561236,-0.335739 h 0.03508 v 0.295651 h 0.285629 v -2.565651 h -0.295651 v 0.947086 h -0.02505 c -0.06514,-0.100221 -0.180397,-0.330728 -0.556225,-0.330728 -0.486071,0 -0.82181,0.385849 -0.82181,0.992185 0,0.611346 0.335739,0.997196 0.816799,0.997196 z m 0.04009,-0.265585 c -0.370817,0 -0.561236,-0.325717 -0.561236,-0.736622 0,-0.405894 0.185408,-0.721589 0.561236,-0.721589 0.360795,0 0.551214,0.29064 0.551214,0.721589 0,0.43596 -0.19543,0.736622 -0.551214,0.736622 z"
         style="stroke-width:0.264583"
         id="path6230" />
    </g>
    <path
       style="fill:none;stroke:#ff0000;stroke-width:0.264999;stroke-linecap:butt;stroke-linejoin:miter;stroke-miterlimit:4;stroke-dasharray:none;stroke-opacity:1"
       d="m 99.367047,19.963289 h 0.645573 v 20.053055"
       id="path200-7-5"
       sodipodi:nodetypes="ccc" />
  </g>
</svg>
