<?xml version="1.0" encoding="UTF-8" standalone="no"?>
<svg
   xmlns:dc="http://purl.org/dc/elements/1.1/"
   xmlns:cc="http://creativecommons.org/ns#"
   xmlns:rdf="http://www.w3.org/1999/02/22-rdf-syntax-ns#"
   xmlns:svg="http://www.w3.org/2000/svg"
   xmlns="http://www.w3.org/2000/svg"
   xmlns:xlink="http://www.w3.org/1999/xlink"
   xmlns:sodipodi="http://sodipodi.sourceforge.net/DTD/sodipodi-0.dtd"
   xmlns:inkscape="http://www.inkscape.org/namespaces/inkscape"
   width="148mm"
   height="130mm"
   viewBox="0 0 148 130"
   version="1.1"
   id="svg8"
   inkscape:version="1.0.1 (3bc2e813f5, 2020-09-07)"
   sodipodi:docname="refman-5x.svg"
   inkscape:export-filename="/home/mntmn/code/reform-handbook/src/source/_static/illustrations/2t-callouts.png"
   inkscape:export-xdpi="600.0954"
   inkscape:export-ydpi="600.0954">
  <defs
     id="defs2">
    <rect
       x="34.146812"
       y="128.59737"
       width="45.334026"
       height="16.606207"
       id="rect1287" />
  </defs>
  <sodipodi:namedview
     id="base"
     pagecolor="#ffffff"
     bordercolor="#666666"
     borderopacity="1.0"
     inkscape:pageopacity="0.0"
     inkscape:pageshadow="2"
     inkscape:zoom="1.4"
     inkscape:cx="351.42119"
     inkscape:cy="158.3307"
     inkscape:document-units="mm"
     inkscape:current-layer="layer2"
     inkscape:document-rotation="0"
     showgrid="true"
     inkscape:window-width="2560"
     inkscape:window-height="1406"
     inkscape:window-x="0"
     inkscape:window-y="0"
     inkscape:window-maximized="1"
     inkscape:snap-global="false"
     inkscape:snap-intersection-paths="true">
    <inkscape:grid
       type="xygrid"
       id="grid10"
       units="mm"
       spacingx="10"
       spacingy="10" />
  </sodipodi:namedview>
  <metadata
     id="metadata5">
    <rdf:RDF>
      <cc:Work
         rdf:about="">
        <dc:format>image/svg+xml</dc:format>
        <dc:type
           rdf:resource="http://purl.org/dc/dcmitype/StillImage" />
        <dc:title></dc:title>
      </cc:Work>
    </rdf:RDF>
  </metadata>
  <g
     inkscape:label="pic"
     inkscape:groupmode="layer"
     id="layer1">
    <image
       sodipodi:absref="/home/mntmn/code/reform-handbook/src/source/_static/illustrations/5t.png"
       xlink:href="../_static/illustrations/5t.png"
       width="148.08478"
       height="87.324966"
       preserveAspectRatio="none"
       id="image1678"
       x="0.11409783"
       y="15.621419" />
  </g>
  <g
     inkscape:groupmode="layer"
     id="layer2"
     inkscape:label="callouts">
    <g
       aria-label="Circle Key"
       id="text130-3-5-6-9-1"
       style="font-size:3.52777px;line-height:1.25;font-family:Inter;-inkscape-font-specification:Inter;stroke-width:0.264583">
      <path
         d="m 114.38252,8.336601 c -0.0714,-0.5925551 -0.5199,-0.9333056 -1.11371,-0.9333056 -0.67774,0 -1.19513,0.478554 -1.19513,1.3179027 0,0.8368432 0.50862,1.3179029 1.19513,1.3179029 0.6577,0 1.05483,-0.4372132 1.11371,-0.9095034 l -0.54871,-0.00251 c -0.0514,0.2743543 -0.26684,0.4322019 -0.55623,0.4322019 -0.3896,0 -0.65394,-0.2893874 -0.65394,-0.8380959 0,-0.5336755 0.26058,-0.838096 0.6577,-0.838096 0.29691,0 0.51113,0.1716281 0.55247,0.4534989 z"
         style="font-weight:bold"
         id="path13388" />
      <path
         d="m 114.7621,10.004024 h 0.53368 V 8.0797853 h -0.53368 z m 0.26809,-2.172285 c 0.1591,0 0.28939,-0.1215176 0.28939,-0.270596 0,-0.1478256 -0.13029,-0.2693432 -0.28939,-0.2693432 -0.15784,0 -0.28813,0.1215176 -0.28813,0.2693432 0,0.1490784 0.13029,0.270596 0.28813,0.270596 z"
         style="font-weight:bold"
         id="path13390" />
      <path
         d="m 115.72171,10.004024 h 0.53368 V 8.9153758 c 0.001,-0.2355188 0.17163,-0.3971247 0.3871,-0.3971247 0.0727,0 0.13154,0.020044 0.18165,0.045099 l 0.16036,-0.4409712 c -0.0702,-0.042594 -0.16036,-0.070155 -0.26308,-0.070155 -0.21673,0 -0.39212,0.125276 -0.46227,0.3633002 h -0.0201 V 8.0797853 h -0.51739 z"
         style="font-weight:bold"
         id="path13392" />
      <path
         d="m 118.013,10.041606 c 0.51238,0 0.83434,-0.3006619 0.85939,-0.7428859 h -0.5036 c -0.0313,0.2054525 -0.16662,0.3207064 -0.34952,0.3207064 -0.2493,0 -0.41091,-0.2092108 -0.41091,-0.5775221 0,-0.3633001 0.16286,-0.5712582 0.41091,-0.5712582 0.19543,0 0.3207,0.1290342 0.34952,0.3207064 h 0.5036 c -0.0225,-0.4447295 -0.35954,-0.7366224 -0.86189,-0.7366224 -0.58379,0 -0.94458,0.4046412 -0.94458,0.9946908 0,0.5850386 0.35453,0.992185 0.94708,0.992185 z"
         style="font-weight:bold"
         id="path13394" />
      <path
         d="m 119.74932,7.4383726 h -0.53367 v 2.5656514 h 0.53367 z"
         style="font-weight:bold"
         id="path13396" />
      <path
         d="m 121.05219,10.041606 c 0.47605,0 0.79675,-0.2317601 0.87192,-0.5887965 l -0.49359,-0.032572 c -0.0539,0.1465729 -0.19167,0.2229912 -0.36956,0.2229912 -0.26684,0 -0.43596,-0.1766391 -0.43596,-0.4635209 v -0.00125 h 1.31038 V 9.0318824 c 0,-0.6539404 -0.39587,-0.9771522 -0.90449,-0.9771522 -0.56624,0 -0.9333,0.4021357 -0.9333,0.9959436 0,0.6100937 0.36204,0.9909322 0.9546,0.9909322 z M 120.625,8.8477268 c 0.0113,-0.2192329 0.17789,-0.3946192 0.41466,-0.3946192 0.23176,0 0.39212,0.1653642 0.39337,0.3946192 z"
         style="font-weight:bold"
         id="path13398" />
      <path
         d="m 123.37354,10.004024 h 0.31068 V 9.1721914 l 0.32071,-0.3607947 0.89196,1.1926273 h 0.37583 l -1.07737,-1.4081018 1.07737,-1.1575496 h -0.40589 l -1.15254,1.2728034 h -0.0301 V 7.4383726 h -0.31068 z"
         style="stroke-width:0.264583"
         id="path13400" />
      <path
         d="m 126.29997,10.044112 c 0.39086,0 0.67649,-0.1954306 0.76669,-0.4860707 l -0.28563,-0.080177 c -0.0752,0.2004414 -0.2493,0.3006622 -0.48106,0.3006622 -0.34701,0 -0.58629,-0.2242439 -0.60007,-0.6364017 h 1.39683 V 9.0168493 c 0,-0.7165783 -0.42594,-0.9621191 -0.82682,-0.9621191 -0.52115,0 -0.86691,0.410905 -0.86691,1.0022074 0,0.5913023 0.34075,0.9871744 0.89697,0.9871744 z M 125.6999,8.8865623 c 0.02,-0.2994095 0.23176,-0.5662472 0.57001,-0.5662472 0.3207,0 0.52616,0.2405298 0.52616,0.5662472 z"
         style="stroke-width:0.264583"
         id="path13402" />
      <path
         d="m 127.72812,10.750668 c 0.27059,0 0.456,-0.140309 0.56625,-0.43596 l 0.82682,-2.2349227 h -0.32071 l -0.53117,1.5333774 h -0.02 L 127.7181,8.0797853 h -0.32071 l 0.71157,1.9342607 -0.0651,0.180397 c -0.10397,0.288135 -0.24053,0.315695 -0.456,0.260574 l -0.0752,0.260574 c 0.0301,0.01503 0.11526,0.03508 0.21548,0.03508 z"
         style="stroke-width:0.264583"
         id="path13404" />
    </g>
    <path
       style="fill:none;stroke:red;stroke-width:0.25;stroke-linecap:butt;stroke-linejoin:miter;stroke-miterlimit:4;stroke-dasharray:none;stroke-opacity:1"
       d="m 20.06199,57.696961 v 52.281259 h 9.992228"
       id="path204-3"
       sodipodi:nodetypes="ccc" />
    <g
       aria-label="Press Circle, then 1 to 
turn the power on"
       id="text130-3-5-6-9-6"
       style="font-size:3.52777px;line-height:1.25;font-family:Inter;-inkscape-font-specification:Inter;stroke-width:0.264583">
      <path
         d="m 31.845928,109.96776 h 0.310685 v -0.93707 h 0.561236 c 0.597566,0 0.866909,-0.3633 0.866909,-0.81679 0,-0.4535 -0.269343,-0.81179 -0.87192,-0.81179 h -0.86691 z m 0.310685,-1.21267 v -1.07738 h 0.546203 c 0.417168,0 0.576269,0.22801 0.576269,0.53619 0,0.30817 -0.159101,0.54119 -0.571258,0.54119 z"
         style="stroke-width:0.264583"
         id="path13407" />
      <path
         d="m 34.045773,109.96776 h 0.295651 v -1.21768 c 0,-0.25932 0.205453,-0.451 0.486071,-0.451 0.07391,0 0.129034,0.0138 0.170375,0.0351 l 0.100221,-0.25055 c -0.06013,-0.0426 -0.139057,-0.0702 -0.245541,-0.0702 -0.233013,0 -0.432202,0.13029 -0.501104,0.32071 h -0.02004 v -0.29064 h -0.285629 z"
         style="stroke-width:0.264583"
         id="path13409" />
      <path
         d="m 36.145393,110.00785 c 0.390861,0 0.67649,-0.19543 0.766689,-0.48607 l -0.285629,-0.0802 c -0.07517,0.20044 -0.249299,0.30066 -0.48106,0.30066 -0.347014,0 -0.586291,-0.22424 -0.600071,-0.6364 h 1.396826 v -0.12528 c 0,-0.71657 -0.425938,-0.96212 -0.826821,-0.96212 -0.521148,0 -0.866909,0.41091 -0.866909,1.00221 0,0.5913 0.34075,0.98718 0.896975,0.98718 z m -0.600071,-1.15755 c 0.02004,-0.29941 0.23176,-0.56625 0.570005,-0.56625 0.320706,0 0.526159,0.24053 0.526159,0.56625 z"
         style="stroke-width:0.264583"
         id="path13411" />
      <path
         d="m 38.756142,108.47447 c -0.0927,-0.2731 -0.300662,-0.45601 -0.681501,-0.45601 -0.405894,0 -0.706556,0.23051 -0.706556,0.55623 0,0.26558 0.157848,0.44348 0.511126,0.52616 l 0.320706,0.0752 c 0.194178,0.0451 0.285629,0.13781 0.285629,0.2706 0,0.16536 -0.175386,0.30066 -0.450993,0.30066 -0.241783,0 -0.393366,-0.10398 -0.445982,-0.31068 l -0.280618,0.0701 c 0.0689,0.32697 0.338245,0.50111 0.731611,0.50111 0.447235,0 0.751656,-0.24429 0.751656,-0.57627 0,-0.26809 -0.16787,-0.43722 -0.511126,-0.52115 l -0.285629,-0.0702 c -0.228002,-0.0564 -0.330729,-0.13279 -0.330729,-0.28061 0,-0.16537 0.175387,-0.28563 0.410905,-0.28563 0.258069,0 0.364553,0.14281 0.415916,0.2756 z"
         style="stroke-width:0.264583"
         id="path13413" />
      <path
         d="m 40.600199,108.47447 c -0.0927,-0.2731 -0.300662,-0.45601 -0.681501,-0.45601 -0.405894,0 -0.706556,0.23051 -0.706556,0.55623 0,0.26558 0.157848,0.44348 0.511126,0.52616 l 0.320706,0.0752 c 0.194178,0.0451 0.285629,0.13781 0.285629,0.2706 0,0.16536 -0.175386,0.30066 -0.450993,0.30066 -0.241782,0 -0.393366,-0.10398 -0.445982,-0.31068 l -0.280618,0.0701 c 0.0689,0.32697 0.338245,0.50111 0.731611,0.50111 0.447235,0 0.751656,-0.24429 0.751656,-0.57627 0,-0.26809 -0.16787,-0.43722 -0.511126,-0.52115 l -0.285629,-0.0702 c -0.228002,-0.0564 -0.330729,-0.13279 -0.330729,-0.28061 0,-0.16537 0.175387,-0.28563 0.410905,-0.28563 0.258069,0 0.364553,0.14281 0.415916,0.2756 z"
         style="stroke-width:0.264583"
         id="path13415" />
      <path
         d="m 44.289564,108.30034 c -0.07141,-0.59256 -0.519895,-0.93331 -1.113702,-0.93331 -0.677743,0 -1.195133,0.47855 -1.195133,1.3179 0,0.83685 0.50862,1.31791 1.195133,1.31791 0.657698,0 1.054823,-0.43722 1.113702,-0.90951 l -0.548708,-0.002 c -0.05136,0.27435 -0.266838,0.4322 -0.556225,0.4322 -0.389608,0 -0.653941,-0.28939 -0.653941,-0.8381 0,-0.53367 0.260574,-0.83809 0.657699,-0.83809 0.296904,0 0.511126,0.17162 0.552467,0.4535 z"
         style="font-weight:bold"
         id="path13417" />
      <path
         d="m 44.66915,109.96776 h 0.533675 v -1.92424 H 44.66915 Z m 0.26809,-2.17229 c 0.159101,0 0.289388,-0.12151 0.289388,-0.27059 0,-0.14783 -0.130287,-0.26935 -0.289388,-0.26935 -0.157848,0 -0.288135,0.12152 -0.288135,0.26935 0,0.14908 0.130287,0.27059 0.288135,0.27059 z"
         style="font-weight:bold"
         id="path13419" />
      <path
         d="m 45.628762,109.96776 h 0.533675 v -1.08865 c 0.0013,-0.23552 0.171628,-0.39712 0.387103,-0.39712 0.07266,0 0.131539,0.02 0.18165,0.0451 l 0.160353,-0.44098 c -0.07015,-0.0426 -0.160353,-0.0701 -0.26308,-0.0701 -0.216727,0 -0.392113,0.12528 -0.462268,0.3633 h -0.02004 v -0.33574 h -0.517389 z"
         style="font-weight:bold"
         id="path13421" />
      <path
         d="m 47.92005,110.00534 c 0.512378,0 0.834337,-0.30066 0.859392,-0.74289 h -0.503609 c -0.03132,0.20546 -0.166617,0.32071 -0.34952,0.32071 -0.249299,0 -0.410905,-0.20921 -0.410905,-0.57752 0,-0.3633 0.162859,-0.57126 0.410905,-0.57126 0.195431,0 0.320707,0.12904 0.34952,0.32071 h 0.503609 c -0.02255,-0.44473 -0.359542,-0.73663 -0.861898,-0.73663 -0.583786,0 -0.94458,0.40465 -0.94458,0.9947 0,0.58503 0.35453,0.99218 0.947086,0.99218 z"
         style="font-weight:bold"
         id="path13423" />
      <path
         d="m 49.656368,107.40211 h -0.533676 v 2.56565 h 0.533676 z"
         style="font-weight:bold"
         id="path13425" />
      <path
         d="m 50.959236,110.00534 c 0.476048,0 0.796755,-0.23176 0.87192,-0.5888 l -0.493587,-0.0326 c -0.05387,0.14658 -0.191672,0.22299 -0.369564,0.22299 -0.266838,0 -0.43596,-0.17664 -0.43596,-0.46352 v -0.001 h 1.310386 v -0.14657 c 0,-0.65394 -0.395872,-0.97716 -0.904492,-0.97716 -0.566247,0 -0.933306,0.40214 -0.933306,0.99595 0,0.61009 0.362048,0.99093 0.954603,0.99093 z m -0.427191,-1.19388 c 0.01128,-0.21923 0.177892,-0.39462 0.414663,-0.39462 0.231761,0 0.392114,0.16537 0.393367,0.39462 z"
         style="font-weight:bold"
         id="path13427" />
      <path
         d="m 52.770719,109.61699 h -0.440971 l -0.0063,0.1403 c -0.01503,0.34076 -0.112749,0.69027 -0.149079,0.83685 h 0.345762 c 0.06013,-0.15159 0.202947,-0.50737 0.236771,-0.83935 z"
         style="font-weight:bold"
         id="path13429" />
      <path
         d="M 54.980578,108.04352 H 54.61853 v -0.46102 h -0.533675 v 0.46102 h -0.26308 v 0.40088 h 0.26308 v 1.00221 c -0.0025,0.37708 0.25431,0.56374 0.641413,0.54746 0.137803,-0.005 0.235518,-0.0326 0.289387,-0.0501 l -0.08394,-0.39713 c -0.02631,0.005 -0.08268,0.0175 -0.132792,0.0175 -0.106485,0 -0.180398,-0.0401 -0.180398,-0.18791 v -0.93206 h 0.362048 z"
         style="font-weight:bold"
         id="path13431" />
      <path
         d="m 55.901344,108.85531 c 0.0013,-0.24805 0.152836,-0.39337 0.370817,-0.39337 0.216727,0 0.344508,0.13906 0.343256,0.37583 v 1.12999 h 0.533675 v -1.2252 c 0.0013,-0.45099 -0.264332,-0.7241 -0.665215,-0.7241 -0.291893,0 -0.487323,0.13781 -0.575017,0.36456 h -0.02255 v -0.98091 h -0.518643 v 2.56565 h 0.533676 z"
         style="font-weight:bold"
         id="path13433" />
      <path
         d="m 58.446947,110.00534 c 0.476048,0 0.796755,-0.23176 0.87192,-0.5888 l -0.493587,-0.0326 c -0.05387,0.14658 -0.191672,0.22299 -0.369564,0.22299 -0.266838,0 -0.43596,-0.17664 -0.43596,-0.46352 v -0.001 h 1.310386 v -0.14657 c 0,-0.65394 -0.395872,-0.97716 -0.904492,-0.97716 -0.566247,0 -0.933306,0.40214 -0.933306,0.99595 0,0.61009 0.362048,0.99093 0.954603,0.99093 z m -0.427191,-1.19388 c 0.01127,-0.21923 0.177892,-0.39462 0.414663,-0.39462 0.231761,0 0.392114,0.16537 0.393366,0.39462 z"
         style="font-weight:bold"
         id="path13435" />
      <path
         d="m 60.212078,108.85531 c 0.0013,-0.24805 0.149078,-0.39337 0.364553,-0.39337 0.214221,0 0.343256,0.14031 0.342003,0.37583 v 1.12999 h 0.533675 v -1.2252 c 0,-0.44849 -0.263079,-0.7241 -0.663962,-0.7241 -0.285629,0 -0.492334,0.14031 -0.578775,0.36456 h -0.02255 v -0.3395 h -0.50862 v 1.92424 h 0.533676 z"
         style="font-weight:bold"
         id="path13437" />
      <path
         d="m 63.747356,107.40211 h -0.53117 c -0.0063,0.15659 -0.226749,0.42343 -0.556225,0.42343 v 0.43095 c 0.283124,0 0.467279,-0.10523 0.522401,-0.19042 h 0.0238 v 1.90169 h 0.541192 z"
         style="font-weight:bold"
         id="path13439" />
      <path
         d="m 66.249106,108.04352 h -0.410905 v -0.46102 h -0.295652 v 0.46102 h -0.29064 v 0.25055 h 0.29064 v 1.20265 c 0,0.33574 0.270596,0.49609 0.521148,0.49609 0.110243,0 0.180398,-0.02 0.220486,-0.0351 l -0.06013,-0.26559 c -0.02506,0.005 -0.06514,0.015 -0.130287,0.015 -0.130287,0 -0.255562,-0.0401 -0.255562,-0.29064 v -1.12247 h 0.410905 z"
         style="stroke-width:0.264583"
         id="path13441" />
      <path
         d="m 67.456763,110.00785 c 0.521148,0 0.871921,-0.39588 0.871921,-0.99219 0,-0.60132 -0.350773,-0.9972 -0.871921,-0.9972 -0.521147,0 -0.87192,0.39588 -0.87192,0.9972 0,0.59631 0.350773,0.99219 0.87192,0.99219 z m 0,-0.26559 c -0.395872,0 -0.576269,-0.34075 -0.576269,-0.7266 0,-0.38585 0.180397,-0.73161 0.576269,-0.73161 0.395872,0 0.57627,0.34576 0.57627,0.73161 0,0.38585 -0.180398,0.7266 -0.57627,0.7266 z"
         style="stroke-width:0.264583"
         id="path13443" />
      <path
         d="m 32.642683,112.45323 h -0.410905 v -0.46101 h -0.295651 v 0.46101 h -0.29064 v 0.25055 h 0.29064 v 1.20265 c 0,0.33574 0.270596,0.4961 0.521148,0.4961 0.110243,0 0.180397,-0.02 0.220485,-0.0351 l -0.06013,-0.26559 c -0.02506,0.005 -0.06514,0.015 -0.130287,0.015 -0.130287,0 -0.255563,-0.0401 -0.255563,-0.29064 v -1.12248 h 0.410905 z"
         style="stroke-width:0.264583"
         id="path13445" />
      <path
         d="m 34.301335,113.59074 c 0,0.36079 -0.275607,0.52616 -0.496092,0.52616 -0.245541,0 -0.420928,-0.1804 -0.420928,-0.46102 v -1.20265 h -0.295651 v 1.2227 c 0,0.49108 0.260574,0.7266 0.621369,0.7266 0.29064,0 0.481059,-0.15535 0.571258,-0.35078 h 0.02004 v 0.32572 h 0.295651 v -1.92424 h -0.295651 z"
         style="stroke-width:0.264583"
         id="path13447" />
      <path
         d="m 35.138175,114.37747 h 0.295651 v -1.21768 c 0,-0.26058 0.205453,-0.45099 0.486071,-0.45099 0.07892,0 0.160353,0.015 0.180397,0.02 v -0.30066 c -0.03382,-0.003 -0.111495,-0.005 -0.155342,-0.005 -0.230508,0 -0.430949,0.13028 -0.501104,0.3207 h -0.02004 v -0.29064 h -0.285629 z"
         style="stroke-width:0.264583"
         id="path13449" />
      <path
         d="m 36.746714,113.21992 c 0,-0.33574 0.207958,-0.52616 0.491082,-0.52616 0.274354,0 0.440971,0.17915 0.440971,0.48106 v 1.20265 h 0.295651 v -1.22269 c 0,-0.49108 -0.261826,-0.7266 -0.651434,-0.7266 -0.290641,0 -0.471038,0.13028 -0.561237,0.32571 h -0.02506 v -0.30066 h -0.285629 v 1.92424 h 0.295651 z"
         style="stroke-width:0.264583"
         id="path13451" />
      <path
         d="m 40.344628,112.45323 h -0.410905 v -0.46101 h -0.295651 v 0.46101 h -0.29064 v 0.25055 h 0.29064 v 1.20265 c 0,0.33574 0.270596,0.4961 0.521148,0.4961 0.110242,0 0.180397,-0.02 0.220485,-0.0351 l -0.06013,-0.26559 c -0.02506,0.005 -0.06514,0.015 -0.130287,0.015 -0.130287,0 -0.255563,-0.0401 -0.255563,-0.29064 v -1.12248 h 0.410905 z"
         style="stroke-width:0.264583"
         id="path13453" />
      <path
         d="m 41.126343,113.21992 c 0,-0.33574 0.214222,-0.52616 0.506115,-0.52616 0.278112,0 0.445982,0.17539 0.445982,0.48106 v 1.20265 h 0.295651 v -1.22269 c 0,-0.49484 -0.263079,-0.7266 -0.656446,-0.7266 -0.303167,0 -0.476048,0.12653 -0.566247,0.32571 h -0.02506 v -0.94207 h -0.295651 v 2.56565 h 0.295651 z"
         style="stroke-width:0.264583"
         id="path13455" />
      <path
         d="m 43.722057,114.41756 c 0.390861,0 0.67649,-0.19543 0.766688,-0.48607 l -0.285629,-0.0802 c -0.07516,0.20044 -0.249299,0.30066 -0.481059,0.30066 -0.347015,0 -0.586292,-0.22424 -0.600072,-0.6364 h 1.396827 v -0.12527 c 0,-0.71658 -0.425938,-0.96212 -0.826821,-0.96212 -0.521148,0 -0.86691,0.4109 -0.86691,1.0022 0,0.59131 0.340751,0.98718 0.896976,0.98718 z m -0.600072,-1.15755 c 0.02004,-0.29941 0.231761,-0.56625 0.570006,-0.56625 0.320706,0 0.526158,0.24053 0.526158,0.56625 z"
         style="stroke-width:0.264583"
         id="path13457" />
      <path
         d="m 45.961982,115.09906 h 0.295651 v -1.01724 h 0.02506 c 0.06514,0.10523 0.190419,0.33574 0.561236,0.33574 0.481059,0 0.816799,-0.38585 0.816799,-0.9972 0,-0.60633 -0.33574,-0.99218 -0.82181,-0.99218 -0.375828,0 -0.491082,0.23051 -0.556225,0.33073 h -0.03508 v -0.30568 h -0.285629 z m 0.29064,-1.68371 c 0,-0.43095 0.19042,-0.72159 0.551214,-0.72159 0.375828,0 0.561237,0.3157 0.561237,0.72159 0,0.41091 -0.19042,0.73662 -0.561237,0.73662 -0.355783,0 -0.551214,-0.30066 -0.551214,-0.73662 z"
         style="stroke-width:0.264583"
         id="path13459" />
      <path
         d="m 48.893432,114.41756 c 0.521148,0 0.87192,-0.39587 0.87192,-0.99219 0,-0.60132 -0.350772,-0.99719 -0.87192,-0.99719 -0.521148,0 -0.871921,0.39587 -0.871921,0.99719 0,0.59632 0.350773,0.99219 0.871921,0.99219 z m 0,-0.26559 c -0.395872,0 -0.576269,-0.34075 -0.576269,-0.7266 0,-0.38585 0.180397,-0.73161 0.576269,-0.73161 0.395872,0 0.576269,0.34576 0.576269,0.73161 0,0.38585 -0.180397,0.7266 -0.576269,0.7266 z"
         style="stroke-width:0.264583"
         id="path13461" />
      <path
         d="m 50.587156,114.37747 h 0.29064 l 0.420927,-1.47826 h 0.03007 l 0.420927,1.47826 h 0.29064 l 0.586291,-1.92424 h -0.310684 l -0.415916,1.46824 h -0.02004 l -0.405894,-1.46824 h -0.315696 l -0.410905,1.47325 h -0.02004 l -0.415916,-1.47325 h -0.310684 z"
         style="stroke-width:0.264583"
         id="path13463" />
      <path
         d="m 53.759132,114.41756 c 0.390861,0 0.67649,-0.19543 0.766688,-0.48607 l -0.285629,-0.0802 c -0.07517,0.20044 -0.249299,0.30066 -0.481059,0.30066 -0.347014,0 -0.586291,-0.22424 -0.600072,-0.6364 h 1.396827 v -0.12527 c 0,-0.71658 -0.425938,-0.96212 -0.826821,-0.96212 -0.521148,0 -0.86691,0.4109 -0.86691,1.0022 0,0.59131 0.340751,0.98718 0.896976,0.98718 z m -0.600072,-1.15755 c 0.02004,-0.29941 0.231761,-0.56625 0.570006,-0.56625 0.320706,0 0.526158,0.24053 0.526158,0.56625 z"
         style="stroke-width:0.264583"
         id="path13465" />
      <path
         d="m 55.006878,114.37747 h 0.295652 v -1.21768 c 0,-0.25932 0.205452,-0.45099 0.48607,-0.45099 0.07391,0 0.129034,0.0138 0.170375,0.0351 l 0.100221,-0.25055 c -0.06013,-0.0426 -0.139056,-0.0701 -0.245541,-0.0701 -0.233013,0 -0.432202,0.13028 -0.501103,0.3207 h -0.02004 v -0.29064 h -0.285629 z"
         style="stroke-width:0.264583"
         id="path13467" />
      <path
         d="m 58.133758,114.41756 c 0.521148,0 0.87192,-0.39587 0.87192,-0.99219 0,-0.60132 -0.350772,-0.99719 -0.87192,-0.99719 -0.521148,0 -0.871921,0.39587 -0.871921,0.99719 0,0.59632 0.350773,0.99219 0.871921,0.99219 z m 0,-0.26559 c -0.395872,0 -0.57627,-0.34075 -0.57627,-0.7266 0,-0.38585 0.180398,-0.73161 0.57627,-0.73161 0.395872,0 0.576269,0.34576 0.576269,0.73161 0,0.38585 -0.180397,0.7266 -0.576269,0.7266 z"
         style="stroke-width:0.264583"
         id="path13469" />
      <path
         d="m 59.752319,113.21992 c 0,-0.33574 0.207958,-0.52616 0.491081,-0.52616 0.274354,0 0.440971,0.17915 0.440971,0.48106 v 1.20265 h 0.295652 v -1.22269 c 0,-0.49108 -0.261827,-0.7266 -0.651435,-0.7266 -0.29064,0 -0.471038,0.13028 -0.561236,0.32571 h -0.02506 v -0.30066 h -0.28563 v 1.92424 h 0.295652 z"
         style="stroke-width:0.264583"
         id="path13471" />
    </g>
    <path
       style="fill:none;stroke:red;stroke-width:0.25;stroke-linecap:butt;stroke-linejoin:miter;stroke-miterlimit:4;stroke-dasharray:none;stroke-opacity:1"
       d="M 135.9262,48.335143 V 9.9896134 h -5.94763"
       id="path204-9"
       sodipodi:nodetypes="ccc" />
  </g>
  <g
     inkscape:groupmode="layer"
     id="layer3"
     inkscape:label="callouts 2">
    <path
       style="color:black;font-style:normal;font-variant:normal;font-weight:normal;font-stretch:normal;font-size:medium;line-height:normal;font-family:sans-serif;font-variant-ligatures:normal;font-variant-position:normal;font-variant-caps:normal;font-variant-numeric:normal;font-variant-alternates:normal;font-feature-settings:normal;text-indent:0;text-align:start;text-decoration:none;text-decoration-line:none;text-decoration-style:solid;text-decoration-color:black;letter-spacing:normal;word-spacing:normal;text-transform:none;writing-mode:lr-tb;direction:ltr;text-orientation:mixed;dominant-baseline:auto;baseline-shift:baseline;text-anchor:start;white-space:normal;shape-padding:0;clip-rule:nonzero;display:inline;overflow:visible;visibility:visible;opacity:1;isolation:auto;mix-blend-mode:normal;color-interpolation:sRGB;color-interpolation-filters:linearRGB;solid-color:black;solid-opacity:1;vector-effect:none;fill:black;fill-opacity:1;fill-rule:nonzero;stroke:none;stroke-width:0.25;stroke-linecap:butt;stroke-linejoin:miter;stroke-miterlimit:4;stroke-dasharray:none;stroke-dashoffset:0;stroke-opacity:1;color-rendering:auto;image-rendering:auto;shape-rendering:auto;text-rendering:auto;enable-background:accumulate"
       d="m 135.90206,46.69592 c -0.38315,0 -0.75072,0.152248 -1.02164,0.423182 -0.27094,0.270932 -0.42319,0.638494 -0.42319,1.021653 0,0.383157 0.15225,0.750716 0.42319,1.021649 0.27092,0.270933 0.63849,0.423182 1.02164,0.423182 0.38317,0 0.75072,-0.152249 1.02165,-0.423182 0.27093,-0.270933 0.42318,-0.638494 0.42318,-1.021651 0,-0.383159 -0.15225,-0.750719 -0.42318,-1.021651 -0.27093,-0.270934 -0.63848,-0.423182 -1.02165,-0.423182 z m 0,0.187908 c 0.3334,0 0.65304,0.132402 0.88878,0.368146 0.23575,0.235745 0.36814,0.555385 0.36814,0.888779 0,0.333393 -0.13239,0.653035 -0.36814,0.88878 -0.23574,0.235744 -0.55538,0.368144 -0.88878,0.368144 -0.33339,0 -0.65303,-0.1324 -0.88878,-0.368144 -0.23575,-0.235745 -0.36814,-0.555387 -0.36814,-0.88878 0,-0.333394 0.13239,-0.653034 0.36814,-0.888779 0.23575,-0.235744 0.55539,-0.368146 0.88878,-0.368146 z"
       id="circle3816"
       inkscape:connector-curvature="0" />
    <flowRoot
       inkscape:export-ydpi="300"
       inkscape:export-xdpi="300"
       transform="matrix(0.12112667,0,0,0.12112667,12.110588,40.175024)"
       style="font-style:normal;font-variant:normal;font-weight:500;font-stretch:normal;font-size:21.3333px;line-height:1.25;font-family:Inter;-inkscape-font-specification:'Inter Medium';letter-spacing:0px;word-spacing:0px;display:inline;opacity:0.96;fill:black;fill-opacity:1;stroke:none"
       id="flowRoot3284-3"
       xml:space="preserve"><flowRegion
         style="font-style:normal;font-variant:normal;font-weight:500;font-stretch:normal;font-size:21.3333px;font-family:Inter;-inkscape-font-specification:'Inter Medium';fill:black;fill-opacity:1"
         id="flowRegion3280-6"><rect
           style="font-style:normal;font-variant:normal;font-weight:500;font-stretch:normal;font-size:21.33333397px;font-family:Inter;-inkscape-font-specification:'Inter Medium';fill:#000000;fill-opacity:1;"
           y="118.4447"
           x="40.060768"
           height="52.156757"
           width="52.156757"
           id="rect3278-7" /></flowRegion><flowPara
         id="flowPara3282-5"
         style="font-style:normal;font-variant:normal;font-weight:normal;font-stretch:normal;font-size:21.3333px;font-family:Inter;-inkscape-font-specification:Inter;text-align:center;letter-spacing:0px;word-spacing:0px;text-anchor:middle;fill:black;fill-opacity:1">1</flowPara></flowRoot>
  </g>
</svg>
