<?xml version="1.0" encoding="UTF-8" standalone="no"?>
<svg
   xmlns:dc="http://purl.org/dc/elements/1.1/"
   xmlns:cc="http://creativecommons.org/ns#"
   xmlns:rdf="http://www.w3.org/1999/02/22-rdf-syntax-ns#"
   xmlns:svg="http://www.w3.org/2000/svg"
   xmlns="http://www.w3.org/2000/svg"
   xmlns:xlink="http://www.w3.org/1999/xlink"
   xmlns:sodipodi="http://sodipodi.sourceforge.net/DTD/sodipodi-0.dtd"
   xmlns:inkscape="http://www.inkscape.org/namespaces/inkscape"
   width="148mm"
   height="70mm"
   viewBox="0 0 148 70"
   version="1.1"
   id="svg8"
   inkscape:version="1.0.1 (3bc2e813f5, 2020-09-07)"
   sodipodi:docname="refman-oled1x.svg"
   inkscape:export-filename="/home/mntmn/code/reform-handbook/src/source/_static/illustrations/oled1-callouts.png"
   inkscape:export-xdpi="600.0954"
   inkscape:export-ydpi="600.0954">
  <defs
     id="defs2" />
  <sodipodi:namedview
     id="base"
     pagecolor="#ffffff"
     bordercolor="#666666"
     borderopacity="1.0"
     inkscape:pageopacity="0.0"
     inkscape:pageshadow="2"
     inkscape:zoom="2.8"
     inkscape:cx="328.49861"
     inkscape:cy="99.084723"
     inkscape:document-units="mm"
     inkscape:current-layer="layer1"
     inkscape:document-rotation="0"
     showgrid="true"
     inkscape:window-width="2560"
     inkscape:window-height="1406"
     inkscape:window-x="0"
     inkscape:window-y="0"
     inkscape:window-maximized="1"
     inkscape:snap-global="false">
    <inkscape:grid
       type="xygrid"
       id="grid10"
       units="mm"
       spacingx="10"
       spacingy="10" />
  </sodipodi:namedview>
  <metadata
     id="metadata5">
    <rdf:RDF>
      <cc:Work
         rdf:about="">
        <dc:format>image/svg+xml</dc:format>
        <dc:type
           rdf:resource="http://purl.org/dc/dcmitype/StillImage" />
        <dc:title></dc:title>
      </cc:Work>
    </rdf:RDF>
  </metadata>
  <g
     inkscape:label="Layer 1"
     inkscape:groupmode="layer"
     id="layer1">
    <image
       sodipodi:absref="/home/mntmn/code/reform-handbook/src/source/_static/illustrations/oled-gfx.png"
       xlink:href="../_static/illustrations/oled-gfx.png"
       y="25.003977"
       x="30.401068"
       id="image3311"
       preserveAspectRatio="none"
       height="28.846527"
       width="86.539581" />
    <g
       aria-label="Selected Function"
       id="text130-3-5-6-3"
       style="font-size:3.52777px;line-height:1.25;font-family:Inter;-inkscape-font-specification:Inter;stroke-width:0.264583">
      <path
         d="m 50.517432,18.100105 h 0.300662 c -0.01378,-0.387102 -0.370816,-0.67649 -0.866909,-0.67649 -0.491082,0 -0.876931,0.285629 -0.876931,0.716579 0,0.345761 0.250551,0.551214 0.651434,0.666468 l 0.315696,0.0902 c 0.270596,0.07517 0.511125,0.170375 0.511125,0.425938 0,0.280618 -0.270596,0.466027 -0.626379,0.466027 -0.305673,0 -0.576269,-0.135298 -0.601325,-0.425938 h -0.320706 c 0.03007,0.420927 0.370817,0.706556 0.922031,0.706556 0.591302,0 0.927042,-0.325718 0.927042,-0.741634 0,-0.481059 -0.456005,-0.636401 -0.72159,-0.706556 l -0.260574,-0.07015 c -0.190419,-0.05011 -0.496092,-0.150331 -0.496092,-0.425939 0,-0.24554 0.225496,-0.425938 0.566247,-0.425938 0.310684,0 0.546203,0.147826 0.576269,0.400883 z"
         style="stroke-width:0.264583"
         id="path18978" />
      <path
         d="m 52.130982,20.064432 c 0.390861,0 0.67649,-0.195431 0.766689,-0.486071 l -0.285629,-0.08018 c -0.07517,0.200441 -0.249299,0.300662 -0.48106,0.300662 -0.347014,0 -0.586291,-0.224244 -0.600071,-0.636402 h 1.396826 v -0.125276 c 0,-0.716578 -0.425938,-0.962119 -0.826821,-0.962119 -0.521148,0 -0.866909,0.410905 -0.866909,1.002207 0,0.591303 0.34075,0.987175 0.896975,0.987175 z m -0.600071,-1.15755 c 0.02004,-0.299409 0.23176,-0.566247 0.570005,-0.566247 0.320706,0 0.526159,0.24053 0.526159,0.566247 z"
         style="stroke-width:0.264583"
         id="path18980" />
      <path
         d="m 53.67438,17.458693 h -0.295651 v 2.56565 h 0.295651 z"
         style="stroke-width:0.264583"
         id="path18982" />
      <path
         d="m 55.022346,20.064432 c 0.390861,0 0.67649,-0.195431 0.766689,-0.486071 l -0.285629,-0.08018 c -0.07517,0.200441 -0.249299,0.300662 -0.48106,0.300662 -0.347014,0 -0.586291,-0.224244 -0.600071,-0.636402 h 1.396826 v -0.125276 c 0,-0.716578 -0.425938,-0.962119 -0.826821,-0.962119 -0.521148,0 -0.866909,0.410905 -0.866909,1.002207 0,0.591303 0.34075,0.987175 0.896975,0.987175 z m -0.600071,-1.15755 c 0.02004,-0.299409 0.23176,-0.566247 0.570005,-0.566247 0.320707,0 0.526159,0.24053 0.526159,0.566247 z"
         style="stroke-width:0.264583"
         id="path18984" />
      <path
         d="m 57.051815,20.064432 c 0.425938,0 0.706556,-0.260574 0.756667,-0.601325 h -0.295651 c -0.05512,0.210464 -0.230508,0.33574 -0.461016,0.33574 -0.350772,0 -0.576269,-0.29064 -0.576269,-0.736623 0,-0.43596 0.230508,-0.721589 0.576269,-0.721589 0.260574,0 0.415916,0.160353 0.461016,0.33574 h 0.295651 c -0.05011,-0.360795 -0.355784,-0.601325 -0.761678,-0.601325 -0.521148,0 -0.866909,0.410905 -0.866909,0.997196 0,0.57627 0.330728,0.992186 0.87192,0.992186 z"
         style="stroke-width:0.264583"
         id="path18986" />
      <path
         d="M 59.076268,18.100105 H 58.665363 V 17.63909 h -0.295651 v 0.461015 h -0.29064 v 0.250552 h 0.29064 v 1.202649 c 0,0.335739 0.270596,0.496093 0.521148,0.496093 0.110243,0 0.180397,-0.02004 0.220486,-0.03508 l -0.06013,-0.265585 c -0.02505,0.005 -0.06514,0.01503 -0.130287,0.01503 -0.130287,0 -0.255563,-0.04009 -0.255563,-0.290641 v -1.122472 h 0.410905 z"
         style="stroke-width:0.264583"
         id="path18988" />
      <path
         d="m 60.308981,20.064432 c 0.390861,0 0.67649,-0.195431 0.766689,-0.486071 l -0.285629,-0.08018 c -0.07517,0.200441 -0.249299,0.300662 -0.48106,0.300662 -0.347014,0 -0.586291,-0.224244 -0.600071,-0.636402 h 1.396826 v -0.125276 c 0,-0.716578 -0.425938,-0.962119 -0.826821,-0.962119 -0.521148,0 -0.866909,0.410905 -0.866909,1.002207 0,0.591303 0.34075,0.987175 0.896975,0.987175 z m -0.600071,-1.15755 c 0.02004,-0.299409 0.23176,-0.566247 0.570005,-0.566247 0.320706,0 0.526159,0.24053 0.526159,0.566247 z"
         style="stroke-width:0.264583"
         id="path18990" />
      <path
         d="m 62.283329,20.064432 c 0.370817,0 0.496093,-0.230508 0.561236,-0.33574 h 0.03508 v 0.295651 h 0.285629 v -2.56565 h -0.295651 v 0.947086 h -0.02506 c -0.06514,-0.100221 -0.180397,-0.330729 -0.556225,-0.330729 -0.48607,0 -0.82181,0.38585 -0.82181,0.992185 0,0.611347 0.33574,0.997197 0.816799,0.997197 z m 0.04009,-0.265585 c -0.370816,0 -0.561236,-0.325718 -0.561236,-0.736623 0,-0.405894 0.185409,-0.721589 0.561236,-0.721589 0.360795,0 0.551215,0.29064 0.551215,0.721589 0,0.435961 -0.195431,0.736623 -0.551215,0.736623 z"
         style="stroke-width:0.264583"
         id="path18992" />
      <path
         d="m 64.778813,20.024343 h 0.310685 v -1.147527 h 1.11245 v -0.275607 h -1.11245 V 17.7343 h 1.227704 v -0.275607 h -1.538389 z"
         style="stroke-width:0.264583"
         id="path18994" />
      <path
         d="m 67.900683,19.237611 c 0,0.360794 -0.275607,0.526159 -0.496093,0.526159 -0.245541,0 -0.420927,-0.180398 -0.420927,-0.461016 v -1.202649 h -0.295651 v 1.222693 c 0,0.491082 0.260574,0.726601 0.621368,0.726601 0.29064,0 0.48106,-0.155342 0.571258,-0.350773 h 0.02004 v 0.325717 h 0.295651 v -1.924238 h -0.295651 z"
         style="stroke-width:0.264583"
         id="path18996" />
      <path
         d="m 69.033174,18.866794 c 0,-0.33574 0.207958,-0.526159 0.491081,-0.526159 0.274355,0 0.440972,0.179145 0.440972,0.48106 v 1.202648 h 0.295651 V 18.80165 c 0,-0.491081 -0.261827,-0.7266 -0.651435,-0.7266 -0.29064,0 -0.471037,0.130287 -0.561236,0.325718 h -0.02506 v -0.300663 h -0.285629 v 1.924238 h 0.295651 z"
         style="stroke-width:0.264583"
         id="path18998" />
      <path
         d="m 71.583789,20.064432 c 0.425938,0 0.706556,-0.260574 0.756667,-0.601325 h -0.295652 c -0.05512,0.210464 -0.230507,0.33574 -0.461015,0.33574 -0.350773,0 -0.576269,-0.29064 -0.576269,-0.736623 0,-0.43596 0.230507,-0.721589 0.576269,-0.721589 0.260574,0 0.415916,0.160353 0.461015,0.33574 h 0.295652 c -0.05011,-0.360795 -0.355784,-0.601325 -0.761678,-0.601325 -0.521148,0 -0.866909,0.410905 -0.866909,0.997196 0,0.57627 0.330728,0.992186 0.87192,0.992186 z"
         style="stroke-width:0.264583"
         id="path19000" />
      <path
         d="M 73.608242,18.100105 H 73.197337 V 17.63909 h -0.295651 v 0.461015 h -0.29064 v 0.250552 h 0.29064 v 1.202649 c 0,0.335739 0.270596,0.496093 0.521148,0.496093 0.110243,0 0.180397,-0.02004 0.220485,-0.03508 l -0.06013,-0.265585 c -0.02505,0.005 -0.06514,0.01503 -0.130287,0.01503 -0.130287,0 -0.255563,-0.04009 -0.255563,-0.290641 v -1.122472 h 0.410905 z"
         style="stroke-width:0.264583"
         id="path19002" />
      <path
         d="m 74.054223,20.024343 h 0.295651 v -1.924238 h -0.295651 z m 0.150331,-2.244944 c 0.115254,0 0.210463,-0.0902 0.210463,-0.200442 0,-0.110242 -0.09521,-0.200441 -0.210463,-0.200441 -0.115254,0 -0.210464,0.0902 -0.210464,0.200441 0,0.110243 0.09521,0.200442 0.210464,0.200442 z"
         style="stroke-width:0.264583"
         id="path19004" />
      <path
         d="m 75.672784,20.064432 c 0.521148,0 0.87192,-0.395872 0.87192,-0.992186 0,-0.601324 -0.350772,-0.997196 -0.87192,-0.997196 -0.521148,0 -0.87192,0.395872 -0.87192,0.997196 0,0.596314 0.350772,0.992186 0.87192,0.992186 z m 0,-0.265585 c -0.395872,0 -0.576269,-0.340751 -0.576269,-0.726601 0,-0.385849 0.180397,-0.731611 0.576269,-0.731611 0.395872,0 0.576269,0.345762 0.576269,0.731611 0,0.38585 -0.180397,0.726601 -0.576269,0.726601 z"
         style="stroke-width:0.264583"
         id="path19006" />
      <path
         d="m 77.291347,18.866794 c 0,-0.33574 0.207958,-0.526159 0.491081,-0.526159 0.274355,0 0.440972,0.179145 0.440972,0.48106 v 1.202648 h 0.295651 V 18.80165 c 0,-0.491081 -0.261827,-0.7266 -0.651435,-0.7266 -0.29064,0 -0.471037,0.130287 -0.561236,0.325718 h -0.02506 v -0.300663 h -0.285629 v 1.924238 h 0.295651 z"
         style="stroke-width:0.264583"
         id="path19008" />
    </g>
    <path
       style="fill:none;stroke:#ff0000;stroke-width:0.264999;stroke-linecap:butt;stroke-linejoin:miter;stroke-miterlimit:4;stroke-dasharray:none;stroke-opacity:1"
       d="m 79.216785,19.982357 h 0.750287 l 0,12.161417"
       id="path200-7"
       sodipodi:nodetypes="ccc" />
    <g
       aria-label="Shortcut Key"
       id="text130-3-5-6-3-6"
       style="font-size:3.52777px;line-height:1.25;font-family:Inter;-inkscape-font-specification:Inter;stroke-width:0.264583">
      <path
         d="m 89.534308,18.076723 h 0.300663 c -0.01378,-0.387103 -0.370817,-0.67649 -0.86691,-0.67649 -0.491081,0 -0.876931,0.285629 -0.876931,0.716578 0,0.345762 0.250552,0.551214 0.651435,0.666468 l 0.315695,0.0902 c 0.270596,0.07517 0.511126,0.170375 0.511126,0.425938 0,0.280618 -0.270596,0.466027 -0.62638,0.466027 -0.305673,0 -0.576269,-0.135298 -0.601324,-0.425939 h -0.320707 c 0.03007,0.420928 0.370817,0.706557 0.922031,0.706557 0.591302,0 0.927042,-0.325718 0.927042,-0.741634 0,-0.481059 -0.456004,-0.636402 -0.721589,-0.706556 l -0.260574,-0.07015 c -0.19042,-0.05011 -0.496093,-0.150331 -0.496093,-0.425938 0,-0.245541 0.225497,-0.425938 0.566247,-0.425938 0.310684,0 0.546203,0.147826 0.576269,0.400883 z"
         style="stroke-width:0.264583"
         id="path18955" />
      <path
         d="m 90.636733,18.843412 c 0,-0.33574 0.214222,-0.526159 0.506115,-0.526159 0.278112,0 0.445982,0.175386 0.445982,0.481059 v 1.202649 h 0.295651 v -1.222693 c 0,-0.49484 -0.263079,-0.7266 -0.656446,-0.7266 -0.303168,0 -0.476048,0.126529 -0.566247,0.325717 h -0.02505 V 17.43531 h -0.295651 v 2.565651 h 0.295651 z"
         style="stroke-width:0.264583"
         id="path18957" />
      <path
         d="m 93.207391,20.04105 c 0.521148,0 0.87192,-0.395872 0.87192,-0.992186 0,-0.601324 -0.350772,-0.997196 -0.87192,-0.997196 -0.521148,0 -0.871921,0.395872 -0.871921,0.997196 0,0.596314 0.350773,0.992186 0.871921,0.992186 z m 0,-0.265585 c -0.395872,0 -0.576269,-0.340751 -0.576269,-0.726601 0,-0.38585 0.180397,-0.731611 0.576269,-0.731611 0.395872,0 0.576269,0.345761 0.576269,0.731611 0,0.38585 -0.180397,0.726601 -0.576269,0.726601 z"
         style="stroke-width:0.264583"
         id="path18959" />
      <path
         d="m 94.530302,20.000961 h 0.295651 v -1.217682 c 0,-0.260574 0.205452,-0.450993 0.48607,-0.450993 0.07892,0 0.160353,0.01503 0.180398,0.02004 v -0.300662 c -0.03382,-0.0025 -0.111496,-0.005 -0.155343,-0.005 -0.230507,0 -0.430949,0.130287 -0.501103,0.320706 h -0.02004 v -0.29064 h -0.285629 z"
         style="stroke-width:0.264583"
         id="path18961" />
      <path
         d="M 96.800295,18.076723 H 96.38939 v -0.461015 h -0.295651 v 0.461015 h -0.29064 v 0.250552 h 0.29064 v 1.202649 c 0,0.335739 0.270596,0.496092 0.521148,0.496092 0.110242,0 0.180397,-0.02004 0.220485,-0.03508 l -0.06013,-0.265585 c -0.02505,0.005 -0.06514,0.01503 -0.130287,0.01503 -0.130287,0 -0.255563,-0.04009 -0.255563,-0.29064 v -1.122472 h 0.410905 z"
         style="stroke-width:0.264583"
         id="path18963" />
      <path
         d="m 98.007953,20.04105 c 0.425938,0 0.706556,-0.260574 0.756666,-0.601325 h -0.295651 c -0.05512,0.210464 -0.230507,0.33574 -0.461015,0.33574 -0.350773,0 -0.576269,-0.290641 -0.576269,-0.736623 0,-0.43596 0.230507,-0.721589 0.576269,-0.721589 0.260574,0 0.415916,0.160353 0.461015,0.335739 h 0.295651 c -0.05011,-0.360794 -0.355783,-0.601324 -0.761677,-0.601324 -0.521148,0 -0.86691,0.410905 -0.86691,0.997196 0,0.57627 0.330729,0.992186 0.871921,0.992186 z"
         style="stroke-width:0.264583"
         id="path18965" />
      <path
         d="m 100.40823,19.214228 c 0,0.360795 -0.2756,0.526159 -0.496089,0.526159 -0.245541,0 -0.420927,-0.180397 -0.420927,-0.461015 v -1.202649 h -0.295651 v 1.222693 c 0,0.491082 0.260574,0.7266 0.621368,0.7266 0.290639,0 0.481059,-0.155342 0.571259,-0.350772 h 0.02 v 0.325717 h 0.29565 v -1.924238 h -0.29565 z"
         style="stroke-width:0.264583"
         id="path18967" />
      <path
         d="m 102.08192,18.076723 h -0.41091 v -0.461015 h -0.29565 v 0.461015 h -0.29064 v 0.250552 h 0.29064 v 1.202649 c 0,0.335739 0.2706,0.496092 0.52115,0.496092 0.11024,0 0.1804,-0.02004 0.22048,-0.03508 l -0.0601,-0.265585 c -0.0251,0.005 -0.0651,0.01503 -0.13029,0.01503 -0.13028,0 -0.25556,-0.04009 -0.25556,-0.29064 v -1.122472 h 0.41091 z"
         style="stroke-width:0.264583"
         id="path18969" />
      <path
         d="m 103.56017,20.000961 h 0.31068 v -0.831832 l 0.32071,-0.360795 0.89196,1.192627 h 0.37583 l -1.07737,-1.408101 1.07737,-1.15755 h -0.4059 l -1.15253,1.272804 h -0.0301 V 17.43531 h -0.31068 z"
         style="stroke-width:0.264583"
         id="path18971" />
      <path
         d="m 106.4866,20.04105 c 0.39086,0 0.67649,-0.195431 0.76669,-0.486071 l -0.28563,-0.08018 c -0.0752,0.200442 -0.2493,0.300663 -0.48106,0.300663 -0.34701,0 -0.58629,-0.224244 -0.60007,-0.636402 h 1.39683 v -0.125276 c 0,-0.716578 -0.42594,-0.962119 -0.82683,-0.962119 -0.52114,0 -0.86691,0.410905 -0.86691,1.002207 0,0.591303 0.34076,0.987175 0.89698,0.987175 z m -0.60007,-1.15755 c 0.02,-0.299409 0.23176,-0.566247 0.57,-0.566247 0.32071,0 0.52616,0.24053 0.52616,0.566247 z"
         style="stroke-width:0.264583"
         id="path18973" />
      <path
         d="m 107.91475,20.747606 c 0.27059,0 0.456,-0.140309 0.56624,-0.43596 l 0.82682,-2.234923 h -0.3207 l -0.53117,1.533377 h -0.02 l -0.53117,-1.533377 h -0.3207 l 0.71156,1.93426 -0.0651,0.180398 c -0.10398,0.288134 -0.24053,0.315695 -0.456,0.260574 l -0.0752,0.260574 c 0.0301,0.01503 0.11526,0.03508 0.21548,0.03508 z"
         style="stroke-width:0.264583"
         id="path18975" />
    </g>
    <path
       style="fill:none;stroke:#ff0000;stroke-width:0.264999;stroke-linecap:butt;stroke-linejoin:miter;stroke-miterlimit:4;stroke-dasharray:none;stroke-opacity:1"
       d="m 109.37214,19.959851 h 0.75028 l 0,12.105302"
       id="path200-7-2"
       sodipodi:nodetypes="ccc" />
  </g>
</svg>
