<?xml version="1.0" encoding="UTF-8" standalone="no"?>
<svg
   xmlns:dc="http://purl.org/dc/elements/1.1/"
   xmlns:cc="http://creativecommons.org/ns#"
   xmlns:rdf="http://www.w3.org/1999/02/22-rdf-syntax-ns#"
   xmlns:svg="http://www.w3.org/2000/svg"
   xmlns="http://www.w3.org/2000/svg"
   xmlns:xlink="http://www.w3.org/1999/xlink"
   xmlns:sodipodi="http://sodipodi.sourceforge.net/DTD/sodipodi-0.dtd"
   xmlns:inkscape="http://www.inkscape.org/namespaces/inkscape"
   width="148mm"
   height="120mm"
   viewBox="0 0 148 120"
   version="1.1"
   id="svg8"
   inkscape:version="1.0.1 (3bc2e813f5, 2020-09-07)"
   sodipodi:docname="refman-portsx.svg"
   inkscape:export-filename="/home/mntmn/code/reform-handbook/src/source/_static/illustrations/kbdmod-callouts.png"
   inkscape:export-xdpi="600.0954"
   inkscape:export-ydpi="600.0954">
  <defs
     id="defs2">
    <rect
       x="34.146812"
       y="128.59737"
       width="45.334026"
       height="16.606207"
       id="rect1287" />
  </defs>
  <sodipodi:namedview
     id="base"
     pagecolor="#ffffff"
     bordercolor="#666666"
     borderopacity="1.0"
     inkscape:pageopacity="0.0"
     inkscape:pageshadow="2"
     inkscape:zoom="1.979899"
     inkscape:cx="289.99139"
     inkscape:cy="246.90622"
     inkscape:document-units="mm"
     inkscape:current-layer="layer2"
     inkscape:document-rotation="0"
     showgrid="false"
     inkscape:window-width="2560"
     inkscape:window-height="1406"
     inkscape:window-x="0"
     inkscape:window-y="0"
     inkscape:window-maximized="1"
     inkscape:snap-global="false"
     inkscape:snap-intersection-paths="true">
    <inkscape:grid
       type="xygrid"
       id="grid10"
       units="mm"
       spacingx="10"
       spacingy="10" />
  </sodipodi:namedview>
  <metadata
     id="metadata5">
    <rdf:RDF>
      <cc:Work
         rdf:about="">
        <dc:format>image/svg+xml</dc:format>
        <dc:type
           rdf:resource="http://purl.org/dc/dcmitype/StillImage" />
        <dc:title></dc:title>
      </cc:Work>
    </rdf:RDF>
  </metadata>
  <g
     inkscape:label="pic"
     inkscape:groupmode="layer"
     id="layer1">
    <image
       sodipodi:absref="/home/mntmn/code/reform-handbook/src/source/_static/illustrations/24.png"
       xlink:href="../_static/illustrations/24.png"
       width="130.28888"
       height="25.556532"
       preserveAspectRatio="none"
       id="image5721"
       x="10.003625"
       y="44.481251" />
    <image
       sodipodi:absref="/home/mntmn/code/reform-handbook/src/source/_static/illustrations/25.png"
       xlink:href="../_static/illustrations/25.png"
       width="130.19211"
       height="25.53063"
       preserveAspectRatio="none"
       id="image5735"
       x="10.107879"
       y="74.65892" />
  </g>
  <g
     inkscape:groupmode="layer"
     id="layer2"
     inkscape:label="callouts">
    <path
       style="fill:none;stroke:red;stroke-width:0.25;stroke-linecap:butt;stroke-linejoin:miter;stroke-miterlimit:4;stroke-dasharray:none;stroke-opacity:1"
       d="m 32.396192,65.110925 0,-55.110838 7.616786,0"
       id="path204-3"
       sodipodi:nodetypes="ccc" />
    <g
       aria-label="Wall Power Jack"
       id="text130-3-5-6-9-2"
       style="font-size:3.52777px;line-height:1.25;font-family:Inter;-inkscape-font-specification:Inter;stroke-width:0.264583">
      <path
         d="m 41.363457,10.099239 h 0.320706 L 42.25041,8.0547363 h 0.02004 l 0.566247,2.0445027 h 0.320706 l 0.701545,-2.5656506 h -0.315695 l -0.536181,2.0896024 h -0.02506 L 42.435819,7.5335884 h -0.350773 l -0.546203,2.0896024 h -0.02506 L 40.977607,7.5335884 h -0.315695 z"
         style="stroke-width:0.264583"
         id="path6452" />
      <path
         d="m 44.590554,10.144339 c 0.335739,0 0.511125,-0.1803976 0.571258,-0.3056736 h 0.01503 v 0.2605736 h 0.295651 V 8.831447 c 0,-0.6113465 -0.466026,-0.681501 -0.711567,-0.681501 -0.29064,0 -0.621369,0.1002207 -0.7717,0.4509933 L 44.269847,8.70116 c 0.06514,-0.140309 0.219233,-0.2906401 0.501104,-0.2906401 0.271849,0 0.405894,0.1440673 0.405894,0.3908609 v 0.010022 c 0,0.1428146 -0.14532,0.130287 -0.496093,0.1753863 -0.357036,0.046352 -0.746644,0.125276 -0.746644,0.5662472 0,0.3758278 0.29064,0.5913027 0.656446,0.5913027 z m 0.0451,-0.2655853 c -0.235519,0 -0.405894,-0.1052318 -0.405894,-0.3106843 0,-0.2254966 0.205453,-0.2956512 0.43596,-0.3257174 0.125276,-0.015033 0.461016,-0.05011 0.511126,-0.1102428 v 0.270596 c 0,0.2405298 -0.190419,0.4760485 -0.541192,0.4760485 z"
         style="stroke-width:0.264583"
         id="path6454" />
      <path
         d="m 46.309334,7.5335884 h -0.295651 v 2.5656506 h 0.295651 z"
         style="stroke-width:0.264583"
         id="path6456" />
      <path
         d="m 47.146175,7.5335884 h -0.295652 v 2.5656506 h 0.295652 z"
         style="stroke-width:0.264583"
         id="path6458" />
      <path
         d="m 48.71963,10.099239 h 0.310685 V 9.1621754 h 0.561236 c 0.597566,0 0.866909,-0.3633002 0.866909,-0.816799 0,-0.4534988 -0.269343,-0.811788 -0.87192,-0.811788 h -0.86691 z m 0.310685,-1.2126706 v -1.077373 h 0.546203 c 0.417168,0 0.576269,0.2280022 0.576269,0.536181 0,0.3081788 -0.159101,0.541192 -0.571258,0.541192 z"
         style="stroke-width:0.264583"
         id="path6460" />
      <path
         d="m 51.681152,10.139328 c 0.521148,0 0.871921,-0.3958723 0.871921,-0.9921857 0,-0.6013244 -0.350773,-0.9971963 -0.871921,-0.9971963 -0.521147,0 -0.87192,0.3958719 -0.87192,0.9971963 0,0.5963134 0.350773,0.9921857 0.87192,0.9921857 z m 0,-0.2655853 c -0.395871,0 -0.576269,-0.3407505 -0.576269,-0.7266004 0,-0.3858498 0.180398,-0.7316114 0.576269,-0.7316114 0.395872,0 0.57627,0.3457616 0.57627,0.7316114 0,0.3858499 -0.180398,0.7266004 -0.57627,0.7266004 z"
         style="stroke-width:0.264583"
         id="path6462" />
      <path
         d="m 53.374876,10.099239 h 0.29064 l 0.420927,-1.4782556 h 0.03007 l 0.420928,1.4782556 h 0.29064 L 55.414368,8.1750011 H 55.103684 L 54.687768,9.643235 h -0.02004 L 54.261829,8.1750011 H 53.946134 L 53.535229,9.648246 h -0.02004 L 53.099269,8.1750011 h -0.310684 z"
         style="stroke-width:0.264583"
         id="path6464" />
      <path
         d="m 56.546852,10.139328 c 0.39086,0 0.67649,-0.1954308 0.766688,-0.4860709 l -0.285629,-0.080177 c -0.07517,0.2004414 -0.249299,0.3006622 -0.481059,0.3006622 -0.347015,0 -0.586292,-0.2242439 -0.600072,-0.6364017 h 1.396826 V 9.1120651 c 0,-0.7165783 -0.425938,-0.9621191 -0.826821,-0.9621191 -0.521148,0 -0.866909,0.410905 -0.866909,1.0022074 0,0.5913023 0.34075,0.9871746 0.896976,0.9871746 z M 55.94678,8.9817781 c 0.02004,-0.2994095 0.23176,-0.5662472 0.570005,-0.5662472 0.320707,0 0.526159,0.2405298 0.526159,0.5662472 z"
         style="stroke-width:0.264583"
         id="path6466" />
      <path
         d="m 57.794598,10.099239 h 0.295651 V 8.8815574 c 0,-0.2593212 0.205453,-0.4509934 0.486071,-0.4509934 0.07391,0 0.129034,0.01378 0.170375,0.035077 l 0.100221,-0.2505519 c -0.06013,-0.042594 -0.139056,-0.070154 -0.245541,-0.070154 -0.233013,0 -0.432202,0.130287 -0.501104,0.3207064 h -0.02004 V 8.1750011 h -0.285629 z"
         style="stroke-width:0.264583"
         id="path6468" />
      <path
         d="m 61.162007,7.5335884 v 1.8340395 c 0,0.3194537 -0.152836,0.4910817 -0.420927,0.4910817 -0.244288,0 -0.420927,-0.1428146 -0.420927,-0.3607947 H 60.01448 c 0,0.3946192 0.305673,0.6364021 0.7266,0.6364021 0.445982,0 0.731612,-0.2743547 0.731612,-0.7666891 V 7.5335884 Z"
         style="stroke-width:0.264583"
         id="path6470" />
      <path
         d="m 62.620212,10.144339 c 0.33574,0 0.511126,-0.1803976 0.571258,-0.3056736 h 0.01503 v 0.2605736 h 0.295651 V 8.831447 c 0,-0.6113465 -0.466027,-0.681501 -0.711568,-0.681501 -0.29064,0 -0.621368,0.1002207 -0.771699,0.4509933 L 62.299506,8.70116 c 0.06514,-0.140309 0.219233,-0.2906401 0.501104,-0.2906401 0.271848,0 0.405894,0.1440673 0.405894,0.3908609 v 0.010022 c 0,0.1428146 -0.145321,0.130287 -0.496093,0.1753863 -0.357036,0.046352 -0.746645,0.125276 -0.746645,0.5662472 0,0.3758278 0.290641,0.5913027 0.656446,0.5913027 z m 0.0451,-0.2655853 c -0.235519,0 -0.405894,-0.1052318 -0.405894,-0.3106843 0,-0.2254966 0.205452,-0.2956512 0.43596,-0.3257174 0.125276,-0.015033 0.461015,-0.05011 0.511126,-0.1102428 v 0.270596 c 0,0.2405298 -0.19042,0.4760485 -0.541192,0.4760485 z"
         style="stroke-width:0.264583"
         id="path6472" />
      <path
         d="m 64.825065,10.139328 c 0.425938,0 0.706556,-0.2605743 0.756666,-0.6013248 H 65.28608 c -0.05512,0.2104636 -0.230507,0.3357395 -0.461015,0.3357395 -0.350773,0 -0.576269,-0.2906402 -0.576269,-0.7366225 0,-0.4359602 0.230507,-0.7215893 0.576269,-0.7215893 0.260574,0 0.415916,0.1603532 0.461015,0.3357395 h 0.295651 C 65.531621,8.3904757 65.225948,8.149946 64.820054,8.149946 c -0.521148,0 -0.86691,0.410905 -0.86691,0.9971963 0,0.5762693 0.330729,0.9921857 0.871921,0.9921857 z"
         style="stroke-width:0.264583"
         id="path6474" />
      <path
         d="m 66.012675,10.099239 h 0.295651 V 9.3789028 l 0.206705,-0.1916722 0.720337,0.9120084 h 0.375828 L 66.738022,8.9968112 67.551063,8.1750011 h -0.365806 l -0.841854,0.8568874 h -0.03508 V 7.5335884 h -0.295651 z"
         style="stroke-width:0.264583"
         id="path6476" />
    </g>
    <g
       aria-label="Gigabit Ethernet"
       id="text130-3-5-6-9-2-7"
       style="font-size:3.52777px;line-height:1.25;font-family:Inter;-inkscape-font-specification:Inter;stroke-width:0.264583">
      <path
         d="m 52.546668,18.220732 h 0.320706 c -0.09521,-0.496092 -0.511126,-0.836843 -1.052318,-0.836843 -0.657698,0 -1.122472,0.506115 -1.122472,1.317903 0,0.811788 0.461015,1.317902 1.142517,1.317902 0.611346,0 1.047306,-0.407146 1.047306,-1.042295 v -0.275607 h -0.977152 v 0.275607 h 0.67649 c -0.0088,0.461015 -0.311937,0.751655 -0.746644,0.751655 -0.476049,0 -0.841855,-0.360794 -0.841855,-1.027262 0,-0.666468 0.365806,-1.027263 0.82181,-1.027263 0.370817,0 0.622622,0.209211 0.731612,0.546203 z"
         style="stroke-width:0.264583"
         id="path6479" />
      <path
         d="m 53.493748,19.984617 h 0.295651 v -1.924238 h -0.295651 z m 0.150331,-2.244944 c 0.115254,0 0.210464,-0.0902 0.210464,-0.200442 0,-0.110243 -0.09521,-0.200441 -0.210464,-0.200441 -0.115254,0 -0.210463,0.0902 -0.210463,0.200441 0,0.110243 0.09521,0.200442 0.210463,0.200442 z"
         style="stroke-width:0.264583"
         id="path6481" />
      <path
         d="m 55.107299,20.746295 c 0.461015,0 0.831832,-0.210464 0.831832,-0.706556 v -1.97936 h -0.285629 v 0.305673 h -0.03007 c -0.06514,-0.10022 -0.185409,-0.330728 -0.561236,-0.330728 -0.486071,0 -0.82181,0.38585 -0.82181,0.977152 0,0.601324 0.350772,0.942075 0.816799,0.942075 0.375827,0 0.496092,-0.220486 0.561236,-0.325717 h 0.02505 v 0.39086 c 0,0.320707 -0.225497,0.466027 -0.536181,0.466027 -0.34952,0 -0.47229,-0.184156 -0.551214,-0.29064 l -0.235519,0.165364 c 0.120265,0.201694 0.357037,0.38585 0.786733,0.38585 z m -0.01002,-1.057329 c -0.370817,0 -0.561236,-0.280618 -0.561236,-0.681501 0,-0.390861 0.185408,-0.706556 0.561236,-0.706556 0.360795,0 0.551214,0.29064 0.551214,0.706556 0,0.425938 -0.19543,0.681501 -0.551214,0.681501 z"
         style="stroke-width:0.264583"
         id="path6483" />
      <path
         d="m 57.046563,20.029717 c 0.33574,0 0.511126,-0.180398 0.571259,-0.305674 h 0.01503 v 0.260574 h 0.295651 v -1.267792 c 0,-0.611347 -0.466027,-0.681501 -0.711567,-0.681501 -0.290641,0 -0.621369,0.100221 -0.7717,0.450993 l 0.280618,0.100221 c 0.06514,-0.140309 0.219233,-0.29064 0.501104,-0.29064 0.271848,0 0.405894,0.144067 0.405894,0.390861 v 0.01002 c 0,0.142814 -0.14532,0.130287 -0.496093,0.175386 -0.357036,0.04635 -0.746645,0.125276 -0.746645,0.566247 0,0.375828 0.290641,0.591303 0.656446,0.591303 z m 0.0451,-0.265585 c -0.235519,0 -0.405894,-0.105232 -0.405894,-0.310685 0,-0.225496 0.205452,-0.295651 0.43596,-0.325717 0.125276,-0.01503 0.461015,-0.05011 0.511126,-0.110243 v 0.270596 c 0,0.24053 -0.19042,0.476049 -0.541192,0.476049 z"
         style="stroke-width:0.264583"
         id="path6485" />
      <path
         d="m 58.509781,19.984617 h 0.28563 v -0.295651 h 0.03508 c 0.06514,0.105232 0.190419,0.33574 0.561236,0.33574 0.48106,0 0.816799,-0.38585 0.816799,-0.997197 0,-0.606335 -0.335739,-0.992185 -0.82181,-0.992185 -0.375828,0 -0.491082,0.230508 -0.556225,0.330728 h -0.02506 v -0.947086 h -0.295652 z m 0.290641,-0.962119 c 0,-0.430949 0.190419,-0.721589 0.551214,-0.721589 0.375827,0 0.561236,0.315695 0.561236,0.721589 0,0.410905 -0.19042,0.736623 -0.561236,0.736623 -0.355784,0 -0.551214,-0.300663 -0.551214,-0.736623 z"
         style="stroke-width:0.264583"
         id="path6487" />
      <path
         d="m 60.659511,19.984617 h 0.295651 v -1.924238 h -0.295651 z m 0.150331,-2.244944 c 0.115254,0 0.210464,-0.0902 0.210464,-0.200442 0,-0.110243 -0.09521,-0.200441 -0.210464,-0.200441 -0.115254,0 -0.210463,0.0902 -0.210463,0.200441 0,0.110243 0.09521,0.200442 0.210463,0.200442 z"
         style="stroke-width:0.264583"
         id="path6489" />
      <path
         d="m 62.333194,18.060379 h -0.410905 v -0.461015 h -0.295651 v 0.461015 h -0.29064 v 0.250552 h 0.29064 v 1.202649 c 0,0.335739 0.270596,0.496092 0.521148,0.496092 0.110242,0 0.180397,-0.02004 0.220485,-0.03508 l -0.06013,-0.265585 c -0.02505,0.005 -0.06514,0.01503 -0.130287,0.01503 -0.130287,0 -0.255563,-0.04009 -0.255563,-0.29064 v -1.122472 h 0.410905 z"
         style="stroke-width:0.264583"
         id="path6491" />
      <path
         d="m 63.811442,19.984617 h 1.568455 V 19.70901 h -1.25777 v -0.87192 h 1.157549 v -0.275607 h -1.157549 v -0.86691 h 1.237726 v -0.275607 h -1.548411 z"
         style="stroke-width:0.264583"
         id="path6493" />
      <path
         d="m 66.717842,18.060379 h -0.410905 v -0.461015 h -0.295651 v 0.461015 h -0.29064 v 0.250552 h 0.29064 v 1.202649 c 0,0.335739 0.270596,0.496092 0.521148,0.496092 0.110243,0 0.180397,-0.02004 0.220485,-0.03508 l -0.06013,-0.265585 c -0.02505,0.005 -0.06514,0.01503 -0.130287,0.01503 -0.130287,0 -0.255563,-0.04009 -0.255563,-0.29064 v -1.122472 h 0.410905 z"
         style="stroke-width:0.264583"
         id="path6495" />
      <path
         d="m 67.499557,18.827068 c 0,-0.33574 0.214222,-0.526159 0.506114,-0.526159 0.278113,0 0.445983,0.175386 0.445983,0.481059 v 1.202649 h 0.295651 v -1.222693 c 0,-0.49484 -0.263079,-0.7266 -0.656446,-0.7266 -0.303168,0 -0.476048,0.126529 -0.566247,0.325717 h -0.02506 v -0.942075 h -0.295651 v 2.565651 h 0.295651 z"
         style="stroke-width:0.264583"
         id="path6497" />
      <path
         d="m 70.095272,20.024706 c 0.39086,0 0.67649,-0.195431 0.766688,-0.486071 l -0.285629,-0.08018 c -0.07516,0.200442 -0.249299,0.300663 -0.481059,0.300663 -0.347015,0 -0.586292,-0.224244 -0.600072,-0.636402 h 1.396826 v -0.125276 c 0,-0.716578 -0.425938,-0.962119 -0.826821,-0.962119 -0.521148,0 -0.866909,0.410905 -0.866909,1.002207 0,0.591303 0.34075,0.987175 0.896976,0.987175 z M 69.4952,18.867156 c 0.02004,-0.299409 0.23176,-0.566247 0.570005,-0.566247 0.320707,0 0.526159,0.24053 0.526159,0.566247 z"
         style="stroke-width:0.264583"
         id="path6499" />
      <path
         d="m 71.343018,19.984617 h 0.295651 v -1.217682 c 0,-0.260574 0.205453,-0.450993 0.486071,-0.450993 0.07892,0 0.160353,0.01503 0.180397,0.02004 v -0.300662 c -0.03382,-0.0025 -0.111495,-0.005 -0.155342,-0.005 -0.230508,0 -0.430949,0.130287 -0.501104,0.320706 h -0.02004 v -0.29064 h -0.285629 z"
         style="stroke-width:0.264583"
         id="path6501" />
      <path
         d="m 72.951556,18.827068 c 0,-0.33574 0.207958,-0.526159 0.491082,-0.526159 0.274354,0 0.440971,0.179144 0.440971,0.481059 v 1.202649 h 0.295651 v -1.222693 c 0,-0.491081 -0.261826,-0.7266 -0.651434,-0.7266 -0.29064,0 -0.471038,0.130287 -0.561236,0.325717 h -0.02506 v -0.300662 h -0.285629 v 1.924238 h 0.295651 z"
         style="stroke-width:0.264583"
         id="path6503" />
      <path
         d="m 75.527227,20.024706 c 0.390861,0 0.67649,-0.195431 0.766689,-0.486071 l -0.28563,-0.08018 c -0.07516,0.200442 -0.249299,0.300663 -0.481059,0.300663 -0.347014,0 -0.586291,-0.224244 -0.600072,-0.636402 h 1.396827 v -0.125276 c 0,-0.716578 -0.425938,-0.962119 -0.826821,-0.962119 -0.521148,0 -0.86691,0.410905 -0.86691,1.002207 0,0.591303 0.340751,0.987175 0.896976,0.987175 z m -0.600072,-1.15755 c 0.02004,-0.299409 0.231761,-0.566247 0.570006,-0.566247 0.320706,0 0.526159,0.24053 0.526159,0.566247 z"
         style="stroke-width:0.264583"
         id="path6505" />
      <path
         d="M 77.611817,18.060379 H 77.200912 V 17.599364 H 76.90526 v 0.461015 h -0.29064 v 0.250552 h 0.29064 v 1.202649 c 0,0.335739 0.270596,0.496092 0.521148,0.496092 0.110243,0 0.180398,-0.02004 0.220486,-0.03508 l -0.06013,-0.265585 c -0.02505,0.005 -0.06514,0.01503 -0.130287,0.01503 -0.130287,0 -0.255562,-0.04009 -0.255562,-0.29064 v -1.122472 h 0.410905 z"
         style="stroke-width:0.264583"
         id="path6507" />
    </g>
    <g
       aria-label="TRRS Headset Port"
       id="text130-3-5-6-9-2-7-5"
       style="font-size:3.52777px;line-height:1.25;font-family:Inter;-inkscape-font-specification:Inter;stroke-width:0.264583">
      <path
         d="m 60.591319,27.706689 h 0.806777 v 2.290044 h 0.310685 v -2.290044 h 0.806777 v -0.275607 h -1.924239 z"
         style="stroke-width:0.264583"
         id="path6510" />
      <path
         d="m 62.996612,29.996733 h 0.310685 v -1.002208 h 0.561236 c 0.02255,0 0.04385,0 0.06514,-0.0013 l 0.541192,1.00346 h 0.360795 l -0.580028,-1.059835 c 0.326971,-0.111495 0.479807,-0.378333 0.479807,-0.719083 0,-0.453499 -0.270596,-0.786733 -0.87192,-0.786733 h -0.86691 z m 0.310685,-1.282826 V 27.706689 H 63.8535 c 0.415916,0 0.576269,0.202947 0.576269,0.511126 0,0.308178 -0.160353,0.496092 -0.571258,0.496092 z"
         style="stroke-width:0.264583"
         id="path6512" />
      <path
         d="m 65.251577,29.996733 h 0.310685 v -1.002208 h 0.561236 c 0.02255,0 0.04385,0 0.06514,-0.0013 l 0.541192,1.00346 h 0.360795 l -0.580027,-1.059835 c 0.32697,-0.111495 0.479806,-0.378333 0.479806,-0.719083 0,-0.453499 -0.270596,-0.786733 -0.87192,-0.786733 h -0.86691 z m 0.310685,-1.282826 v -1.007218 h 0.546203 c 0.415916,0 0.576269,0.202947 0.576269,0.511126 0,0.308178 -0.160353,0.496092 -0.571258,0.496092 z"
         style="stroke-width:0.264583"
         id="path6514" />
      <path
         d="m 68.909633,28.072495 h 0.300662 c -0.01378,-0.387103 -0.370817,-0.67649 -0.86691,-0.67649 -0.491081,0 -0.876931,0.285629 -0.876931,0.716578 0,0.345761 0.250552,0.551214 0.651435,0.666468 l 0.315695,0.0902 c 0.270596,0.07517 0.511126,0.170376 0.511126,0.425939 0,0.280618 -0.270596,0.466026 -0.62638,0.466026 -0.305673,0 -0.576269,-0.135298 -0.601324,-0.425938 h -0.320707 c 0.03007,0.420927 0.370817,0.706556 0.922031,0.706556 0.591303,0 0.927042,-0.325717 0.927042,-0.741633 0,-0.48106 -0.456004,-0.636402 -0.721589,-0.706557 l -0.260574,-0.07015 c -0.19042,-0.05011 -0.496093,-0.150331 -0.496093,-0.425938 0,-0.245541 0.225497,-0.425938 0.566247,-0.425938 0.310685,0 0.546203,0.147825 0.57627,0.400883 z"
         style="stroke-width:0.264583"
         id="path6516" />
      <path
         d="m 70.748673,29.996733 h 0.310684 v -1.147528 h 1.368013 v 1.147528 h 0.310684 V 27.431082 H 72.42737 v 1.142516 h -1.368013 v -1.142516 h -0.310684 z"
         style="stroke-width:0.264583"
         id="path6518" />
      <path
         d="m 74.126106,30.036821 c 0.390861,0 0.67649,-0.19543 0.766688,-0.486071 l -0.285629,-0.08018 c -0.07516,0.200441 -0.249299,0.300662 -0.481059,0.300662 -0.347015,0 -0.586292,-0.224244 -0.600072,-0.636402 h 1.396827 v -0.125276 c 0,-0.716578 -0.425939,-0.962119 -0.826822,-0.962119 -0.521147,0 -0.866909,0.410905 -0.866909,1.002208 0,0.591302 0.340751,0.987174 0.896976,0.987174 z m -0.600072,-1.15755 c 0.02004,-0.299409 0.23176,-0.566247 0.570005,-0.566247 0.320707,0 0.526159,0.24053 0.526159,0.566247 z"
         style="stroke-width:0.264583"
         id="path6520" />
      <path
         d="m 75.940099,30.041832 c 0.33574,0 0.511126,-0.180397 0.571259,-0.305673 h 0.01503 v 0.260574 h 0.295651 V 28.72894 c 0,-0.611346 -0.466027,-0.681501 -0.711567,-0.681501 -0.29064,0 -0.621369,0.100221 -0.7717,0.450994 l 0.280618,0.10022 c 0.06514,-0.140309 0.219233,-0.29064 0.501104,-0.29064 0.271848,0 0.405894,0.144068 0.405894,0.390861 v 0.01002 c 0,0.142815 -0.14532,0.130287 -0.496093,0.175386 -0.357036,0.04635 -0.746644,0.125276 -0.746644,0.566248 0,0.375827 0.29064,0.591302 0.656445,0.591302 z m 0.0451,-0.265585 c -0.235519,0 -0.405894,-0.105232 -0.405894,-0.310684 0,-0.225497 0.205452,-0.295651 0.43596,-0.325718 0.125276,-0.01503 0.461015,-0.05011 0.511126,-0.110242 v 0.270596 c 0,0.240529 -0.19042,0.476048 -0.541192,0.476048 z"
         style="stroke-width:0.264583"
         id="path6522" />
      <path
         d="m 78.089829,30.036821 c 0.370816,0 0.496092,-0.230508 0.561236,-0.335739 h 0.03508 v 0.295651 h 0.285629 V 27.431082 H 78.67612 v 0.947086 h -0.02505 c -0.06514,-0.100221 -0.180398,-0.330729 -0.556225,-0.330729 -0.486071,0 -0.82181,0.38585 -0.82181,0.992186 0,0.611346 0.335739,0.997196 0.816799,0.997196 z m 0.04009,-0.265585 c -0.370817,0 -0.561236,-0.325717 -0.561236,-0.736622 0,-0.405894 0.185408,-0.72159 0.561236,-0.72159 0.360795,0 0.551214,0.29064 0.551214,0.72159 0,0.43596 -0.19543,0.736622 -0.551214,0.736622 z"
         style="stroke-width:0.264583"
         id="path6524" />
      <path
         d="m 80.91605,28.503444 c -0.0927,-0.273102 -0.300663,-0.456005 -0.681501,-0.456005 -0.405894,0 -0.706557,0.230508 -0.706557,0.556225 0,0.265585 0.157848,0.443477 0.511126,0.526159 l 0.320707,0.07517 c 0.194177,0.0451 0.285629,0.137803 0.285629,0.270596 0,0.165364 -0.175387,0.300662 -0.450994,0.300662 -0.241782,0 -0.393366,-0.103979 -0.445982,-0.310684 l -0.280618,0.07015 c 0.0689,0.32697 0.338245,0.501104 0.731611,0.501104 0.447235,0 0.751656,-0.244288 0.751656,-0.576269 0,-0.268091 -0.16787,-0.437213 -0.511126,-0.521148 l -0.285629,-0.07015 c -0.228002,-0.05637 -0.330728,-0.132792 -0.330728,-0.280618 0,-0.165364 0.175386,-0.285629 0.410905,-0.285629 0.258068,0 0.364553,0.142815 0.415916,0.275607 z"
         style="stroke-width:0.264583"
         id="path6526" />
      <path
         d="m 82.203882,30.036821 c 0.390861,0 0.67649,-0.19543 0.766688,-0.486071 l -0.285629,-0.08018 c -0.07516,0.200441 -0.249299,0.300662 -0.481059,0.300662 -0.347015,0 -0.586292,-0.224244 -0.600072,-0.636402 h 1.396827 v -0.125276 c 0,-0.716578 -0.425939,-0.962119 -0.826822,-0.962119 -0.521147,0 -0.866909,0.410905 -0.866909,1.002208 0,0.591302 0.340751,0.987174 0.896976,0.987174 z m -0.600072,-1.15755 c 0.02004,-0.299409 0.23176,-0.566247 0.570005,-0.566247 0.320707,0 0.526159,0.24053 0.526159,0.566247 z"
         style="stroke-width:0.264583"
         id="path6528" />
      <path
         d="m 84.288471,28.072495 h -0.410905 v -0.461016 h -0.295651 v 0.461016 h -0.29064 v 0.250551 h 0.29064 v 1.202649 c 0,0.33574 0.270596,0.496093 0.521148,0.496093 0.110243,0 0.180397,-0.02004 0.220486,-0.03508 l -0.06013,-0.265585 c -0.02506,0.005 -0.06514,0.01503 -0.130287,0.01503 -0.130287,0 -0.255563,-0.04009 -0.255563,-0.29064 v -1.122473 h 0.410905 z"
         style="stroke-width:0.264583"
         id="path6530" />
      <path
         d="m 85.76672,29.996733 h 0.310684 v -0.937064 h 0.561236 c 0.597567,0 0.86691,-0.3633 0.86691,-0.816799 0,-0.453499 -0.269343,-0.811788 -0.871921,-0.811788 H 85.76672 Z m 0.310684,-1.212671 v -1.077373 h 0.546203 c 0.417169,0 0.576269,0.228002 0.576269,0.536181 0,0.308179 -0.1591,0.541192 -0.571258,0.541192 z"
         style="stroke-width:0.264583"
         id="path6532" />
      <path
         d="m 88.72824,30.036821 c 0.521148,0 0.871921,-0.395872 0.871921,-0.992185 0,-0.601325 -0.350773,-0.997197 -0.871921,-0.997197 -0.521148,0 -0.87192,0.395872 -0.87192,0.997197 0,0.596313 0.350772,0.992185 0.87192,0.992185 z m 0,-0.265585 c -0.395872,0 -0.576269,-0.34075 -0.576269,-0.7266 0,-0.38585 0.180397,-0.731612 0.576269,-0.731612 0.395872,0 0.576269,0.345762 0.576269,0.731612 0,0.38585 -0.180397,0.7266 -0.576269,0.7266 z"
         style="stroke-width:0.264583"
         id="path6534" />
      <path
         d="m 90.051152,29.996733 h 0.295651 v -1.217682 c 0,-0.260574 0.205452,-0.450994 0.48607,-0.450994 0.07892,0 0.160354,0.01503 0.180398,0.02004 v -0.300663 c -0.03383,-0.0025 -0.111496,-0.005 -0.155342,-0.005 -0.230508,0 -0.43095,0.130287 -0.501104,0.320707 h -0.02004 v -0.29064 h -0.285629 z"
         style="stroke-width:0.264583"
         id="path6536" />
      <path
         d="m 92.321144,28.072495 h -0.410905 v -0.461016 h -0.295651 v 0.461016 h -0.29064 v 0.250551 h 0.29064 v 1.202649 c 0,0.33574 0.270596,0.496093 0.521148,0.496093 0.110243,0 0.180397,-0.02004 0.220485,-0.03508 l -0.06013,-0.265585 c -0.02505,0.005 -0.06514,0.01503 -0.130287,0.01503 -0.130287,0 -0.255563,-0.04009 -0.255563,-0.29064 v -1.122473 h 0.410905 z"
         style="stroke-width:0.264583"
         id="path6538" />
    </g>
    <g
       aria-label="SD Card Slot"
       id="text130-3-5-6-9-2-7-5-5"
       style="font-size:3.52777px;line-height:1.25;font-family:Inter;-inkscape-font-specification:Inter;stroke-width:0.264583">
      <path
         d="m 72.2573,38.042978 h 0.300663 c -0.01378,-0.387102 -0.370817,-0.67649 -0.86691,-0.67649 -0.491081,0 -0.876931,0.285629 -0.876931,0.716579 0,0.345761 0.250552,0.551214 0.651435,0.666468 l 0.315695,0.0902 c 0.270596,0.07517 0.511126,0.170375 0.511126,0.425938 0,0.280618 -0.270596,0.466027 -0.62638,0.466027 -0.305673,0 -0.576269,-0.135298 -0.601324,-0.425938 h -0.320707 c 0.03007,0.420927 0.370817,0.706556 0.922031,0.706556 0.591302,0 0.927042,-0.325718 0.927042,-0.741634 0,-0.481059 -0.456005,-0.636401 -0.72159,-0.706556 l -0.260573,-0.07015 c -0.19042,-0.05011 -0.496093,-0.150331 -0.496093,-0.425939 0,-0.24554 0.225497,-0.425938 0.566247,-0.425938 0.310684,0 0.546203,0.147826 0.576269,0.400883 z"
         style="stroke-width:0.264583"
         id="path6541" />
      <path
         d="m 73.895906,39.967216 c 0.781721,0 1.222693,-0.48607 1.222693,-1.287836 0,-0.796755 -0.440972,-1.277814 -1.187616,-1.277814 h -0.826821 v 2.56565 z m -0.48106,-0.275607 v -2.014436 h 0.496093 c 0.601324,0 0.906997,0.380838 0.906997,1.002207 0,0.62638 -0.305673,1.012229 -0.942074,1.012229 z"
         style="stroke-width:0.264583"
         id="path6543" />
      <path
         d="m 78.696466,38.203331 c -0.09521,-0.526158 -0.516137,-0.836843 -1.032274,-0.836843 -0.656446,0 -1.132494,0.506115 -1.132494,1.317903 0,0.811788 0.476048,1.317903 1.132494,1.317903 0.516137,0 0.937064,-0.310685 1.032274,-0.836843 h -0.310685 c -0.07516,0.355783 -0.380838,0.546203 -0.721589,0.546203 -0.466026,0 -0.831832,-0.360795 -0.831832,-1.027263 0,-0.666468 0.365806,-1.027263 0.831832,-1.027263 0.340751,0 0.646424,0.19042 0.721589,0.546203 z"
         style="stroke-width:0.264583"
         id="path6545" />
      <path
         d="m 79.723726,40.012316 c 0.335739,0 0.511126,-0.180398 0.571258,-0.305673 h 0.01503 v 0.260573 h 0.295651 v -1.267792 c 0,-0.611346 -0.466026,-0.681501 -0.711567,-0.681501 -0.29064,0 -0.621368,0.100221 -0.771699,0.450993 l 0.280618,0.100221 c 0.06514,-0.140309 0.219232,-0.29064 0.501103,-0.29064 0.271849,0 0.405894,0.144067 0.405894,0.390861 v 0.01002 c 0,0.142815 -0.14532,0.130287 -0.496092,0.175386 -0.357037,0.04635 -0.746645,0.125276 -0.746645,0.566247 0,0.375828 0.29064,0.591303 0.656446,0.591303 z m 0.0451,-0.265585 c -0.235518,0 -0.405894,-0.105232 -0.405894,-0.310684 0,-0.225497 0.205453,-0.295652 0.435961,-0.325718 0.125275,-0.01503 0.461015,-0.05011 0.511125,-0.110243 v 0.270596 c 0,0.24053 -0.190419,0.476049 -0.541192,0.476049 z"
         style="stroke-width:0.264583"
         id="path6547" />
      <path
         d="m 81.146856,39.967216 h 0.295651 v -1.217681 c 0,-0.259322 0.205453,-0.450994 0.486071,-0.450994 0.07391,0 0.129034,0.01378 0.170375,0.03508 l 0.100221,-0.250551 c -0.06013,-0.04259 -0.139057,-0.07015 -0.245541,-0.07015 -0.233013,0 -0.432202,0.130287 -0.501104,0.320706 h -0.02004 v -0.29064 h -0.285629 z"
         style="stroke-width:0.264583"
         id="path6549" />
      <path
         d="m 83.166299,40.007305 c 0.370817,0 0.496093,-0.230508 0.561236,-0.33574 h 0.03508 v 0.295651 h 0.28563 v -2.56565 H 83.75259 v 0.947086 h -0.02505 c -0.06514,-0.100221 -0.180397,-0.330729 -0.556225,-0.330729 -0.486071,0 -0.82181,0.38585 -0.82181,0.992185 0,0.611347 0.335739,0.997197 0.816799,0.997197 z m 0.04009,-0.265585 c -0.370816,0 -0.561236,-0.325718 -0.561236,-0.736623 0,-0.405894 0.185409,-0.721589 0.561236,-0.721589 0.360795,0 0.551214,0.29064 0.551214,0.721589 0,0.435961 -0.19543,0.736623 -0.551214,0.736623 z"
         style="stroke-width:0.264583"
         id="path6551" />
      <path
         d="m 87.064874,38.042978 h 0.300662 c -0.01378,-0.387102 -0.370817,-0.67649 -0.86691,-0.67649 -0.491081,0 -0.876931,0.285629 -0.876931,0.716579 0,0.345761 0.250552,0.551214 0.651435,0.666468 l 0.315695,0.0902 c 0.270596,0.07517 0.511126,0.170375 0.511126,0.425938 0,0.280618 -0.270596,0.466027 -0.62638,0.466027 -0.305673,0 -0.576269,-0.135298 -0.601324,-0.425938 H 85.55154 c 0.03007,0.420927 0.370817,0.706556 0.922031,0.706556 0.591303,0 0.927042,-0.325718 0.927042,-0.741634 0,-0.481059 -0.456004,-0.636401 -0.721589,-0.706556 l -0.260574,-0.07015 c -0.19042,-0.05011 -0.496093,-0.150331 -0.496093,-0.425939 0,-0.24554 0.225497,-0.425938 0.566247,-0.425938 0.310685,0 0.546203,0.147826 0.57627,0.400883 z"
         style="stroke-width:0.264583"
         id="path6553" />
      <path
         d="m 88.167299,37.401566 h -0.295652 v 2.56565 h 0.295652 z"
         style="stroke-width:0.264583"
         id="path6555" />
      <path
         d="m 89.490209,40.007305 c 0.521148,0 0.87192,-0.395872 0.87192,-0.992186 0,-0.601324 -0.350772,-0.997196 -0.87192,-0.997196 -0.521148,0 -0.871921,0.395872 -0.871921,0.997196 0,0.596314 0.350773,0.992186 0.871921,0.992186 z m 0,-0.265585 c -0.395872,0 -0.576269,-0.340751 -0.576269,-0.726601 0,-0.385849 0.180397,-0.731611 0.576269,-0.731611 0.395872,0 0.576269,0.345762 0.576269,0.731611 0,0.38585 -0.180397,0.726601 -0.576269,0.726601 z"
         style="stroke-width:0.264583"
         id="path6557" />
      <path
         d="m 91.649962,38.042978 h -0.410905 v -0.461015 h -0.295652 v 0.461015 h -0.29064 v 0.250552 h 0.29064 v 1.202649 c 0,0.335739 0.270596,0.496093 0.521148,0.496093 0.110243,0 0.180398,-0.02004 0.220486,-0.03508 l -0.06013,-0.265585 c -0.02505,0.005 -0.06514,0.01503 -0.130287,0.01503 -0.130287,0 -0.255562,-0.04009 -0.255562,-0.290641 V 38.29353 h 0.410905 z"
         style="stroke-width:0.264583"
         id="path6559" />
    </g>
    <path
       style="fill:none;stroke:red;stroke-width:0.25;stroke-linecap:butt;stroke-linejoin:miter;stroke-miterlimit:4;stroke-dasharray:none;stroke-opacity:1"
       d="M 42.876858,63.55066 V 20.007512 h 7.135753"
       id="path204-3-0"
       sodipodi:nodetypes="ccc" />
    <path
       style="fill:none;stroke:red;stroke-width:0.25;stroke-linecap:butt;stroke-linejoin:miter;stroke-miterlimit:4;stroke-dasharray:none;stroke-opacity:1"
       d="m 55.32089,62.48831 0,-32.488983 h 4.692545"
       id="path204-3-0-7"
       sodipodi:nodetypes="ccc" />
    <g
       aria-label="USB3.0"
       id="text130-3-5-6-9-2-7-5-8"
       style="font-size:3.52777px;line-height:1.25;font-family:Inter;-inkscape-font-specification:Inter;stroke-width:0.264583">
      <path
         d="m 59.342156,107.44071 v 1.69874 c 0,0.40089 -0.320707,0.62137 -0.686512,0.62137 -0.365806,0 -0.686512,-0.22048 -0.686512,-0.62137 v -1.69874 h -0.310685 v 1.69874 c 0,0.57627 0.456005,0.91201 0.997197,0.91201 0.541192,0 0.997196,-0.33574 0.997196,-0.91201 v -1.69874 z"
         style="stroke-width:0.264583"
         id="path6583" />
      <path
         d="m 61.677295,108.08212 h 0.300662 c -0.01378,-0.3871 -0.370817,-0.67649 -0.866909,-0.67649 -0.491082,0 -0.876932,0.28563 -0.876932,0.71658 0,0.34576 0.250552,0.55122 0.651435,0.66647 l 0.315695,0.0902 c 0.270596,0.0752 0.511126,0.17037 0.511126,0.42594 0,0.28062 -0.270596,0.46602 -0.62638,0.46602 -0.305673,0 -0.576269,-0.13529 -0.601324,-0.42593 h -0.320706 c 0.03007,0.42092 0.370816,0.70655 0.92203,0.70655 0.591303,0 0.927042,-0.32572 0.927042,-0.74163 0,-0.48106 -0.456004,-0.6364 -0.721589,-0.70656 l -0.260574,-0.0701 c -0.190419,-0.0501 -0.496093,-0.15033 -0.496093,-0.42594 0,-0.24554 0.225497,-0.42594 0.566247,-0.42594 0.310685,0 0.546203,0.14783 0.57627,0.40088 z"
         style="stroke-width:0.264583"
         id="path6585" />
      <path
         d="m 62.524156,110.00636 h 0.927042 c 0.606336,0 0.856887,-0.29565 0.856887,-0.6815 0,-0.40589 -0.280618,-0.62638 -0.516136,-0.64141 v -0.0251 c 0.220485,-0.0601 0.415916,-0.20545 0.415916,-0.53618 0,-0.37582 -0.250552,-0.6815 -0.786733,-0.6815 h -0.896976 z m 0.310684,-0.2756 v -0.89197 h 0.631391 c 0.33574,0 0.546203,0.2255 0.546203,0.48607 0,0.2255 -0.155342,0.4059 -0.561236,0.4059 z m 0,-1.16256 v -0.85188 h 0.586292 c 0.34075,0 0.491081,0.1804 0.491081,0.40589 0,0.2706 -0.220485,0.44599 -0.501103,0.44599 z"
         style="stroke-width:0.264583"
         id="path6587" />
      <path
         d="m 65.641021,110.04144 c 0.497345,0 0.866909,-0.31194 0.866909,-0.73161 0,-0.32572 -0.192925,-0.56249 -0.516137,-0.61636 v -0.02 c 0.259321,-0.0789 0.420927,-0.2919 0.420927,-0.58128 0,-0.3633 -0.286881,-0.68652 -0.761677,-0.68652 -0.443477,0 -0.811788,0.27311 -0.826821,0.67649 h 0.300662 c 0.01128,-0.25556 0.25431,-0.40589 0.521148,-0.40589 0.283123,0 0.466026,0.17163 0.466026,0.43095 0,0.2706 -0.211716,0.44598 -0.516137,0.44598 h -0.205452 v 0.27561 h 0.205452 c 0.389608,0 0.606336,0.19794 0.606336,0.48106 0,0.27185 -0.236772,0.456 -0.566247,0.456 -0.296904,0 -0.532423,-0.15283 -0.551214,-0.40088 H 64.7691 c 0.01879,0.40339 0.374575,0.67649 0.871921,0.67649 z"
         style="stroke-width:0.264583"
         id="path6589" />
      <path
         d="m 67.119267,110.02641 c 0.124024,0 0.225497,-0.10148 0.225497,-0.2255 0,-0.12402 -0.101473,-0.2255 -0.225497,-0.2255 -0.124023,0 -0.225496,0.10148 -0.225496,0.2255 0,0.12402 0.101473,0.2255 0.225496,0.2255 z"
         style="stroke-width:0.264583"
         id="path6591" />
      <path
         d="m 68.567452,110.04144 c 0.566247,0 0.891965,-0.47981 0.891965,-1.3179 0,-0.83183 -0.330729,-1.31791 -0.891965,-1.31791 -0.561236,0 -0.891964,0.48608 -0.891964,1.31791 0,0.83809 0.325717,1.3179 0.891964,1.3179 z m 0,-0.27561 c -0.373322,0 -0.591302,-0.37457 -0.591302,-1.04229 0,-0.66647 0.220485,-1.04731 0.591302,-1.04731 0.370817,0 0.591302,0.38084 0.591302,1.04731 0,0.66772 -0.21798,1.04229 -0.591302,1.04229 z"
         style="stroke-width:0.264583"
         id="path6593" />
    </g>
    <path
       style="fill:none;stroke:red;stroke-width:0.25;stroke-linecap:butt;stroke-linejoin:miter;stroke-miterlimit:4;stroke-dasharray:none;stroke-opacity:1"
       d="M 74.915218,93.974907 V 110.00891"
       id="path204-3-0-7-8"
       sodipodi:nodetypes="cc" />
    <g
       aria-label="HDMI (opt.)"
       id="text130-3-5-6-9-2-7-5-8-4"
       style="font-size:3.52777px;line-height:1.25;font-family:Inter;-inkscape-font-specification:Inter;stroke-width:0.264583">
      <path
         d="m 120.68518,110.00812 h 0.31069 v -1.14753 h 1.36801 v 1.14753 h 0.31068 v -2.56565 h -0.31068 v 1.14251 h -1.36801 v -1.14251 h -0.31069 z"
         style="stroke-width:0.264583"
         id="path6562" />
      <path
         d="m 124.08767,110.00812 c 0.78172,0 1.22269,-0.48607 1.22269,-1.28784 0,-0.79675 -0.44097,-1.27781 -1.18761,-1.27781 h -0.82683 v 2.56565 z m -0.48106,-0.27561 v -2.01444 h 0.49609 c 0.60133,0 0.907,0.38084 0.907,1.00221 0,0.62638 -0.30567,1.01223 -0.94208,1.01223 z"
         style="stroke-width:0.264583"
         id="path6564" />
      <path
         d="m 125.8315,107.44247 v 2.56565 h 0.29064 v -1.9493 h 0.0251 l 0.80176,1.9493 h 0.28062 l 0.80177,-1.9493 h 0.025 v 1.9493 h 0.29064 v -2.56565 h -0.37081 l -0.87192,2.12969 h -0.0301 l -0.87192,-2.12969 z"
         style="stroke-width:0.264583"
         id="path6566" />
      <path
         d="m 129.35927,107.44247 h -0.31069 v 2.56565 h 0.31069 z"
         style="stroke-width:0.264583"
         id="path6568" />
      <path
         d="m 131.03796,108.92573 c 0,0.63139 0.17037,1.15755 0.47604,1.60354 h 0.26058 c -0.24053,-0.33073 -0.43095,-1.00722 -0.43095,-1.60354 0,-0.59631 0.19042,-1.2728 0.43095,-1.60353 H 131.514 c -0.30567,0.44598 -0.47604,0.97214 -0.47604,1.60353 z"
         style="stroke-width:0.264583"
         id="path6570" />
      <path
         d="m 132.95217,110.04821 c 0.52115,0 0.87192,-0.39588 0.87192,-0.99219 0,-0.60132 -0.35077,-0.9972 -0.87192,-0.9972 -0.52115,0 -0.87192,0.39588 -0.87192,0.9972 0,0.59631 0.35077,0.99219 0.87192,0.99219 z m 0,-0.26559 c -0.39587,0 -0.57627,-0.34075 -0.57627,-0.7266 0,-0.38585 0.1804,-0.73161 0.57627,-0.73161 0.39587,0 0.57627,0.34576 0.57627,0.73161 0,0.38585 -0.1804,0.7266 -0.57627,0.7266 z"
         style="stroke-width:0.264583"
         id="path6572" />
      <path
         d="m 134.27508,110.72971 h 0.29565 v -1.01724 h 0.025 c 0.0652,0.10523 0.19042,0.33574 0.56124,0.33574 0.48106,0 0.8168,-0.38585 0.8168,-0.9972 0,-0.60634 -0.33574,-0.99219 -0.82181,-0.99219 -0.37583,0 -0.49108,0.23051 -0.55623,0.33073 h -0.0351 v -0.30567 h -0.28563 z m 0.29064,-1.68371 c 0,-0.43095 0.19042,-0.72159 0.55121,-0.72159 0.37583,0 0.56124,0.31569 0.56124,0.72159 0,0.4109 -0.19042,0.73662 -0.56124,0.73662 -0.35578,0 -0.55121,-0.30066 -0.55121,-0.73662 z"
         style="stroke-width:0.264583"
         id="path6574" />
      <path
         d="m 137.26165,108.08388 h -0.41091 v -0.46102 h -0.29565 v 0.46102 h -0.29064 v 0.25055 h 0.29064 v 1.20265 c 0,0.33574 0.2706,0.49609 0.52115,0.49609 0.11024,0 0.1804,-0.02 0.22049,-0.0351 l -0.0601,-0.26559 c -0.025,0.005 -0.0651,0.015 -0.13028,0.015 -0.13029,0 -0.25557,-0.0401 -0.25557,-0.29064 v -1.12247 h 0.41091 z"
         style="stroke-width:0.264583"
         id="path6576" />
      <path
         d="m 137.92311,110.02816 c 0.12402,0 0.22549,-0.10147 0.22549,-0.22549 0,-0.12403 -0.10147,-0.2255 -0.22549,-0.2255 -0.12403,0 -0.2255,0.10147 -0.2255,0.2255 0,0.12402 0.10147,0.22549 0.2255,0.22549 z"
         style="stroke-width:0.264583"
         id="path6578" />
      <path
         d="m 139.31116,108.92573 c 0,-0.63139 -0.17037,-1.15755 -0.47605,-1.60353 h -0.26057 c 0.24053,0.33073 0.43095,1.00722 0.43095,1.60353 0,0.59632 -0.19042,1.27281 -0.43095,1.60354 h 0.26057 c 0.30568,-0.44599 0.47605,-0.97215 0.47605,-1.60354 z"
         style="stroke-width:0.264583"
         id="path6580" />
    </g>
    <path
       style="fill:none;stroke:red;stroke-width:0.25;stroke-linecap:butt;stroke-linejoin:miter;stroke-miterlimit:4;stroke-dasharray:none;stroke-opacity:1"
       d="m 115.17543,93.904165 v 16.106505 h 4.80185"
       id="path204-3-0-7-8-4"
       sodipodi:nodetypes="ccc" />
    <path
       style="fill:none;stroke:red;stroke-width:0.25;stroke-linecap:butt;stroke-linejoin:miter;stroke-miterlimit:4;stroke-dasharray:none;stroke-opacity:1"
       d="M 89.018874,93.974907 V 110.00891"
       id="path204-3-0-7-8-47"
       sodipodi:nodetypes="cc" />
    <path
       style="fill:none;stroke:red;stroke-width:0.25;stroke-linecap:butt;stroke-linejoin:miter;stroke-miterlimit:4;stroke-dasharray:none;stroke-opacity:1"
       d="m 103.16721,93.974907 v 16.034003 l -33.174596,0"
       id="path204-3-0-7-8-47-6"
       sodipodi:nodetypes="ccc" />
    <path
       style="fill:none;stroke:red;stroke-width:0.25;stroke-linecap:butt;stroke-linejoin:miter;stroke-miterlimit:4;stroke-dasharray:none;stroke-opacity:1"
       d="M 69.423675,62.048528 V 40.012746 h 0.606834"
       id="path204-3-0-3"
       sodipodi:nodetypes="ccc" />
  </g>
  <g
     inkscape:groupmode="layer"
     id="layer3"
     inkscape:label="callouts 2" />
</svg>
