<?xml version="1.0" encoding="UTF-8" standalone="no"?>
<svg
   xmlns:dc="http://purl.org/dc/elements/1.1/"
   xmlns:cc="http://creativecommons.org/ns#"
   xmlns:rdf="http://www.w3.org/1999/02/22-rdf-syntax-ns#"
   xmlns:svg="http://www.w3.org/2000/svg"
   xmlns="http://www.w3.org/2000/svg"
   xmlns:xlink="http://www.w3.org/1999/xlink"
   xmlns:sodipodi="http://sodipodi.sourceforge.net/DTD/sodipodi-0.dtd"
   xmlns:inkscape="http://www.inkscape.org/namespaces/inkscape"
   width="148mm"
   height="130mm"
   viewBox="0 0 148 130"
   version="1.1"
   id="svg8"
   inkscape:version="1.0.1 (3bc2e813f5, 2020-09-07)"
   sodipodi:docname="refman-27x.svg"
   inkscape:export-filename="/home/mntmn/code/reform-handbook/src/source/_static/illustrations/28-callouts.png"
   inkscape:export-xdpi="600.0954"
   inkscape:export-ydpi="600.0954">
  <defs
     id="defs2" />
  <sodipodi:namedview
     id="base"
     pagecolor="#ffffff"
     bordercolor="#666666"
     borderopacity="1.0"
     inkscape:pageopacity="0.0"
     inkscape:pageshadow="2"
     inkscape:zoom="1.4"
     inkscape:cx="396.9043"
     inkscape:cy="303.62284"
     inkscape:document-units="mm"
     inkscape:current-layer="layer1"
     inkscape:document-rotation="0"
     showgrid="false"
     inkscape:window-width="2560"
     inkscape:window-height="1406"
     inkscape:window-x="0"
     inkscape:window-y="0"
     inkscape:window-maximized="1"
     inkscape:snap-global="false">
    <inkscape:grid
       type="xygrid"
       id="grid10"
       units="mm"
       spacingx="10"
       spacingy="10" />
  </sodipodi:namedview>
  <metadata
     id="metadata5">
    <rdf:RDF>
      <cc:Work
         rdf:about="">
        <dc:format>image/svg+xml</dc:format>
        <dc:type
           rdf:resource="http://purl.org/dc/dcmitype/StillImage" />
        <dc:title></dc:title>
      </cc:Work>
    </rdf:RDF>
  </metadata>
  <g
     inkscape:label="Layer 1"
     inkscape:groupmode="layer"
     id="layer1">
    <image
       sodipodi:absref="/home/mntmn/code/reform-handbook/src/source/_static/illustrations/27t.png"
       xlink:href="../_static/illustrations/27t.png"
       width="147.63989"
       height="81.663322"
       preserveAspectRatio="none"
       id="image2748"
       x="0.22333933"
       y="22.162907" />
    <g
       aria-label="LPC USB Port"
       id="text130-3-5-6-3"
       style="font-size:3.52777px;line-height:1.25;font-family:Inter;-inkscape-font-specification:Inter;stroke-width:0.264583"
       transform="translate(0.0236235)">
      <path
         d="m 51.315765,120.01127 h 1.503312 v -0.27561 H 51.62645 v -2.29004 h -0.310685 z"
         style="stroke-width:0.264583"
         id="path7201" />
      <path
         d="m 53.300129,120.01127 h 0.310685 v -0.93707 h 0.561236 c 0.597566,0 0.866909,-0.3633 0.866909,-0.81679 0,-0.4535 -0.269343,-0.81179 -0.87192,-0.81179 h -0.86691 z m 0.310685,-1.21267 v -1.07738 h 0.546203 c 0.417169,0 0.576269,0.22801 0.576269,0.53619 0,0.30817 -0.1591,0.54119 -0.571258,0.54119 z"
         style="stroke-width:0.264583"
         id="path7203" />
      <path
         d="m 57.60461,118.24738 c -0.09521,-0.52616 -0.516137,-0.83684 -1.032274,-0.83684 -0.656446,0 -1.132494,0.50612 -1.132494,1.3179 0,0.81179 0.476048,1.31791 1.132494,1.31791 0.516137,0 0.937064,-0.31069 1.032274,-0.83685 h -0.310685 c -0.07516,0.35579 -0.380838,0.54621 -0.721589,0.54621 -0.466026,0 -0.831832,-0.3608 -0.831832,-1.02727 0,-0.66646 0.365806,-1.02726 0.831832,-1.02726 0.340751,0 0.646424,0.19042 0.721589,0.5462 z"
         style="stroke-width:0.264583"
         id="path7205" />
      <path
         d="m 60.781598,117.44562 v 1.69874 c 0,0.40088 -0.320706,0.62137 -0.686512,0.62137 -0.365806,0 -0.686512,-0.22049 -0.686512,-0.62137 v -1.69874 H 59.09789 v 1.69874 c 0,0.57627 0.456004,0.91201 0.997196,0.91201 0.541192,0 0.997196,-0.33574 0.997196,-0.91201 v -1.69874 z"
         style="stroke-width:0.264583"
         id="path7207" />
      <path
         d="M 63.116737,118.08703 H 63.4174 c -0.01378,-0.3871 -0.370817,-0.67649 -0.86691,-0.67649 -0.491081,0 -0.876931,0.28563 -0.876931,0.71658 0,0.34576 0.250552,0.55121 0.651434,0.66647 l 0.315696,0.0902 c 0.270596,0.0752 0.511126,0.17037 0.511126,0.42593 0,0.28062 -0.270596,0.46603 -0.62638,0.46603 -0.305673,0 -0.576269,-0.1353 -0.601324,-0.42594 h -0.320707 c 0.03007,0.42093 0.370817,0.70656 0.922031,0.70656 0.591302,0 0.927042,-0.32572 0.927042,-0.74164 0,-0.48106 -0.456005,-0.6364 -0.72159,-0.70655 l -0.260573,-0.0702 c -0.19042,-0.0501 -0.496093,-0.15033 -0.496093,-0.42593 0,-0.24555 0.225497,-0.42594 0.566247,-0.42594 0.310684,0 0.546203,0.14782 0.576269,0.40088 z"
         style="stroke-width:0.264583"
         id="path7209" />
      <path
         d="m 63.963598,120.01127 h 0.927042 c 0.606336,0 0.856888,-0.29565 0.856888,-0.6815 0,-0.4059 -0.280619,-0.62638 -0.516137,-0.64142 v -0.025 c 0.220485,-0.0601 0.415916,-0.20545 0.415916,-0.53618 0,-0.37583 -0.250552,-0.6815 -0.786733,-0.6815 h -0.896976 z m 0.310685,-0.27561 v -0.89196 h 0.63139 c 0.33574,0 0.546203,0.22549 0.546203,0.48607 0,0.22549 -0.155342,0.40589 -0.561236,0.40589 z m 0,-1.16256 v -0.85188 h 0.586291 c 0.34075,0 0.491082,0.1804 0.491082,0.4059 0,0.27059 -0.220486,0.44598 -0.501104,0.44598 z"
         style="stroke-width:0.264583"
         id="path7211" />
      <path
         d="m 67.250832,120.01127 h 0.310684 v -0.93707 h 0.561236 c 0.597566,0 0.86691,-0.3633 0.86691,-0.81679 0,-0.4535 -0.269344,-0.81179 -0.871921,-0.81179 h -0.866909 z m 0.310684,-1.21267 v -1.07738 h 0.546203 c 0.417169,0 0.576269,0.22801 0.576269,0.53619 0,0.30817 -0.1591,0.54119 -0.571258,0.54119 z"
         style="stroke-width:0.264583"
         id="path7213" />
      <path
         d="m 70.212354,120.05136 c 0.521148,0 0.87192,-0.39588 0.87192,-0.99219 0,-0.60132 -0.350772,-0.99719 -0.87192,-0.99719 -0.521148,0 -0.871921,0.39587 -0.871921,0.99719 0,0.59631 0.350773,0.99219 0.871921,0.99219 z m 0,-0.26559 c -0.395872,0 -0.576269,-0.34075 -0.576269,-0.7266 0,-0.38585 0.180397,-0.73161 0.576269,-0.73161 0.395872,0 0.576269,0.34576 0.576269,0.73161 0,0.38585 -0.180397,0.7266 -0.576269,0.7266 z"
         style="stroke-width:0.264583"
         id="path7215" />
      <path
         d="m 71.535264,120.01127 h 0.295651 v -1.21768 c 0,-0.26058 0.205452,-0.451 0.48607,-0.451 0.07892,0 0.160353,0.015 0.180398,0.02 v -0.30066 c -0.03382,-0.003 -0.111496,-0.005 -0.155343,-0.005 -0.230507,0 -0.430949,0.13029 -0.501103,0.32071 h -0.02004 V 118.087 h -0.285629 z"
         style="stroke-width:0.264583"
         id="path7217" />
      <path
         d="m 73.805256,118.08703 h -0.410905 v -0.46101 H 73.0987 v 0.46101 h -0.29064 v 0.25055 h 0.29064 v 1.20265 c 0,0.33574 0.270596,0.49609 0.521148,0.49609 0.110242,0 0.180397,-0.02 0.220485,-0.0351 l -0.06013,-0.26559 c -0.02506,0.005 -0.06514,0.015 -0.130287,0.015 -0.130287,0 -0.255563,-0.0401 -0.255563,-0.29064 v -1.12247 h 0.410905 z"
         style="stroke-width:0.264583"
         id="path7219" />
    </g>
    <path
       style="fill:none;stroke:#ff0000;stroke-width:0.264999;stroke-linecap:butt;stroke-linejoin:miter;stroke-miterlimit:4;stroke-dasharray:none;stroke-opacity:1"
       d="m 50.643309,119.96978 h -0.64557 V 79.973915"
       id="path200-7"
       sodipodi:nodetypes="ccc" />
    <g
       aria-label="User-Defined Switch"
       id="text130-3-5-6-3-5"
       style="font-size:3.52777px;line-height:1.25;font-family:Inter;-inkscape-font-specification:Inter;stroke-width:0.264583">
      <path
         d="m 73.007782,107.43609 v 1.69874 c 0,0.40088 -0.320706,0.62137 -0.686512,0.62137 -0.365805,0 -0.686512,-0.22049 -0.686512,-0.62137 v -1.69874 h -0.310684 v 1.69874 c 0,0.57627 0.456004,0.91201 0.997196,0.91201 0.541192,0 0.997197,-0.33574 0.997197,-0.91201 v -1.69874 z"
         style="stroke-width:0.264583"
         id="path7164" />
      <path
         d="m 75.262745,108.50845 c -0.0927,-0.2731 -0.300663,-0.456 -0.681501,-0.456 -0.405894,0 -0.706557,0.2305 -0.706557,0.55622 0,0.26559 0.157848,0.44348 0.511126,0.52616 l 0.320707,0.0752 c 0.194177,0.0451 0.285629,0.1378 0.285629,0.27059 0,0.16537 -0.175387,0.30066 -0.450994,0.30066 -0.241782,0 -0.393366,-0.10398 -0.445982,-0.31068 l -0.280618,0.0701 c 0.0689,0.32697 0.338245,0.50111 0.731611,0.50111 0.447235,0 0.751656,-0.24429 0.751656,-0.57627 0,-0.26809 -0.16787,-0.43721 -0.511126,-0.52115 l -0.285629,-0.0701 c -0.228002,-0.0564 -0.330728,-0.1328 -0.330728,-0.28062 0,-0.16537 0.175386,-0.28563 0.410905,-0.28563 0.258068,0 0.364553,0.14281 0.415916,0.27561 z"
         style="stroke-width:0.264583"
         id="path7166" />
      <path
         d="m 76.550577,110.04183 c 0.39086,0 0.67649,-0.19543 0.766688,-0.48607 l -0.285629,-0.0802 c -0.07517,0.20044 -0.249299,0.30066 -0.481059,0.30066 -0.347015,0 -0.586292,-0.22424 -0.600072,-0.6364 h 1.396826 v -0.12527 c 0,-0.71658 -0.425938,-0.96212 -0.826821,-0.96212 -0.521147,0 -0.866909,0.4109 -0.866909,1.0022 0,0.59131 0.340751,0.98718 0.896976,0.98718 z m -0.600072,-1.15755 c 0.02004,-0.29941 0.23176,-0.56625 0.570005,-0.56625 0.320707,0 0.526159,0.24053 0.526159,0.56625 z"
         style="stroke-width:0.264583"
         id="path7168" />
      <path
         d="m 77.798324,110.00174 h 0.295651 v -1.21768 c 0,-0.25932 0.205453,-0.451 0.486071,-0.451 0.07391,0 0.129034,0.0138 0.170375,0.0351 l 0.100221,-0.25055 c -0.06013,-0.0426 -0.139056,-0.0702 -0.245541,-0.0702 -0.233013,0 -0.432202,0.13028 -0.501104,0.3207 h -0.02004 v -0.29064 h -0.285629 z"
         style="stroke-width:0.264583"
         id="path7170" />
      <path
         d="m 80.113416,108.76401 h -1.122472 v 0.27561 h 1.122472 z"
         style="stroke-width:0.264583"
         id="path7172" />
      <path
         d="m 81.466392,110.00174 c 0.781722,0 1.222693,-0.48607 1.222693,-1.28784 0,-0.79675 -0.440971,-1.27781 -1.187616,-1.27781 h -0.826821 v 2.56565 z m -0.481059,-0.27561 v -2.01443 h 0.496092 c 0.601325,0 0.906998,0.38083 0.906998,1.0022 0,0.62638 -0.305673,1.01223 -0.942075,1.01223 z"
         style="stroke-width:0.264583"
         id="path7174" />
      <path
         d="m 83.976915,110.04183 c 0.390861,0 0.67649,-0.19543 0.766688,-0.48607 l -0.285629,-0.0802 c -0.07516,0.20044 -0.249299,0.30066 -0.481059,0.30066 -0.347015,0 -0.586292,-0.22424 -0.600072,-0.6364 h 1.396827 v -0.12527 c 0,-0.71658 -0.425938,-0.96212 -0.826821,-0.96212 -0.521148,0 -0.86691,0.4109 -0.86691,1.0022 0,0.59131 0.340751,0.98718 0.896976,0.98718 z m -0.600072,-1.15755 c 0.02004,-0.29941 0.231761,-0.56625 0.570006,-0.56625 0.320706,0 0.526158,0.24053 0.526158,0.56625 z"
         style="stroke-width:0.264583"
         id="path7176" />
      <path
         d="m 86.081549,108.0775 h -0.43095 v -0.19543 c 0,-0.19042 0.08018,-0.29064 0.275607,-0.29064 0.08519,0 0.135298,0.02 0.165365,0.0301 l 0.08519,-0.25557 c -0.0451,-0.02 -0.135298,-0.0501 -0.280618,-0.0501 -0.275607,0 -0.541192,0.16537 -0.541192,0.4961 v 0.26558 h -0.310684 v 0.25055 h 0.310684 v 1.67369 h 0.295651 v -1.67369 h 0.43095 z"
         style="stroke-width:0.264583"
         id="path7178" />
      <path
         d="m 86.49746,110.00174 h 0.295651 V 108.0775 H 86.49746 Z m 0.150331,-2.24495 c 0.115254,0 0.210464,-0.0902 0.210464,-0.20044 0,-0.11024 -0.09521,-0.20044 -0.210464,-0.20044 -0.115254,0 -0.210464,0.0902 -0.210464,0.20044 0,0.11025 0.09521,0.20044 0.210464,0.20044 z"
         style="stroke-width:0.264583"
         id="path7180" />
      <path
         d="m 87.629951,108.84419 c 0,-0.33574 0.207958,-0.52616 0.491081,-0.52616 0.274355,0 0.440972,0.17915 0.440972,0.48106 v 1.20265 h 0.295651 v -1.22269 c 0,-0.49109 -0.261827,-0.7266 -0.651435,-0.7266 -0.29064,0 -0.471038,0.13028 -0.561236,0.32571 h -0.02505 V 108.0775 H 87.3343 v 1.92424 h 0.295651 z"
         style="stroke-width:0.264583"
         id="path7182" />
      <path
         d="m 90.205621,110.04183 c 0.390861,0 0.67649,-0.19543 0.766689,-0.48607 l -0.285629,-0.0802 c -0.07517,0.20044 -0.249299,0.30066 -0.48106,0.30066 -0.347014,0 -0.586291,-0.22424 -0.600072,-0.6364 h 1.396827 v -0.12527 c 0,-0.71658 -0.425938,-0.96212 -0.826821,-0.96212 -0.521148,0 -0.866909,0.4109 -0.866909,1.0022 0,0.59131 0.34075,0.98718 0.896975,0.98718 z m -0.600072,-1.15755 c 0.02005,-0.29941 0.231761,-0.56625 0.570006,-0.56625 0.320706,0 0.526159,0.24053 0.526159,0.56625 z"
         style="stroke-width:0.264583"
         id="path7184" />
      <path
         d="m 92.179968,110.04183 c 0.370817,0 0.496093,-0.23051 0.561236,-0.33574 h 0.03508 v 0.29565 h 0.28563 v -2.56565 h -0.295652 v 0.94708 h -0.02506 c -0.06514,-0.10022 -0.180397,-0.33072 -0.556225,-0.33072 -0.486071,0 -0.82181,0.38585 -0.82181,0.99218 0,0.61135 0.335739,0.9972 0.816799,0.9972 z m 0.04009,-0.26559 c -0.370816,0 -0.561236,-0.32571 -0.561236,-0.73662 0,-0.40589 0.185409,-0.72159 0.561236,-0.72159 0.360795,0 0.551214,0.29064 0.551214,0.72159 0,0.43596 -0.19543,0.73662 -0.551214,0.73662 z"
         style="stroke-width:0.264583"
         id="path7186" />
      <path
         d="m 96.078542,108.0775 h 0.300662 c -0.01378,-0.3871 -0.370817,-0.67649 -0.866909,-0.67649 -0.491082,0 -0.876932,0.28563 -0.876932,0.71658 0,0.34576 0.250552,0.55121 0.651435,0.66647 l 0.315695,0.0902 c 0.270596,0.0752 0.511126,0.17037 0.511126,0.42593 0,0.28062 -0.270596,0.46603 -0.62638,0.46603 -0.305673,0 -0.576269,-0.1353 -0.601324,-0.42594 h -0.320706 c 0.03007,0.42093 0.370816,0.70656 0.92203,0.70656 0.591303,0 0.927042,-0.32572 0.927042,-0.74163 0,-0.48106 -0.456004,-0.63641 -0.721589,-0.70656 l -0.260574,-0.0702 c -0.190419,-0.0501 -0.496093,-0.15033 -0.496093,-0.42593 0,-0.24554 0.225497,-0.42594 0.566247,-0.42594 0.310685,0 0.546204,0.14782 0.57627,0.40088 z"
         style="stroke-width:0.264583"
         id="path7188" />
      <path
         d="m 97.321276,110.00174 h 0.29064 l 0.420927,-1.47826 h 0.03007 l 0.420927,1.47826 h 0.29064 l 0.586292,-1.92424 h -0.310685 l -0.415916,1.46824 h -0.02004 l -0.405894,-1.46824 h -0.315695 l -0.410905,1.47325 h -0.02004 l -0.415916,-1.47325 h -0.310685 z"
         style="stroke-width:0.264583"
         id="path7190" />
      <path
         d="m 99.751622,110.00174 h 0.295648 v -1.92424 h -0.295648 z m 0.150331,-2.24495 c 0.115257,0 0.210467,-0.0902 0.210467,-0.20044 0,-0.11024 -0.0952,-0.20044 -0.210467,-0.20044 -0.115254,0 -0.210464,0.0902 -0.210464,0.20044 0,0.11025 0.09521,0.20044 0.210464,0.20044 z"
         style="stroke-width:0.264583"
         id="path7192" />
      <path
         d="m 101.4253,108.0775 h -0.4109 v -0.46101 h -0.29565 v 0.46101 h -0.29064 v 0.25055 h 0.29064 v 1.20265 c 0,0.33574 0.27059,0.49609 0.52115,0.49609 0.11024,0 0.18039,-0.02 0.22048,-0.0351 l -0.0601,-0.26559 c -0.0251,0.005 -0.0651,0.015 -0.13029,0.015 -0.13028,0 -0.25556,-0.0401 -0.25556,-0.29064 v -1.12248 h 0.4109 z"
         style="stroke-width:0.264583"
         id="path7194" />
      <path
         d="m 102.63296,110.04183 c 0.42594,0 0.70656,-0.26058 0.75667,-0.60133 h -0.29565 c -0.0551,0.21047 -0.23051,0.33574 -0.46102,0.33574 -0.35077,0 -0.57626,-0.29064 -0.57626,-0.73662 0,-0.43596 0.2305,-0.72159 0.57626,-0.72159 0.26058,0 0.41592,0.16035 0.46102,0.33574 h 0.29565 c -0.0501,-0.36079 -0.35578,-0.60132 -0.76168,-0.60132 -0.52114,0 -0.86691,0.4109 -0.86691,0.99719 0,0.57627 0.33073,0.99219 0.87192,0.99219 z"
         style="stroke-width:0.264583"
         id="path7196" />
      <path
         d="m 104.11622,108.84419 c 0,-0.33574 0.21423,-0.52616 0.50612,-0.52616 0.27811,0 0.44598,0.17539 0.44598,0.48106 v 1.20265 h 0.29565 v -1.22269 c 0,-0.49484 -0.26308,-0.7266 -0.65644,-0.7266 -0.30317,0 -0.47605,0.12652 -0.56625,0.32571 h -0.0251 v -0.94207 h -0.29565 v 2.56565 h 0.29565 z"
         style="stroke-width:0.264583"
         id="path7198" />
    </g>
    <path
       style="fill:none;stroke:#ff0000;stroke-width:0.264999;stroke-linecap:butt;stroke-linejoin:miter;stroke-miterlimit:4;stroke-dasharray:none;stroke-opacity:1"
       d="m 70.656345,110.01047 h -0.64557 V 70.016814"
       id="path200-7-5"
       sodipodi:nodetypes="ccc" />
    <g
       aria-label="LPC Flashing Switch"
       id="text130-3-5-6-3-5-6"
       style="font-size:3.52777px;line-height:1.25;font-family:Inter;-inkscape-font-specification:Inter;stroke-width:0.264583"
       transform="translate(0.03340869)">
      <path
         d="m 81.304474,99.985863 h 1.503311 v -0.275607 h -1.192627 v -2.290044 h -0.310684 z"
         style="stroke-width:0.264583"
         id="path7129" />
      <path
         d="m 83.288838,99.985863 h 0.310684 v -0.937064 h 0.561236 c 0.597566,0 0.86691,-0.3633 0.86691,-0.816799 0,-0.453499 -0.269344,-0.811788 -0.871921,-0.811788 h -0.866909 z m 0.310684,-1.212671 v -1.077373 h 0.546203 c 0.417169,0 0.576269,0.228002 0.576269,0.536181 0,0.308179 -0.1591,0.541192 -0.571258,0.541192 z"
         style="stroke-width:0.264583"
         id="path7131" />
      <path
         d="m 87.593318,98.221978 c -0.09521,-0.526159 -0.516137,-0.836843 -1.032273,-0.836843 -0.656446,0 -1.132495,0.506114 -1.132495,1.317902 0,0.811788 0.476049,1.317903 1.132495,1.317903 0.516136,0 0.937064,-0.310684 1.032273,-0.836843 h -0.310684 c -0.07517,0.355783 -0.380839,0.546203 -0.721589,0.546203 -0.466027,0 -0.831833,-0.360795 -0.831833,-1.027263 0,-0.666468 0.365806,-1.027262 0.831833,-1.027262 0.34075,0 0.646423,0.190419 0.721589,0.546203 z"
         style="stroke-width:0.264583"
         id="path7133" />
      <path
         d="m 89.086598,99.985863 h 0.310684 v -1.147528 h 1.112451 v -0.275607 h -1.112451 v -0.866909 h 1.227704 v -0.275607 h -1.538388 z"
         style="stroke-width:0.264583"
         id="path7135" />
      <path
         d="m 91.411717,97.420212 h -0.295652 v 2.565651 h 0.295652 z"
         style="stroke-width:0.264583"
         id="path7137" />
      <path
         d="m 92.519153,100.03096 c 0.33574,0 0.511126,-0.180395 0.571258,-0.305671 h 0.01503 v 0.260574 h 0.295651 V 98.71807 c 0,-0.611346 -0.466027,-0.681501 -0.711567,-0.681501 -0.290641,0 -0.621369,0.100221 -0.7717,0.450994 l 0.280618,0.10022 c 0.06514,-0.140309 0.219233,-0.29064 0.501104,-0.29064 0.271848,0 0.405894,0.144068 0.405894,0.390861 v 0.01002 c 0,0.142815 -0.14532,0.130287 -0.496093,0.175387 -0.357036,0.04635 -0.746645,0.125275 -0.746645,0.566247 0,0.375827 0.290641,0.591302 0.656446,0.591302 z m 0.0451,-0.265583 c -0.235519,0 -0.405894,-0.105232 -0.405894,-0.310684 0,-0.225497 0.205452,-0.295651 0.43596,-0.325718 0.125276,-0.01503 0.461015,-0.05011 0.511126,-0.110242 v 0.270596 c 0,0.240529 -0.19042,0.476048 -0.541192,0.476048 z"
         style="stroke-width:0.264583"
         id="path7139" />
      <path
         d="m 95.305284,98.492574 c -0.0927,-0.273102 -0.300662,-0.456005 -0.681501,-0.456005 -0.405894,0 -0.706556,0.230508 -0.706556,0.556225 0,0.265585 0.157848,0.443477 0.511126,0.526159 l 0.320706,0.07517 c 0.194178,0.0451 0.285629,0.137803 0.285629,0.270596 0,0.165364 -0.175386,0.300662 -0.450993,0.300662 -0.241783,0 -0.393366,-0.103979 -0.445982,-0.310684 l -0.280618,0.07015 c 0.0689,0.32697 0.338245,0.501103 0.731611,0.501103 0.447235,0 0.751655,-0.244287 0.751655,-0.576268 0,-0.268091 -0.167869,-0.437213 -0.511125,-0.521148 l -0.285629,-0.07015 c -0.228003,-0.05637 -0.330729,-0.132792 -0.330729,-0.280618 0,-0.165364 0.175386,-0.285629 0.410905,-0.285629 0.258069,0 0.364553,0.142815 0.415916,0.275607 z"
         style="stroke-width:0.264583"
         id="path7141" />
      <path
         d="m 96.08199,98.828313 c 0,-0.335739 0.214222,-0.526159 0.506115,-0.526159 0.278113,0 0.445982,0.175387 0.445982,0.48106 v 1.202649 h 0.295652 V 98.76317 c 0,-0.49484 -0.26308,-0.726601 -0.656446,-0.726601 -0.303168,0 -0.476049,0.126529 -0.566247,0.325718 h -0.02506 v -0.942075 h -0.295651 v 2.565651 h 0.295651 z"
         style="stroke-width:0.264583"
         id="path7143" />
      <path
         d="m 97.870928,99.985863 h 0.295651 v -1.924238 h -0.295651 z m 0.150331,-2.244945 c 0.115254,0 0.210464,-0.0902 0.210464,-0.200441 0,-0.110243 -0.09521,-0.200442 -0.210464,-0.200442 -0.115253,0 -0.210463,0.0902 -0.210463,0.200442 0,0.110242 0.09521,0.200441 0.210463,0.200441 z"
         style="stroke-width:0.264583"
         id="path7145" />
      <path
         d="m 99.003419,98.828313 c 0,-0.335739 0.207958,-0.526159 0.491082,-0.526159 0.274354,0 0.440971,0.179145 0.440971,0.48106 v 1.202649 h 0.295648 V 98.76317 c 0,-0.491082 -0.261824,-0.726601 -0.651432,-0.726601 -0.29064,0 -0.471037,0.130287 -0.561236,0.325718 h -0.02505 v -0.300662 h -0.285629 v 1.924238 h 0.295651 z"
         style="stroke-width:0.264583"
         id="path7147" />
      <path
         d="m 101.54902,100.74754 c 0.46102,0 0.83183,-0.21046 0.83183,-0.70656 v -1.979355 h -0.28563 v 0.305673 h -0.0301 c -0.0652,-0.100221 -0.18541,-0.330729 -0.56124,-0.330729 -0.48607,0 -0.82181,0.38585 -0.82181,0.977153 0,0.601324 0.35077,0.942075 0.8168,0.942075 0.37583,0 0.49609,-0.220486 0.56124,-0.325718 h 0.0251 v 0.390861 c 0,0.32071 -0.22549,0.46603 -0.53618,0.46603 -0.34952,0 -0.47229,-0.18416 -0.55121,-0.29064 l -0.23552,0.16536 c 0.12026,0.20169 0.35704,0.38585 0.78673,0.38585 z m -0.01,-1.057328 c -0.37082,0 -0.56124,-0.280619 -0.56124,-0.681501 0,-0.390861 0.18541,-0.706557 0.56124,-0.706557 0.36079,0 0.55121,0.29064 0.55121,0.706557 0,0.425938 -0.19543,0.681501 -0.55121,0.681501 z"
         style="stroke-width:0.264583"
         id="path7149" />
      <path
         d="m 105.3574,98.061625 h 0.30066 c -0.0138,-0.387103 -0.37082,-0.67649 -0.86691,-0.67649 -0.49108,0 -0.87693,0.285629 -0.87693,0.716578 0,0.345761 0.25055,0.551214 0.65143,0.666468 l 0.3157,0.0902 c 0.27059,0.07517 0.51112,0.170376 0.51112,0.425939 0,0.280618 -0.27059,0.466026 -0.62638,0.466026 -0.30567,0 -0.57627,-0.135298 -0.60132,-0.425938 h -0.32071 c 0.0301,0.420927 0.37082,0.706552 0.92203,0.706552 0.59131,0 0.92705,-0.325713 0.92705,-0.741629 0,-0.48106 -0.45601,-0.636402 -0.72159,-0.706557 l -0.26058,-0.07015 c -0.19042,-0.05011 -0.49609,-0.150331 -0.49609,-0.425938 0,-0.245541 0.2255,-0.425938 0.56625,-0.425938 0.31068,0 0.5462,0.147825 0.57627,0.400883 z"
         style="stroke-width:0.264583"
         id="path7151" />
      <path
         d="m 106.60013,99.985863 h 0.29064 l 0.42093,-1.478256 h 0.0301 l 0.42093,1.478256 h 0.29064 l 0.58629,-1.924238 h -0.31068 l -0.41592,1.468233 h -0.02 l -0.4059,-1.468233 h -0.31569 l -0.41091,1.473244 h -0.02 l -0.41592,-1.473244 h -0.31068 z"
         style="stroke-width:0.264583"
         id="path7153" />
      <path
         d="m 109.03048,99.985863 h 0.29565 v -1.924238 h -0.29565 z m 0.15033,-2.244945 c 0.11525,0 0.21046,-0.0902 0.21046,-0.200441 0,-0.110243 -0.0952,-0.200442 -0.21046,-0.200442 -0.11526,0 -0.21047,0.0902 -0.21047,0.200442 0,0.110242 0.0952,0.200441 0.21047,0.200441 z"
         style="stroke-width:0.264583"
         id="path7155" />
      <path
         d="m 110.70416,98.061625 h -0.41091 v -0.461016 h -0.29565 v 0.461016 h -0.29064 v 0.250551 h 0.29064 v 1.202649 c 0,0.33574 0.2706,0.496095 0.52115,0.496095 0.11024,0 0.1804,-0.02005 0.22049,-0.03508 l -0.0601,-0.265585 c -0.0251,0.005 -0.0651,0.01503 -0.13028,0.01503 -0.13029,0 -0.25557,-0.04009 -0.25557,-0.29064 v -1.122473 h 0.41091 z"
         style="stroke-width:0.264583"
         id="path7157" />
      <path
         d="m 111.91182,100.02595 c 0.42593,0 0.70655,-0.260573 0.75666,-0.601323 h -0.29565 c -0.0551,0.210463 -0.23051,0.335739 -0.46101,0.335739 -0.35078,0 -0.57627,-0.29064 -0.57627,-0.736622 0,-0.435961 0.23051,-0.72159 0.57627,-0.72159 0.26057,0 0.41591,0.160353 0.46101,0.33574 h 0.29565 c -0.0501,-0.360795 -0.35578,-0.601325 -0.76167,-0.601325 -0.52115,0 -0.86691,0.410905 -0.86691,0.997197 0,0.576269 0.33072,0.992184 0.87192,0.992184 z"
         style="stroke-width:0.264583"
         id="path7159" />
      <path
         d="m 113.39508,98.828313 c 0,-0.335739 0.21422,-0.526159 0.50611,-0.526159 0.27812,0 0.44598,0.175387 0.44598,0.48106 v 1.202649 h 0.29566 V 98.76317 c 0,-0.49484 -0.26308,-0.726601 -0.65645,-0.726601 -0.30317,0 -0.47605,0.126529 -0.56625,0.325718 h -0.0251 v -0.942075 h -0.29565 v 2.565651 h 0.29565 z"
         style="stroke-width:0.264583"
         id="path7161" />
    </g>
    <path
       style="fill:none;stroke:#ff0000;stroke-width:0.264999;stroke-linecap:butt;stroke-linejoin:miter;stroke-miterlimit:4;stroke-dasharray:none;stroke-opacity:1"
       d="m 80.636748,100.03546 h -0.64557 l 0,-35.943358"
       id="path200-7-5-9"
       sodipodi:nodetypes="ccc" />
    <g
       aria-label="LPC Reset"
       id="text130-3-5-6-2"
       style="font-size:3.52777px;line-height:1.25;font-family:Inter;-inkscape-font-specification:Inter;stroke-width:0.264583">
      <path
         d="M 81.399819,10.014013 H 82.90313 V 9.7384063 H 81.710503 V 7.4483624 h -0.310684 z"
         style="stroke-width:0.264583"
         id="path7112" />
      <path
         d="m 83.384182,10.014013 h 0.310685 V 9.0769494 h 0.561236 c 0.597566,0 0.866909,-0.3633002 0.866909,-0.8167991 0,-0.4534988 -0.269343,-0.8117879 -0.87192,-0.8117879 h -0.86691 z M 83.694867,8.8013423 V 7.7239694 h 0.546203 c 0.417169,0 0.576269,0.2280022 0.576269,0.5361809 0,0.3081788 -0.1591,0.541192 -0.571258,0.541192 z"
         style="stroke-width:0.264583"
         id="path7114" />
      <path
         d="m 87.688663,8.2501283 c -0.09521,-0.5261589 -0.516137,-0.8368432 -1.032274,-0.8368432 -0.656446,0 -1.132494,0.5061147 -1.132494,1.3179027 0,0.811788 0.476048,1.3179032 1.132494,1.3179032 0.516137,0 0.937064,-0.3106847 1.032274,-0.8368436 h -0.310684 c -0.07517,0.3557836 -0.380839,0.546203 -0.72159,0.546203 -0.466026,0 -0.831832,-0.3607947 -0.831832,-1.0272626 0,-0.6664679 0.365806,-1.0272626 0.831832,-1.0272626 0.340751,0 0.646424,0.1904194 0.72159,0.5462031 z"
         style="stroke-width:0.264583"
         id="path7116" />
      <path
         d="m 89.181943,10.014013 h 0.310684 V 9.0118059 h 0.561236 c 0.02255,0 0.04385,0 0.06514,-0.00125 l 0.541192,1.0034599 h 0.360795 L 90.440966,8.954179 c 0.32697,-0.1114956 0.479806,-0.3783333 0.479806,-0.7190838 0,-0.4534989 -0.270596,-0.7867328 -0.87192,-0.7867328 H 89.181943 Z M 89.492627,8.7311878 V 7.7239694 h 0.546203 c 0.415916,0 0.576269,0.202947 0.576269,0.5111258 0,0.3081787 -0.160353,0.4960926 -0.571258,0.4960926 z"
         style="stroke-width:0.264583"
         id="path7118" />
      <path
         d="m 92.183551,10.054102 c 0.390861,0 0.67649,-0.1954309 0.766689,-0.486071 l -0.285629,-0.080177 c -0.07517,0.2004415 -0.249299,0.3006622 -0.48106,0.3006622 -0.347014,0 -0.586291,-0.2242439 -0.600071,-0.6364017 h 1.396826 V 9.026839 c 0,-0.7165783 -0.425938,-0.9621191 -0.826821,-0.9621191 -0.521148,0 -0.866909,0.410905 -0.866909,1.0022074 0,0.5913024 0.34075,0.9871747 0.896975,0.9871747 z M 91.58348,8.896552 c 0.02004,-0.2994094 0.23176,-0.5662471 0.570005,-0.5662471 0.320706,0 0.526159,0.2405297 0.526159,0.5662471 z"
         style="stroke-width:0.264583"
         id="path7120" />
      <path
         d="M 94.794301,8.5207243 C 94.701597,8.2476228 94.493639,8.0647199 94.1128,8.0647199 c -0.405894,0 -0.706556,0.2305077 -0.706556,0.5562251 0,0.265585 0.157847,0.4434768 0.511125,0.5261589 l 0.320707,0.075166 c 0.194177,0.045099 0.285629,0.1378036 0.285629,0.270596 0,0.1653643 -0.175387,0.3006623 -0.450994,0.3006623 -0.241782,0 -0.393366,-0.1039791 -0.445982,-0.3106843 l -0.280618,0.070154 c 0.0689,0.3269702 0.338245,0.5011041 0.731611,0.5011041 0.447236,0 0.751656,-0.2442885 0.751656,-0.5762697 0,-0.2680904 -0.16787,-0.4372129 -0.511126,-0.5211478 L 94.032623,8.88653 c -0.228002,-0.056374 -0.330728,-0.1327925 -0.330728,-0.2806181 0,-0.1653642 0.175386,-0.2856291 0.410905,-0.2856291 0.258068,0 0.364553,0.1428145 0.415916,0.275607 z"
         style="stroke-width:0.264583"
         id="path7122" />
      <path
         d="m 96.082133,10.054102 c 0.390861,0 0.67649,-0.1954309 0.766688,-0.486071 l -0.285629,-0.080177 c -0.07516,0.2004415 -0.249299,0.3006622 -0.481059,0.3006622 -0.347015,0 -0.586292,-0.2242439 -0.600072,-0.6364017 h 1.396827 V 9.026839 c 0,-0.7165783 -0.425939,-0.9621191 -0.826821,-0.9621191 -0.521148,0 -0.86691,0.410905 -0.86691,1.0022074 0,0.5913024 0.340751,0.9871747 0.896976,0.9871747 z m -0.600072,-1.15755 c 0.02004,-0.2994094 0.231761,-0.5662471 0.570006,-0.5662471 0.320706,0 0.526158,0.2405297 0.526158,0.5662471 z"
         style="stroke-width:0.264583"
         id="path7124" />
      <path
         d="M 98.166722,8.0897751 H 97.755817 V 7.6287597 h -0.295651 v 0.4610154 h -0.29064 v 0.2505518 h 0.29064 v 1.2026489 c 0,0.3357395 0.270596,0.4960922 0.521148,0.4960922 0.110243,0 0.180397,-0.02004 0.220486,-0.03508 l -0.06013,-0.2655847 c -0.02505,0.00501 -0.06514,0.015033 -0.130287,0.015033 -0.130287,0 -0.255563,-0.040088 -0.255563,-0.2906402 V 8.3403269 h 0.410905 z"
         style="stroke-width:0.264583"
         id="path7126" />
    </g>
    <path
       style="fill:none;stroke:#ff0000;stroke-width:0.264999;stroke-linecap:butt;stroke-linejoin:miter;stroke-miterlimit:4;stroke-dasharray:none;stroke-opacity:1"
       d="m 80.615102,10.029505 h -0.645565 l 0,44.821946"
       id="path200-0"
       sodipodi:nodetypes="ccc" />
    <g
       aria-label="CPU Reset"
       id="text130-3-5-6-2-9"
       style="font-size:3.52777px;line-height:1.25;font-family:Inter;-inkscape-font-specification:Inter;stroke-width:0.264583">
      <path
         d="M 43.34986,8.1911445 C 43.25465,7.6649856 42.833723,7.3543013 42.317586,7.3543013 c -0.656445,0 -1.132494,0.5061147 -1.132494,1.3179027 0,0.811788 0.476049,1.3179027 1.132494,1.3179027 0.516137,0 0.937064,-0.3106842 1.032274,-0.8368431 h -0.310684 c -0.07517,0.3557836 -0.380839,0.546203 -0.72159,0.546203 -0.466026,0 -0.831832,-0.3607947 -0.831832,-1.0272626 0,-0.6664679 0.365806,-1.0272626 0.831832,-1.0272626 0.340751,0 0.646424,0.1904194 0.72159,0.5462031 z"
         style="stroke-width:0.264583"
         id="path7095" />
      <path
         d="m 43.850961,9.9550295 h 0.310685 V 9.0179656 h 0.561236 c 0.597566,0 0.866909,-0.3633002 0.866909,-0.8167991 0,-0.4534988 -0.269343,-0.811788 -0.87192,-0.811788 h -0.86691 z m 0.310685,-1.212671 V 7.6649856 h 0.546203 c 0.417168,0 0.576269,0.2280022 0.576269,0.5361809 0,0.3081788 -0.159101,0.541192 -0.571258,0.541192 z"
         style="stroke-width:0.264583"
         id="path7097" />
      <path
         d="m 47.774603,7.3893785 v 1.6987416 c 0,0.4008829 -0.320707,0.6213686 -0.686512,0.6213686 -0.365806,0 -0.686512,-0.2204857 -0.686512,-0.6213686 V 7.3893785 h -0.310685 v 1.6987416 c 0,0.5762692 0.456005,0.9120089 0.997197,0.9120089 0.541192,0 0.997196,-0.3357397 0.997196,-0.9120089 V 7.3893785 Z"
         style="stroke-width:0.264583"
         id="path7099" />
      <path
         d="m 49.69883,9.9550295 h 0.310684 V 8.9528221 h 0.561236 c 0.02255,0 0.04385,0 0.06514,-0.00125 l 0.541192,1.0034602 H 51.53788 L 50.957853,8.8951952 c 0.32697,-0.1114956 0.479807,-0.3783333 0.479807,-0.7190838 0,-0.4534989 -0.270596,-0.7867329 -0.871921,-0.7867329 H 49.69883 Z M 50.009514,8.672204 V 7.6649856 h 0.546203 c 0.415916,0 0.576269,0.202947 0.576269,0.5111258 0,0.3081787 -0.160353,0.4960926 -0.571258,0.4960926 z"
         style="stroke-width:0.264583"
         id="path7101" />
      <path
         d="m 52.700439,9.9951178 c 0.390861,0 0.67649,-0.1954305 0.766689,-0.4860706 l -0.28563,-0.080177 c -0.07516,0.2004415 -0.249299,0.3006622 -0.481059,0.3006622 -0.347014,0 -0.586291,-0.2242439 -0.600072,-0.6364017 h 1.396827 V 8.9678552 c 0,-0.7165783 -0.425938,-0.9621191 -0.826821,-0.9621191 -0.521148,0 -0.86691,0.410905 -0.86691,1.0022074 0,0.5913024 0.340751,0.9871743 0.896976,0.9871743 z M 52.100367,8.8375682 c 0.02004,-0.2994094 0.231761,-0.5662471 0.570006,-0.5662471 0.320706,0 0.526159,0.2405297 0.526159,0.5662471 z"
         style="stroke-width:0.264583"
         id="path7103" />
      <path
         d="m 55.311187,8.4617405 c -0.0927,-0.2731016 -0.300662,-0.4560044 -0.681501,-0.4560044 -0.405894,0 -0.706556,0.2305077 -0.706556,0.5562251 0,0.265585 0.157848,0.4434768 0.511126,0.5261589 l 0.320706,0.075166 c 0.194178,0.045099 0.285629,0.1378036 0.285629,0.270596 0,0.1653643 -0.175386,0.3006623 -0.450993,0.3006623 -0.241782,0 -0.393366,-0.1039791 -0.445982,-0.3106843 l -0.280618,0.070154 c 0.0689,0.3269701 0.338245,0.5011037 0.731611,0.5011037 0.447235,0 0.751656,-0.2442881 0.751656,-0.5762693 0,-0.2680904 -0.16787,-0.4372129 -0.511126,-0.5211478 L 54.54951,8.8275462 C 54.321508,8.771172 54.218781,8.6947537 54.218781,8.5469281 c 0,-0.1653642 0.175387,-0.2856291 0.410905,-0.2856291 0.258069,0 0.364553,0.1428145 0.415917,0.275607 z"
         style="stroke-width:0.264583"
         id="path7105" />
      <path
         d="m 56.599019,9.9951178 c 0.390861,0 0.67649,-0.1954305 0.766689,-0.4860706 l -0.285629,-0.080177 c -0.07517,0.2004415 -0.249299,0.3006622 -0.48106,0.3006622 -0.347014,0 -0.586291,-0.2242439 -0.600071,-0.6364017 h 1.396826 V 8.9678552 c 0,-0.7165783 -0.425938,-0.9621191 -0.826821,-0.9621191 -0.521148,0 -0.866909,0.410905 -0.866909,1.0022074 0,0.5913024 0.34075,0.9871743 0.896975,0.9871743 z M 55.998948,8.8375682 c 0.02004,-0.2994094 0.23176,-0.5662471 0.570005,-0.5662471 0.320707,0 0.526159,0.2405297 0.526159,0.5662471 z"
         style="stroke-width:0.264583"
         id="path7107" />
      <path
         d="M 58.683609,8.0307913 H 58.272704 V 7.5697759 h -0.295651 v 0.4610154 h -0.29064 v 0.2505518 h 0.29064 V 9.483992 c 0,0.3357395 0.270596,0.4960927 0.521148,0.4960927 0.110243,0 0.180397,-0.020044 0.220485,-0.035077 l -0.06013,-0.2655849 c -0.02506,0.00501 -0.06514,0.015033 -0.130287,0.015033 -0.130287,0 -0.255563,-0.040088 -0.255563,-0.2906402 V 8.2813431 h 0.410905 z"
         style="stroke-width:0.264583"
         id="path7109" />
    </g>
    <path
       style="fill:none;stroke:#ff0000;stroke-width:0.264999;stroke-linecap:butt;stroke-linejoin:miter;stroke-miterlimit:4;stroke-dasharray:none;stroke-opacity:1"
       d="m 59.348687,9.9705218 h 0.645565 l 0,55.3207572"
       id="path200-0-6"
       sodipodi:nodetypes="ccc" />
  </g>
</svg>
