<?xml version="1.0" encoding="UTF-8" standalone="no"?>
<svg
   xmlns:dc="http://purl.org/dc/elements/1.1/"
   xmlns:cc="http://creativecommons.org/ns#"
   xmlns:rdf="http://www.w3.org/1999/02/22-rdf-syntax-ns#"
   xmlns:svg="http://www.w3.org/2000/svg"
   xmlns="http://www.w3.org/2000/svg"
   xmlns:xlink="http://www.w3.org/1999/xlink"
   xmlns:sodipodi="http://sodipodi.sourceforge.net/DTD/sodipodi-0.dtd"
   xmlns:inkscape="http://www.inkscape.org/namespaces/inkscape"
   width="148mm"
   height="150mm"
   viewBox="0 0 148 150"
   version="1.1"
   id="svg8"
   inkscape:version="1.0.1 (3bc2e813f5, 2020-09-07)"
   sodipodi:docname="refman-2x.svg"
   inkscape:export-filename="/home/mntmn/code/reform-handbook/src/source/_static/illustrations/2t-callouts.png"
   inkscape:export-xdpi="600.0954"
   inkscape:export-ydpi="600.0954">
  <defs
     id="defs2">
    <rect
       x="34.146812"
       y="128.59737"
       width="45.334026"
       height="16.606207"
       id="rect1287" />
  </defs>
  <sodipodi:namedview
     id="base"
     pagecolor="#ffffff"
     bordercolor="#666666"
     borderopacity="1.0"
     inkscape:pageopacity="0.0"
     inkscape:pageshadow="2"
     inkscape:zoom="1.4"
     inkscape:cx="453.73895"
     inkscape:cy="310.66682"
     inkscape:document-units="mm"
     inkscape:current-layer="layer2"
     inkscape:document-rotation="0"
     showgrid="true"
     inkscape:window-width="2560"
     inkscape:window-height="1406"
     inkscape:window-x="0"
     inkscape:window-y="0"
     inkscape:window-maximized="1"
     inkscape:snap-global="false"
     inkscape:snap-intersection-paths="true">
    <inkscape:grid
       type="xygrid"
       id="grid10"
       units="mm"
       spacingx="10"
       spacingy="10" />
  </sodipodi:namedview>
  <metadata
     id="metadata5">
    <rdf:RDF>
      <cc:Work
         rdf:about="">
        <dc:format>image/svg+xml</dc:format>
        <dc:type
           rdf:resource="http://purl.org/dc/dcmitype/StillImage" />
        <dc:title></dc:title>
      </cc:Work>
    </rdf:RDF>
  </metadata>
  <g
     inkscape:label="pic"
     inkscape:groupmode="layer"
     id="layer1">
    <image
       sodipodi:absref="/home/mntmn/code/reform-handbook/src/source/_static/illustrations/2t.png"
       xlink:href="../_static/illustrations/2t.png"
       y="10.586558"
       x="0.15725827"
       id="image10539"
       preserveAspectRatio="none"
       height="105.6225"
       width="147.77232" />
    <circle
       style="fill:red;fill-opacity:1;stroke:none;stroke-width:0.0999998;stroke-miterlimit:4;stroke-dasharray:none;stroke-opacity:1"
       id="path1303-3-5-92"
       cx="94.663231"
       cy="110.85004"
       r="1" />
  </g>
  <g
     inkscape:groupmode="layer"
     id="layer2"
     inkscape:label="callouts">
    <path
       style="fill:none;stroke:red;stroke-width:0.25;stroke-linecap:butt;stroke-linejoin:miter;stroke-miterlimit:4;stroke-dasharray:none;stroke-opacity:1"
       d="M 92.551339,68.672423 V 130 H 100"
       id="path204"
       sodipodi:nodetypes="ccc" />
    <g
       aria-label="Battery Connector 2"
       id="text130-3-5-6-9"
       style="font-size:3.52777px;line-height:1.25;font-family:Inter;-inkscape-font-specification:Inter;stroke-width:0.264583">
      <path
         d="m 101.82722,129.98386 h 0.92704 c 0.60633,0 0.85689,-0.29565 0.85689,-0.6815 0,-0.4059 -0.28062,-0.62638 -0.51614,-0.64142 v -0.0251 c 0.22049,-0.0601 0.41592,-0.20546 0.41592,-0.53618 0,-0.37583 -0.25056,-0.6815 -0.78674,-0.6815 h -0.89697 z m 0.31068,-0.27561 v -0.89197 h 0.63139 c 0.33574,0 0.54621,0.2255 0.54621,0.48608 0,0.22549 -0.15535,0.40589 -0.56124,0.40589 z m 0,-1.16256 v -0.85188 h 0.58629 c 0.34075,0 0.49108,0.1804 0.49108,0.4059 0,0.27059 -0.22048,0.44598 -0.5011,0.44598 z"
         style="stroke-width:0.264583"
         id="path1496" />
      <path
         d="m 104.64843,130.02896 c 0.33574,0 0.51113,-0.1804 0.57126,-0.30568 h 0.015 v 0.26058 h 0.29565 v -1.2678 c 0,-0.61134 -0.46602,-0.6815 -0.71156,-0.6815 -0.29064,0 -0.62137,0.10022 -0.7717,0.451 l 0.28061,0.10022 c 0.0652,-0.14031 0.21924,-0.29064 0.50111,-0.29064 0.27185,0 0.40589,0.14406 0.40589,0.39086 v 0.01 c 0,0.14281 -0.14532,0.13029 -0.49609,0.17539 -0.35704,0.0463 -0.74665,0.12527 -0.74665,0.56624 0,0.37583 0.29064,0.59131 0.65645,0.59131 z m 0.0451,-0.26559 c -0.23552,0 -0.40589,-0.10523 -0.40589,-0.31068 0,-0.2255 0.20545,-0.29565 0.43596,-0.32572 0.12527,-0.015 0.46101,-0.0501 0.51112,-0.11024 v 0.27059 c 0,0.24053 -0.19042,0.47605 -0.54119,0.47605 z"
         style="stroke-width:0.264583"
         id="path1498" />
      <path
         d="m 106.9084,128.05962 h -0.4109 v -0.46102 h -0.29565 v 0.46102 h -0.29064 v 0.25055 h 0.29064 v 1.20265 c 0,0.33574 0.27059,0.49609 0.52115,0.49609 0.11024,0 0.18039,-0.02 0.22048,-0.0351 l -0.0601,-0.26558 c -0.0251,0.005 -0.0651,0.015 -0.13029,0.015 -0.13029,0 -0.25556,-0.0401 -0.25556,-0.29064 v -1.12247 h 0.4109 z"
         style="stroke-width:0.264583"
         id="path1500" />
      <path
         d="m 108.19123,128.05962 h -0.41091 v -0.46102 h -0.29565 v 0.46102 h -0.29064 v 0.25055 h 0.29064 v 1.20265 c 0,0.33574 0.2706,0.49609 0.52115,0.49609 0.11024,0 0.1804,-0.02 0.22048,-0.0351 l -0.0601,-0.26558 c -0.025,0.005 -0.0651,0.015 -0.13028,0.015 -0.13029,0 -0.25557,-0.0401 -0.25557,-0.29064 v -1.12247 h 0.41091 z"
         style="stroke-width:0.264583"
         id="path1502" />
      <path
         d="m 109.42394,130.02394 c 0.39086,0 0.67649,-0.19543 0.76669,-0.48607 l -0.28563,-0.0802 c -0.0752,0.20044 -0.2493,0.30066 -0.48106,0.30066 -0.34701,0 -0.58629,-0.22424 -0.60007,-0.6364 h 1.39683 v -0.12528 c 0,-0.71658 -0.42594,-0.96212 -0.82683,-0.96212 -0.52114,0 -0.8669,0.41091 -0.8669,1.00221 0,0.5913 0.34075,0.98717 0.89697,0.98717 z m -0.60007,-1.15755 c 0.02,-0.2994 0.23176,-0.56624 0.57,-0.56624 0.32071,0 0.52616,0.24053 0.52616,0.56624 z"
         style="stroke-width:0.264583"
         id="path1504" />
      <path
         d="m 110.67169,129.98386 h 0.29565 v -1.21769 c 0,-0.26057 0.20545,-0.45099 0.48607,-0.45099 0.0789,0 0.16035,0.015 0.1804,0.02 v -0.30067 c -0.0338,-0.002 -0.1115,-0.005 -0.15535,-0.005 -0.2305,0 -0.43094,0.13029 -0.5011,0.32071 h -0.02 v -0.29064 h -0.28563 z"
         style="stroke-width:0.264583"
         id="path1506" />
      <path
         d="m 112.2251,130.7305 c 0.2706,0 0.456,-0.14031 0.56625,-0.43596 l 0.82682,-2.23492 h -0.32071 l -0.53117,1.53338 h -0.02 l -0.53117,-1.53338 h -0.32071 l 0.71157,1.93426 -0.0651,0.1804 c -0.10398,0.28813 -0.24053,0.31569 -0.45601,0.26057 l -0.0752,0.26057 c 0.0301,0.015 0.11525,0.0351 0.21547,0.0351 z"
         style="stroke-width:0.264583"
         id="path1508" />
      <path
         d="m 117.10584,128.21997 c -0.0952,-0.52616 -0.51613,-0.83684 -1.03227,-0.83684 -0.65645,0 -1.13249,0.50611 -1.13249,1.3179 0,0.81179 0.47604,1.3179 1.13249,1.3179 0.51614,0 0.93706,-0.31068 1.03227,-0.83684 h -0.31068 c -0.0752,0.35578 -0.38084,0.5462 -0.72159,0.5462 -0.46603,0 -0.83183,-0.36079 -0.83183,-1.02726 0,-0.66647 0.3658,-1.02726 0.83183,-1.02726 0.34075,0 0.64642,0.19042 0.72159,0.5462 z"
         style="stroke-width:0.264583"
         id="path1510" />
      <path
         d="m 118.34858,130.02394 c 0.52115,0 0.87192,-0.39587 0.87192,-0.99218 0,-0.60133 -0.35077,-0.9972 -0.87192,-0.9972 -0.52115,0 -0.87192,0.39587 -0.87192,0.9972 0,0.59631 0.35077,0.99218 0.87192,0.99218 z m 0,-0.26558 c -0.39587,0 -0.57627,-0.34075 -0.57627,-0.7266 0,-0.38585 0.1804,-0.73161 0.57627,-0.73161 0.39587,0 0.57627,0.34576 0.57627,0.73161 0,0.38585 -0.1804,0.7266 -0.57627,0.7266 z"
         style="stroke-width:0.264583"
         id="path1512" />
      <path
         d="m 119.96714,128.82631 c 0,-0.33574 0.20796,-0.52616 0.49108,-0.52616 0.27436,0 0.44097,0.17914 0.44097,0.48106 v 1.20265 h 0.29565 v -1.2227 c 0,-0.49108 -0.26182,-0.7266 -0.65143,-0.7266 -0.29064,0 -0.47104,0.13029 -0.56124,0.32572 h -0.025 v -0.30066 h -0.28563 v 1.92424 h 0.29565 z"
         style="stroke-width:0.264583"
         id="path1514" />
      <path
         d="m 122.03168,128.82631 c 0,-0.33574 0.20796,-0.52616 0.49108,-0.52616 0.27436,0 0.44098,0.17914 0.44098,0.48106 v 1.20265 h 0.29565 v -1.2227 c 0,-0.49108 -0.26183,-0.7266 -0.65144,-0.7266 -0.29064,0 -0.47104,0.13029 -0.56123,0.32572 h -0.0251 v -0.30066 h -0.28563 v 1.92424 h 0.29565 z"
         style="stroke-width:0.264583"
         id="path1516" />
      <path
         d="m 124.60735,130.02394 c 0.39086,0 0.67649,-0.19543 0.76669,-0.48607 l -0.28563,-0.0802 c -0.0752,0.20044 -0.2493,0.30066 -0.48106,0.30066 -0.34701,0 -0.58629,-0.22424 -0.60007,-0.6364 h 1.39683 v -0.12528 c 0,-0.71658 -0.42594,-0.96212 -0.82682,-0.96212 -0.52115,0 -0.86691,0.41091 -0.86691,1.00221 0,0.5913 0.34075,0.98717 0.89697,0.98717 z m -0.60007,-1.15755 c 0.0201,-0.2994 0.23176,-0.56624 0.57001,-0.56624 0.3207,0 0.52616,0.24053 0.52616,0.56624 z"
         style="stroke-width:0.264583"
         id="path1518" />
      <path
         d="m 126.63682,130.02394 c 0.42594,0 0.70656,-0.26057 0.75667,-0.60132 h -0.29565 c -0.0551,0.21046 -0.23051,0.33574 -0.46102,0.33574 -0.35077,0 -0.57627,-0.29064 -0.57627,-0.73662 0,-0.43596 0.23051,-0.72159 0.57627,-0.72159 0.26057,0 0.41592,0.16035 0.46102,0.33574 h 0.29565 c -0.0501,-0.3608 -0.35579,-0.60133 -0.76168,-0.60133 -0.52115,0 -0.86691,0.41091 -0.86691,0.9972 0,0.57627 0.33073,0.99218 0.87192,0.99218 z"
         style="stroke-width:0.264583"
         id="path1520" />
      <path
         d="m 128.66127,128.05962 h -0.4109 v -0.46102 h -0.29565 v 0.46102 h -0.29064 v 0.25055 h 0.29064 v 1.20265 c 0,0.33574 0.27059,0.49609 0.52115,0.49609 0.11024,0 0.18039,-0.02 0.22048,-0.0351 l -0.0601,-0.26558 c -0.0251,0.005 -0.0651,0.015 -0.13029,0.015 -0.13029,0 -0.25556,-0.0401 -0.25556,-0.29064 v -1.12247 h 0.4109 z"
         style="stroke-width:0.264583"
         id="path1522" />
      <path
         d="m 129.86893,130.02394 c 0.52115,0 0.87192,-0.39587 0.87192,-0.99218 0,-0.60133 -0.35077,-0.9972 -0.87192,-0.9972 -0.52115,0 -0.87192,0.39587 -0.87192,0.9972 0,0.59631 0.35077,0.99218 0.87192,0.99218 z m 0,-0.26558 c -0.39587,0 -0.57627,-0.34075 -0.57627,-0.7266 0,-0.38585 0.1804,-0.73161 0.57627,-0.73161 0.39587,0 0.57627,0.34576 0.57627,0.73161 0,0.38585 -0.1804,0.7266 -0.57627,0.7266 z"
         style="stroke-width:0.264583"
         id="path1524" />
      <path
         d="m 131.19184,129.98386 h 0.29565 v -1.21769 c 0,-0.25932 0.20546,-0.45099 0.48608,-0.45099 0.0739,0 0.12903,0.0138 0.17037,0.0351 l 0.10022,-0.25055 c -0.0601,-0.0426 -0.13906,-0.0702 -0.24554,-0.0702 -0.23301,0 -0.4322,0.13029 -0.5011,0.32071 h -0.02 v -0.29064 h -0.28563 z"
         style="stroke-width:0.264583"
         id="path1526" />
      <path
         d="m 133.53199,129.98386 h 1.61856 v -0.27561 h -1.19262 v -0.02 l 0.57627,-0.61636 c 0.44097,-0.47229 0.57125,-0.69278 0.57125,-0.97715 0,-0.39588 -0.3207,-0.71157 -0.7717,-0.71157 -0.44974,0 -0.79174,0.30567 -0.79174,0.75666 h 0.29565 c 0,-0.29189 0.18917,-0.48607 0.48607,-0.48607 0.27811,0 0.49108,0.17038 0.49108,0.44098 0,0.23677 -0.13905,0.41215 -0.43596,0.73662 l -0.84686,0.92704 z"
         style="stroke-width:0.264583"
         id="path1528" />
    </g>
    <path
       style="fill:none;stroke:red;stroke-width:0.25;stroke-linecap:butt;stroke-linejoin:miter;stroke-miterlimit:4;stroke-dasharray:none;stroke-opacity:1"
       d="M 85.644005,68.652728 V 140.18687 H 100.04647"
       id="path204-3"
       sodipodi:nodetypes="ccc" />
    <g
       aria-label="Battery Connector 1"
       id="text130-3-5-6-9-6"
       style="font-size:3.52777px;line-height:1.25;font-family:Inter;-inkscape-font-specification:Inter;stroke-width:0.264583">
      <path
         d="m 101.82722,140.03964 h 0.92704 c 0.60633,0 0.85689,-0.29565 0.85689,-0.6815 0,-0.40589 -0.28062,-0.62638 -0.51614,-0.64141 v -0.0251 c 0.22049,-0.0601 0.41592,-0.20545 0.41592,-0.53618 0,-0.37583 -0.25056,-0.6815 -0.78674,-0.6815 h -0.89697 z m 0.31068,-0.2756 v -0.89197 h 0.63139 c 0.33574,0 0.54621,0.2255 0.54621,0.48607 0,0.2255 -0.15535,0.4059 -0.56124,0.4059 z m 0,-1.16257 v -0.85187 h 0.58629 c 0.34075,0 0.49108,0.1804 0.49108,0.40589 0,0.2706 -0.22048,0.44598 -0.5011,0.44598 z"
         style="stroke-width:0.264583"
         id="path1531" />
      <path
         d="m 104.64843,140.08474 c 0.33574,0 0.51113,-0.1804 0.57126,-0.30567 h 0.015 v 0.26057 h 0.29565 v -1.26779 c 0,-0.61135 -0.46602,-0.6815 -0.71156,-0.6815 -0.29064,0 -0.62137,0.10022 -0.7717,0.45099 l 0.28061,0.10022 c 0.0652,-0.14031 0.21924,-0.29064 0.50111,-0.29064 0.27185,0 0.40589,0.14407 0.40589,0.39086 v 0.01 c 0,0.14281 -0.14532,0.13028 -0.49609,0.17538 -0.35704,0.0464 -0.74665,0.12528 -0.74665,0.56625 0,0.37583 0.29064,0.5913 0.65645,0.5913 z m 0.0451,-0.26558 c -0.23552,0 -0.40589,-0.10524 -0.40589,-0.31069 0,-0.22549 0.20545,-0.29565 0.43596,-0.32571 0.12527,-0.015 0.46101,-0.0501 0.51112,-0.11025 v 0.2706 c 0,0.24053 -0.19042,0.47605 -0.54119,0.47605 z"
         style="stroke-width:0.264583"
         id="path1533" />
      <path
         d="m 106.9084,138.1154 h -0.4109 v -0.46101 h -0.29565 v 0.46101 h -0.29064 v 0.25056 h 0.29064 v 1.20264 c 0,0.33574 0.27059,0.4961 0.52115,0.4961 0.11024,0 0.18039,-0.02 0.22048,-0.0351 l -0.0601,-0.26558 c -0.0251,0.005 -0.0651,0.015 -0.13029,0.015 -0.13029,0 -0.25556,-0.0401 -0.25556,-0.29064 v -1.12247 h 0.4109 z"
         style="stroke-width:0.264583"
         id="path1535" />
      <path
         d="m 108.19123,138.1154 h -0.41091 v -0.46101 h -0.29565 v 0.46101 h -0.29064 v 0.25056 h 0.29064 v 1.20264 c 0,0.33574 0.2706,0.4961 0.52115,0.4961 0.11024,0 0.1804,-0.02 0.22048,-0.0351 l -0.0601,-0.26558 c -0.025,0.005 -0.0651,0.015 -0.13028,0.015 -0.13029,0 -0.25557,-0.0401 -0.25557,-0.29064 v -1.12247 h 0.41091 z"
         style="stroke-width:0.264583"
         id="path1537" />
      <path
         d="m 109.42394,140.07973 c 0.39086,0 0.67649,-0.19543 0.76669,-0.48607 l -0.28563,-0.0802 c -0.0752,0.20044 -0.2493,0.30067 -0.48106,0.30067 -0.34701,0 -0.58629,-0.22425 -0.60007,-0.63641 h 1.39683 v -0.12527 c 0,-0.71658 -0.42594,-0.96212 -0.82683,-0.96212 -0.52114,0 -0.8669,0.4109 -0.8669,1.00221 0,0.5913 0.34075,0.98717 0.89697,0.98717 z m -0.60007,-1.15755 c 0.02,-0.29941 0.23176,-0.56625 0.57,-0.56625 0.32071,0 0.52616,0.24053 0.52616,0.56625 z"
         style="stroke-width:0.264583"
         id="path1539" />
      <path
         d="m 110.67169,140.03964 h 0.29565 v -1.21768 c 0,-0.26057 0.20545,-0.45099 0.48607,-0.45099 0.0789,0 0.16035,0.015 0.1804,0.02 v -0.30066 c -0.0338,-0.003 -0.1115,-0.005 -0.15535,-0.005 -0.2305,0 -0.43094,0.13028 -0.5011,0.3207 h -0.02 v -0.29064 h -0.28563 z"
         style="stroke-width:0.264583"
         id="path1541" />
      <path
         d="m 112.2251,140.78629 c 0.2706,0 0.456,-0.14031 0.56625,-0.43596 l 0.82682,-2.23493 h -0.32071 l -0.53117,1.53338 h -0.02 l -0.53117,-1.53338 h -0.32071 l 0.71157,1.93426 -0.0651,0.1804 c -0.10398,0.28814 -0.24053,0.3157 -0.45601,0.26058 l -0.0752,0.26057 c 0.0301,0.015 0.11525,0.0351 0.21547,0.0351 z"
         style="stroke-width:0.264583"
         id="path1543" />
      <path
         d="m 117.10584,138.27576 c -0.0952,-0.52616 -0.51613,-0.83685 -1.03227,-0.83685 -0.65645,0 -1.13249,0.50612 -1.13249,1.31791 0,0.81178 0.47604,1.3179 1.13249,1.3179 0.51614,0 0.93706,-0.31068 1.03227,-0.83684 h -0.31068 c -0.0752,0.35578 -0.38084,0.5462 -0.72159,0.5462 -0.46603,0 -0.83183,-0.3608 -0.83183,-1.02726 0,-0.66647 0.3658,-1.02727 0.83183,-1.02727 0.34075,0 0.64642,0.19042 0.72159,0.54621 z"
         style="stroke-width:0.264583"
         id="path1545" />
      <path
         d="m 118.34858,140.07973 c 0.52115,0 0.87192,-0.39587 0.87192,-0.99218 0,-0.60133 -0.35077,-0.9972 -0.87192,-0.9972 -0.52115,0 -0.87192,0.39587 -0.87192,0.9972 0,0.59631 0.35077,0.99218 0.87192,0.99218 z m 0,-0.26558 c -0.39587,0 -0.57627,-0.34075 -0.57627,-0.7266 0,-0.38585 0.1804,-0.73162 0.57627,-0.73162 0.39587,0 0.57627,0.34577 0.57627,0.73162 0,0.38585 -0.1804,0.7266 -0.57627,0.7266 z"
         style="stroke-width:0.264583"
         id="path1547" />
      <path
         d="m 119.96714,138.88209 c 0,-0.33574 0.20796,-0.52616 0.49108,-0.52616 0.27436,0 0.44097,0.17915 0.44097,0.48106 v 1.20265 h 0.29565 v -1.22269 c 0,-0.49108 -0.26182,-0.7266 -0.65143,-0.7266 -0.29064,0 -0.47104,0.13029 -0.56124,0.32572 h -0.025 v -0.30067 h -0.28563 v 1.92424 h 0.29565 z"
         style="stroke-width:0.264583"
         id="path1549" />
      <path
         d="m 122.03168,138.88209 c 0,-0.33574 0.20796,-0.52616 0.49108,-0.52616 0.27436,0 0.44098,0.17915 0.44098,0.48106 v 1.20265 h 0.29565 v -1.22269 c 0,-0.49108 -0.26183,-0.7266 -0.65144,-0.7266 -0.29064,0 -0.47104,0.13029 -0.56123,0.32572 h -0.0251 v -0.30067 h -0.28563 v 1.92424 h 0.29565 z"
         style="stroke-width:0.264583"
         id="path1551" />
      <path
         d="m 124.60735,140.07973 c 0.39086,0 0.67649,-0.19543 0.76669,-0.48607 l -0.28563,-0.0802 c -0.0752,0.20044 -0.2493,0.30067 -0.48106,0.30067 -0.34701,0 -0.58629,-0.22425 -0.60007,-0.63641 h 1.39683 v -0.12527 c 0,-0.71658 -0.42594,-0.96212 -0.82682,-0.96212 -0.52115,0 -0.86691,0.4109 -0.86691,1.00221 0,0.5913 0.34075,0.98717 0.89697,0.98717 z m -0.60007,-1.15755 c 0.0201,-0.29941 0.23176,-0.56625 0.57001,-0.56625 0.3207,0 0.52616,0.24053 0.52616,0.56625 z"
         style="stroke-width:0.264583"
         id="path1553" />
      <path
         d="m 126.63682,140.07973 c 0.42594,0 0.70656,-0.26057 0.75667,-0.60132 h -0.29565 c -0.0551,0.21046 -0.23051,0.33574 -0.46102,0.33574 -0.35077,0 -0.57627,-0.29064 -0.57627,-0.73663 0,-0.43596 0.23051,-0.72159 0.57627,-0.72159 0.26057,0 0.41592,0.16036 0.46102,0.33574 h 0.29565 c -0.0501,-0.36079 -0.35579,-0.60132 -0.76168,-0.60132 -0.52115,0 -0.86691,0.4109 -0.86691,0.9972 0,0.57626 0.33073,0.99218 0.87192,0.99218 z"
         style="stroke-width:0.264583"
         id="path1555" />
      <path
         d="m 128.66127,138.1154 h -0.4109 v -0.46101 h -0.29565 v 0.46101 h -0.29064 v 0.25056 h 0.29064 v 1.20264 c 0,0.33574 0.27059,0.4961 0.52115,0.4961 0.11024,0 0.18039,-0.02 0.22048,-0.0351 l -0.0601,-0.26558 c -0.0251,0.005 -0.0651,0.015 -0.13029,0.015 -0.13029,0 -0.25556,-0.0401 -0.25556,-0.29064 v -1.12247 h 0.4109 z"
         style="stroke-width:0.264583"
         id="path1557" />
      <path
         d="m 129.86893,140.07973 c 0.52115,0 0.87192,-0.39587 0.87192,-0.99218 0,-0.60133 -0.35077,-0.9972 -0.87192,-0.9972 -0.52115,0 -0.87192,0.39587 -0.87192,0.9972 0,0.59631 0.35077,0.99218 0.87192,0.99218 z m 0,-0.26558 c -0.39587,0 -0.57627,-0.34075 -0.57627,-0.7266 0,-0.38585 0.1804,-0.73162 0.57627,-0.73162 0.39587,0 0.57627,0.34577 0.57627,0.73162 0,0.38585 -0.1804,0.7266 -0.57627,0.7266 z"
         style="stroke-width:0.264583"
         id="path1559" />
      <path
         d="m 131.19184,140.03964 h 0.29565 v -1.21768 c 0,-0.25932 0.20546,-0.45099 0.48608,-0.45099 0.0739,0 0.12903,0.0138 0.17037,0.0351 l 0.10022,-0.25055 c -0.0601,-0.0426 -0.13906,-0.0701 -0.24554,-0.0701 -0.23301,0 -0.4322,0.13028 -0.5011,0.3207 h -0.02 v -0.29064 h -0.28563 z"
         style="stroke-width:0.264583"
         id="path1561" />
      <path
         d="m 134.3538,137.47399 h -0.27561 c -0.0163,0.0263 -0.20044,0.38084 -0.59631,0.38084 v 0.26057 c 0.2944,0 0.50486,-0.12026 0.54119,-0.19042 h 0.02 v 2.11466 h 0.31069 z"
         style="stroke-width:0.264583"
         id="path1563" />
    </g>
    <g
       aria-label="Bottom Case Screw ×10"
       id="text130-3-5-6-9-2"
       style="font-size:3.52777px;line-height:1.25;font-family:Inter;-inkscape-font-specification:Inter;stroke-width:0.264583">
      <path
         d="m 11.605599,129.98163 h 0.927041 c 0.606336,0 0.856888,-0.29565 0.856888,-0.6815 0,-0.4059 -0.280618,-0.62638 -0.516137,-0.64142 v -0.0251 c 0.220486,-0.0601 0.415916,-0.20545 0.415916,-0.53618 0,-0.37583 -0.250552,-0.6815 -0.786733,-0.6815 h -0.896975 z m 0.310684,-0.27561 v -0.89196 h 0.63139 c 0.33574,0 0.546204,0.22549 0.546204,0.48607 0,0.22549 -0.155343,0.40589 -0.561237,0.40589 z m 0,-1.16256 v -0.85188 h 0.586291 c 0.340751,0 0.491082,0.1804 0.491082,0.4059 0,0.27059 -0.220486,0.44598 -0.501104,0.44598 z"
         style="stroke-width:0.264583"
         id="path1566" />
      <path
         d="m 14.642286,130.02172 c 0.521148,0 0.871921,-0.39588 0.871921,-0.99219 0,-0.60132 -0.350773,-0.99719 -0.871921,-0.99719 -0.521147,0 -0.87192,0.39587 -0.87192,0.99719 0,0.59631 0.350773,0.99219 0.87192,0.99219 z m 0,-0.26559 c -0.395871,0 -0.576269,-0.34075 -0.576269,-0.7266 0,-0.38585 0.180398,-0.73161 0.576269,-0.73161 0.395872,0 0.57627,0.34576 0.57627,0.73161 0,0.38585 -0.180398,0.7266 -0.57627,0.7266 z"
         style="stroke-width:0.264583"
         id="path1568" />
      <path
         d="m 16.80204,128.05739 h -0.410905 v -0.46102 h -0.295651 v 0.46102 h -0.29064 v 0.25055 h 0.29064 v 1.20265 c 0,0.33574 0.270596,0.49609 0.521148,0.49609 0.110243,0 0.180397,-0.02 0.220485,-0.0351 l -0.06013,-0.26559 c -0.02505,0.005 -0.06514,0.015 -0.130287,0.015 -0.130287,0 -0.255563,-0.0401 -0.255563,-0.29064 v -1.12247 h 0.410905 z"
         style="stroke-width:0.264583"
         id="path1570" />
      <path
         d="M 18.084865,128.05739 H 17.67396 v -0.46102 h -0.295651 v 0.46102 h -0.290641 v 0.25055 h 0.290641 v 1.20265 c 0,0.33574 0.270596,0.49609 0.521147,0.49609 0.110243,0 0.180398,-0.02 0.220486,-0.0351 l -0.06013,-0.26559 c -0.02506,0.005 -0.06514,0.015 -0.130287,0.015 -0.130287,0 -0.255563,-0.0401 -0.255563,-0.29064 v -1.12247 h 0.410905 z"
         style="stroke-width:0.264583"
         id="path1572" />
      <path
         d="m 19.292523,130.02172 c 0.521147,0 0.87192,-0.39588 0.87192,-0.99219 0,-0.60132 -0.350773,-0.99719 -0.87192,-0.99719 -0.521148,0 -0.871921,0.39587 -0.871921,0.99719 0,0.59631 0.350773,0.99219 0.871921,0.99219 z m 0,-0.26559 c -0.395872,0 -0.57627,-0.34075 -0.57627,-0.7266 0,-0.38585 0.180398,-0.73161 0.57627,-0.73161 0.395872,0 0.576269,0.34576 0.576269,0.73161 0,0.38585 -0.180397,0.7266 -0.576269,0.7266 z"
         style="stroke-width:0.264583"
         id="path1574" />
      <path
         d="m 20.615433,129.98163 h 0.295651 v -1.20265 c 0,-0.28187 0.205453,-0.48106 0.435961,-0.48106 0.224243,0 0.380838,0.14657 0.380838,0.36581 v 1.3179 h 0.300663 v -1.25276 c 0,-0.24805 0.155342,-0.43095 0.425938,-0.43095 0.210463,0 0.390861,0.1115 0.390861,0.39587 v 1.28784 h 0.295651 v -1.28784 c 0,-0.45224 -0.243035,-0.66145 -0.586291,-0.66145 -0.275608,0 -0.477302,0.12652 -0.57627,0.32571 h -0.02004 c -0.09521,-0.20545 -0.263079,-0.32571 -0.516137,-0.32571 -0.250552,0 -0.43596,0.12026 -0.516137,0.32571 h -0.02506 v -0.30066 h -0.285629 z"
         style="stroke-width:0.264583"
         id="path1576" />
      <path
         d="m 26.779001,128.21774 c -0.09521,-0.52616 -0.516137,-0.83684 -1.032274,-0.83684 -0.656445,0 -1.132494,0.50611 -1.132494,1.3179 0,0.81179 0.476049,1.31791 1.132494,1.31791 0.516137,0 0.937064,-0.31069 1.032274,-0.83685 h -0.310684 c -0.07517,0.35579 -0.380839,0.54621 -0.72159,0.54621 -0.466026,0 -0.831832,-0.3608 -0.831832,-1.02727 0,-0.66646 0.365806,-1.02726 0.831832,-1.02726 0.340751,0 0.646424,0.19042 0.72159,0.5462 z"
         style="stroke-width:0.264583"
         id="path1578" />
      <path
         d="m 27.806262,130.02673 c 0.335739,0 0.511125,-0.1804 0.571258,-0.30568 h 0.01503 v 0.26058 h 0.295651 v -1.26779 c 0,-0.61135 -0.466026,-0.6815 -0.711567,-0.6815 -0.29064,0 -0.621369,0.10022 -0.7717,0.45099 l 0.280618,0.10022 c 0.06514,-0.14031 0.219233,-0.29064 0.501104,-0.29064 0.271849,0 0.405894,0.14407 0.405894,0.39086 v 0.01 c 0,0.14282 -0.14532,0.13029 -0.496093,0.17539 -0.357036,0.0463 -0.746644,0.12527 -0.746644,0.56625 0,0.37582 0.29064,0.5913 0.656446,0.5913 z m 0.0451,-0.26559 c -0.235519,0 -0.405894,-0.10523 -0.405894,-0.31068 0,-0.2255 0.205453,-0.29565 0.43596,-0.32572 0.125276,-0.015 0.461016,-0.0501 0.511126,-0.11024 v 0.27059 c 0,0.24053 -0.190419,0.47605 -0.541192,0.47605 z"
         style="stroke-width:0.264583"
         id="path1580" />
      <path
         d="m 30.592394,128.48834 c -0.0927,-0.2731 -0.300663,-0.456 -0.681501,-0.456 -0.405894,0 -0.706557,0.2305 -0.706557,0.55622 0,0.26559 0.157848,0.44348 0.511126,0.52616 l 0.320707,0.0752 c 0.194177,0.0451 0.285629,0.13781 0.285629,0.2706 0,0.16536 -0.175387,0.30066 -0.450994,0.30066 -0.241782,0 -0.393366,-0.10398 -0.445982,-0.31068 l -0.280618,0.0702 c 0.0689,0.32697 0.338245,0.50111 0.731611,0.50111 0.447235,0 0.751656,-0.24429 0.751656,-0.57627 0,-0.26809 -0.16787,-0.43722 -0.511126,-0.52115 l -0.285629,-0.0701 c -0.228002,-0.0564 -0.330728,-0.1328 -0.330728,-0.28062 0,-0.16537 0.175386,-0.28563 0.410905,-0.28563 0.258068,0 0.364553,0.14281 0.415916,0.2756 z"
         style="stroke-width:0.264583"
         id="path1582" />
      <path
         d="m 31.880226,130.02172 c 0.39086,0 0.67649,-0.19543 0.766688,-0.48607 l -0.285629,-0.0802 c -0.07517,0.20044 -0.249299,0.30066 -0.481059,0.30066 -0.347015,0 -0.586292,-0.22424 -0.600072,-0.6364 h 1.396826 v -0.12528 c 0,-0.71657 -0.425938,-0.96211 -0.826821,-0.96211 -0.521147,0 -0.866909,0.4109 -0.866909,1.0022 0,0.5913 0.34075,0.98718 0.896976,0.98718 z m -0.600072,-1.15755 c 0.02004,-0.29941 0.23176,-0.56625 0.570005,-0.56625 0.320707,0 0.526159,0.24053 0.526159,0.56625 z"
         style="stroke-width:0.264583"
         id="path1584" />
      <path
         d="m 35.563331,128.05739 h 0.300662 c -0.01378,-0.3871 -0.370817,-0.67649 -0.86691,-0.67649 -0.491081,0 -0.876931,0.28563 -0.876931,0.71658 0,0.34576 0.250552,0.55121 0.651435,0.66647 l 0.315695,0.0902 c 0.270596,0.0752 0.511126,0.17037 0.511126,0.42593 0,0.28062 -0.270596,0.46603 -0.62638,0.46603 -0.305673,0 -0.576269,-0.1353 -0.601324,-0.42594 h -0.320707 c 0.03007,0.42093 0.370817,0.70656 0.922031,0.70656 0.591303,0 0.927042,-0.32572 0.927042,-0.74164 0,-0.48106 -0.456004,-0.6364 -0.721589,-0.70655 l -0.260574,-0.0702 c -0.19042,-0.0501 -0.496093,-0.15033 -0.496093,-0.42593 0,-0.24555 0.225497,-0.42594 0.566247,-0.42594 0.310685,0 0.546203,0.14782 0.57627,0.40088 z"
         style="stroke-width:0.264583"
         id="path1586" />
      <path
         d="m 37.151824,130.02172 c 0.425938,0 0.706556,-0.26058 0.756667,-0.60133 H 37.61284 c -0.05512,0.21047 -0.230508,0.33574 -0.461016,0.33574 -0.350772,0 -0.576269,-0.29064 -0.576269,-0.73662 0,-0.43596 0.230508,-0.72159 0.576269,-0.72159 0.260574,0 0.415916,0.16035 0.461016,0.33574 h 0.295651 c -0.05011,-0.3608 -0.355784,-0.60132 -0.761678,-0.60132 -0.521148,0 -0.866909,0.4109 -0.866909,0.99719 0,0.57627 0.330728,0.99219 0.87192,0.99219 z"
         style="stroke-width:0.264583"
         id="path1588" />
      <path
         d="m 38.339434,129.98163 h 0.295651 v -1.21768 c 0,-0.25932 0.205453,-0.451 0.486071,-0.451 0.07391,0 0.129034,0.0138 0.170375,0.0351 l 0.100221,-0.25055 c -0.06013,-0.0426 -0.139056,-0.0702 -0.245541,-0.0702 -0.233013,0 -0.432202,0.13029 -0.501104,0.32071 h -0.02004 v -0.29064 h -0.285629 z"
         style="stroke-width:0.264583"
         id="path1590" />
      <path
         d="m 40.439056,130.02172 c 0.390861,0 0.67649,-0.19543 0.766689,-0.48607 l -0.28563,-0.0802 c -0.07517,0.20044 -0.249299,0.30066 -0.481059,0.30066 -0.347014,0 -0.586291,-0.22424 -0.600072,-0.6364 h 1.396827 v -0.12528 c 0,-0.71657 -0.425938,-0.96211 -0.826821,-0.96211 -0.521148,0 -0.86691,0.4109 -0.86691,1.0022 0,0.5913 0.340751,0.98718 0.896976,0.98718 z m -0.600072,-1.15755 c 0.02004,-0.29941 0.231761,-0.56625 0.570006,-0.56625 0.320706,0 0.526159,0.24053 0.526159,0.56625 z"
         style="stroke-width:0.264583"
         id="path1592" />
      <path
         d="m 42.122763,129.98163 h 0.29064 l 0.420927,-1.47826 h 0.03007 l 0.420927,1.47826 h 0.29064 l 0.586292,-1.92424 H 43.85157 l -0.415916,1.46823 h -0.02004 l -0.405894,-1.46823 h -0.315695 l -0.410905,1.47325 h -0.02004 l -0.415916,-1.47325 h -0.310685 z"
         style="stroke-width:0.264583"
         id="path1594" />
      <path
         d="m 47.018533,129.78119 0.19042,-0.19042 -0.611347,-0.61135 0.611347,-0.61135 -0.19042,-0.19041 -0.611346,0.61134 -0.611347,-0.61134 -0.190419,0.19041 0.611346,0.61135 -0.611346,0.61135 0.190419,0.19042 0.611347,-0.61135 z"
         style="stroke-width:0.264583"
         id="path1596" />
      <path
         d="m 48.627072,127.41598 h -0.275607 c -0.01629,0.0263 -0.200442,0.38084 -0.596314,0.38084 v 0.26057 c 0.294399,0 0.504862,-0.12026 0.541192,-0.19042 h 0.02004 v 2.11466 h 0.310685 z"
         style="stroke-width:0.264583"
         id="path1598" />
      <path
         d="m 50.200535,130.01671 c 0.566247,0 0.891964,-0.47981 0.891964,-1.31791 0,-0.83183 -0.330728,-1.3179 -0.891964,-1.3179 -0.561237,0 -0.891965,0.48607 -0.891965,1.3179 0,0.8381 0.325717,1.31791 0.891965,1.31791 z m 0,-0.27561 c -0.373323,0 -0.591303,-0.37458 -0.591303,-1.0423 0,-0.66646 0.220486,-1.0473 0.591303,-1.0473 0.370816,0 0.591302,0.38084 0.591302,1.0473 0,0.66772 -0.21798,1.0423 -0.591302,1.0423 z"
         style="stroke-width:0.264583"
         id="path1600" />
    </g>
  </g>
  <g
     inkscape:groupmode="layer"
     id="layer3"
     inkscape:label="callouts 2">
    <circle
       style="fill:#ff0000;fill-opacity:1;stroke:none;stroke-width:0.0999997;stroke-miterlimit:4;stroke-dasharray:none;stroke-opacity:1"
       id="path1303-3-5"
       cx="5.2347231"
       cy="110.85213"
       r="1" />
    <circle
       style="fill:#ff0000;fill-opacity:1;stroke:none;stroke-width:0.0999998;stroke-miterlimit:4;stroke-dasharray:none;stroke-opacity:1"
       id="path1303-3-5-1"
       cx="5.1115298"
       cy="81.902252"
       r="1" />
    <circle
       style="fill:#ff0000;fill-opacity:1;stroke:none;stroke-width:0.0999998;stroke-miterlimit:4;stroke-dasharray:none;stroke-opacity:1"
       id="path1303-3-5-8"
       cx="5.278573"
       cy="14.482664"
       r="1" />
    <circle
       style="fill:#ff0000;fill-opacity:1;stroke:none;stroke-width:0.0999998;stroke-miterlimit:4;stroke-dasharray:none;stroke-opacity:1"
       id="path1303-3-5-7"
       cx="46.237629"
       cy="14.415846"
       r="1" />
    <circle
       style="fill:#ff0000;fill-opacity:1;stroke:none;stroke-width:0.0999998;stroke-miterlimit:4;stroke-dasharray:none;stroke-opacity:1"
       id="path1303-3-5-9"
       cx="101.8631"
       cy="14.482664"
       r="1" />
    <circle
       style="fill:#ff0000;fill-opacity:1;stroke:none;stroke-width:0.0999998;stroke-miterlimit:4;stroke-dasharray:none;stroke-opacity:1"
       id="path1303-3-5-2"
       cx="142.74507"
       cy="14.476839"
       r="1" />
    <circle
       style="fill:#ff0000;fill-opacity:1;stroke:none;stroke-width:0.0999998;stroke-miterlimit:4;stroke-dasharray:none;stroke-opacity:1"
       id="path1303-3-5-0"
       cx="143.00591"
       cy="81.901428"
       r="1" />
    <circle
       style="fill:#ff0000;fill-opacity:1;stroke:none;stroke-width:0.0999998;stroke-miterlimit:4;stroke-dasharray:none;stroke-opacity:1"
       id="path1303-3-5-23"
       cx="142.76869"
       cy="110.86514"
       r="1" />
    <circle
       style="fill:red;fill-opacity:1;stroke:none;stroke-width:0.0999998;stroke-miterlimit:4;stroke-dasharray:none;stroke-opacity:1"
       id="path1303-3-5-75"
       cx="53.368286"
       cy="110.85839"
       r="1" />
    <circle
       style="fill:#ff0000;fill-opacity:1;stroke:none;stroke-width:0.0999998;stroke-miterlimit:4;stroke-dasharray:none;stroke-opacity:1"
       id="path1303-3-5-28"
       cx="9.9482784"
       cy="128.72481"
       r="1" />
  </g>
</svg>
