<?xml version="1.0" encoding="UTF-8" standalone="no"?>
<svg
   xmlns:dc="http://purl.org/dc/elements/1.1/"
   xmlns:cc="http://creativecommons.org/ns#"
   xmlns:rdf="http://www.w3.org/1999/02/22-rdf-syntax-ns#"
   xmlns:svg="http://www.w3.org/2000/svg"
   xmlns="http://www.w3.org/2000/svg"
   xmlns:xlink="http://www.w3.org/1999/xlink"
   xmlns:sodipodi="http://sodipodi.sourceforge.net/DTD/sodipodi-0.dtd"
   xmlns:inkscape="http://www.inkscape.org/namespaces/inkscape"
   width="148mm"
   height="90mm"
   viewBox="0 0 148 90"
   version="1.1"
   id="svg8"
   inkscape:version="1.0.1 (3bc2e813f5, 2020-09-07)"
   sodipodi:docname="refman-oled2x.svg"
   inkscape:export-filename="/home/mntmn/code/reform-handbook/src/source/_static/illustrations/oled2-callouts.png"
   inkscape:export-xdpi="600.0954"
   inkscape:export-ydpi="600.0954">
  <defs
     id="defs2" />
  <sodipodi:namedview
     id="base"
     pagecolor="#ffffff"
     bordercolor="#666666"
     borderopacity="1.0"
     inkscape:pageopacity="0.0"
     inkscape:pageshadow="2"
     inkscape:zoom="2.8"
     inkscape:cx="324.79549"
     inkscape:cy="157.67651"
     inkscape:document-units="mm"
     inkscape:current-layer="layer1"
     inkscape:document-rotation="0"
     showgrid="true"
     inkscape:window-width="2560"
     inkscape:window-height="1406"
     inkscape:window-x="0"
     inkscape:window-y="0"
     inkscape:window-maximized="1"
     inkscape:snap-global="false">
    <inkscape:grid
       type="xygrid"
       id="grid10"
       units="mm"
       spacingx="10"
       spacingy="10" />
  </sodipodi:namedview>
  <metadata
     id="metadata5">
    <rdf:RDF>
      <cc:Work
         rdf:about="">
        <dc:format>image/svg+xml</dc:format>
        <dc:type
           rdf:resource="http://purl.org/dc/dcmitype/StillImage" />
        <dc:title></dc:title>
      </cc:Work>
    </rdf:RDF>
  </metadata>
  <g
     inkscape:label="Layer 1"
     inkscape:groupmode="layer"
     id="layer1">
    <image
       sodipodi:absref="/home/mntmn/code/reform-handbook/src/source/_static/illustrations/oled-gfx2.png"
       xlink:href="../_static/illustrations/oled-gfx2.png"
       width="86.540001"
       height="30.10087"
       preserveAspectRatio="none"
       id="image3395"
       x="30.384472"
       y="24.686117"
       style="opacity:1;stroke-width:1;stroke-miterlimit:4;stroke-dasharray:none" />
    <g
       aria-label="Battery Cell Voltages"
       id="text130-3-5-6-3"
       style="font-size:3.52777px;line-height:1.25;font-family:Inter;-inkscape-font-specification:Inter;stroke-width:0.264583">
      <path
         d="m 14.203222,20.024343 h 0.927042 c 0.606336,0 0.856888,-0.295651 0.856888,-0.681501 0,-0.405894 -0.280619,-0.626379 -0.516137,-0.641412 v -0.02505 c 0.220485,-0.06013 0.415916,-0.205453 0.415916,-0.536181 0,-0.375828 -0.250552,-0.681501 -0.786733,-0.681501 h -0.896976 z m 0.310685,-0.275607 v -0.891964 h 0.63139 c 0.33574,0 0.546203,0.225497 0.546203,0.48607 0,0.225497 -0.155342,0.405894 -0.561236,0.405894 z m 0,-1.16256 V 17.7343 h 0.586291 c 0.340751,0 0.491082,0.180397 0.491082,0.405894 0,0.270596 -0.220486,0.445982 -0.501104,0.445982 z"
         style="stroke-width:0.264583"
         id="path19695" />
      <path
         d="m 17.024436,20.069443 c 0.335739,0 0.511125,-0.180398 0.571258,-0.305673 h 0.01503 v 0.260573 h 0.295651 v -1.267792 c 0,-0.611346 -0.466026,-0.681501 -0.711567,-0.681501 -0.29064,0 -0.621369,0.100221 -0.7717,0.450993 l 0.280618,0.100221 c 0.06514,-0.140309 0.219233,-0.29064 0.501104,-0.29064 0.271849,0 0.405894,0.144067 0.405894,0.390861 v 0.01002 c 0,0.142815 -0.14532,0.130287 -0.496093,0.175386 -0.357036,0.04635 -0.746644,0.125276 -0.746644,0.566247 0,0.375828 0.29064,0.591303 0.656446,0.591303 z m 0.0451,-0.265585 c -0.235519,0 -0.405894,-0.105232 -0.405894,-0.310684 0,-0.225497 0.205453,-0.295652 0.43596,-0.325718 0.125276,-0.01503 0.461016,-0.05011 0.511126,-0.110243 v 0.270596 c 0,0.24053 -0.190419,0.476049 -0.541192,0.476049 z"
         style="stroke-width:0.264583"
         id="path19697" />
      <path
         d="M 19.284409,18.100105 H 18.873504 V 17.63909 h -0.295652 v 0.461015 h -0.29064 v 0.250552 h 0.29064 v 1.202649 c 0,0.335739 0.270596,0.496093 0.521148,0.496093 0.110243,0 0.180398,-0.02004 0.220486,-0.03508 l -0.06013,-0.265585 c -0.02506,0.005 -0.06514,0.01503 -0.130287,0.01503 -0.130287,0 -0.255563,-0.04009 -0.255563,-0.290641 v -1.122472 h 0.410905 z"
         style="stroke-width:0.264583"
         id="path19699" />
      <path
         d="M 20.567233,18.100105 H 20.156328 V 17.63909 h -0.295651 v 0.461015 h -0.290641 v 0.250552 h 0.290641 v 1.202649 c 0,0.335739 0.270596,0.496093 0.521147,0.496093 0.110243,0 0.180398,-0.02004 0.220486,-0.03508 l -0.06013,-0.265585 c -0.02506,0.005 -0.06514,0.01503 -0.130287,0.01503 -0.130287,0 -0.255563,-0.04009 -0.255563,-0.290641 v -1.122472 h 0.410905 z"
         style="stroke-width:0.264583"
         id="path19701" />
      <path
         d="m 21.799946,20.064432 c 0.390861,0 0.67649,-0.195431 0.766689,-0.486071 l -0.285629,-0.08018 c -0.07517,0.200441 -0.249299,0.300662 -0.48106,0.300662 -0.347014,0 -0.586291,-0.224244 -0.600071,-0.636402 h 1.396826 v -0.125276 c 0,-0.716578 -0.425938,-0.962119 -0.826821,-0.962119 -0.521148,0 -0.866909,0.410905 -0.866909,1.002207 0,0.591303 0.34075,0.987175 0.896975,0.987175 z m -0.600071,-1.15755 c 0.02004,-0.299409 0.23176,-0.566247 0.570005,-0.566247 0.320706,0 0.526159,0.24053 0.526159,0.566247 z"
         style="stroke-width:0.264583"
         id="path19703" />
      <path
         d="m 23.047693,20.024343 h 0.295651 v -1.217681 c 0,-0.260574 0.205452,-0.450994 0.486071,-0.450994 0.07892,0 0.160353,0.01503 0.180397,0.02004 V 18.07505 c -0.03383,-0.0025 -0.111496,-0.005 -0.155342,-0.005 -0.230508,0 -0.430949,0.130287 -0.501104,0.320706 h -0.02004 v -0.29064 h -0.285629 z"
         style="stroke-width:0.264583"
         id="path19705" />
      <path
         d="m 24.601105,20.770988 c 0.270596,0 0.456005,-0.140309 0.566248,-0.43596 l 0.826821,-2.234923 h -0.320707 l -0.53117,1.533378 h -0.02004 l -0.53117,-1.533378 h -0.320706 l 0.711567,1.934261 -0.06514,0.180397 c -0.103979,0.288135 -0.24053,0.315695 -0.456005,0.260574 l -0.07516,0.260574 c 0.03007,0.01503 0.115254,0.03508 0.215474,0.03508 z"
         style="stroke-width:0.264583"
         id="path19707" />
      <path
         d="m 29.481849,18.260458 c -0.09521,-0.526158 -0.516137,-0.836843 -1.032274,-0.836843 -0.656446,0 -1.132494,0.506115 -1.132494,1.317903 0,0.811788 0.476048,1.317903 1.132494,1.317903 0.516137,0 0.937064,-0.310685 1.032274,-0.836843 h -0.310685 c -0.07517,0.355783 -0.380839,0.546203 -0.721589,0.546203 -0.466027,0 -0.831832,-0.360795 -0.831832,-1.027263 0,-0.666468 0.365805,-1.027263 0.831832,-1.027263 0.34075,0 0.646424,0.19042 0.721589,0.546203 z"
         style="stroke-width:0.264583"
         id="path19709" />
      <path
         d="m 30.749639,20.064432 c 0.390861,0 0.67649,-0.195431 0.766689,-0.486071 l -0.285629,-0.08018 c -0.07517,0.200441 -0.2493,0.300662 -0.48106,0.300662 -0.347014,0 -0.586291,-0.224244 -0.600072,-0.636402 h 1.396827 v -0.125276 c 0,-0.716578 -0.425938,-0.962119 -0.826821,-0.962119 -0.521148,0 -0.86691,0.410905 -0.86691,1.002207 0,0.591303 0.340751,0.987175 0.896976,0.987175 z m -0.600072,-1.15755 c 0.02004,-0.299409 0.231761,-0.566247 0.570006,-0.566247 0.320706,0 0.526159,0.24053 0.526159,0.566247 z"
         style="stroke-width:0.264583"
         id="path19711" />
      <path
         d="m 32.293037,17.458693 h -0.295652 v 2.56565 h 0.295652 z"
         style="stroke-width:0.264583"
         id="path19713" />
      <path
         d="m 33.129876,17.458693 h -0.295651 v 2.56565 h 0.295651 z"
         style="stroke-width:0.264583"
         id="path19715" />
      <path
         d="m 34.808565,17.458693 h -0.325718 l 0.942075,2.56565 h 0.320707 l 0.942075,-2.56565 h -0.325718 l -0.761677,2.159756 h -0.03007 z"
         style="stroke-width:0.264583"
         id="path19717" />
      <path
         d="m 37.649816,20.064432 c 0.521148,0 0.87192,-0.395872 0.87192,-0.992186 0,-0.601324 -0.350772,-0.997196 -0.87192,-0.997196 -0.521148,0 -0.871921,0.395872 -0.871921,0.997196 0,0.596314 0.350773,0.992186 0.871921,0.992186 z m 0,-0.265585 c -0.395872,0 -0.57627,-0.340751 -0.57627,-0.726601 0,-0.385849 0.180398,-0.731611 0.57627,-0.731611 0.395872,0 0.576269,0.345762 0.576269,0.731611 0,0.38585 -0.180397,0.726601 -0.576269,0.726601 z"
         style="stroke-width:0.264583"
         id="path19719" />
      <path
         d="m 39.268377,17.458693 h -0.295652 v 2.56565 h 0.295652 z"
         style="stroke-width:0.264583"
         id="path19721" />
      <path
         d="M 40.64641,18.100105 H 40.235505 V 17.63909 h -0.295651 v 0.461015 h -0.29064 v 0.250552 h 0.29064 v 1.202649 c 0,0.335739 0.270596,0.496093 0.521148,0.496093 0.110243,0 0.180397,-0.02004 0.220485,-0.03508 l -0.06013,-0.265585 c -0.02506,0.005 -0.06514,0.01503 -0.130287,0.01503 -0.130287,0 -0.255563,-0.04009 -0.255563,-0.290641 v -1.122472 h 0.410905 z"
         style="stroke-width:0.264583"
         id="path19723" />
      <path
         d="m 41.658638,20.069443 c 0.335739,0 0.511125,-0.180398 0.571258,-0.305673 h 0.01503 v 0.260573 h 0.295651 v -1.267792 c 0,-0.611346 -0.466026,-0.681501 -0.711567,-0.681501 -0.29064,0 -0.621369,0.100221 -0.7717,0.450993 l 0.280618,0.100221 c 0.06514,-0.140309 0.219233,-0.29064 0.501104,-0.29064 0.271849,0 0.405894,0.144067 0.405894,0.390861 v 0.01002 c 0,0.142815 -0.14532,0.130287 -0.496093,0.175386 -0.357036,0.04635 -0.746644,0.125276 -0.746644,0.566247 0,0.375828 0.29064,0.591303 0.656446,0.591303 z m 0.0451,-0.265585 c -0.235519,0 -0.405894,-0.105232 -0.405894,-0.310684 0,-0.225497 0.205453,-0.295652 0.43596,-0.325718 0.125276,-0.01503 0.461016,-0.05011 0.511126,-0.110243 v 0.270596 c 0,0.24053 -0.190419,0.476049 -0.541192,0.476049 z"
         style="stroke-width:0.264583"
         id="path19725" />
      <path
         d="m 43.858477,20.786021 c 0.461016,0 0.831832,-0.210463 0.831832,-0.706556 v -1.97936 H 44.40468 v 0.305674 h -0.03007 c -0.06514,-0.100221 -0.185408,-0.330729 -0.561236,-0.330729 -0.486071,0 -0.82181,0.38585 -0.82181,0.977152 0,0.601325 0.350772,0.942075 0.816799,0.942075 0.375828,0 0.496093,-0.220485 0.561236,-0.325717 h 0.02506 v 0.390861 c 0,0.320706 -0.225496,0.466026 -0.536181,0.466026 -0.34952,0 -0.47229,-0.184155 -0.551214,-0.29064 l -0.235518,0.165364 c 0.120264,0.201695 0.357036,0.38585 0.786732,0.38585 z m -0.01002,-1.057329 c -0.370817,0 -0.561236,-0.280618 -0.561236,-0.681501 0,-0.390861 0.185408,-0.706556 0.561236,-0.706556 0.360795,0 0.551214,0.29064 0.551214,0.706556 0,0.425938 -0.19543,0.681501 -0.551214,0.681501 z"
         style="stroke-width:0.264583"
         id="path19727" />
      <path
         d="m 46.038272,20.064432 c 0.390861,0 0.67649,-0.195431 0.766689,-0.486071 l -0.285629,-0.08018 c -0.07517,0.200441 -0.249299,0.300662 -0.48106,0.300662 -0.347014,0 -0.586291,-0.224244 -0.600071,-0.636402 h 1.396826 v -0.125276 c 0,-0.716578 -0.425938,-0.962119 -0.826821,-0.962119 -0.521148,0 -0.866909,0.410905 -0.866909,1.002207 0,0.591303 0.34075,0.987175 0.896975,0.987175 z m -0.600071,-1.15755 c 0.02004,-0.299409 0.23176,-0.566247 0.570005,-0.566247 0.320706,0 0.526159,0.24053 0.526159,0.566247 z"
         style="stroke-width:0.264583"
         id="path19729" />
      <path
         d="m 48.649023,18.531054 c -0.0927,-0.273101 -0.300662,-0.456004 -0.681501,-0.456004 -0.405894,0 -0.706556,0.230508 -0.706556,0.556225 0,0.265585 0.157847,0.443477 0.511125,0.526159 l 0.320707,0.07517 c 0.194177,0.0451 0.285629,0.137803 0.285629,0.270596 0,0.165364 -0.175387,0.300662 -0.450994,0.300662 -0.241782,0 -0.393366,-0.103979 -0.445982,-0.310684 l -0.280618,0.07015 c 0.0689,0.32697 0.338245,0.501104 0.731611,0.501104 0.447236,0 0.751656,-0.244288 0.751656,-0.576269 0,-0.268091 -0.16787,-0.437213 -0.511126,-0.521148 l -0.285629,-0.07015 c -0.228002,-0.05637 -0.330728,-0.132792 -0.330728,-0.280618 0,-0.165364 0.175386,-0.285629 0.410905,-0.285629 0.258068,0 0.364553,0.142815 0.415916,0.275607 z"
         style="stroke-width:0.264583"
         id="path19731" />
    </g>
    <path
       style="fill:none;stroke:#ff0000;stroke-width:0.264999;stroke-linecap:butt;stroke-linejoin:miter;stroke-miterlimit:4;stroke-dasharray:none;stroke-opacity:1"
       d="m 49.382504,19.970545 h 0.750287 v 9.986459"
       id="path200-7"
       sodipodi:nodetypes="ccc" />
    <g
       aria-label="Total Battery Charge Level"
       id="text130-3-5-6-3-6"
       style="font-size:3.52777px;line-height:1.25;font-family:Inter;-inkscape-font-specification:Inter;stroke-width:0.264583">
      <path
         d="m 64.569293,17.710917 h 0.806777 v 2.290044 h 0.310685 v -2.290044 h 0.806777 V 17.43531 h -1.924239 z"
         style="stroke-width:0.264583"
         id="path19734" />
      <path
         d="m 67.4356,20.04105 c 0.521148,0 0.87192,-0.395872 0.87192,-0.992186 0,-0.601324 -0.350772,-0.997196 -0.87192,-0.997196 -0.521148,0 -0.871921,0.395872 -0.871921,0.997196 0,0.596314 0.350773,0.992186 0.871921,0.992186 z m 0,-0.265585 c -0.395872,0 -0.576269,-0.340751 -0.576269,-0.726601 0,-0.38585 0.180397,-0.731611 0.576269,-0.731611 0.395872,0 0.576269,0.345761 0.576269,0.731611 0,0.38585 -0.180397,0.726601 -0.576269,0.726601 z"
         style="stroke-width:0.264583"
         id="path19736" />
      <path
         d="m 69.595354,18.076723 h -0.410905 v -0.461015 h -0.295651 v 0.461015 h -0.290641 v 0.250552 h 0.290641 v 1.202649 c 0,0.335739 0.270596,0.496092 0.521147,0.496092 0.110243,0 0.180398,-0.02004 0.220486,-0.03508 l -0.06013,-0.265585 c -0.02506,0.005 -0.06514,0.01503 -0.130287,0.01503 -0.130287,0 -0.255563,-0.04009 -0.255563,-0.29064 v -1.122472 h 0.410905 z"
         style="stroke-width:0.264583"
         id="path19738" />
      <path
         d="m 70.607582,20.046061 c 0.335739,0 0.511126,-0.180398 0.571258,-0.305674 h 0.01503 v 0.260574 h 0.295651 v -1.267792 c 0,-0.611347 -0.466026,-0.681501 -0.711567,-0.681501 -0.29064,0 -0.621369,0.100221 -0.7717,0.450993 l 0.280618,0.100221 c 0.06514,-0.140309 0.219233,-0.29064 0.501104,-0.29064 0.271849,0 0.405894,0.144067 0.405894,0.390861 v 0.01002 c 0,0.142814 -0.14532,0.130287 -0.496093,0.175386 -0.357036,0.04635 -0.746644,0.125276 -0.746644,0.566247 0,0.375828 0.29064,0.591303 0.656446,0.591303 z m 0.0451,-0.265585 c -0.235519,0 -0.405894,-0.105232 -0.405894,-0.310685 0,-0.225496 0.205453,-0.295651 0.43596,-0.325717 0.125276,-0.01503 0.461016,-0.05011 0.511126,-0.110243 v 0.270596 c 0,0.24053 -0.190419,0.476049 -0.541192,0.476049 z"
         style="stroke-width:0.264583"
         id="path19740" />
      <path
         d="m 72.326363,17.43531 h -0.295651 v 2.565651 h 0.295651 z"
         style="stroke-width:0.264583"
         id="path19742" />
      <path
         d="m 73.899819,20.000961 h 0.927041 c 0.606336,0 0.856888,-0.295651 0.856888,-0.681501 0,-0.405894 -0.280618,-0.626379 -0.516137,-0.641412 v -0.02506 c 0.220485,-0.06013 0.415916,-0.205452 0.415916,-0.536181 0,-0.375827 -0.250552,-0.681501 -0.786733,-0.681501 h -0.896975 z m 0.310684,-0.275607 V 18.83339 h 0.63139 c 0.33574,0 0.546203,0.225496 0.546203,0.48607 0,0.225497 -0.155342,0.405894 -0.561236,0.405894 z m 0,-1.16256 v -0.851877 h 0.586291 c 0.340751,0 0.491082,0.180398 0.491082,0.405894 0,0.270596 -0.220486,0.445983 -0.501104,0.445983 z"
         style="stroke-width:0.264583"
         id="path19744" />
      <path
         d="m 76.721032,20.046061 c 0.335739,0 0.511126,-0.180398 0.571258,-0.305674 h 0.01503 v 0.260574 h 0.295651 v -1.267792 c 0,-0.611347 -0.466026,-0.681501 -0.711567,-0.681501 -0.29064,0 -0.621368,0.100221 -0.7717,0.450993 l 0.280618,0.100221 c 0.06514,-0.140309 0.219233,-0.29064 0.501104,-0.29064 0.271849,0 0.405894,0.144067 0.405894,0.390861 v 0.01002 c 0,0.142814 -0.14532,0.130287 -0.496093,0.175386 -0.357036,0.04635 -0.746644,0.125276 -0.746644,0.566247 0,0.375828 0.29064,0.591303 0.656446,0.591303 z m 0.0451,-0.265585 c -0.235519,0 -0.405894,-0.105232 -0.405894,-0.310685 0,-0.225496 0.205453,-0.295651 0.43596,-0.325717 0.125276,-0.01503 0.461016,-0.05011 0.511126,-0.110243 v 0.270596 c 0,0.24053 -0.190419,0.476049 -0.541192,0.476049 z"
         style="stroke-width:0.264583"
         id="path19746" />
      <path
         d="M 78.981005,18.076723 H 78.5701 v -0.461015 h -0.295651 v 0.461015 h -0.290641 v 0.250552 h 0.290641 v 1.202649 c 0,0.335739 0.270596,0.496092 0.521147,0.496092 0.110243,0 0.180398,-0.02004 0.220486,-0.03508 l -0.06013,-0.265585 c -0.02506,0.005 -0.06514,0.01503 -0.130287,0.01503 -0.130287,0 -0.255563,-0.04009 -0.255563,-0.29064 v -1.122472 h 0.410905 z"
         style="stroke-width:0.264583"
         id="path19748" />
      <path
         d="m 80.263828,18.076723 h -0.410905 v -0.461015 h -0.295651 v 0.461015 h -0.29064 v 0.250552 h 0.29064 v 1.202649 c 0,0.335739 0.270596,0.496092 0.521148,0.496092 0.110243,0 0.180397,-0.02004 0.220486,-0.03508 l -0.06013,-0.265585 c -0.02505,0.005 -0.06514,0.01503 -0.130287,0.01503 -0.130287,0 -0.255563,-0.04009 -0.255563,-0.29064 v -1.122472 h 0.410905 z"
         style="stroke-width:0.264583"
         id="path19750" />
      <path
         d="m 81.496541,20.04105 c 0.390861,0 0.67649,-0.195431 0.766689,-0.486071 l -0.285629,-0.08018 c -0.07517,0.200442 -0.249299,0.300663 -0.48106,0.300663 -0.347014,0 -0.586291,-0.224244 -0.600071,-0.636402 h 1.396826 v -0.125276 c 0,-0.716578 -0.425938,-0.962119 -0.826821,-0.962119 -0.521148,0 -0.866909,0.410905 -0.866909,1.002207 0,0.591303 0.34075,0.987175 0.896975,0.987175 z M 80.89647,18.8835 c 0.02004,-0.299409 0.23176,-0.566247 0.570005,-0.566247 0.320707,0 0.526159,0.24053 0.526159,0.566247 z"
         style="stroke-width:0.264583"
         id="path19752" />
      <path
         d="m 82.74429,20.000961 h 0.295651 v -1.217682 c 0,-0.260574 0.205453,-0.450993 0.486071,-0.450993 0.07892,0 0.160353,0.01503 0.180397,0.02004 v -0.300662 c -0.03382,-0.0025 -0.111496,-0.005 -0.155342,-0.005 -0.230508,0 -0.430949,0.130287 -0.501104,0.320706 h -0.02004 v -0.29064 H 82.74429 Z"
         style="stroke-width:0.264583"
         id="path19754" />
      <path
         d="m 84.297702,20.747606 c 0.270596,0 0.456004,-0.140309 0.566247,-0.43596 l 0.826821,-2.234923 h -0.320706 l -0.53117,1.533377 h -0.02004 L 84.28768,18.076723 h -0.320707 l 0.711567,1.93426 -0.06514,0.180398 c -0.103979,0.288134 -0.24053,0.315695 -0.456004,0.260574 l -0.07517,0.260574 c 0.03007,0.01503 0.115254,0.03508 0.215475,0.03508 z"
         style="stroke-width:0.264583"
         id="path19756" />
      <path
         d="m 89.178445,18.237076 c -0.09521,-0.526159 -0.516137,-0.836843 -1.032274,-0.836843 -0.656446,0 -1.132494,0.506115 -1.132494,1.317903 0,0.811788 0.476048,1.317903 1.132494,1.317903 0.516137,0 0.937064,-0.310685 1.032274,-0.836844 H 88.86776 c -0.07516,0.355784 -0.380838,0.546203 -0.721589,0.546203 -0.466026,0 -0.831832,-0.360794 -0.831832,-1.027262 0,-0.666468 0.365806,-1.027263 0.831832,-1.027263 0.340751,0 0.646424,0.19042 0.721589,0.546203 z"
         style="stroke-width:0.264583"
         id="path19758" />
      <path
         d="m 89.935109,18.843412 c 0,-0.33574 0.214222,-0.526159 0.506115,-0.526159 0.278113,0 0.445982,0.175386 0.445982,0.481059 v 1.202649 h 0.295652 v -1.222693 c 0,-0.49484 -0.26308,-0.7266 -0.656446,-0.7266 -0.303168,0 -0.476049,0.126529 -0.566247,0.325717 h -0.02506 V 17.43531 h -0.295651 v 2.565651 h 0.295651 z"
         style="stroke-width:0.264583"
         id="path19760" />
      <path
         d="m 92.290292,20.046061 c 0.33574,0 0.511126,-0.180398 0.571259,-0.305674 h 0.01503 v 0.260574 h 0.295651 v -1.267792 c 0,-0.611347 -0.466027,-0.681501 -0.711567,-0.681501 -0.29064,0 -0.621369,0.100221 -0.7717,0.450993 l 0.280618,0.100221 c 0.06514,-0.140309 0.219233,-0.29064 0.501104,-0.29064 0.271849,0 0.405894,0.144067 0.405894,0.390861 v 0.01002 c 0,0.142814 -0.14532,0.130287 -0.496093,0.175386 -0.357036,0.04635 -0.746644,0.125276 -0.746644,0.566247 0,0.375828 0.29064,0.591303 0.656445,0.591303 z m 0.0451,-0.265585 c -0.235519,0 -0.405894,-0.105232 -0.405894,-0.310685 0,-0.225496 0.205452,-0.295651 0.43596,-0.325717 0.125276,-0.01503 0.461015,-0.05011 0.511126,-0.110243 v 0.270596 c 0,0.24053 -0.19042,0.476049 -0.541192,0.476049 z"
         style="stroke-width:0.264583"
         id="path19762" />
      <path
         d="m 93.713423,20.000961 h 0.295651 v -1.217682 c 0,-0.259321 0.205453,-0.450993 0.486071,-0.450993 0.07391,0 0.129034,0.01378 0.170375,0.03508 l 0.100221,-0.250552 c -0.06013,-0.04259 -0.139056,-0.07015 -0.245541,-0.07015 -0.233013,0 -0.432202,0.130287 -0.501104,0.320706 h -0.02004 v -0.29064 h -0.285629 z"
         style="stroke-width:0.264583"
         id="path19764" />
      <path
         d="m 95.782977,20.762639 c 0.461015,0 0.831832,-0.210464 0.831832,-0.706556 v -1.97936 H 96.32918 v 0.305673 h -0.03007 c -0.06514,-0.10022 -0.185409,-0.330728 -0.561237,-0.330728 -0.48607,0 -0.82181,0.38585 -0.82181,0.977152 0,0.601325 0.350773,0.942075 0.816799,0.942075 0.375828,0 0.496093,-0.220486 0.561237,-0.325717 h 0.02505 v 0.390861 c 0,0.320706 -0.225497,0.466026 -0.536181,0.466026 -0.34952,0 -0.47229,-0.184156 -0.551214,-0.29064 l -0.235519,0.165364 c 0.120265,0.201694 0.357036,0.38585 0.786733,0.38585 z m -0.01002,-1.057329 c -0.370817,0 -0.561236,-0.280618 -0.561236,-0.681501 0,-0.390861 0.185408,-0.706556 0.561236,-0.706556 0.360794,0 0.551214,0.29064 0.551214,0.706556 0,0.425938 -0.195431,0.681501 -0.551214,0.681501 z"
         style="stroke-width:0.264583"
         id="path19766" />
      <path
         d="m 97.962772,20.04105 c 0.390861,0 0.67649,-0.195431 0.766688,-0.486071 l -0.285629,-0.08018 c -0.07516,0.200442 -0.249299,0.300663 -0.481059,0.300663 -0.347014,0 -0.586292,-0.224244 -0.600072,-0.636402 h 1.396827 v -0.125276 c 0,-0.716578 -0.425938,-0.962119 -0.826821,-0.962119 -0.521148,0 -0.86691,0.410905 -0.86691,1.002207 0,0.591303 0.340751,0.987175 0.896976,0.987175 z M 97.3627,18.8835 c 0.02004,-0.299409 0.231761,-0.566247 0.570006,-0.566247 0.320706,0 0.526158,0.24053 0.526158,0.566247 z"
         style="stroke-width:0.264583"
         id="path19768" />
      <path
         d="m 100.24278,20.000961 h 1.50331 v -0.275607 h -1.19262 V 17.43531 h -0.31069 z"
         style="stroke-width:0.264583"
         id="path19770" />
      <path
         d="m 102.99384,20.04105 c 0.39086,0 0.67649,-0.195431 0.76669,-0.486071 l -0.28563,-0.08018 c -0.0752,0.200442 -0.2493,0.300663 -0.48106,0.300663 -0.34702,0 -0.58629,-0.224244 -0.60007,-0.636402 h 1.39682 v -0.125276 c 0,-0.716578 -0.42593,-0.962119 -0.82682,-0.962119 -0.52115,0 -0.86691,0.410905 -0.86691,1.002207 0,0.591303 0.34075,0.987175 0.89698,0.987175 z m -0.60007,-1.15755 c 0.02,-0.299409 0.23176,-0.566247 0.57,-0.566247 0.32071,0 0.52616,0.24053 0.52616,0.566247 z"
         style="stroke-width:0.264583"
         id="path19772" />
      <path
         d="m 105.81505,18.076723 h -0.32071 l -0.53117,1.533377 h -0.02 l -0.53117,-1.533377 h -0.32071 l 0.71157,1.924238 h 0.30066 z"
         style="stroke-width:0.264583"
         id="path19774" />
      <path
         d="m 106.94253,20.04105 c 0.39086,0 0.67649,-0.195431 0.76669,-0.486071 l -0.28563,-0.08018 c -0.0752,0.200442 -0.2493,0.300663 -0.48106,0.300663 -0.34702,0 -0.58629,-0.224244 -0.60007,-0.636402 h 1.39682 v -0.125276 c 0,-0.716578 -0.42594,-0.962119 -0.82682,-0.962119 -0.52115,0 -0.86691,0.410905 -0.86691,1.002207 0,0.591303 0.34075,0.987175 0.89698,0.987175 z m -0.60007,-1.15755 c 0.02,-0.299409 0.23176,-0.566247 0.57,-0.566247 0.32071,0 0.52616,0.24053 0.52616,0.566247 z"
         style="stroke-width:0.264583"
         id="path19776" />
      <path
         d="m 108.48592,17.43531 h -0.29565 v 2.565651 h 0.29565 z"
         style="stroke-width:0.264583"
         id="path19778" />
    </g>
    <path
       style="fill:none;stroke:#ff0000;stroke-width:0.264999;stroke-linecap:butt;stroke-linejoin:miter;stroke-miterlimit:4;stroke-dasharray:none;stroke-opacity:1"
       d="m 109.37214,19.959851 h 0.75028 v 9.602133"
       id="path200-7-2"
       sodipodi:nodetypes="ccc" />
    <g
       aria-label="Total Battery Voltage"
       id="text130-3-5-6-3-6-0"
       style="font-size:3.52777px;line-height:1.25;font-family:Inter;-inkscape-font-specification:Inter;stroke-width:0.264583">
      <path
         d="m 73.797946,57.75096 h 0.806777 v 2.290044 h 0.310685 V 57.75096 h 0.806777 v -0.275607 h -1.924239 z"
         style="stroke-width:0.264583"
         id="path19781" />
      <path
         d="m 76.664253,60.081092 c 0.521148,0 0.87192,-0.395871 0.87192,-0.992185 0,-0.601324 -0.350772,-0.997196 -0.87192,-0.997196 -0.521148,0 -0.871921,0.395872 -0.871921,0.997196 0,0.596314 0.350773,0.992185 0.871921,0.992185 z m 0,-0.265584 c -0.395872,0 -0.576269,-0.340751 -0.576269,-0.726601 0,-0.38585 0.180397,-0.731611 0.576269,-0.731611 0.395872,0 0.576269,0.345761 0.576269,0.731611 0,0.38585 -0.180397,0.726601 -0.576269,0.726601 z"
         style="stroke-width:0.264583"
         id="path19783" />
      <path
         d="M 78.824007,58.116766 H 78.413102 V 57.655751 H 78.11745 v 0.461015 h -0.29064 v 0.250552 h 0.29064 v 1.202649 c 0,0.335739 0.270596,0.496092 0.521148,0.496092 0.110243,0 0.180398,-0.02004 0.220486,-0.03508 l -0.06013,-0.265585 c -0.02506,0.005 -0.06514,0.01503 -0.130287,0.01503 -0.130287,0 -0.255563,-0.04009 -0.255563,-0.29064 v -1.122472 h 0.410905 z"
         style="stroke-width:0.264583"
         id="path19785" />
      <path
         d="m 79.836235,60.086104 c 0.335739,0 0.511126,-0.180398 0.571258,-0.305674 h 0.01503 v 0.260574 h 0.295651 v -1.267792 c 0,-0.611347 -0.466026,-0.681501 -0.711567,-0.681501 -0.29064,0 -0.621369,0.100221 -0.7717,0.450993 l 0.280618,0.100221 c 0.06514,-0.140309 0.219233,-0.29064 0.501104,-0.29064 0.271849,0 0.405894,0.144067 0.405894,0.390861 v 0.01002 c 0,0.142814 -0.14532,0.130287 -0.496093,0.175386 -0.357036,0.04635 -0.746644,0.125276 -0.746644,0.566247 0,0.375828 0.29064,0.591303 0.656446,0.591303 z m 0.0451,-0.265585 c -0.235519,0 -0.405894,-0.105232 -0.405894,-0.310685 0,-0.225496 0.205453,-0.295651 0.43596,-0.325717 0.125276,-0.01503 0.461016,-0.05011 0.511126,-0.110243 v 0.270596 c 0,0.24053 -0.190419,0.476049 -0.541192,0.476049 z"
         style="stroke-width:0.264583"
         id="path19787" />
      <path
         d="m 81.555016,57.475353 h -0.295651 v 2.565651 h 0.295651 z"
         style="stroke-width:0.264583"
         id="path19789" />
      <path
         d="m 83.128471,60.041004 h 0.927042 c 0.606336,0 0.856888,-0.295651 0.856888,-0.681501 0,-0.405894 -0.280618,-0.626379 -0.516137,-0.641413 v -0.02505 c 0.220485,-0.06013 0.415916,-0.205452 0.415916,-0.536181 0,-0.375828 -0.250552,-0.681501 -0.786733,-0.681501 h -0.896976 z m 0.310685,-0.275607 v -0.891964 h 0.63139 c 0.33574,0 0.546203,0.225496 0.546203,0.48607 0,0.225497 -0.155342,0.405894 -0.561236,0.405894 z m 0,-1.16256 V 57.75096 h 0.586291 c 0.340751,0 0.491082,0.180398 0.491082,0.405894 0,0.270596 -0.220486,0.445983 -0.501104,0.445983 z"
         style="stroke-width:0.264583"
         id="path19791" />
      <path
         d="m 85.949685,60.086104 c 0.335739,0 0.511126,-0.180398 0.571258,-0.305674 h 0.01503 v 0.260574 h 0.295651 v -1.267792 c 0,-0.611347 -0.466026,-0.681501 -0.711567,-0.681501 -0.29064,0 -0.621369,0.100221 -0.7717,0.450993 l 0.280618,0.100221 c 0.06514,-0.140309 0.219233,-0.29064 0.501104,-0.29064 0.271849,0 0.405894,0.144067 0.405894,0.390861 v 0.01002 c 0,0.142814 -0.14532,0.130287 -0.496093,0.175386 -0.357036,0.04635 -0.746644,0.125276 -0.746644,0.566247 0,0.375828 0.29064,0.591303 0.656446,0.591303 z m 0.0451,-0.265585 c -0.235519,0 -0.405894,-0.105232 -0.405894,-0.310685 0,-0.225496 0.205453,-0.295651 0.43596,-0.325717 0.125276,-0.01503 0.461016,-0.05011 0.511126,-0.110243 v 0.270596 c 0,0.24053 -0.190419,0.476049 -0.541192,0.476049 z"
         style="stroke-width:0.264583"
         id="path19793" />
      <path
         d="m 88.209658,58.116766 h -0.410905 v -0.461015 h -0.295651 v 0.461015 h -0.290641 v 0.250552 h 0.290641 v 1.202649 c 0,0.335739 0.270596,0.496092 0.521147,0.496092 0.110243,0 0.180398,-0.02004 0.220486,-0.03508 l -0.06013,-0.265585 c -0.02506,0.005 -0.06514,0.01503 -0.130287,0.01503 -0.130287,0 -0.255563,-0.04009 -0.255563,-0.29064 v -1.122472 h 0.410905 z"
         style="stroke-width:0.264583"
         id="path19795" />
      <path
         d="m 89.492481,58.116766 h -0.410905 v -0.461015 h -0.295651 v 0.461015 h -0.29064 v 0.250552 h 0.29064 v 1.202649 c 0,0.335739 0.270596,0.496092 0.521148,0.496092 0.110243,0 0.180397,-0.02004 0.220486,-0.03508 l -0.06013,-0.265585 c -0.02506,0.005 -0.06514,0.01503 -0.130287,0.01503 -0.130287,0 -0.255563,-0.04009 -0.255563,-0.29064 v -1.122472 h 0.410905 z"
         style="stroke-width:0.264583"
         id="path19797" />
      <path
         d="m 90.725194,60.081092 c 0.390861,0 0.67649,-0.19543 0.766689,-0.48607 l -0.285629,-0.08018 c -0.07517,0.200442 -0.249299,0.300663 -0.48106,0.300663 -0.347014,0 -0.586291,-0.224244 -0.600071,-0.636402 h 1.396826 V 59.05383 c 0,-0.716578 -0.425938,-0.962119 -0.826821,-0.962119 -0.521148,0 -0.866909,0.410905 -0.866909,1.002207 0,0.591303 0.34075,0.987174 0.896975,0.987174 z m -0.600071,-1.157549 c 0.02004,-0.29941 0.23176,-0.566247 0.570005,-0.566247 0.320707,0 0.526159,0.24053 0.526159,0.566247 z"
         style="stroke-width:0.264583"
         id="path19799" />
      <path
         d="m 91.972943,60.041004 h 0.295651 v -1.217682 c 0,-0.260574 0.205452,-0.450993 0.486071,-0.450993 0.07892,0 0.160353,0.01503 0.180397,0.02004 v -0.300662 c -0.03383,-0.0025 -0.111496,-0.005 -0.155342,-0.005 -0.230508,0 -0.430949,0.130287 -0.501104,0.320706 h -0.02004 v -0.29064 h -0.285629 z"
         style="stroke-width:0.264583"
         id="path19801" />
      <path
         d="m 93.526355,60.787649 c 0.270596,0 0.456004,-0.140309 0.566247,-0.435961 l 0.826821,-2.234922 h -0.320707 l -0.531169,1.533377 h -0.02005 l -0.531169,-1.533377 h -0.320707 l 0.711567,1.93426 -0.06514,0.180398 c -0.103979,0.288134 -0.24053,0.315695 -0.456004,0.260574 l -0.07517,0.260573 c 0.03007,0.01503 0.115254,0.03508 0.215475,0.03508 z"
         style="stroke-width:0.264583"
         id="path19803" />
      <path
         d="m 96.447782,57.475353 h -0.325717 l 0.942075,2.565651 h 0.320706 l 0.942075,-2.565651 h -0.325717 l -0.761678,2.159757 h -0.03007 z"
         style="stroke-width:0.264583"
         id="path19805" />
      <path
         d="m 99.289033,60.081092 c 0.521148,0 0.871917,-0.395871 0.871917,-0.992185 0,-0.601324 -0.350769,-0.997196 -0.871917,-0.997196 -0.521148,0 -0.87192,0.395872 -0.87192,0.997196 0,0.596314 0.350772,0.992185 0.87192,0.992185 z m 0,-0.265584 c -0.395872,0 -0.576269,-0.340751 -0.576269,-0.726601 0,-0.38585 0.180397,-0.731611 0.576269,-0.731611 0.395872,0 0.576269,0.345761 0.576269,0.731611 0,0.38585 -0.180397,0.726601 -0.576269,0.726601 z"
         style="stroke-width:0.264583"
         id="path19807" />
      <path
         d="m 100.9076,57.475353 h -0.29566 v 2.565651 h 0.29566 z"
         style="stroke-width:0.264583"
         id="path19809" />
      <path
         d="m 102.28563,58.116766 h -0.41091 v -0.461015 h -0.29565 v 0.461015 h -0.29064 v 0.250552 h 0.29064 v 1.202649 c 0,0.335739 0.2706,0.496092 0.52115,0.496092 0.11024,0 0.1804,-0.02004 0.22048,-0.03508 l -0.0601,-0.265585 c -0.0251,0.005 -0.0651,0.01503 -0.13028,0.01503 -0.13029,0 -0.25557,-0.04009 -0.25557,-0.29064 v -1.122472 h 0.41091 z"
         style="stroke-width:0.264583"
         id="path19811" />
      <path
         d="m 103.29786,60.086104 c 0.33573,0 0.51112,-0.180398 0.57125,-0.305674 h 0.015 v 0.260574 h 0.29565 v -1.267792 c 0,-0.611347 -0.46603,-0.681501 -0.71157,-0.681501 -0.29064,0 -0.62137,0.100221 -0.7717,0.450993 l 0.28062,0.100221 c 0.0651,-0.140309 0.21923,-0.29064 0.5011,-0.29064 0.27185,0 0.4059,0.144067 0.4059,0.390861 v 0.01002 c 0,0.142814 -0.14532,0.130287 -0.4961,0.175386 -0.35703,0.04635 -0.74664,0.125276 -0.74664,0.566247 0,0.375828 0.29064,0.591303 0.65645,0.591303 z m 0.0451,-0.265585 c -0.23551,0 -0.40589,-0.105232 -0.40589,-0.310685 0,-0.225496 0.20545,-0.295651 0.43596,-0.325717 0.12528,-0.01503 0.46102,-0.05011 0.51113,-0.110243 v 0.270596 c 0,0.24053 -0.19042,0.476049 -0.5412,0.476049 z"
         style="stroke-width:0.264583"
         id="path19813" />
      <path
         d="m 105.4977,60.802682 c 0.46101,0 0.83183,-0.210464 0.83183,-0.706556 v -1.97936 h -0.28563 v 0.305673 h -0.0301 c -0.0651,-0.100221 -0.1854,-0.330728 -0.56123,-0.330728 -0.48607,0 -0.82181,0.38585 -0.82181,0.977152 0,0.601324 0.35077,0.942075 0.8168,0.942075 0.37582,0 0.49609,-0.220486 0.56123,-0.325717 h 0.0251 v 0.39086 c 0,0.320707 -0.2255,0.466027 -0.53618,0.466027 -0.34952,0 -0.47229,-0.184156 -0.55122,-0.29064 l -0.23552,0.165364 c 0.12027,0.201694 0.35704,0.38585 0.78674,0.38585 z m -0.01,-1.057329 c -0.37081,0 -0.56123,-0.280618 -0.56123,-0.681501 0,-0.390861 0.18541,-0.706556 0.56123,-0.706556 0.3608,0 0.55122,0.29064 0.55122,0.706556 0,0.425938 -0.19543,0.681501 -0.55122,0.681501 z"
         style="stroke-width:0.264583"
         id="path19815" />
      <path
         d="m 107.67749,60.081092 c 0.39086,0 0.67649,-0.19543 0.76669,-0.48607 l -0.28563,-0.08018 c -0.0752,0.200442 -0.2493,0.300663 -0.48106,0.300663 -0.34701,0 -0.58629,-0.224244 -0.60007,-0.636402 h 1.39682 V 59.05383 c 0,-0.716578 -0.42593,-0.962119 -0.82682,-0.962119 -0.52114,0 -0.86691,0.410905 -0.86691,1.002207 0,0.591303 0.34075,0.987174 0.89698,0.987174 z m -0.60007,-1.157549 c 0.02,-0.29941 0.23176,-0.566247 0.57,-0.566247 0.32071,0 0.52616,0.24053 0.52616,0.566247 z"
         style="stroke-width:0.264583"
         id="path19817" />
    </g>
    <g
       aria-label="Current into/out
of Batteries"
       id="text130-3-5-6-3-6-0-1"
       style="font-size:3.52777px;line-height:1.25;font-family:Inter;-inkscape-font-specification:Inter;stroke-width:0.264583">
      <path
         d="m 94.147511,68.487198 c -0.09521,-0.526159 -0.516137,-0.836843 -1.032274,-0.836843 -0.656446,0 -1.132494,0.506115 -1.132494,1.317903 0,0.811788 0.476048,1.317903 1.132494,1.317903 0.516137,0 0.937064,-0.310685 1.032274,-0.836844 h -0.310685 c -0.07516,0.355784 -0.380839,0.546203 -0.721589,0.546203 -0.466027,0 -0.831832,-0.360794 -0.831832,-1.027262 0,-0.666468 0.365805,-1.027263 0.831832,-1.027263 0.34075,0 0.646424,0.19042 0.721589,0.546203 z"
         style="text-align:end;text-anchor:end;stroke-width:0.264583"
         id="path19820" />
      <path
         d="m 95.821195,69.464351 c 0,0.360794 -0.275608,0.526158 -0.496093,0.526158 -0.245541,0 -0.420927,-0.180397 -0.420927,-0.461015 v -1.202649 h -0.295651 v 1.222693 c 0,0.491082 0.260573,0.726601 0.621368,0.726601 0.29064,0 0.48106,-0.155343 0.571258,-0.350773 h 0.02004 v 0.325717 h 0.295651 v -1.924238 h -0.295651 z"
         style="text-align:end;text-anchor:end;stroke-width:0.264583"
         id="path19822" />
      <path
         d="m 96.658035,70.251083 h 0.295651 v -1.217682 c 0,-0.260574 0.205452,-0.450993 0.48607,-0.450993 0.07892,0 0.160353,0.01503 0.180398,0.02004 V 68.30179 c -0.03382,-0.0025 -0.111496,-0.005 -0.155343,-0.005 -0.230507,0 -0.430949,0.130287 -0.501103,0.320706 h -0.02004 v -0.29064 h -0.285629 z"
         style="text-align:end;text-anchor:end;stroke-width:0.264583"
         id="path19824" />
      <path
         d="m 97.970923,70.251083 h 0.295651 v -1.217682 c 0,-0.259321 0.205452,-0.450993 0.48607,-0.450993 0.07391,0 0.129035,0.01378 0.170376,0.03508 l 0.10022,-0.250552 c -0.06013,-0.04259 -0.139056,-0.07015 -0.24554,-0.07015 -0.233014,0 -0.432202,0.130287 -0.501104,0.320706 h -0.02004 v -0.29064 h -0.285629 z"
         style="text-align:end;text-anchor:end;stroke-width:0.264583"
         id="path19826" />
      <path
         d="m 100.07054,70.291172 c 0.39086,0 0.67649,-0.195431 0.76669,-0.486071 l -0.28563,-0.08018 c -0.0752,0.200442 -0.2493,0.300663 -0.48106,0.300663 -0.347011,0 -0.586288,-0.224244 -0.600069,-0.636402 h 1.396829 v -0.125276 c 0,-0.716578 -0.42594,-0.962119 -0.82682,-0.962119 -0.521151,0 -0.866913,0.410905 -0.866913,1.002207 0,0.591303 0.340751,0.987175 0.896973,0.987175 z m -0.600069,-1.15755 c 0.02004,-0.299409 0.231761,-0.566247 0.570009,-0.566247 0.3207,0 0.52616,0.24053 0.52616,0.566247 z"
         style="text-align:end;text-anchor:end;stroke-width:0.264583"
         id="path19828" />
      <path
         d="m 101.61394,69.093534 c 0,-0.33574 0.20796,-0.526159 0.49108,-0.526159 0.27436,0 0.44097,0.179145 0.44097,0.481059 v 1.202649 h 0.29565 V 69.02839 c 0,-0.491081 -0.26182,-0.7266 -0.65143,-0.7266 -0.29064,0 -0.47104,0.130287 -0.56124,0.325717 h -0.025 v -0.300662 h -0.28563 v 1.924238 h 0.29565 z"
         style="text-align:end;text-anchor:end;stroke-width:0.264583"
         id="path19830" />
      <path
         d="m 104.21968,68.326845 h -0.41091 V 67.86583 h -0.29565 v 0.461015 h -0.29064 v 0.250552 h 0.29064 v 1.202649 c 0,0.335739 0.2706,0.496093 0.52115,0.496093 0.11024,0 0.1804,-0.02004 0.22048,-0.03508 l -0.0601,-0.265585 c -0.0251,0.005 -0.0651,0.01503 -0.13029,0.01503 -0.13028,0 -0.25556,-0.04009 -0.25556,-0.29064 v -1.122472 h 0.41091 z"
         style="text-align:end;text-anchor:end;stroke-width:0.264583"
         id="path19832" />
      <path
         d="m 105.65784,70.251083 h 0.29565 v -1.924238 h -0.29565 z m 0.15033,-2.244944 c 0.11525,0 0.21046,-0.0902 0.21046,-0.200442 0,-0.110242 -0.0952,-0.200441 -0.21046,-0.200441 -0.11526,0 -0.21047,0.0902 -0.21047,0.200441 0,0.110243 0.0952,0.200442 0.21047,0.200442 z"
         style="text-align:end;text-anchor:end;stroke-width:0.264583"
         id="path19834" />
      <path
         d="m 106.79033,69.093534 c 0,-0.33574 0.20795,-0.526159 0.49108,-0.526159 0.27435,0 0.44097,0.179145 0.44097,0.481059 v 1.202649 h 0.29565 V 69.02839 c 0,-0.491081 -0.26183,-0.7266 -0.65143,-0.7266 -0.29064,0 -0.47104,0.130287 -0.56124,0.325717 h -0.0251 v -0.300662 h -0.28562 v 1.924238 h 0.29565 z"
         style="text-align:end;text-anchor:end;stroke-width:0.264583"
         id="path19836" />
      <path
         d="m 109.39606,68.326845 h -0.4109 V 67.86583 h -0.29565 v 0.461015 h -0.29064 v 0.250552 h 0.29064 v 1.202649 c 0,0.335739 0.27059,0.496093 0.52114,0.496093 0.11025,0 0.1804,-0.02004 0.22049,-0.03508 l -0.0601,-0.265585 c -0.0251,0.005 -0.0652,0.01503 -0.13029,0.01503 -0.13029,0 -0.25556,-0.04009 -0.25556,-0.29064 v -1.122472 h 0.4109 z"
         style="text-align:end;text-anchor:end;stroke-width:0.264583"
         id="path19838" />
      <path
         d="m 110.60372,70.291172 c 0.52115,0 0.87192,-0.395872 0.87192,-0.992186 0,-0.601324 -0.35077,-0.997196 -0.87192,-0.997196 -0.52115,0 -0.87192,0.395872 -0.87192,0.997196 0,0.596314 0.35077,0.992186 0.87192,0.992186 z m 0,-0.265585 c -0.39587,0 -0.57627,-0.340751 -0.57627,-0.726601 0,-0.38585 0.1804,-0.731611 0.57627,-0.731611 0.39587,0 0.57627,0.345761 0.57627,0.731611 0,0.38585 -0.1804,0.726601 -0.57627,0.726601 z"
         style="text-align:end;text-anchor:end;stroke-width:0.264583"
         id="path19840" />
      <path
         d="m 112.83363,67.565168 h -0.2706 l -0.82682,3.071765 h 0.2706 z"
         style="text-align:end;text-anchor:end;stroke-width:0.264583"
         id="path19842" />
      <path
         d="m 113.96612,70.291172 c 0.52115,0 0.87192,-0.395872 0.87192,-0.992186 0,-0.601324 -0.35077,-0.997196 -0.87192,-0.997196 -0.52115,0 -0.87192,0.395872 -0.87192,0.997196 0,0.596314 0.35077,0.992186 0.87192,0.992186 z m 0,-0.265585 c -0.39587,0 -0.57627,-0.340751 -0.57627,-0.726601 0,-0.38585 0.1804,-0.731611 0.57627,-0.731611 0.39587,0 0.57627,0.345761 0.57627,0.731611 0,0.38585 -0.1804,0.726601 -0.57627,0.726601 z"
         style="text-align:end;text-anchor:end;stroke-width:0.264583"
         id="path19844" />
      <path
         d="m 116.5017,69.464351 c 0,0.360794 -0.27561,0.526158 -0.49609,0.526158 -0.24554,0 -0.42093,-0.180397 -0.42093,-0.461015 v -1.202649 h -0.29565 v 1.222693 c 0,0.491082 0.26057,0.726601 0.62137,0.726601 0.29064,0 0.48106,-0.155343 0.57126,-0.350773 h 0.02 v 0.325717 h 0.29565 v -1.924238 h -0.29565 z"
         style="text-align:end;text-anchor:end;stroke-width:0.264583"
         id="path19846" />
      <path
         d="m 118.17538,68.326845 h -0.4109 V 67.86583 h -0.29565 v 0.461015 h -0.29064 v 0.250552 h 0.29064 v 1.202649 c 0,0.335739 0.27059,0.496093 0.52115,0.496093 0.11024,0 0.18039,-0.02004 0.22048,-0.03508 l -0.0601,-0.265585 c -0.0251,0.005 -0.0651,0.01503 -0.13029,0.01503 -0.13029,0 -0.25556,-0.04009 -0.25556,-0.29064 v -1.122472 h 0.4109 z"
         style="text-align:end;text-anchor:end;stroke-width:0.264583"
         id="path19848" />
      <path
         d="m 100.10061,74.700884 c 0.52115,0 0.87192,-0.395872 0.87192,-0.992185 0,-0.601325 -0.35077,-0.997196 -0.87192,-0.997196 -0.521149,0 -0.871921,0.395871 -0.871921,0.997196 0,0.596313 0.350772,0.992185 0.871921,0.992185 z m 0,-0.265585 c -0.395873,0 -0.57627,-0.34075 -0.57627,-0.7266 0,-0.38585 0.180397,-0.731612 0.57627,-0.731612 0.39587,0 0.57627,0.345762 0.57627,0.731612 0,0.38585 -0.1804,0.7266 -0.57627,0.7266 z"
         style="text-align:end;text-anchor:end;stroke-width:0.264583"
         id="path19850" />
      <path
         d="m 102.28041,72.736558 h -0.43095 v -0.195431 c 0,-0.190419 0.0802,-0.29064 0.2756,-0.29064 0.0852,0 0.1353,0.02004 0.16537,0.03007 l 0.0852,-0.255563 c -0.0451,-0.02004 -0.1353,-0.05011 -0.28062,-0.05011 -0.27561,0 -0.54119,0.165364 -0.54119,0.496093 v 0.265585 h -0.31069 v 0.250552 h 0.31069 v 1.673686 h 0.29565 V 72.98711 h 0.43095 z"
         style="text-align:end;text-anchor:end;stroke-width:0.264583"
         id="path19852" />
      <path
         d="m 103.72858,74.660796 h 0.92705 c 0.60633,0 0.85688,-0.295651 0.85688,-0.681501 0,-0.405894 -0.28061,-0.62638 -0.51613,-0.641413 v -0.02505 c 0.22048,-0.06013 0.41591,-0.205453 0.41591,-0.536181 0,-0.375828 -0.25055,-0.681501 -0.78673,-0.681501 h -0.89698 z m 0.31069,-0.275607 v -0.891965 h 0.63139 c 0.33574,0 0.5462,0.225497 0.5462,0.486071 0,0.225497 -0.15534,0.405894 -0.56123,0.405894 z m 0,-1.162561 v -0.851876 h 0.58629 c 0.34075,0 0.49108,0.180397 0.49108,0.405894 0,0.270596 -0.22048,0.445982 -0.5011,0.445982 z"
         style="text-align:end;text-anchor:end;stroke-width:0.264583"
         id="path19854" />
      <path
         d="m 106.5498,74.705895 c 0.33574,0 0.51112,-0.180397 0.57126,-0.305673 h 0.015 v 0.260574 h 0.29565 v -1.267792 c 0,-0.611347 -0.46603,-0.681501 -0.71157,-0.681501 -0.29064,0 -0.62137,0.10022 -0.7717,0.450993 l 0.28062,0.100221 c 0.0652,-0.140309 0.21923,-0.290641 0.50111,-0.290641 0.27184,0 0.40589,0.144068 0.40589,0.390861 v 0.01002 c 0,0.142815 -0.14532,0.130287 -0.49609,0.175387 -0.35704,0.04635 -0.74665,0.125276 -0.74665,0.566247 0,0.375828 0.29064,0.591302 0.65645,0.591302 z m 0.0451,-0.265585 c -0.23552,0 -0.4059,-0.105231 -0.4059,-0.310684 0,-0.225497 0.20546,-0.295651 0.43596,-0.325717 0.12528,-0.01503 0.46102,-0.05011 0.51113,-0.110243 v 0.270596 c 0,0.24053 -0.19042,0.476048 -0.54119,0.476048 z"
         style="text-align:end;text-anchor:end;stroke-width:0.264583"
         id="path19856" />
      <path
         d="m 108.80977,72.736558 h -0.4109 v -0.461016 h -0.29566 v 0.461016 h -0.29064 v 0.250552 h 0.29064 v 1.202648 c 0,0.33574 0.2706,0.496093 0.52115,0.496093 0.11025,0 0.1804,-0.02004 0.22049,-0.03508 l -0.0601,-0.265585 c -0.0251,0.005 -0.0651,0.01503 -0.13029,0.01503 -0.13029,0 -0.25556,-0.04009 -0.25556,-0.29064 V 72.98711 h 0.4109 z"
         style="text-align:end;text-anchor:end;stroke-width:0.264583"
         id="path19858" />
      <path
         d="m 110.0926,72.736558 h -0.41091 v -0.461016 h -0.29565 v 0.461016 h -0.29064 v 0.250552 h 0.29064 v 1.202648 c 0,0.33574 0.2706,0.496093 0.52115,0.496093 0.11024,0 0.18039,-0.02004 0.22048,-0.03508 l -0.0601,-0.265585 c -0.0251,0.005 -0.0651,0.01503 -0.13029,0.01503 -0.13028,0 -0.25556,-0.04009 -0.25556,-0.29064 V 72.98711 h 0.41091 z"
         style="text-align:end;text-anchor:end;stroke-width:0.264583"
         id="path19860" />
      <path
         d="m 111.32531,74.700884 c 0.39086,0 0.67649,-0.19543 0.76669,-0.48607 l -0.28563,-0.08018 c -0.0752,0.200442 -0.2493,0.300662 -0.48106,0.300662 -0.34702,0 -0.58629,-0.224244 -0.60007,-0.636401 h 1.39682 v -0.125276 c 0,-0.716579 -0.42593,-0.962119 -0.82682,-0.962119 -0.52115,0 -0.86691,0.410905 -0.86691,1.002207 0,0.591302 0.34075,0.987174 0.89698,0.987174 z m -0.60007,-1.157549 c 0.02,-0.29941 0.23176,-0.566248 0.57,-0.566248 0.32071,0 0.52616,0.24053 0.52616,0.566248 z"
         style="text-align:end;text-anchor:end;stroke-width:0.264583"
         id="path19862" />
      <path
         d="m 112.57306,74.660796 h 0.29565 v -1.217682 c 0,-0.260574 0.20545,-0.450993 0.48607,-0.450993 0.0789,0 0.16035,0.01503 0.18039,0.02004 v -0.300662 c -0.0338,-0.0025 -0.11149,-0.005 -0.15534,-0.005 -0.2305,0 -0.43095,0.130286 -0.5011,0.320706 h -0.02 v -0.29064 h -0.28562 z"
         style="text-align:end;text-anchor:end;stroke-width:0.264583"
         id="path19864" />
      <path
         d="m 113.88594,74.660796 h 0.29566 v -1.924238 h -0.29566 z m 0.15034,-2.244945 c 0.11525,0 0.21046,-0.0902 0.21046,-0.200441 0,-0.110243 -0.0952,-0.200442 -0.21046,-0.200442 -0.11526,0 -0.21047,0.0902 -0.21047,0.200442 0,0.110243 0.0952,0.200441 0.21047,0.200441 z"
         style="text-align:end;text-anchor:end;stroke-width:0.264583"
         id="path19866" />
      <path
         d="m 115.52956,74.700884 c 0.39086,0 0.67649,-0.19543 0.76669,-0.48607 l -0.28563,-0.08018 c -0.0752,0.200442 -0.2493,0.300662 -0.48106,0.300662 -0.34701,0 -0.58629,-0.224244 -0.60007,-0.636401 h 1.39683 v -0.125276 c 0,-0.716579 -0.42594,-0.962119 -0.82683,-0.962119 -0.52114,0 -0.86691,0.410905 -0.86691,1.002207 0,0.591302 0.34076,0.987174 0.89698,0.987174 z m -0.60007,-1.157549 c 0.02,-0.29941 0.23176,-0.566248 0.57,-0.566248 0.32071,0 0.52616,0.24053 0.52616,0.566248 z"
         style="text-align:end;text-anchor:end;stroke-width:0.264583"
         id="path19868" />
      <path
         d="m 118.14031,73.167507 c -0.0927,-0.273102 -0.30066,-0.456004 -0.6815,-0.456004 -0.4059,0 -0.70656,0.230507 -0.70656,0.556225 0,0.265585 0.15785,0.443476 0.51113,0.526159 l 0.3207,0.07516 c 0.19418,0.0451 0.28563,0.137804 0.28563,0.270596 0,0.165364 -0.17538,0.300662 -0.45099,0.300662 -0.24178,0 -0.39337,-0.103979 -0.44598,-0.310684 l -0.28062,0.07015 c 0.0689,0.32697 0.33824,0.501103 0.73161,0.501103 0.44724,0 0.75166,-0.244288 0.75166,-0.576269 0,-0.268091 -0.16787,-0.437213 -0.51113,-0.521148 l -0.28563,-0.07015 c -0.228,-0.05638 -0.33073,-0.132793 -0.33073,-0.280618 0,-0.165365 0.17539,-0.28563 0.41091,-0.28563 0.25807,0 0.36455,0.142815 0.41591,0.275607 z"
         style="text-align:end;text-anchor:end;stroke-width:0.264583"
         id="path19870" />
    </g>
    <path
       style="fill:none;stroke:#ff0000;stroke-width:0.265;stroke-linecap:butt;stroke-linejoin:miter;stroke-miterlimit:4;stroke-dasharray:none;stroke-opacity:1"
       d="m 109.25592,60.018508 h 0.75028 v -9.602133"
       id="path200-7-2-5"
       sodipodi:nodetypes="ccc" />
    <path
       style="fill:none;stroke:#ff0000;stroke-width:0.264999;stroke-linecap:butt;stroke-linejoin:miter;stroke-miterlimit:4;stroke-dasharray:none;stroke-opacity:1"
       d="m 119.22341,70.116023 h 0.75028 V 42.3 h -6.85663"
       id="path200-7-2-5-4"
       sodipodi:nodetypes="cccc" />
  </g>
</svg>
