<?xml version="1.0" encoding="UTF-8" standalone="no"?>
<svg
   xmlns:dc="http://purl.org/dc/elements/1.1/"
   xmlns:cc="http://creativecommons.org/ns#"
   xmlns:rdf="http://www.w3.org/1999/02/22-rdf-syntax-ns#"
   xmlns:svg="http://www.w3.org/2000/svg"
   xmlns="http://www.w3.org/2000/svg"
   xmlns:xlink="http://www.w3.org/1999/xlink"
   xmlns:sodipodi="http://sodipodi.sourceforge.net/DTD/sodipodi-0.dtd"
   xmlns:inkscape="http://www.inkscape.org/namespaces/inkscape"
   width="148mm"
   height="130mm"
   viewBox="0 0 148 130"
   version="1.1"
   id="svg8"
   inkscape:version="1.0.1 (3bc2e813f5, 2020-09-07)"
   sodipodi:docname="refman-28x.svg"
   inkscape:export-filename="/home/mntmn/code/reform-handbook/src/source/_static/illustrations/28-callouts.png"
   inkscape:export-xdpi="600.0954"
   inkscape:export-ydpi="600.0954">
  <defs
     id="defs2" />
  <sodipodi:namedview
     id="base"
     pagecolor="#ffffff"
     bordercolor="#666666"
     borderopacity="1.0"
     inkscape:pageopacity="0.0"
     inkscape:pageshadow="2"
     inkscape:zoom="1.979899"
     inkscape:cx="301.50336"
     inkscape:cy="260.51041"
     inkscape:document-units="mm"
     inkscape:current-layer="layer1"
     inkscape:document-rotation="0"
     showgrid="true"
     inkscape:window-width="2560"
     inkscape:window-height="1406"
     inkscape:window-x="0"
     inkscape:window-y="0"
     inkscape:window-maximized="1"
     inkscape:snap-global="false">
    <inkscape:grid
       type="xygrid"
       id="grid10"
       units="mm"
       spacingx="10"
       spacingy="10" />
  </sodipodi:namedview>
  <metadata
     id="metadata5">
    <rdf:RDF>
      <cc:Work
         rdf:about="">
        <dc:format>image/svg+xml</dc:format>
        <dc:type
           rdf:resource="http://purl.org/dc/dcmitype/StillImage" />
        <dc:title></dc:title>
      </cc:Work>
    </rdf:RDF>
  </metadata>
  <g
     inkscape:label="Layer 1"
     inkscape:groupmode="layer"
     id="layer1">
    <image
       sodipodi:absref="/home/mntmn/code/reform-handbook/src/source/_static/illustrations/28t.png"
       xlink:href="../_static/illustrations/28t.png"
       width="147.90559"
       height="78.660019"
       preserveAspectRatio="none"
       id="image2625"
       x="0.15884216"
       y="20.098196" />
    <g
       aria-label="CPU Module JTAG"
       id="text130-3-5-6"
       style="font-size:3.52777px;line-height:1.25;font-family:Inter;-inkscape-font-specification:Inter;stroke-width:0.264583">
      <path
         d="m 20.804141,8.2657304 c -0.09521,-0.5261589 -0.516137,-0.8368432 -1.032274,-0.8368432 -0.656446,0 -1.132494,0.5061147 -1.132494,1.3179027 0,0.811788 0.476048,1.3179031 1.132494,1.3179031 0.516137,0 0.937064,-0.3106846 1.032274,-0.8368435 h -0.310684 c -0.07517,0.3557836 -0.380839,0.546203 -0.72159,0.546203 -0.466026,0 -0.831832,-0.3607946 -0.831832,-1.0272626 0,-0.6664679 0.365806,-1.0272626 0.831832,-1.0272626 0.340751,0 0.646424,0.1904195 0.72159,0.5462031 z"
         style="stroke-width:0.264583"
         id="path7916" />
      <path
         d="m 21.305242,10.029615 h 0.310684 V 9.0925515 h 0.561237 c 0.597566,0 0.866909,-0.3633002 0.866909,-0.816799 0,-0.4534989 -0.269343,-0.811788 -0.87192,-0.811788 h -0.86691 z m 0.310684,-1.2126705 v -1.077373 h 0.546203 c 0.417169,0 0.57627,0.2280022 0.57627,0.536181 0,0.3081787 -0.159101,0.541192 -0.571258,0.541192 z"
         style="stroke-width:0.264583"
         id="path7918" />
      <path
         d="M 25.228884,7.4639645 V 9.162706 c 0,0.400883 -0.320707,0.6213686 -0.686512,0.6213686 -0.365806,0 -0.686513,-0.2204856 -0.686513,-0.6213686 V 7.4639645 H 23.545175 V 9.162706 c 0,0.5762693 0.456005,0.912009 0.997197,0.912009 0.541192,0 0.997196,-0.3357397 0.997196,-0.912009 V 7.4639645 Z"
         style="stroke-width:0.264583"
         id="path7920" />
      <path
         d="m 27.153111,7.4639645 v 2.5656505 h 0.29064 V 8.080322 h 0.02506 l 0.801766,1.949293 h 0.280618 l 0.801766,-1.949293 h 0.02506 v 1.949293 h 0.29064 V 7.4639645 h -0.370817 l -0.87192,2.1296907 h -0.03007 L 27.523927,7.4639645 Z"
         style="stroke-width:0.264583"
         id="path7922" />
      <path
         d="m 31.111824,10.069704 c 0.521148,0 0.871921,-0.3958722 0.871921,-0.9921856 0,-0.6013245 -0.350773,-0.9971964 -0.871921,-0.9971964 -0.521148,0 -0.87192,0.3958719 -0.87192,0.9971964 0,0.5963134 0.350772,0.9921856 0.87192,0.9921856 z m 0,-0.2655853 c -0.395872,0 -0.576269,-0.3407505 -0.576269,-0.7266003 0,-0.3858499 0.180397,-0.7316114 0.576269,-0.7316114 0.395872,0 0.576269,0.3457615 0.576269,0.7316114 0,0.3858498 -0.180397,0.7266003 -0.576269,0.7266003 z"
         style="stroke-width:0.264583"
         id="path7924" />
      <path
         d="m 33.161335,10.069704 c 0.370817,0 0.496093,-0.230508 0.561236,-0.3357398 h 0.03508 v 0.2956508 h 0.285629 V 7.4639645 h -0.295652 v 0.947086 h -0.02505 C 33.657428,8.3108297 33.542174,8.080322 33.166346,8.080322 c -0.48607,0 -0.82181,0.3858499 -0.82181,0.9921853 0,0.6113465 0.33574,0.9971967 0.816799,0.9971967 z m 0.04009,-0.2655853 c -0.370816,0 -0.561236,-0.3257174 -0.561236,-0.7366224 0,-0.405894 0.185409,-0.7215893 0.561236,-0.7215893 0.360795,0 0.551215,0.2906401 0.551215,0.7215893 0,0.4359602 -0.195431,0.7366224 -0.551215,0.7366224 z"
         style="stroke-width:0.264583"
         id="path7926" />
      <path
         d="m 35.837223,9.2428826 c 0,0.3607947 -0.275607,0.5261589 -0.496092,0.5261589 -0.245541,0 -0.420928,-0.1803974 -0.420928,-0.4610154 V 8.1053772 h -0.295651 v 1.222693 c 0,0.4910816 0.260574,0.7266008 0.621369,0.7266008 0.29064,0 0.481059,-0.1553426 0.571258,-0.350773 h 0.02004 v 0.325717 h 0.295651 V 8.1053772 h -0.295651 z"
         style="stroke-width:0.264583"
         id="path7928" />
      <path
         d="m 36.969714,7.4639645 h -0.295651 v 2.5656505 h 0.295651 z"
         style="stroke-width:0.264583"
         id="path7930" />
      <path
         d="m 38.31768,10.069704 c 0.390861,0 0.67649,-0.1954307 0.766688,-0.4860709 l -0.285629,-0.080177 c -0.07516,0.2004415 -0.249299,0.3006622 -0.481059,0.3006622 -0.347015,0 -0.586292,-0.2242439 -0.600072,-0.6364017 h 1.396827 V 9.0424411 c 0,-0.7165783 -0.425938,-0.9621191 -0.826821,-0.9621191 -0.521148,0 -0.86691,0.410905 -0.86691,1.0022074 0,0.5913024 0.340751,0.9871746 0.896976,0.9871746 z M 37.717608,8.9121542 c 0.02004,-0.2994095 0.231761,-0.5662472 0.570006,-0.5662472 0.320706,0 0.526158,0.2405297 0.526158,0.5662472 z"
         style="stroke-width:0.264583"
         id="path7932" />
      <path
         d="M 41.579858,7.4639645 V 9.298004 c 0,0.3194536 -0.152837,0.4910816 -0.420927,0.4910816 -0.244288,0 -0.420927,-0.1428145 -0.420927,-0.3607946 H 40.43233 c 0,0.3946191 0.305674,0.636402 0.726601,0.636402 0.445982,0 0.731611,-0.2743546 0.731611,-0.766689 V 7.4639645 Z"
         style="stroke-width:0.264583"
         id="path7934" />
      <path
         d="m 42.371595,7.7395715 h 0.806777 v 2.2900435 h 0.310684 V 7.7395715 h 0.806777 v -0.275607 h -1.924238 z"
         style="stroke-width:0.264583"
         id="path7936" />
      <path
         d="m 44.581455,10.029615 0.258068,-0.7266 h 1.037285 l 0.258068,0.7266 h 0.325718 L 45.518519,7.4639645 h -0.320707 l -0.942075,2.5656505 z m 0.355783,-1.002207 0.410906,-1.1575495 h 0.02004 l 0.410905,1.1575495 z"
         style="stroke-width:0.264583"
         id="path7938" />
      <path
         d="m 48.49507,8.2657304 h 0.320707 c -0.09521,-0.4960927 -0.511126,-0.8368432 -1.052318,-0.8368432 -0.657699,0 -1.122473,0.5061147 -1.122473,1.3179027 0,0.811788 0.461016,1.3179031 1.142517,1.3179031 0.611346,0 1.047307,-0.4071471 1.047307,-1.042296 V 8.7467899 H 47.853657 V 9.022397 h 0.67649 c -0.0088,0.4610154 -0.311937,0.7516555 -0.746644,0.7516555 -0.476049,0 -0.841854,-0.3607946 -0.841854,-1.0272626 0,-0.6664679 0.365805,-1.0272626 0.82181,-1.0272626 0.370816,0 0.622621,0.2092108 0.731611,0.5462031 z"
         style="stroke-width:0.264583"
         id="path7940" />
    </g>
    <path
       style="fill:none;stroke:#ff0000;stroke-width:0.265;stroke-linecap:butt;stroke-linejoin:miter;stroke-miterlimit:4;stroke-dasharray:none;stroke-opacity:1"
       d="m 49.386782,9.9782919 h 0.645567 l 0,30.7072951"
       id="path200"
       sodipodi:nodetypes="ccc" />
    <g
       aria-label="System Controller"
       id="text130-3-5-6-3"
       style="font-size:3.52777px;line-height:1.25;font-family:Inter;-inkscape-font-specification:Inter;stroke-width:0.264583">
      <path
         d="m 62.737124,118.08703 h 0.300663 c -0.01378,-0.3871 -0.370817,-0.67649 -0.86691,-0.67649 -0.491081,0 -0.876931,0.28563 -0.876931,0.71658 0,0.34576 0.250552,0.55121 0.651435,0.66647 l 0.315695,0.0902 c 0.270596,0.0752 0.511126,0.17037 0.511126,0.42593 0,0.28062 -0.270596,0.46603 -0.62638,0.46603 -0.305673,0 -0.576269,-0.1353 -0.601324,-0.42594 h -0.320707 c 0.03007,0.42093 0.370817,0.70656 0.922031,0.70656 0.591302,0 0.927042,-0.32572 0.927042,-0.74164 0,-0.48106 -0.456004,-0.6364 -0.721589,-0.70655 l -0.260574,-0.0702 c -0.19042,-0.0501 -0.496093,-0.15033 -0.496093,-0.42593 0,-0.24555 0.225497,-0.42594 0.566247,-0.42594 0.310684,0 0.546203,0.14782 0.576269,0.40088 z"
         style="stroke-width:0.264583"
         id="path7964" />
      <path
         d="m 63.724295,120.75791 c 0.270596,0 0.456004,-0.14031 0.566247,-0.43596 l 0.826821,-2.23492 h -0.320706 l -0.53117,1.53338 h -0.02004 l -0.53117,-1.53338 h -0.320707 l 0.711568,1.93426 -0.06514,0.1804 c -0.103979,0.28813 -0.24053,0.31569 -0.456004,0.26057 l -0.07517,0.26058 c 0.03007,0.015 0.115254,0.0351 0.215475,0.0351 z"
         style="stroke-width:0.264583"
         id="path7966" />
      <path
         d="m 66.871226,118.51798 c -0.0927,-0.2731 -0.300663,-0.456 -0.681501,-0.456 -0.405894,0 -0.706557,0.2305 -0.706557,0.55622 0,0.26559 0.157848,0.44348 0.511126,0.52616 l 0.320706,0.0752 c 0.194178,0.0451 0.28563,0.13781 0.28563,0.2706 0,0.16536 -0.175387,0.30066 -0.450994,0.30066 -0.241782,0 -0.393366,-0.10398 -0.445982,-0.31068 l -0.280618,0.0702 c 0.0689,0.32697 0.338245,0.50111 0.731611,0.50111 0.447235,0 0.751656,-0.24429 0.751656,-0.57627 0,-0.26809 -0.16787,-0.43722 -0.511126,-0.52115 l -0.285629,-0.0701 c -0.228002,-0.0564 -0.330728,-0.1328 -0.330728,-0.28062 0,-0.16537 0.175386,-0.28563 0.410905,-0.28563 0.258068,0 0.364552,0.14281 0.415916,0.27561 z"
         style="stroke-width:0.264583"
         id="path7968" />
      <path
         d="m 68.189124,118.08703 h -0.410905 v -0.46101 h -0.295651 v 0.46101 h -0.29064 v 0.25055 h 0.29064 v 1.20265 c 0,0.33574 0.270596,0.49609 0.521148,0.49609 0.110243,0 0.180397,-0.02 0.220486,-0.0351 l -0.06013,-0.26559 c -0.02505,0.005 -0.06514,0.015 -0.130287,0.015 -0.130287,0 -0.255563,-0.0401 -0.255563,-0.29064 v -1.12247 h 0.410905 z"
         style="stroke-width:0.264583"
         id="path7970" />
      <path
         d="m 69.421837,120.05136 c 0.390861,0 0.67649,-0.19543 0.766689,-0.48607 l -0.285629,-0.0802 c -0.07517,0.20044 -0.249299,0.30066 -0.48106,0.30066 -0.347014,0 -0.586291,-0.22424 -0.600071,-0.6364 h 1.396826 v -0.12528 c 0,-0.71657 -0.425938,-0.96211 -0.826821,-0.96211 -0.521148,0 -0.866909,0.4109 -0.866909,1.0022 0,0.5913 0.34075,0.98718 0.896975,0.98718 z m -0.600071,-1.15755 c 0.02004,-0.29941 0.23176,-0.56625 0.570005,-0.56625 0.320706,0 0.526159,0.24053 0.526159,0.56625 z"
         style="stroke-width:0.264583"
         id="path7972" />
      <path
         d="m 70.669585,120.01127 h 0.295651 v -1.20265 c 0,-0.28187 0.205452,-0.48106 0.43596,-0.48106 0.224244,0 0.380839,0.14657 0.380839,0.36581 v 1.3179 h 0.300662 v -1.25276 c 0,-0.24805 0.155342,-0.43095 0.425938,-0.43095 0.210464,0 0.390861,0.1115 0.390861,0.39587 v 1.28784 h 0.295651 v -1.28784 c 0,-0.45224 -0.243035,-0.66145 -0.586291,-0.66145 -0.275607,0 -0.477301,0.12652 -0.576269,0.32571 h -0.02004 c -0.09521,-0.20545 -0.26308,-0.32571 -0.516137,-0.32571 -0.250552,0 -0.43596,0.12026 -0.516137,0.32571 h -0.02506 v -0.30066 h -0.285629 z"
         style="stroke-width:0.264583"
         id="path7974" />
      <path
         d="m 76.833153,118.24738 c -0.09521,-0.52616 -0.516137,-0.83684 -1.032274,-0.83684 -0.656446,0 -1.132494,0.50612 -1.132494,1.3179 0,0.81179 0.476048,1.31791 1.132494,1.31791 0.516137,0 0.937064,-0.31069 1.032274,-0.83685 h -0.310685 c -0.07516,0.35579 -0.380839,0.54621 -0.721589,0.54621 -0.466026,0 -0.831832,-0.3608 -0.831832,-1.02727 0,-0.66646 0.365806,-1.02726 0.831832,-1.02726 0.34075,0 0.646424,0.19042 0.721589,0.5462 z"
         style="stroke-width:0.264583"
         id="path7976" />
      <path
         d="m 78.075887,120.05136 c 0.521148,0 0.87192,-0.39588 0.87192,-0.99219 0,-0.60132 -0.350772,-0.99719 -0.87192,-0.99719 -0.521148,0 -0.871921,0.39587 -0.871921,0.99719 0,0.59631 0.350773,0.99219 0.871921,0.99219 z m 0,-0.26559 c -0.395872,0 -0.576269,-0.34075 -0.576269,-0.7266 0,-0.38585 0.180397,-0.73161 0.576269,-0.73161 0.395872,0 0.576269,0.34576 0.576269,0.73161 0,0.38585 -0.180397,0.7266 -0.576269,0.7266 z"
         style="stroke-width:0.264583"
         id="path7978" />
      <path
         d="m 79.69445,118.85372 c 0,-0.33574 0.207958,-0.52616 0.491081,-0.52616 0.274355,0 0.440971,0.17914 0.440971,0.48106 v 1.20265 h 0.295652 v -1.22269 c 0,-0.49109 -0.261827,-0.7266 -0.651435,-0.7266 -0.29064,0 -0.471038,0.13028 -0.561236,0.32571 h -0.02506 v -0.30066 h -0.28563 v 1.92424 h 0.295652 z"
         style="stroke-width:0.264583"
         id="path7980" />
      <path
         d="m 82.300184,118.08703 h -0.410905 v -0.46101 h -0.295651 v 0.46101 h -0.29064 v 0.25055 h 0.29064 v 1.20265 c 0,0.33574 0.270596,0.49609 0.521148,0.49609 0.110243,0 0.180397,-0.02 0.220486,-0.0351 l -0.06013,-0.26559 c -0.02506,0.005 -0.06514,0.015 -0.130287,0.015 -0.130287,0 -0.255563,-0.0401 -0.255563,-0.29064 v -1.12247 h 0.410905 z"
         style="stroke-width:0.264583"
         id="path7982" />
      <path
         d="m 82.746165,120.01127 h 0.295651 v -1.21768 c 0,-0.25932 0.205452,-0.451 0.486071,-0.451 0.07391,0 0.129034,0.0138 0.170375,0.0351 l 0.100221,-0.25055 c -0.06013,-0.0426 -0.139057,-0.0702 -0.245541,-0.0702 -0.233013,0 -0.432202,0.13029 -0.501104,0.32071 h -0.02004 v -0.29064 h -0.285629 z"
         style="stroke-width:0.264583"
         id="path7984" />
      <path
         d="m 84.820729,120.05136 c 0.521148,0 0.871921,-0.39588 0.871921,-0.99219 0,-0.60132 -0.350773,-0.99719 -0.871921,-0.99719 -0.521147,0 -0.87192,0.39587 -0.87192,0.99719 0,0.59631 0.350773,0.99219 0.87192,0.99219 z m 0,-0.26559 c -0.395872,0 -0.576269,-0.34075 -0.576269,-0.7266 0,-0.38585 0.180397,-0.73161 0.576269,-0.73161 0.395872,0 0.57627,0.34576 0.57627,0.73161 0,0.38585 -0.180398,0.7266 -0.57627,0.7266 z"
         style="stroke-width:0.264583"
         id="path7986" />
      <path
         d="m 86.439292,117.44562 h -0.295651 v 2.56565 h 0.295651 z"
         style="stroke-width:0.264583"
         id="path7988" />
      <path
         d="m 87.276132,117.44562 h -0.295651 v 2.56565 h 0.295651 z"
         style="stroke-width:0.264583"
         id="path7990" />
      <path
         d="m 88.624097,120.05136 c 0.390861,0 0.67649,-0.19543 0.766689,-0.48607 l -0.285629,-0.0802 c -0.07517,0.20044 -0.249299,0.30066 -0.48106,0.30066 -0.347014,0 -0.586291,-0.22424 -0.600071,-0.6364 h 1.396826 v -0.12528 c 0,-0.71657 -0.425938,-0.96211 -0.826821,-0.96211 -0.521148,0 -0.866909,0.4109 -0.866909,1.0022 0,0.5913 0.34075,0.98718 0.896975,0.98718 z m -0.600071,-1.15755 c 0.02004,-0.29941 0.23176,-0.56625 0.570005,-0.56625 0.320706,0 0.526159,0.24053 0.526159,0.56625 z"
         style="stroke-width:0.264583"
         id="path7992" />
      <path
         d="m 89.871846,120.01127 h 0.295651 v -1.21768 c 0,-0.25932 0.205452,-0.451 0.48607,-0.451 0.07391,0 0.129035,0.0138 0.170376,0.0351 l 0.10022,-0.25055 c -0.06013,-0.0426 -0.139056,-0.0702 -0.24554,-0.0702 -0.233014,0 -0.432202,0.13029 -0.501104,0.32071 h -0.02004 v -0.29064 h -0.285629 z"
         style="stroke-width:0.264583"
         id="path7994" />
    </g>
    <path
       style="fill:none;stroke:#ff0000;stroke-width:0.264999;stroke-linecap:butt;stroke-linejoin:miter;stroke-miterlimit:4;stroke-dasharray:none;stroke-opacity:1"
       d="m 60.632899,119.99928 h -0.64557 V 80.003409"
       id="path200-7"
       sodipodi:nodetypes="ccc" />
    <g
       aria-label="Expansion Port"
       id="text130-3-5-6-3-5"
       style="font-size:3.52777px;line-height:1.25;font-family:Inter;-inkscape-font-specification:Inter;stroke-width:0.264583">
      <path
         d="m 81.283043,110.00238 h 1.568455 v -0.27561 h -1.257771 v -0.87192 h 1.15755 v -0.2756 h -1.15755 v -0.86691 h 1.237726 v -0.27561 h -1.54841 z"
         style="stroke-width:0.264583"
         id="path7997" />
      <path
         d="m 83.573086,108.07814 h -0.340751 l 0.611347,0.96212 -0.611347,0.96212 h 0.340751 l 0.461015,-0.74664 0.461016,0.74664 h 0.34075 l -0.621369,-0.96212 0.621369,-0.96212 h -0.34075 l -0.461016,0.78673 z"
         style="stroke-width:0.264583"
         id="path7999" />
      <path
         d="m 85.256792,110.72397 h 0.295651 v -1.01724 h 0.02506 c 0.06514,0.10523 0.190419,0.33574 0.561236,0.33574 0.48106,0 0.816799,-0.38585 0.816799,-0.9972 0,-0.60633 -0.335739,-0.99218 -0.82181,-0.99218 -0.375828,0 -0.491082,0.2305 -0.556225,0.33073 h -0.03508 v -0.30568 h -0.285629 z m 0.29064,-1.68371 c 0,-0.43095 0.190419,-0.72159 0.551214,-0.72159 0.375828,0 0.561236,0.3157 0.561236,0.72159 0,0.41091 -0.190419,0.73662 -0.561236,0.73662 -0.355784,0 -0.551214,-0.30066 -0.551214,-0.73662 z"
         style="stroke-width:0.264583"
         id="path8001" />
      <path
         d="m 87.972767,110.04748 c 0.33574,0 0.511126,-0.1804 0.571258,-0.30567 h 0.01503 v 0.26057 h 0.295652 v -1.26779 c 0,-0.61135 -0.466027,-0.6815 -0.711568,-0.6815 -0.29064,0 -0.621368,0.10022 -0.771699,0.45099 l 0.280618,0.10022 c 0.06514,-0.14031 0.219233,-0.29064 0.501103,-0.29064 0.271849,0 0.405894,0.14407 0.405894,0.39086 v 0.01 c 0,0.14282 -0.14532,0.13029 -0.496092,0.17539 -0.357037,0.0463 -0.746645,0.12528 -0.746645,0.56625 0,0.37583 0.29064,0.5913 0.656446,0.5913 z m 0.0451,-0.26559 c -0.235518,0 -0.405894,-0.10523 -0.405894,-0.31068 0,-0.2255 0.205453,-0.29565 0.435961,-0.32572 0.125276,-0.015 0.461015,-0.0501 0.511125,-0.11024 v 0.2706 c 0,0.24053 -0.190419,0.47604 -0.541192,0.47604 z"
         style="stroke-width:0.264583"
         id="path8003" />
      <path
         d="m 89.691548,108.84483 c 0,-0.33574 0.207958,-0.52616 0.491081,-0.52616 0.274354,0 0.440971,0.17915 0.440971,0.48106 v 1.20265 h 0.295652 v -1.22269 c 0,-0.49108 -0.261827,-0.7266 -0.651435,-0.7266 -0.29064,0 -0.471038,0.13028 -0.561236,0.32571 h -0.02505 v -0.30066 h -0.28563 v 1.92424 h 0.295652 z"
         style="stroke-width:0.264583"
         id="path8005" />
      <path
         d="m 92.823441,108.50909 c -0.0927,-0.2731 -0.300662,-0.456 -0.681501,-0.456 -0.405894,0 -0.706556,0.2305 -0.706556,0.55622 0,0.26559 0.157848,0.44348 0.511126,0.52616 l 0.320706,0.0752 c 0.194178,0.0451 0.285629,0.1378 0.285629,0.27059 0,0.16537 -0.175386,0.30066 -0.450993,0.30066 -0.241783,0 -0.393366,-0.10397 -0.445982,-0.31068 l -0.280618,0.0701 c 0.0689,0.32698 0.338245,0.50111 0.731611,0.50111 0.447235,0 0.751655,-0.24429 0.751655,-0.57627 0,-0.26809 -0.167869,-0.43721 -0.511125,-0.52115 l -0.285629,-0.0701 c -0.228003,-0.0564 -0.330729,-0.1328 -0.330729,-0.28062 0,-0.16537 0.175386,-0.28563 0.410905,-0.28563 0.258069,0 0.364553,0.14281 0.415916,0.27561 z"
         style="stroke-width:0.264583"
         id="path8007" />
      <path
         d="m 93.304497,110.00238 h 0.295651 v -1.92424 h -0.295651 z m 0.150331,-2.24494 c 0.115254,0 0.210464,-0.0902 0.210464,-0.20045 0,-0.11024 -0.09521,-0.20044 -0.210464,-0.20044 -0.115254,0 -0.210463,0.0902 -0.210463,0.20044 0,0.11025 0.09521,0.20045 0.210463,0.20045 z"
         style="stroke-width:0.264583"
         id="path8009" />
      <path
         d="m 94.923059,110.04247 c 0.521148,0 0.87192,-0.39587 0.87192,-0.99219 0,-0.60132 -0.350772,-0.99719 -0.87192,-0.99719 -0.521148,0 -0.871921,0.39587 -0.871921,0.99719 0,0.59632 0.350773,0.99219 0.871921,0.99219 z m 0,-0.26559 c -0.395872,0 -0.57627,-0.34075 -0.57627,-0.7266 0,-0.38585 0.180398,-0.73161 0.57627,-0.73161 0.395872,0 0.576269,0.34576 0.576269,0.73161 0,0.38585 -0.180397,0.7266 -0.576269,0.7266 z"
         style="stroke-width:0.264583"
         id="path8011" />
      <path
         d="m 96.54162,108.84483 c 0,-0.33574 0.207958,-0.52616 0.491082,-0.52616 0.274354,0 0.440971,0.17915 0.440971,0.48106 v 1.20265 h 0.295652 v -1.22269 c 0,-0.49108 -0.261827,-0.7266 -0.651435,-0.7266 -0.29064,0 -0.471038,0.13028 -0.561236,0.32571 h -0.02506 v -0.30066 h -0.285629 v 1.92424 h 0.295651 z"
         style="stroke-width:0.264583"
         id="path8013" />
      <path
         d="m 99.342779,110.00238 h 0.310685 v -0.93706 h 0.561236 c 0.59757,0 0.86691,-0.3633 0.86691,-0.8168 0,-0.4535 -0.26934,-0.81179 -0.87192,-0.81179 h -0.866911 z m 0.310685,-1.21267 v -1.07737 h 0.546206 c 0.41717,0 0.57627,0.228 0.57627,0.53618 0,0.30818 -0.1591,0.54119 -0.57126,0.54119 z"
         style="stroke-width:0.264583"
         id="path8015" />
      <path
         d="m 102.3043,110.04247 c 0.52115,0 0.87192,-0.39587 0.87192,-0.99219 0,-0.60132 -0.35077,-0.99719 -0.87192,-0.99719 -0.52115,0 -0.87192,0.39587 -0.87192,0.99719 0,0.59632 0.35077,0.99219 0.87192,0.99219 z m 0,-0.26559 c -0.39587,0 -0.57627,-0.34075 -0.57627,-0.7266 0,-0.38585 0.1804,-0.73161 0.57627,-0.73161 0.39587,0 0.57627,0.34576 0.57627,0.73161 0,0.38585 -0.1804,0.7266 -0.57627,0.7266 z"
         style="stroke-width:0.264583"
         id="path8017" />
      <path
         d="m 103.62721,110.00238 h 0.29565 v -1.21768 c 0,-0.26058 0.20545,-0.45099 0.48607,-0.45099 0.0789,0 0.16036,0.015 0.1804,0.02 v -0.30066 c -0.0338,-0.003 -0.1115,-0.005 -0.15534,-0.005 -0.23051,0 -0.43095,0.13028 -0.50111,0.3207 h -0.02 v -0.29064 h -0.28563 z"
         style="stroke-width:0.264583"
         id="path8019" />
      <path
         d="m 105.8972,108.07814 h -0.4109 v -0.46101 h -0.29565 v 0.46101 h -0.29064 v 0.25055 h 0.29064 v 1.20265 c 0,0.33574 0.27059,0.4961 0.52115,0.4961 0.11024,0 0.18039,-0.02 0.22048,-0.0351 l -0.0601,-0.26559 c -0.0251,0.005 -0.0652,0.015 -0.13029,0.015 -0.13029,0 -0.25556,-0.0401 -0.25556,-0.29064 v -1.12248 h 0.4109 z"
         style="stroke-width:0.264583"
         id="path8021" />
    </g>
    <path
       style="fill:none;stroke:#ff0000;stroke-width:0.264999;stroke-linecap:butt;stroke-linejoin:miter;stroke-miterlimit:4;stroke-dasharray:none;stroke-opacity:1"
       d="m 80.615316,110.01111 h -0.64557 l 0,-39.99365"
       id="path200-7-5"
       sodipodi:nodetypes="ccc" />
    <g
       aria-label="Battery Cell Monitor"
       id="text130-3-5-6-3-5-6"
       style="font-size:3.52777px;line-height:1.25;font-family:Inter;-inkscape-font-specification:Inter;stroke-width:0.264583">
      <path
         d="m 111.33247,119.97241 h 0.92704 c 0.60633,0 0.85689,-0.29565 0.85689,-0.6815 0,-0.40589 -0.28062,-0.62638 -0.51614,-0.64141 v -0.0251 c 0.22048,-0.0601 0.41591,-0.20545 0.41591,-0.53618 0,-0.37583 -0.25055,-0.6815 -0.78673,-0.6815 h -0.89697 z m 0.31068,-0.2756 v -0.89197 h 0.63139 c 0.33574,0 0.5462,0.2255 0.5462,0.48607 0,0.2255 -0.15534,0.4059 -0.56123,0.4059 z m 0,-1.16257 v -0.85187 h 0.58629 c 0.34075,0 0.49108,0.1804 0.49108,0.40589 0,0.2706 -0.22048,0.44598 -0.5011,0.44598 z"
         style="stroke-width:0.264583"
         id="path8024" />
      <path
         d="m 114.15368,120.01751 c 0.33574,0 0.51113,-0.1804 0.57126,-0.30567 h 0.015 v 0.26057 h 0.29565 v -1.26779 c 0,-0.61135 -0.46602,-0.6815 -0.71157,-0.6815 -0.29064,0 -0.62136,0.10022 -0.77169,0.45099 l 0.28061,0.10022 c 0.0652,-0.14031 0.21924,-0.29064 0.50111,-0.29064 0.27185,0 0.40589,0.14407 0.40589,0.39086 v 0.01 c 0,0.14281 -0.14532,0.13028 -0.49609,0.17538 -0.35704,0.0464 -0.74665,0.12528 -0.74665,0.56625 0,0.37583 0.29064,0.5913 0.65645,0.5913 z m 0.0451,-0.26558 c -0.23552,0 -0.4059,-0.10524 -0.4059,-0.31069 0,-0.22549 0.20546,-0.29565 0.43597,-0.32572 0.12527,-0.015 0.46101,-0.0501 0.51112,-0.11024 v 0.2706 c 0,0.24053 -0.19042,0.47605 -0.54119,0.47605 z"
         style="stroke-width:0.264583"
         id="path8026" />
      <path
         d="m 116.41365,118.04817 h -0.4109 v -0.46101 h -0.29565 v 0.46101 h -0.29064 v 0.25056 h 0.29064 v 1.20264 c 0,0.33574 0.27059,0.4961 0.52114,0.4961 0.11025,0 0.1804,-0.0201 0.22049,-0.0351 l -0.0601,-0.26558 c -0.0251,0.005 -0.0652,0.015 -0.13029,0.015 -0.13029,0 -0.25556,-0.0401 -0.25556,-0.29064 v -1.12247 h 0.4109 z"
         style="stroke-width:0.264583"
         id="path8028" />
      <path
         d="m 117.69648,118.04817 h -0.41091 v -0.46101 h -0.29565 v 0.46101 h -0.29064 v 0.25056 h 0.29064 v 1.20264 c 0,0.33574 0.2706,0.4961 0.52115,0.4961 0.11024,0 0.1804,-0.0201 0.22048,-0.0351 l -0.0601,-0.26558 c -0.025,0.005 -0.0651,0.015 -0.13029,0.015 -0.13028,0 -0.25556,-0.0401 -0.25556,-0.29064 v -1.12247 h 0.41091 z"
         style="stroke-width:0.264583"
         id="path8030" />
      <path
         d="m 118.92919,120.0125 c 0.39086,0 0.67649,-0.19543 0.76669,-0.48607 l -0.28563,-0.0802 c -0.0752,0.20044 -0.2493,0.30067 -0.48106,0.30067 -0.34701,0 -0.58629,-0.22425 -0.60007,-0.63641 h 1.39682 v -0.12527 c 0,-0.71658 -0.42593,-0.96212 -0.82682,-0.96212 -0.52114,0 -0.86691,0.4109 -0.86691,1.00221 0,0.5913 0.34075,0.98717 0.89698,0.98717 z m -0.60007,-1.15755 c 0.02,-0.29941 0.23176,-0.56625 0.57,-0.56625 0.32071,0 0.52616,0.24053 0.52616,0.56625 z"
         style="stroke-width:0.264583"
         id="path8032" />
      <path
         d="m 120.17694,119.97241 h 0.29565 v -1.21768 c 0,-0.26057 0.20545,-0.45099 0.48607,-0.45099 0.0789,0 0.16035,0.015 0.1804,0.02 v -0.30066 c -0.0338,-0.003 -0.1115,-0.005 -0.15535,-0.005 -0.2305,0 -0.43095,0.13028 -0.5011,0.3207 h -0.02 v -0.29064 h -0.28563 z"
         style="stroke-width:0.264583"
         id="path8034" />
      <path
         d="m 121.73035,120.71906 c 0.2706,0 0.456,-0.14031 0.56625,-0.43596 l 0.82682,-2.23493 h -0.32071 l -0.53117,1.53338 h -0.02 l -0.53117,-1.53338 h -0.32071 l 0.71157,1.93426 -0.0651,0.1804 c -0.10397,0.28814 -0.24053,0.3157 -0.456,0.26058 l -0.0752,0.26057 c 0.0301,0.015 0.11526,0.0351 0.21548,0.0351 z"
         style="stroke-width:0.264583"
         id="path8036" />
      <path
         d="m 126.61109,118.20853 c -0.0952,-0.52616 -0.51613,-0.83685 -1.03227,-0.83685 -0.65645,0 -1.1325,0.50612 -1.1325,1.31791 0,0.81178 0.47605,1.3179 1.1325,1.3179 0.51614,0 0.93706,-0.31068 1.03227,-0.83684 h -0.31068 c -0.0752,0.35578 -0.38084,0.5462 -0.72159,0.5462 -0.46603,0 -0.83183,-0.3608 -0.83183,-1.02726 0,-0.66647 0.3658,-1.02727 0.83183,-1.02727 0.34075,0 0.64642,0.19042 0.72159,0.54621 z"
         style="stroke-width:0.264583"
         id="path8038" />
      <path
         d="m 127.87888,120.0125 c 0.39086,0 0.67649,-0.19543 0.76669,-0.48607 l -0.28563,-0.0802 c -0.0752,0.20044 -0.2493,0.30067 -0.48106,0.30067 -0.34701,0 -0.58629,-0.22425 -0.60007,-0.63641 h 1.39683 v -0.12527 c 0,-0.71658 -0.42594,-0.96212 -0.82682,-0.96212 -0.52115,0 -0.86691,0.4109 -0.86691,1.00221 0,0.5913 0.34075,0.98717 0.89697,0.98717 z m -0.60007,-1.15755 c 0.0201,-0.29941 0.23176,-0.56625 0.57001,-0.56625 0.3207,0 0.52616,0.24053 0.52616,0.56625 z"
         style="stroke-width:0.264583"
         id="path8040" />
      <path
         d="m 129.42228,117.40676 h -0.29565 v 2.56565 h 0.29565 z"
         style="stroke-width:0.264583"
         id="path8042" />
      <path
         d="m 130.25912,117.40676 h -0.29565 v 2.56565 h 0.29565 z"
         style="stroke-width:0.264583"
         id="path8044" />
      <path
         d="m 131.83258,117.40676 v 2.56565 h 0.29064 v -1.94929 h 0.025 l 0.80177,1.94929 h 0.28062 l 0.80176,-1.94929 h 0.0251 v 1.94929 h 0.29064 v -2.56565 h -0.37082 l -0.87192,2.12969 h -0.0301 l -0.87192,-2.12969 z"
         style="stroke-width:0.264583"
         id="path8046" />
      <path
         d="m 135.79129,120.0125 c 0.52115,0 0.87192,-0.39587 0.87192,-0.99218 0,-0.60133 -0.35077,-0.9972 -0.87192,-0.9972 -0.52115,0 -0.87192,0.39587 -0.87192,0.9972 0,0.59631 0.35077,0.99218 0.87192,0.99218 z m 0,-0.26558 c -0.39587,0 -0.57627,-0.34076 -0.57627,-0.7266 0,-0.38585 0.1804,-0.73162 0.57627,-0.73162 0.39587,0 0.57627,0.34577 0.57627,0.73162 0,0.38584 -0.1804,0.7266 -0.57627,0.7266 z"
         style="stroke-width:0.264583"
         id="path8048" />
      <path
         d="m 137.40985,118.81486 c 0,-0.33574 0.20796,-0.52616 0.49108,-0.52616 0.27436,0 0.44098,0.17915 0.44098,0.48106 v 1.20265 h 0.29565 v -1.22269 c 0,-0.49108 -0.26183,-0.7266 -0.65144,-0.7266 -0.29064,0 -0.47104,0.13029 -0.56123,0.32572 h -0.0251 v -0.30067 h -0.28563 v 1.92424 h 0.29565 z"
         style="stroke-width:0.264583"
         id="path8050" />
      <path
         d="m 139.17874,119.97241 h 0.29565 v -1.92424 h -0.29565 z m 0.15033,-2.24494 c 0.11526,0 0.21047,-0.0902 0.21047,-0.20044 0,-0.11025 -0.0952,-0.20045 -0.21047,-0.20045 -0.11525,0 -0.21046,0.0902 -0.21046,0.20045 0,0.11024 0.0952,0.20044 0.21046,0.20044 z"
         style="stroke-width:0.264583"
         id="path8052" />
      <path
         d="m 140.85243,118.04817 h -0.41091 v -0.46101 h -0.29565 v 0.46101 h -0.29064 v 0.25056 h 0.29064 v 1.20264 c 0,0.33574 0.2706,0.4961 0.52115,0.4961 0.11024,0 0.1804,-0.0201 0.22048,-0.0351 l -0.0601,-0.26558 c -0.025,0.005 -0.0651,0.015 -0.13029,0.015 -0.13028,0 -0.25556,-0.0401 -0.25556,-0.29064 v -1.12247 h 0.41091 z"
         style="stroke-width:0.264583"
         id="path8054" />
      <path
         d="m 142.06008,120.0125 c 0.52115,0 0.87192,-0.39587 0.87192,-0.99218 0,-0.60133 -0.35077,-0.9972 -0.87192,-0.9972 -0.52114,0 -0.87192,0.39587 -0.87192,0.9972 0,0.59631 0.35078,0.99218 0.87192,0.99218 z m 0,-0.26558 c -0.39587,0 -0.57626,-0.34076 -0.57626,-0.7266 0,-0.38585 0.18039,-0.73162 0.57626,-0.73162 0.39588,0 0.57627,0.34577 0.57627,0.73162 0,0.38584 -0.18039,0.7266 -0.57627,0.7266 z"
         style="stroke-width:0.264583"
         id="path8056" />
      <path
         d="m 143.383,119.97241 h 0.29565 v -1.21768 c 0,-0.25932 0.20545,-0.45099 0.48607,-0.45099 0.0739,0 0.12903,0.0138 0.17037,0.0351 l 0.10022,-0.25055 c -0.0601,-0.0426 -0.13905,-0.0702 -0.24554,-0.0702 -0.23301,0 -0.4322,0.13028 -0.5011,0.3207 h -0.02 v -0.29064 H 143.383 Z"
         style="stroke-width:0.264583"
         id="path8058" />
    </g>
    <path
       style="fill:none;stroke:#ff0000;stroke-width:0.264999;stroke-linecap:butt;stroke-linejoin:miter;stroke-miterlimit:4;stroke-dasharray:none;stroke-opacity:1"
       d="m 110.66474,120.02202 h -0.64557 l 0,-39.995471"
       id="path200-7-5-9"
       sodipodi:nodetypes="ccc" />
    <g
       aria-label="SYSCTL Port"
       id="text130-3-5-6-2"
       style="font-size:3.52777px;line-height:1.25;font-family:Inter;-inkscape-font-specification:Inter;stroke-width:0.264583">
      <path
         d="m 62.754374,8.0779285 h 0.300663 c -0.01378,-0.3871026 -0.370817,-0.67649 -0.86691,-0.67649 -0.491081,0 -0.876931,0.2856292 -0.876931,0.7165783 0,0.3457616 0.250552,0.5512141 0.651435,0.666468 l 0.315695,0.090199 c 0.270596,0.075166 0.511126,0.1703753 0.511126,0.4259382 0,0.280618 -0.270596,0.4660264 -0.62638,0.4660264 -0.305673,0 -0.576269,-0.135298 -0.601324,-0.4259381 h -0.320707 c 0.03007,0.4209271 0.370817,0.7065561 0.922031,0.7065561 0.591302,0 0.927042,-0.3257173 0.927042,-0.7416334 0,-0.4810595 -0.456004,-0.6364017 -0.721589,-0.7065562 l -0.260574,-0.070154 c -0.19042,-0.05011 -0.496093,-0.1503311 -0.496093,-0.4259382 0,-0.2455408 0.225497,-0.4259381 0.566247,-0.4259381 0.310685,0 0.546203,0.1478256 0.576269,0.4008829 z"
         style="stroke-width:0.264583"
         id="path7943" />
      <path
         d="m 63.38075,7.4365158 0.927042,1.5083221 v 1.0573291 h 0.310684 V 8.9448379 l 0.927042,-1.5083221 h -0.355783 l -0.711568,1.1976378 h -0.03007 L 63.736534,7.4365158 Z"
         style="stroke-width:0.264583"
         id="path7945" />
      <path
         d="m 67.349489,8.0779285 h 0.300662 c -0.01378,-0.3871026 -0.370816,-0.67649 -0.866909,-0.67649 -0.491082,0 -0.876931,0.2856292 -0.876931,0.7165783 0,0.3457616 0.250551,0.5512141 0.651434,0.666468 l 0.315696,0.090199 c 0.270596,0.075166 0.511125,0.1703753 0.511125,0.4259382 0,0.280618 -0.270596,0.4660264 -0.626379,0.4660264 -0.305673,0 -0.576269,-0.135298 -0.601325,-0.4259381 h -0.320706 c 0.03007,0.4209271 0.370817,0.7065561 0.922031,0.7065561 0.591302,0 0.927042,-0.3257173 0.927042,-0.7416334 0,-0.4810595 -0.456005,-0.6364017 -0.72159,-0.7065562 l -0.260574,-0.070154 c -0.190419,-0.05011 -0.496092,-0.1503311 -0.496092,-0.4259382 0,-0.2455408 0.225496,-0.4259381 0.566247,-0.4259381 0.310684,0 0.546203,0.1478256 0.576269,0.4008829 z"
         style="stroke-width:0.264583"
         id="path7947" />
      <path
         d="m 70.260898,8.2382817 c -0.09521,-0.5261589 -0.516137,-0.8368432 -1.032274,-0.8368432 -0.656446,0 -1.132494,0.5061148 -1.132494,1.3179028 0,0.811788 0.476048,1.3179027 1.132494,1.3179027 0.516137,0 0.937064,-0.3106843 1.032274,-0.8368432 h -0.310684 c -0.07517,0.3557837 -0.380839,0.5462031 -0.72159,0.5462031 -0.466026,0 -0.831832,-0.3607947 -0.831832,-1.0272626 0,-0.6664679 0.365806,-1.0272626 0.831832,-1.0272626 0.340751,0 0.646424,0.1904194 0.72159,0.546203 z"
         style="stroke-width:0.264583"
         id="path7949" />
      <path
         d="m 70.62169,7.7121228 h 0.806777 v 2.2900442 h 0.310684 V 7.7121228 h 0.806777 V 7.4365158 H 70.62169 Z"
         style="stroke-width:0.264583"
         id="path7951" />
      <path
         d="m 73.026983,10.002167 h 1.503311 V 9.7265597 H 73.337668 V 7.4365158 h -0.310685 z"
         style="stroke-width:0.264583"
         id="path7953" />
      <path
         d="M 76.003526,10.002167 H 76.31421 V 9.0651028 h 0.561236 c 0.597566,0 0.86691,-0.3633002 0.86691,-0.816799 0,-0.4534988 -0.269344,-0.811788 -0.871921,-0.811788 H 76.003526 Z M 76.31421,8.7894958 v -1.077373 h 0.546203 c 0.417169,0 0.576269,0.2280022 0.576269,0.536181 0,0.3081788 -0.1591,0.541192 -0.571258,0.541192 z"
         style="stroke-width:0.264583"
         id="path7955" />
      <path
         d="m 78.965047,10.042255 c 0.521148,0 0.87192,-0.3958719 0.87192,-0.9921853 0,-0.6013244 -0.350772,-0.9971963 -0.87192,-0.9971963 -0.521148,0 -0.87192,0.3958719 -0.87192,0.9971963 0,0.5963134 0.350772,0.9921853 0.87192,0.9921853 z m 0,-0.2655849 c -0.395872,0 -0.576269,-0.3407505 -0.576269,-0.7266004 0,-0.3858498 0.180397,-0.7316114 0.576269,-0.7316114 0.395872,0 0.576269,0.3457616 0.576269,0.7316114 0,0.3858499 -0.180397,0.7266004 -0.576269,0.7266004 z"
         style="stroke-width:0.264583"
         id="path7957" />
      <path
         d="M 80.287959,10.002167 H 80.58361 V 8.7844848 c 0,-0.260574 0.205452,-0.4509934 0.48607,-0.4509934 0.07892,0 0.160354,0.015033 0.180398,0.020044 V 8.0528734 c -0.03383,-0.00251 -0.111496,-0.00501 -0.155342,-0.00501 -0.230508,0 -0.43095,0.130287 -0.501104,0.3207064 h -0.02004 V 8.0779285 h -0.285629 z"
         style="stroke-width:0.264583"
         id="path7959" />
      <path
         d="M 82.557951,8.0779285 H 82.147046 V 7.6169131 h -0.295651 v 0.4610154 h -0.29064 v 0.2505519 h 0.29064 v 1.2026489 c 0,0.3357394 0.270596,0.4960927 0.521148,0.4960927 0.110243,0 0.180397,-0.02004 0.220485,-0.035077 l -0.06013,-0.265585 c -0.02505,0.00501 -0.06514,0.015033 -0.130287,0.015033 -0.130287,0 -0.255563,-0.040088 -0.255563,-0.2906401 V 8.3284804 h 0.410905 z"
         style="stroke-width:0.264583"
         id="path7961" />
    </g>
    <path
       style="fill:none;stroke:#ff0000;stroke-width:0.264999;stroke-linecap:butt;stroke-linejoin:miter;stroke-miterlimit:4;stroke-dasharray:none;stroke-opacity:1"
       d="m 60.56657,10.017659 h -0.645565 v 37.58518"
       id="path200-0"
       sodipodi:nodetypes="ccc" />
  </g>
</svg>
