<?xml version="1.0" encoding="UTF-8" standalone="no"?>
<svg
   xmlns:dc="http://purl.org/dc/elements/1.1/"
   xmlns:cc="http://creativecommons.org/ns#"
   xmlns:rdf="http://www.w3.org/1999/02/22-rdf-syntax-ns#"
   xmlns:svg="http://www.w3.org/2000/svg"
   xmlns="http://www.w3.org/2000/svg"
   xmlns:xlink="http://www.w3.org/1999/xlink"
   xmlns:sodipodi="http://sodipodi.sourceforge.net/DTD/sodipodi-0.dtd"
   xmlns:inkscape="http://www.inkscape.org/namespaces/inkscape"
   width="148mm"
   height="110mm"
   viewBox="0 0 148 110"
   version="1.1"
   id="svg8"
   inkscape:version="1.0.1 (3bc2e813f5, 2020-09-07)"
   sodipodi:docname="refman-8-1x.svg"
   inkscape:export-filename="/home/mntmn/code/reform-handbook/src/source/_static/illustrations/8-1-callouts.png"
   inkscape:export-xdpi="600.0954"
   inkscape:export-ydpi="600.0954">
  <defs
     id="defs2" />
  <sodipodi:namedview
     id="base"
     pagecolor="#ffffff"
     bordercolor="#666666"
     borderopacity="1.0"
     inkscape:pageopacity="0.0"
     inkscape:pageshadow="2"
     inkscape:zoom="1.4"
     inkscape:cx="462.17589"
     inkscape:cy="389.54938"
     inkscape:document-units="mm"
     inkscape:current-layer="layer1"
     inkscape:document-rotation="0"
     showgrid="true"
     inkscape:window-width="2560"
     inkscape:window-height="1406"
     inkscape:window-x="0"
     inkscape:window-y="0"
     inkscape:window-maximized="1"
     inkscape:snap-global="false">
    <inkscape:grid
       type="xygrid"
       id="grid10"
       units="mm"
       spacingx="10"
       spacingy="10" />
  </sodipodi:namedview>
  <metadata
     id="metadata5">
    <rdf:RDF>
      <cc:Work
         rdf:about="">
        <dc:format>image/svg+xml</dc:format>
        <dc:type
           rdf:resource="http://purl.org/dc/dcmitype/StillImage" />
        <dc:title></dc:title>
      </cc:Work>
    </rdf:RDF>
  </metadata>
  <g
     inkscape:label="Layer 1"
     inkscape:groupmode="layer"
     id="layer1">
    <image
       sodipodi:absref="/home/mntmn/code/reform-handbook/src/source/_static/illustrations/8.png"
       xlink:href="../_static/illustrations/8.png"
       y="9.792778"
       x="10"
       id="image1964"
       preserveAspectRatio="none"
       height="82.713081"
       width="130.2075" />
    <g
       aria-label="Optical Motion Sensor"
       id="text130-3-5-6"
       style="font-size:3.52777px;line-height:1.25;font-family:Inter;-inkscape-font-specification:Inter;stroke-width:0.264583">
      <path
         d="m 24.686645,8.6875648 c 0,-0.8117879 -0.476048,-1.3179027 -1.132494,-1.3179027 -0.656446,0 -1.132494,0.5061148 -1.132494,1.3179027 0,0.811788 0.476048,1.3179032 1.132494,1.3179032 0.656446,0 1.132494,-0.5061152 1.132494,-1.3179032 z m -0.300662,0 c 0,0.666468 -0.365806,1.0272626 -0.831832,1.0272626 -0.466026,0 -0.831832,-0.3607946 -0.831832,-1.0272626 0,-0.6664679 0.365806,-1.0272625 0.831832,-1.0272625 0.466026,0 0.831832,0.3607946 0.831832,1.0272625 z"
         style="stroke-width:0.264583"
         id="path15888" />
      <path
         d="M 25.167699,10.69198 H 25.46335 V 9.6747391 h 0.02506 c 0.06514,0.1052318 0.190419,0.3357399 0.561236,0.3357399 0.481059,0 0.816799,-0.3858502 0.816799,-0.9971967 0,-0.6063355 -0.33574,-0.9921854 -0.82181,-0.9921854 -0.375828,0 -0.491082,0.2305077 -0.556225,0.3307285 h -0.03508 V 8.0461521 h -0.285629 z m 0.29064,-1.6837088 c 0,-0.4309492 0.19042,-0.7215893 0.551215,-0.7215893 0.375827,0 0.561236,0.3156953 0.561236,0.7215893 0,0.4109051 -0.19042,0.7366225 -0.561236,0.7366225 -0.355784,0 -0.551215,-0.3006623 -0.551215,-0.7366225 z"
         style="stroke-width:0.264583"
         id="path15890" />
      <path
         d="M 28.15427,8.0461521 H 27.743365 V 7.5851367 h -0.295651 v 0.4610154 h -0.29064 V 8.296704 h 0.29064 v 1.2026488 c 0,0.3357395 0.270596,0.4960927 0.521148,0.4960927 0.110243,0 0.180397,-0.020044 0.220486,-0.035077 l -0.06013,-0.2655849 c -0.02505,0.00501 -0.06514,0.015033 -0.130287,0.015033 -0.130287,0 -0.255563,-0.040088 -0.255563,-0.2906401 V 8.296704 h 0.410905 z"
         style="stroke-width:0.264583"
         id="path15892" />
      <path
         d="m 28.600252,9.9703903 h 0.295651 V 8.0461521 h -0.295651 z m 0.150331,-2.2449446 c 0.115254,0 0.210463,-0.090199 0.210463,-0.2004414 0,-0.1102428 -0.09521,-0.2004415 -0.210463,-0.2004415 -0.115254,0 -0.210464,0.090199 -0.210464,0.2004415 0,0.1102428 0.09521,0.2004414 0.210464,0.2004414 z"
         style="stroke-width:0.264583"
         id="path15894" />
      <path
         d="m 30.218814,10.010479 c 0.425938,0 0.706556,-0.2605743 0.756666,-0.6013248 h -0.295651 c -0.05512,0.2104635 -0.230508,0.3357395 -0.461015,0.3357395 -0.350773,0 -0.57627,-0.2906402 -0.57627,-0.7366225 0,-0.4359602 0.230508,-0.7215893 0.57627,-0.7215893 0.260573,0 0.415916,0.1603532 0.461015,0.3357395 H 30.97548 C 30.92537,8.2616267 30.619697,8.0210969 30.213803,8.0210969 c -0.521148,0 -0.86691,0.4109051 -0.86691,0.9971964 0,0.5762692 0.330729,0.9921857 0.871921,0.9921857 z"
         style="stroke-width:0.264583"
         id="path15896" />
      <path
         d="m 31.972671,10.01549 c 0.33574,0 0.511126,-0.1803977 0.571258,-0.3056736 h 0.01503 v 0.2605739 h 0.295651 V 8.702598 c 0,-0.6113466 -0.466027,-0.6815011 -0.711568,-0.6815011 -0.29064,0 -0.621368,0.1002208 -0.771699,0.4509934 l 0.280618,0.1002207 c 0.06514,-0.140309 0.219233,-0.2906401 0.501104,-0.2906401 0.271848,0 0.405894,0.1440673 0.405894,0.3908608 v 0.010022 c 0,0.1428146 -0.145321,0.130287 -0.496093,0.1753863 -0.357037,0.046352 -0.746645,0.1252759 -0.746645,0.5662472 0,0.3758278 0.29064,0.5913027 0.656446,0.5913027 z m 0.0451,-0.2655853 c -0.235519,0 -0.405894,-0.1052318 -0.405894,-0.3106843 0,-0.2254967 0.205452,-0.2956512 0.43596,-0.3257174 0.125276,-0.015033 0.461015,-0.05011 0.511126,-0.1102428 v 0.270596 c 0,0.2405298 -0.19042,0.4760485 -0.541192,0.4760485 z"
         style="stroke-width:0.264583"
         id="path15898" />
      <path
         d="M 33.691451,7.4047394 H 33.3958 v 2.5656509 h 0.295651 z"
         style="stroke-width:0.264583"
         id="path15900" />
      <path
         d="m 35.264908,7.4047394 v 2.5656509 h 0.29064 V 8.0210969 h 0.02506 l 0.801766,1.9492934 h 0.280618 l 0.801766,-1.9492934 h 0.02505 v 1.9492934 h 0.29064 V 7.4047394 h -0.370816 l -0.871921,2.1296907 h -0.03007 l -0.87192,-2.1296907 z"
         style="stroke-width:0.264583"
         id="path15902" />
      <path
         d="m 39.223621,10.010479 c 0.521147,0 0.87192,-0.3958723 0.87192,-0.9921857 0,-0.6013244 -0.350773,-0.9971964 -0.87192,-0.9971964 -0.521148,0 -0.871921,0.395872 -0.871921,0.9971964 0,0.5963134 0.350773,0.9921857 0.871921,0.9921857 z m 0,-0.2655853 c -0.395872,0 -0.57627,-0.3407506 -0.57627,-0.7266004 0,-0.3858499 0.180398,-0.7316114 0.57627,-0.7316114 0.395871,0 0.576269,0.3457615 0.576269,0.7316114 0,0.3858498 -0.180398,0.7266004 -0.576269,0.7266004 z"
         style="stroke-width:0.264583"
         id="path15904" />
      <path
         d="M 41.383375,8.0461521 H 40.97247 V 7.5851367 h -0.295651 v 0.4610154 h -0.29064 V 8.296704 h 0.29064 v 1.2026488 c 0,0.3357395 0.270596,0.4960927 0.521148,0.4960927 0.110243,0 0.180397,-0.020044 0.220486,-0.035077 L 41.35832,9.6947833 c -0.02506,0.00501 -0.06514,0.015033 -0.130287,0.015033 -0.130287,0 -0.255563,-0.040088 -0.255563,-0.2906401 V 8.296704 h 0.410905 z"
         style="stroke-width:0.264583"
         id="path15906" />
      <path
         d="m 41.829356,9.9703903 h 0.295651 V 8.0461521 h -0.295651 z m 0.150331,-2.2449446 c 0.115254,0 0.210463,-0.090199 0.210463,-0.2004414 0,-0.1102428 -0.09521,-0.2004415 -0.210463,-0.2004415 -0.115254,0 -0.210464,0.090199 -0.210464,0.2004415 0,0.1102428 0.09521,0.2004414 0.210464,0.2004414 z"
         style="stroke-width:0.264583"
         id="path15908" />
      <path
         d="m 43.447917,10.010479 c 0.521148,0 0.871921,-0.3958723 0.871921,-0.9921857 0,-0.6013244 -0.350773,-0.9971964 -0.871921,-0.9971964 -0.521148,0 -0.87192,0.395872 -0.87192,0.9971964 0,0.5963134 0.350772,0.9921857 0.87192,0.9921857 z m 0,-0.2655853 c -0.395872,0 -0.576269,-0.3407506 -0.576269,-0.7266004 0,-0.3858499 0.180397,-0.7316114 0.576269,-0.7316114 0.395872,0 0.576269,0.3457615 0.576269,0.7316114 0,0.3858498 -0.180397,0.7266004 -0.576269,0.7266004 z"
         style="stroke-width:0.264583"
         id="path15910" />
      <path
         d="m 45.06648,8.8128408 c 0,-0.3357395 0.207958,-0.5261589 0.491082,-0.5261589 0.274354,0 0.440971,0.1791446 0.440971,0.4810595 v 1.2026489 h 0.295651 v -1.222693 c 0,-0.4910816 -0.261827,-0.7266004 -0.651435,-0.7266004 -0.29064,0 -0.471037,0.130287 -0.561236,0.3257174 h -0.02506 V 8.0461521 h -0.285629 v 1.9242382 h 0.295651 z"
         style="stroke-width:0.264583"
         id="path15912" />
      <path
         d="m 49.270728,8.0461521 h 0.300662 c -0.01378,-0.3871026 -0.370816,-0.67649 -0.866909,-0.67649 -0.491082,0 -0.876932,0.2856291 -0.876932,0.7165783 0,0.3457616 0.250552,0.5512141 0.651435,0.6664679 l 0.315696,0.090199 c 0.270596,0.075166 0.511125,0.1703753 0.511125,0.4259381 0,0.2806181 -0.270596,0.4660265 -0.626379,0.4660265 -0.305674,0 -0.57627,-0.135298 -0.601325,-0.4259382 h -0.320706 c 0.03007,0.4209271 0.370817,0.7065566 0.922031,0.7065566 0.591302,0 0.927042,-0.3257178 0.927042,-0.7416338 0,-0.4810596 -0.456005,-0.6364017 -0.72159,-0.7065562 l -0.260574,-0.070155 c -0.190419,-0.05011 -0.496092,-0.1503311 -0.496092,-0.4259381 0,-0.2455408 0.225496,-0.4259381 0.566247,-0.4259381 0.310684,0 0.546203,0.1478255 0.576269,0.4008829 z"
         style="stroke-width:0.264583"
         id="path15914" />
      <path
         d="m 50.884279,10.010479 c 0.390861,0 0.67649,-0.1954308 0.766688,-0.486071 l -0.285629,-0.080177 c -0.07516,0.2004415 -0.249299,0.3006623 -0.481059,0.3006623 -0.347015,0 -0.586292,-0.224244 -0.600072,-0.6364017 h 1.396827 V 8.983216 c 0,-0.7165783 -0.425939,-0.9621191 -0.826822,-0.9621191 -0.521147,0 -0.866909,0.4109051 -0.866909,1.0022074 0,0.5913024 0.340751,0.9871747 0.896976,0.9871747 z M 50.284207,8.8529291 c 0.02004,-0.2994095 0.23176,-0.5662472 0.570005,-0.5662472 0.320707,0 0.526159,0.2405298 0.526159,0.5662472 z"
         style="stroke-width:0.264583"
         id="path15916" />
      <path
         d="m 52.427676,8.8128408 c 0,-0.3357395 0.207958,-0.5261589 0.491082,-0.5261589 0.274354,0 0.440971,0.1791446 0.440971,0.4810595 v 1.2026489 h 0.295651 v -1.222693 c 0,-0.4910816 -0.261826,-0.7266004 -0.651434,-0.7266004 -0.29064,0 -0.471038,0.130287 -0.561236,0.3257174 h -0.02506 V 8.0461521 h -0.285629 v 1.9242382 h 0.295651 z"
         style="stroke-width:0.264583"
         id="path15918" />
      <path
         d="m 55.55957,8.4771013 c -0.0927,-0.2731015 -0.300662,-0.4560044 -0.681501,-0.4560044 -0.405894,0 -0.706556,0.2305077 -0.706556,0.5562251 0,0.265585 0.157847,0.4434768 0.511126,0.5261589 l 0.320706,0.075166 c 0.194178,0.045099 0.285629,0.1378035 0.285629,0.270596 0,0.1653642 -0.175386,0.3006622 -0.450993,0.3006622 -0.241783,0 -0.393367,-0.103979 -0.445983,-0.3106843 l -0.280618,0.070154 c 0.0689,0.3269702 0.338245,0.5011041 0.731612,0.5011041 0.447235,0 0.751655,-0.2442884 0.751655,-0.5762696 0,-0.2680905 -0.167869,-0.437213 -0.511125,-0.5211479 L 54.797892,8.842907 C 54.56989,8.7865328 54.467164,8.7101145 54.467164,8.5622889 c 0,-0.1653642 0.175386,-0.2856291 0.410905,-0.2856291 0.258068,0 0.364553,0.1428146 0.415916,0.2756071 z"
         style="stroke-width:0.264583"
         id="path15920" />
      <path
         d="m 56.822349,10.010479 c 0.521148,0 0.87192,-0.3958723 0.87192,-0.9921857 0,-0.6013244 -0.350772,-0.9971964 -0.87192,-0.9971964 -0.521148,0 -0.871921,0.395872 -0.871921,0.9971964 0,0.5963134 0.350773,0.9921857 0.871921,0.9921857 z m 0,-0.2655853 c -0.395872,0 -0.57627,-0.3407506 -0.57627,-0.7266004 0,-0.3858499 0.180398,-0.7316114 0.57627,-0.7316114 0.395872,0 0.576269,0.3457615 0.576269,0.7316114 0,0.3858498 -0.180397,0.7266004 -0.576269,0.7266004 z"
         style="stroke-width:0.264583"
         id="path15922" />
      <path
         d="m 58.145256,9.9703903 h 0.295652 v -1.217682 c 0,-0.2593211 0.205452,-0.4509933 0.48607,-0.4509933 0.07391,0 0.129034,0.01378 0.170376,0.035077 l 0.10022,-0.2505519 c -0.06013,-0.042594 -0.139056,-0.070154 -0.245541,-0.070154 -0.233013,0 -0.432201,0.130287 -0.501103,0.3207064 h -0.02004 V 8.0461521 h -0.28563 z"
         style="stroke-width:0.264583"
         id="path15924" />
    </g>
    <path
       style="fill:none;stroke:red;stroke-width:0.265;stroke-linecap:butt;stroke-linejoin:miter;stroke-miterlimit:4;stroke-dasharray:none;stroke-opacity:1"
       d="m 59.355855,9.8916543 h 0.645567 l 0,17.9387817"
       id="path200"
       sodipodi:nodetypes="ccc" />
    <g
       aria-label="USB Port"
       id="text130-3-5-6-3"
       style="font-size:3.52777px;line-height:1.25;font-family:Inter;-inkscape-font-specification:Inter;stroke-width:0.264583">
      <path
         d="m 5.4110089,77.458466 v 1.698741 c 0,0.400883 -0.3207063,0.621369 -0.686512,0.621369 -0.3658057,0 -0.6865121,-0.220486 -0.6865121,-0.621369 V 77.458466 H 3.7273005 v 1.698741 c 0,0.576269 0.4560044,0.912009 0.9971964,0.912009 0.541192,0 0.9971963,-0.33574 0.9971963,-0.912009 v -1.698741 z"
         style="stroke-width:0.264583"
         id="path15988" />
      <path
         d="m 7.7461478,78.099878 h 0.3006623 c -0.01378,-0.387102 -0.3708168,-0.67649 -0.8669094,-0.67649 -0.4910817,0 -0.8769315,0.285629 -0.8769315,0.716579 0,0.345761 0.2505518,0.551214 0.6514348,0.666468 l 0.3156953,0.0902 c 0.270596,0.07517 0.5111258,0.170375 0.5111258,0.425938 0,0.280618 -0.270596,0.466027 -0.6263796,0.466027 -0.3056733,0 -0.5762693,-0.135298 -0.6013245,-0.425938 H 6.2328147 c 0.030066,0.420927 0.3708167,0.706556 0.9220308,0.706556 0.5913023,0 0.9270418,-0.325718 0.9270418,-0.741634 0,-0.481059 -0.4560043,-0.636401 -0.7215893,-0.706556 l -0.2605739,-0.07015 c -0.1904194,-0.05011 -0.4960927,-0.150331 -0.4960927,-0.425939 0,-0.24554 0.2254967,-0.425938 0.5662472,-0.425938 0.3106843,0 0.546203,0.147826 0.5762692,0.400883 z"
         style="stroke-width:0.264583"
         id="path15990" />
      <path
         d="m 8.5930093,80.024117 h 0.9270419 c 0.6063358,0 0.8568868,-0.295652 0.8568868,-0.681502 0,-0.405894 -0.280618,-0.626379 -0.5161363,-0.641412 v -0.02506 c 0.2204853,-0.06013 0.4159163,-0.205453 0.4159163,-0.536181 0,-0.375828 -0.250552,-0.681501 -0.7867331,-0.681501 H 8.5930093 Z m 0.3106843,-0.275608 v -0.891964 h 0.6313907 c 0.3357395,0 0.5462027,0.225497 0.5462027,0.48607 0,0.225497 -0.1553418,0.405894 -0.5612358,0.405894 z m 0,-1.16256 v -0.851876 h 0.5862913 c 0.3407506,0 0.4910817,0.180397 0.4910817,0.405894 0,0.270596 -0.2204857,0.445982 -0.5011037,0.445982 z"
         style="stroke-width:0.264583"
         id="path15992" />
      <path
         d="m 11.880242,80.024117 h 0.310684 v -0.937064 h 0.561237 c 0.597566,0 0.866909,-0.363301 0.866909,-0.816799 0,-0.453499 -0.269343,-0.811788 -0.87192,-0.811788 h -0.86691 z m 0.310684,-1.212671 v -1.077373 h 0.546204 c 0.417168,0 0.576269,0.228002 0.576269,0.536181 0,0.308178 -0.159101,0.541192 -0.571258,0.541192 z"
         style="stroke-width:0.264583"
         id="path15994" />
      <path
         d="m 14.841764,80.064205 c 0.521148,0 0.871921,-0.395872 0.871921,-0.992186 0,-0.601324 -0.350773,-0.997196 -0.871921,-0.997196 -0.521147,0 -0.87192,0.395872 -0.87192,0.997196 0,0.596314 0.350773,0.992186 0.87192,0.992186 z m 0,-0.265585 c -0.395872,0 -0.576269,-0.340751 -0.576269,-0.726601 0,-0.385849 0.180397,-0.731611 0.576269,-0.731611 0.395872,0 0.57627,0.345762 0.57627,0.731611 0,0.38585 -0.180398,0.726601 -0.57627,0.726601 z"
         style="stroke-width:0.264583"
         id="path15996" />
      <path
         d="m 16.164675,80.024117 h 0.295651 v -1.217682 c 0,-0.260574 0.205453,-0.450994 0.486071,-0.450994 0.07892,0 0.160353,0.01503 0.180397,0.02004 v -0.300662 c -0.03382,-0.0025 -0.111496,-0.005 -0.155342,-0.005 -0.230508,0 -0.430949,0.130287 -0.501104,0.320706 h -0.02004 v -0.29064 h -0.285629 z"
         style="stroke-width:0.264583"
         id="path15998" />
      <path
         d="m 18.434667,78.099878 h -0.410905 v -0.461015 h -0.295651 v 0.461015 h -0.29064 v 0.250552 h 0.29064 v 1.202649 c 0,0.33574 0.270596,0.496093 0.521148,0.496093 0.110243,0 0.180397,-0.02004 0.220486,-0.03508 l -0.06013,-0.265585 c -0.02505,0.005 -0.06514,0.01503 -0.130287,0.01503 -0.130287,0 -0.255563,-0.04009 -0.255563,-0.290641 V 78.35043 h 0.410905 z"
         style="stroke-width:0.264583"
         id="path16000" />
    </g>
    <g
       aria-label="ATmega32U2"
       id="text130-3-5-6-3-5"
       style="font-size:3.52777px;line-height:1.25;font-family:Inter;-inkscape-font-specification:Inter;stroke-width:0.264583">
      <path
         d="m 21.589515,90.027122 0.258069,-0.7266 h 1.037284 l 0.258069,0.7266 h 0.325717 l -0.942075,-2.56565 h -0.320706 l -0.942075,2.56565 z m 0.355784,-1.002207 0.410905,-1.157549 h 0.02004 l 0.410905,1.157549 z"
         style="stroke-width:0.264583"
         id="path15967" />
      <path
         d="m 23.428562,87.737079 h 0.806777 v 2.290043 h 0.310685 v -2.290043 h 0.806777 v -0.275607 h -1.924239 z"
         style="stroke-width:0.264583"
         id="path15969" />
      <path
         d="m 25.593319,90.027122 h 0.295652 v -1.202648 c 0,-0.281871 0.205452,-0.48106 0.43596,-0.48106 0.224244,0 0.380839,0.146573 0.380839,0.365806 v 1.317902 h 0.300662 v -1.252759 c 0,-0.248046 0.155342,-0.430949 0.425938,-0.430949 0.210464,0 0.390861,0.111496 0.390861,0.395872 v 1.287836 h 0.295651 v -1.287836 c 0,-0.452246 -0.243035,-0.661457 -0.586291,-0.661457 -0.275607,0 -0.477302,0.126529 -0.57627,0.325718 h -0.02004 c -0.09521,-0.205453 -0.263079,-0.325718 -0.516137,-0.325718 -0.250551,0 -0.43596,0.120265 -0.516136,0.325718 h -0.02506 v -0.300663 h -0.285629 z"
         style="stroke-width:0.264583"
         id="path15971" />
      <path
         d="m 29.466851,90.067211 c 0.390861,0 0.67649,-0.195431 0.766688,-0.486071 l -0.285629,-0.08018 c -0.07517,0.200441 -0.249299,0.300662 -0.481059,0.300662 -0.347015,0 -0.586292,-0.224244 -0.600072,-0.636402 h 1.396827 v -0.125276 c 0,-0.716578 -0.425939,-0.962119 -0.826822,-0.962119 -0.521147,0 -0.866909,0.410905 -0.866909,1.002208 0,0.591302 0.340751,0.987174 0.896976,0.987174 z m -0.600072,-1.15755 c 0.02004,-0.299409 0.23176,-0.566247 0.570005,-0.566247 0.320707,0 0.526159,0.24053 0.526159,0.566247 z"
         style="stroke-width:0.264583"
         id="path15973" />
      <path
         d="m 31.491308,90.7888 c 0.461015,0 0.831832,-0.210463 0.831832,-0.706556 v -1.97936 h -0.285629 v 0.305674 h -0.03007 c -0.06514,-0.100221 -0.185409,-0.330729 -0.561236,-0.330729 -0.486071,0 -0.82181,0.38585 -0.82181,0.977152 0,0.601325 0.350772,0.942075 0.816799,0.942075 0.375827,0 0.496092,-0.220485 0.561236,-0.325717 h 0.02506 V 90.0622 c 0,0.320706 -0.225497,0.466026 -0.536181,0.466026 -0.34952,0 -0.47229,-0.184155 -0.551214,-0.29064 l -0.235519,0.165364 c 0.120265,0.201695 0.357037,0.38585 0.786733,0.38585 z m -0.01002,-1.057329 c -0.370817,0 -0.561236,-0.280618 -0.561236,-0.681501 0,-0.390861 0.185408,-0.706556 0.561236,-0.706556 0.360795,0 0.551214,0.29064 0.551214,0.706556 0,0.425938 -0.195431,0.681501 -0.551214,0.681501 z"
         style="stroke-width:0.264583"
         id="path15975" />
      <path
         d="m 33.430572,90.072222 c 0.33574,0 0.511126,-0.180398 0.571258,-0.305673 h 0.01503 v 0.260573 h 0.295651 V 88.75933 c 0,-0.611346 -0.466027,-0.681501 -0.711568,-0.681501 -0.29064,0 -0.621368,0.100221 -0.771699,0.450993 l 0.280618,0.100221 c 0.06514,-0.140309 0.219233,-0.29064 0.501104,-0.29064 0.271848,0 0.405894,0.144067 0.405894,0.390861 v 0.01002 c 0,0.142815 -0.145321,0.130287 -0.496093,0.175386 -0.357037,0.04635 -0.746645,0.125276 -0.746645,0.566247 0,0.375828 0.29064,0.591303 0.656446,0.591303 z m 0.0451,-0.265585 c -0.235519,0 -0.405894,-0.105232 -0.405894,-0.310684 0,-0.225497 0.205452,-0.295652 0.43596,-0.325718 0.125276,-0.01503 0.461015,-0.05011 0.511126,-0.110243 v 0.270596 c 0,0.24053 -0.19042,0.476049 -0.541192,0.476049 z"
         style="stroke-width:0.264583"
         id="path15977" />
      <path
         d="m 35.7156,90.0622 c 0.497346,0 0.86691,-0.311937 0.86691,-0.731612 0,-0.325717 -0.192925,-0.562489 -0.516137,-0.616357 v -0.02004 c 0.259321,-0.07892 0.420927,-0.291893 0.420927,-0.581281 0,-0.3633 -0.286882,-0.686512 -0.761678,-0.686512 -0.443476,0 -0.811788,0.273102 -0.826821,0.67649 h 0.300663 c 0.01127,-0.255563 0.25431,-0.405894 0.521147,-0.405894 0.283124,0 0.466027,0.171628 0.466027,0.430949 0,0.270596 -0.211716,0.445983 -0.516137,0.445983 h -0.205452 v 0.275607 h 0.205452 c 0.389608,0 0.606336,0.197936 0.606336,0.481059 0,0.271849 -0.236772,0.456005 -0.566248,0.456005 -0.296904,0 -0.532422,-0.152837 -0.551214,-0.400883 H 34.84368 c 0.01879,0.403388 0.374575,0.67649 0.87192,0.67649 z"
         style="stroke-width:0.264583"
         id="path15979" />
      <path
         d="m 37.09363,90.027122 h 1.618565 v -0.275607 h -1.192627 v -0.02004 l 0.576269,-0.616357 c 0.440972,-0.47229 0.571258,-0.692776 0.571258,-0.977152 0,-0.395872 -0.320706,-0.711568 -0.771699,-0.711568 -0.449741,0 -0.791744,0.305674 -0.791744,0.756667 h 0.295651 c 0,-0.291893 0.189167,-0.486071 0.486071,-0.486071 0.278112,0 0.491081,0.170376 0.491081,0.440972 0,0.236771 -0.139056,0.412157 -0.43596,0.736622 l -0.846865,0.927042 z"
         style="stroke-width:0.264583"
         id="path15981" />
      <path
         d="m 40.957135,87.461472 v 1.698741 c 0,0.400883 -0.320707,0.621369 -0.686512,0.621369 -0.365806,0 -0.686513,-0.220486 -0.686513,-0.621369 v -1.698741 h -0.310684 v 1.698741 c 0,0.576269 0.456005,0.912009 0.997197,0.912009 0.541192,0 0.997196,-0.33574 0.997196,-0.912009 v -1.698741 z"
         style="stroke-width:0.264583"
         id="path15983" />
      <path
         d="m 41.844084,90.027122 h 1.618565 v -0.275607 h -1.192627 v -0.02004 l 0.576269,-0.616357 c 0.440971,-0.47229 0.571258,-0.692776 0.571258,-0.977152 0,-0.395872 -0.320706,-0.711568 -0.771699,-0.711568 -0.449741,0 -0.791744,0.305674 -0.791744,0.756667 h 0.295651 c 0,-0.291893 0.189167,-0.486071 0.486071,-0.486071 0.278112,0 0.491081,0.170376 0.491081,0.440972 0,0.236771 -0.139056,0.412157 -0.43596,0.736622 l -0.846865,0.927042 z"
         style="stroke-width:0.264583"
         id="path15985" />
    </g>
    <path
       style="fill:none;stroke:red;stroke-width:0.264999;stroke-linecap:butt;stroke-linejoin:miter;stroke-miterlimit:4;stroke-dasharray:none;stroke-opacity:1"
       d="m 44.367409,89.956717 h 0.64557 l 0,-22.279673"
       id="path200-7-5"
       sodipodi:nodetypes="ccc" />
    <g
       aria-label="Flashing Switch"
       id="text130-3-5-6-3-5-6"
       style="font-size:3.52777px;line-height:1.25;font-family:Inter;-inkscape-font-specification:Inter;stroke-width:0.264583">
      <path
         d="m 71.576111,99.956833 h 0.310684 v -1.147528 h 1.11245 v -0.275607 h -1.11245 v -0.866909 h 1.227704 v -0.275607 h -1.538388 z"
         style="stroke-width:0.264583"
         id="path15938" />
      <path
         d="m 73.90123,97.391182 h -0.295652 v 2.565651 h 0.295652 z"
         style="stroke-width:0.264583"
         id="path15940" />
      <path
         d="m 75.008666,100.00193 c 0.335739,0 0.511125,-0.180395 0.571258,-0.305671 h 0.01503 v 0.260574 h 0.295651 v -1.267792 c 0,-0.611347 -0.466026,-0.681502 -0.711567,-0.681502 -0.29064,0 -0.621369,0.100221 -0.7717,0.450994 l 0.280618,0.100221 c 0.06514,-0.140309 0.219233,-0.290641 0.501104,-0.290641 0.271849,0 0.405894,0.144068 0.405894,0.390861 v 0.01002 c 0,0.142815 -0.14532,0.130287 -0.496093,0.175387 -0.357036,0.04635 -0.746644,0.125276 -0.746644,0.566247 0,0.375828 0.29064,0.5913 0.656446,0.5913 z m 0.0451,-0.265583 c -0.235519,0 -0.405894,-0.105232 -0.405894,-0.310684 0,-0.225497 0.205453,-0.295651 0.43596,-0.325717 0.125276,-0.01503 0.461016,-0.05011 0.511126,-0.110243 v 0.270596 c 0,0.24053 -0.190419,0.476048 -0.541192,0.476048 z"
         style="stroke-width:0.264583"
         id="path15942" />
      <path
         d="m 77.794797,98.463544 c -0.0927,-0.273102 -0.300662,-0.456005 -0.681501,-0.456005 -0.405894,0 -0.706556,0.230508 -0.706556,0.556226 0,0.265585 0.157848,0.443476 0.511126,0.526158 l 0.320706,0.07517 c 0.194178,0.0451 0.285629,0.137804 0.285629,0.270596 0,0.165364 -0.175386,0.300662 -0.450993,0.300662 -0.241783,0 -0.393367,-0.103979 -0.445982,-0.310684 l -0.280619,0.07015 c 0.0689,0.326971 0.338245,0.501104 0.731612,0.501104 0.447235,0 0.751655,-0.244288 0.751655,-0.576269 0,-0.268091 -0.167869,-0.437213 -0.511125,-0.521148 L 77.03312,98.82935 c -0.228003,-0.05638 -0.330729,-0.132793 -0.330729,-0.280619 0,-0.165364 0.175386,-0.285629 0.410905,-0.285629 0.258069,0 0.364553,0.142815 0.415916,0.275607 z"
         style="stroke-width:0.264583"
         id="path15944" />
      <path
         d="m 78.571504,98.799283 c 0,-0.335739 0.214222,-0.526159 0.506115,-0.526159 0.278112,0 0.445982,0.175387 0.445982,0.48106 v 1.202649 h 0.295651 V 98.73414 c 0,-0.49484 -0.263079,-0.726601 -0.656446,-0.726601 -0.303168,0 -0.476048,0.126529 -0.566247,0.325718 h -0.02505 v -0.942075 h -0.295651 v 2.565651 h 0.295651 z"
         style="stroke-width:0.264583"
         id="path15946" />
      <path
         d="m 80.360441,99.956833 h 0.295651 v -1.924238 h -0.295651 z m 0.150331,-2.244945 c 0.115254,0 0.210463,-0.0902 0.210463,-0.200441 0,-0.110243 -0.09521,-0.200442 -0.210463,-0.200442 -0.115254,0 -0.210464,0.0902 -0.210464,0.200442 0,0.110243 0.09521,0.200441 0.210464,0.200441 z"
         style="stroke-width:0.264583"
         id="path15948" />
      <path
         d="m 81.492932,98.799283 c 0,-0.335739 0.207958,-0.526159 0.491081,-0.526159 0.274354,0 0.440971,0.179145 0.440971,0.48106 v 1.202649 h 0.295652 V 98.73414 c 0,-0.491082 -0.261827,-0.726601 -0.651435,-0.726601 -0.29064,0 -0.471038,0.130287 -0.561236,0.325718 h -0.02506 V 98.032595 H 81.19728 v 1.924238 h 0.295652 z"
         style="stroke-width:0.264583"
         id="path15950" />
      <path
         d="m 84.038534,100.71851 c 0.461015,0 0.831832,-0.21046 0.831832,-0.70656 v -1.979355 h -0.285629 v 0.305673 h -0.03007 c -0.06514,-0.100221 -0.185409,-0.330729 -0.561236,-0.330729 -0.486071,0 -0.821811,0.38585 -0.821811,0.977153 0,0.601324 0.350773,0.942075 0.8168,0.942075 0.375827,0 0.496092,-0.220486 0.561236,-0.325718 h 0.02505 v 0.390861 c 0,0.32071 -0.225497,0.46603 -0.536181,0.46603 -0.34952,0 -0.47229,-0.18416 -0.551214,-0.29064 l -0.235519,0.16536 c 0.120265,0.20169 0.357036,0.38585 0.786733,0.38585 z m -0.01002,-1.057328 c -0.370817,0 -0.561236,-0.280618 -0.561236,-0.681501 0,-0.390861 0.185408,-0.706557 0.561236,-0.706557 0.360794,0 0.551214,0.290641 0.551214,0.706557 0,0.425938 -0.195431,0.681501 -0.551214,0.681501 z"
         style="stroke-width:0.264583"
         id="path15952" />
      <path
         d="m 87.846909,98.032595 h 0.300662 c -0.01378,-0.387103 -0.370817,-0.67649 -0.86691,-0.67649 -0.491081,0 -0.876931,0.285629 -0.876931,0.716578 0,0.345762 0.250552,0.551214 0.651435,0.666468 l 0.315695,0.0902 c 0.270596,0.07516 0.511126,0.170375 0.511126,0.425938 0,0.280618 -0.270596,0.466026 -0.62638,0.466026 -0.305673,0 -0.576269,-0.135298 -0.601324,-0.425938 h -0.320707 c 0.03007,0.420927 0.370817,0.706554 0.922031,0.706554 0.591303,0 0.927042,-0.325715 0.927042,-0.741631 0,-0.48106 -0.456004,-0.636402 -0.721589,-0.706556 l -0.260574,-0.07015 c -0.19042,-0.05011 -0.496093,-0.150331 -0.496093,-0.425938 0,-0.245541 0.225497,-0.425938 0.566247,-0.425938 0.310685,0 0.546203,0.147825 0.57627,0.400883 z"
         style="stroke-width:0.264583"
         id="path15954" />
      <path
         d="m 89.089641,99.956833 h 0.290641 l 0.420927,-1.478256 h 0.03007 l 0.420927,1.478256 h 0.29064 l 0.586292,-1.924238 h -0.310685 l -0.415916,1.468234 h -0.02004 L 89.976595,98.032595 H 89.6609 l -0.410905,1.473245 h -0.02004 L 88.814034,98.032595 H 88.50335 Z"
         style="stroke-width:0.264583"
         id="path15956" />
      <path
         d="m 91.519989,99.956833 h 0.295652 v -1.924238 h -0.295652 z m 0.150332,-2.244945 c 0.115253,0 0.210463,-0.0902 0.210463,-0.200441 0,-0.110243 -0.09521,-0.200442 -0.210463,-0.200442 -0.115254,0 -0.210464,0.0902 -0.210464,0.200442 0,0.110243 0.09521,0.200441 0.210464,0.200441 z"
         style="stroke-width:0.264583"
         id="path15958" />
      <path
         d="m 93.193672,98.032595 h -0.410905 v -0.461016 h -0.295651 v 0.461016 h -0.29064 v 0.250552 h 0.29064 v 1.202648 c 0,0.33574 0.270596,0.496093 0.521148,0.496093 0.110243,0 0.180397,-0.02004 0.220486,-0.03508 l -0.06013,-0.265585 c -0.02505,0.005 -0.06514,0.01503 -0.130287,0.01503 -0.130287,0 -0.255563,-0.04009 -0.255563,-0.29064 v -1.122472 h 0.410905 z"
         style="stroke-width:0.264583"
         id="path15960" />
      <path
         d="m 94.40133,99.996921 c 0.425938,0 0.706556,-0.260574 0.756667,-0.601324 h -0.295651 c -0.05512,0.210463 -0.230508,0.335739 -0.461016,0.335739 -0.350772,0 -0.576269,-0.29064 -0.576269,-0.736622 0,-0.43596 0.230508,-0.72159 0.576269,-0.72159 0.260574,0 0.415916,0.160354 0.461016,0.33574 h 0.295651 c -0.05011,-0.360795 -0.355784,-0.601325 -0.761678,-0.601325 -0.521148,0 -0.866909,0.410906 -0.866909,0.997197 0,0.576269 0.330728,0.992185 0.87192,0.992185 z"
         style="stroke-width:0.264583"
         id="path15962" />
      <path
         d="m 95.884591,98.799283 c 0,-0.335739 0.214222,-0.526159 0.506115,-0.526159 0.278113,0 0.445982,0.175387 0.445982,0.48106 v 1.202649 H 97.13234 V 98.73414 c 0,-0.49484 -0.26308,-0.726601 -0.656446,-0.726601 -0.303168,0 -0.476049,0.126529 -0.566248,0.325718 h -0.02505 V 97.391182 H 95.58894 v 2.565651 h 0.295651 z"
         style="stroke-width:0.264583"
         id="path15964" />
    </g>
    <path
       style="fill:none;stroke:#ff0000;stroke-width:0.264999;stroke-linecap:butt;stroke-linejoin:miter;stroke-miterlimit:4;stroke-dasharray:none;stroke-opacity:1"
       d="m 70.641111,99.926943 h -0.64557 V 79.927536"
       id="path200-7-5-9"
       sodipodi:nodetypes="ccc" />
    <path
       style="fill:none;stroke:red;stroke-width:0.264999;stroke-linecap:butt;stroke-linejoin:miter;stroke-miterlimit:4;stroke-dasharray:none;stroke-opacity:1"
       d="m 19.389824,79.976526 h 0.64557 l 0,-18.286562"
       id="path200-7-5-1"
       sodipodi:nodetypes="ccc" />
    <g
       aria-label="Reset"
       id="text130-3-5-6-3-5-6-6"
       style="font-size:3.52777px;line-height:1.25;font-family:Inter;-inkscape-font-specification:Inter;stroke-width:0.264583">
      <path
         d="m 81.576111,89.956802 h 0.310684 v -1.002207 h 0.561236 c 0.02255,0 0.04385,0 0.06514,-0.0013 l 0.541192,1.00346 h 0.360795 l -0.580028,-1.059834 c 0.32697,-0.111496 0.479807,-0.378333 0.479807,-0.719084 0,-0.453499 -0.270596,-0.786733 -0.871921,-0.786733 h -0.866909 z m 0.310684,-1.282825 v -1.007219 h 0.546203 c 0.415916,0 0.57627,0.202947 0.57627,0.511126 0,0.308179 -0.160354,0.496093 -0.571259,0.496093 z"
         style="stroke-width:0.264583"
         id="path15927" />
      <path
         d="m 84.57772,89.996891 c 0.39086,0 0.67649,-0.195431 0.766688,-0.486071 l -0.285629,-0.08018 c -0.07516,0.200442 -0.249299,0.300663 -0.481059,0.300663 -0.347015,0 -0.586292,-0.224244 -0.600072,-0.636402 h 1.396826 v -0.125276 c 0,-0.716578 -0.425938,-0.962119 -0.826821,-0.962119 -0.521147,0 -0.866909,0.410905 -0.866909,1.002207 0,0.591303 0.340751,0.987175 0.896976,0.987175 z m -0.600072,-1.15755 c 0.02004,-0.299409 0.23176,-0.566247 0.570005,-0.566247 0.320707,0 0.526159,0.24053 0.526159,0.566247 z"
         style="stroke-width:0.264583"
         id="path15929" />
      <path
         d="m 87.188469,88.463513 c -0.0927,-0.273101 -0.300663,-0.456004 -0.681501,-0.456004 -0.405894,0 -0.706557,0.230508 -0.706557,0.556225 0,0.265585 0.157848,0.443477 0.511126,0.526159 l 0.320707,0.07517 c 0.194177,0.0451 0.285629,0.137803 0.285629,0.270596 0,0.165364 -0.175387,0.300662 -0.450994,0.300662 -0.241782,0 -0.393366,-0.103979 -0.445982,-0.310685 l -0.280618,0.07016 c 0.0689,0.32697 0.338245,0.501104 0.731611,0.501104 0.447235,0 0.751656,-0.244288 0.751656,-0.57627 0,-0.26809 -0.16787,-0.437213 -0.511126,-0.521147 l -0.285629,-0.07015 c -0.228002,-0.05637 -0.330728,-0.132792 -0.330728,-0.280618 0,-0.165364 0.175386,-0.285629 0.410905,-0.285629 0.258068,0 0.364553,0.142814 0.415916,0.275607 z"
         style="stroke-width:0.264583"
         id="path15931" />
      <path
         d="m 88.476301,89.996891 c 0.390861,0 0.67649,-0.195431 0.766688,-0.486071 l -0.285629,-0.08018 c -0.07516,0.200442 -0.249299,0.300663 -0.481059,0.300663 -0.347015,0 -0.586292,-0.224244 -0.600072,-0.636402 h 1.396827 v -0.125276 c 0,-0.716578 -0.425939,-0.962119 -0.826822,-0.962119 -0.521147,0 -0.866909,0.410905 -0.866909,1.002207 0,0.591303 0.340751,0.987175 0.896976,0.987175 z m -0.600072,-1.15755 c 0.02004,-0.299409 0.23176,-0.566247 0.570005,-0.566247 0.320707,0 0.526159,0.24053 0.526159,0.566247 z"
         style="stroke-width:0.264583"
         id="path15933" />
      <path
         d="m 90.560891,88.032564 h -0.410905 v -0.461015 h -0.295651 v 0.461015 h -0.29064 v 0.250552 h 0.29064 v 1.202649 c 0,0.335739 0.270596,0.496093 0.521148,0.496093 0.110243,0 0.180397,-0.02004 0.220486,-0.03508 l -0.06013,-0.265585 c -0.02506,0.005 -0.06514,0.01503 -0.130287,0.01503 -0.130287,0 -0.255563,-0.04009 -0.255563,-0.29064 v -1.122472 h 0.410905 z"
         style="stroke-width:0.264583"
         id="path15935" />
    </g>
    <path
       style="fill:none;stroke:red;stroke-width:0.264999;stroke-linecap:butt;stroke-linejoin:miter;stroke-miterlimit:4;stroke-dasharray:none;stroke-opacity:1"
       d="m 80.641111,89.926997 h -0.64557 V 72.042932"
       id="path200-7-5-9-3"
       sodipodi:nodetypes="ccc" />
  </g>
</svg>
