<?xml version="1.0" encoding="UTF-8" standalone="no"?>
<svg
   xmlns:dc="http://purl.org/dc/elements/1.1/"
   xmlns:cc="http://creativecommons.org/ns#"
   xmlns:rdf="http://www.w3.org/1999/02/22-rdf-syntax-ns#"
   xmlns:svg="http://www.w3.org/2000/svg"
   xmlns="http://www.w3.org/2000/svg"
   xmlns:xlink="http://www.w3.org/1999/xlink"
   xmlns:sodipodi="http://sodipodi.sourceforge.net/DTD/sodipodi-0.dtd"
   xmlns:inkscape="http://www.inkscape.org/namespaces/inkscape"
   width="148mm"
   height="120mm"
   viewBox="0 0 148 120"
   version="1.1"
   id="svg8"
   inkscape:version="1.0.1 (3bc2e813f5, 2020-09-07)"
   sodipodi:docname="refman-kbdx.svg"
   inkscape:export-filename="/home/mntmn/code/reform-handbook/src/source/_static/illustrations/kbdmod-callouts.png"
   inkscape:export-xdpi="600.0954"
   inkscape:export-ydpi="600.0954">
  <defs
     id="defs2">
    <rect
       x="34.146812"
       y="128.59737"
       width="45.334026"
       height="16.606207"
       id="rect1287" />
  </defs>
  <sodipodi:namedview
     id="base"
     pagecolor="#ffffff"
     bordercolor="#666666"
     borderopacity="1.0"
     inkscape:pageopacity="0.0"
     inkscape:pageshadow="2"
     inkscape:zoom="1.979899"
     inkscape:cx="247.67093"
     inkscape:cy="231.33521"
     inkscape:document-units="mm"
     inkscape:current-layer="layer2"
     inkscape:document-rotation="0"
     showgrid="true"
     inkscape:window-width="2560"
     inkscape:window-height="1406"
     inkscape:window-x="0"
     inkscape:window-y="0"
     inkscape:window-maximized="1"
     inkscape:snap-global="false"
     inkscape:snap-intersection-paths="true">
    <inkscape:grid
       type="xygrid"
       id="grid10"
       units="mm"
       spacingx="10"
       spacingy="10" />
  </sodipodi:namedview>
  <metadata
     id="metadata5">
    <rdf:RDF>
      <cc:Work
         rdf:about="">
        <dc:format>image/svg+xml</dc:format>
        <dc:type
           rdf:resource="http://purl.org/dc/dcmitype/StillImage" />
        <dc:title></dc:title>
      </cc:Work>
    </rdf:RDF>
  </metadata>
  <g
     inkscape:label="pic"
     inkscape:groupmode="layer"
     id="layer1">
    <image
       sodipodi:absref="/home/mntmn/code/reform-handbook/src/source/_static/illustrations/kbdmod.png"
       xlink:href="../_static/illustrations/kbdmod.png"
       width="147.94583"
       height="64.108253"
       preserveAspectRatio="none"
       id="image10614"
       x="0.07469365"
       y="37.690372" />
  </g>
  <g
     inkscape:groupmode="layer"
     id="layer2"
     inkscape:label="callouts">
    <path
       style="fill:none;stroke:#ff0000;stroke-width:0.25;stroke-linecap:butt;stroke-linejoin:miter;stroke-miterlimit:4;stroke-dasharray:none;stroke-opacity:1"
       d="M 26.735408,43.817282 V 10.057778 h 3.276658"
       id="path204-3"
       sodipodi:nodetypes="ccc" />
    <g
       aria-label="Backlight Driver"
       id="text130-3-5-6-9-2"
       style="font-size:3.52777px;line-height:1.25;font-family:Inter;-inkscape-font-specification:Inter;stroke-width:0.264583">
      <path
         d="m 30.569447,10.099239 h 0.927041 c 0.606336,0 0.856888,-0.2956508 0.856888,-0.6815007 0,-0.405894 -0.280618,-0.6263796 -0.516137,-0.6414127 v -0.025055 c 0.220486,-0.060132 0.415916,-0.2054525 0.415916,-0.536181 0,-0.3758277 -0.250552,-0.681501 -0.786733,-0.681501 H 30.569447 Z M 30.880131,9.8236323 V 8.9316677 h 0.631391 c 0.335739,0 0.546203,0.2254967 0.546203,0.4860706 0,0.2254967 -0.155343,0.405894 -0.561237,0.405894 z m 0,-1.1625606 V 7.8091954 h 0.586291 c 0.340751,0 0.491082,0.1803974 0.491082,0.405894 0,0.270596 -0.220486,0.4459823 -0.501104,0.4459823 z"
         style="stroke-width:0.264583"
         id="path3940" />
      <path
         d="m 33.39066,10.144339 c 0.335739,0 0.511126,-0.1803976 0.571258,-0.3056736 h 0.01503 v 0.2605736 h 0.295651 V 8.831447 c 0,-0.6113465 -0.466026,-0.681501 -0.711567,-0.681501 -0.29064,0 -0.621368,0.1002207 -0.771699,0.4509933 L 33.069954,8.70116 c 0.06514,-0.140309 0.219232,-0.2906401 0.501103,-0.2906401 0.271849,0 0.405894,0.1440673 0.405894,0.3908609 v 0.010022 c 0,0.1428146 -0.14532,0.130287 -0.496092,0.1753863 -0.357037,0.046352 -0.746645,0.125276 -0.746645,0.5662472 0,0.3758278 0.29064,0.5913027 0.656446,0.5913027 z m 0.0451,-0.2655853 c -0.235518,0 -0.405894,-0.1052318 -0.405894,-0.3106843 0,-0.2254966 0.205453,-0.2956512 0.435961,-0.3257174 0.125275,-0.015033 0.461015,-0.05011 0.511125,-0.1102428 v 0.270596 c 0,0.2405298 -0.190419,0.4760485 -0.541192,0.4760485 z"
         style="stroke-width:0.264583"
         id="path3942" />
      <path
         d="m 35.595512,10.139328 c 0.425938,0 0.706556,-0.2605743 0.756666,-0.6013248 h -0.295651 c -0.05512,0.2104636 -0.230508,0.3357395 -0.461015,0.3357395 -0.350773,0 -0.57627,-0.2906402 -0.57627,-0.7366225 0,-0.4359602 0.230508,-0.7215893 0.57627,-0.7215893 0.260574,0 0.415916,0.1603532 0.461015,0.3357395 h 0.295651 C 36.302068,8.3904757 35.996395,8.149946 35.590501,8.149946 c -0.521148,0 -0.86691,0.410905 -0.86691,0.9971963 0,0.5762693 0.330729,0.9921857 0.871921,0.9921857 z"
         style="stroke-width:0.264583"
         id="path3944" />
      <path
         d="m 36.783122,10.099239 h 0.295651 V 9.3789028 l 0.206705,-0.1916722 0.720337,0.9120084 h 0.375827 L 37.508469,8.9968112 38.32151,8.1750011 H 37.955704 L 37.11385,9.0318885 h -0.03508 V 7.5335884 h -0.295651 z"
         style="stroke-width:0.264583"
         id="path3946" />
      <path
         d="m 38.997997,7.5335884 h -0.295652 v 2.5656506 h 0.295652 z"
         style="stroke-width:0.264583"
         id="path3948" />
      <path
         d="m 39.539185,10.099239 h 0.295651 V 8.1750011 h -0.295651 z m 0.150331,-2.2449442 c 0.115254,0 0.210464,-0.090199 0.210464,-0.2004415 0,-0.1102428 -0.09521,-0.2004415 -0.210464,-0.2004415 -0.115254,0 -0.210463,0.090199 -0.210463,0.2004415 0,0.1102428 0.09521,0.2004415 0.210463,0.2004415 z"
         style="stroke-width:0.264583"
         id="path3950" />
      <path
         d="m 41.152736,10.860917 c 0.461016,0 0.831833,-0.210464 0.831833,-0.706556 V 8.1750011 h -0.28563 v 0.3056733 h -0.03007 C 41.60373,8.3804537 41.483465,8.149946 41.107637,8.149946 c -0.486071,0 -0.82181,0.3858498 -0.82181,0.9771522 0,0.6013244 0.350773,0.9420748 0.816799,0.9420748 0.375828,0 0.496093,-0.2204855 0.561236,-0.3257173 h 0.02505 v 0.3908613 c 0,0.320706 -0.225496,0.466026 -0.536181,0.466026 -0.349519,0 -0.47229,-0.184156 -0.551214,-0.29064 l -0.235518,0.165364 c 0.120264,0.201694 0.357036,0.38585 0.786732,0.38585 z m -0.01002,-1.0573288 c -0.370816,0 -0.561236,-0.2806181 -0.561236,-0.6815011 0,-0.3908608 0.185409,-0.7065562 0.561236,-0.7065562 0.360795,0 0.551214,0.2906402 0.551214,0.7065562 0,0.4259382 -0.19543,0.6815011 -0.551214,0.6815011 z"
         style="stroke-width:0.264583"
         id="path3952" />
      <path
         d="m 42.821405,8.9416898 c 0,-0.3357395 0.214221,-0.5261589 0.506114,-0.5261589 0.278113,0 0.445983,0.1753863 0.445983,0.4810596 v 1.2026485 h 0.295651 V 8.8765463 c 0,-0.4948399 -0.26308,-0.7266003 -0.656446,-0.7266003 -0.303168,0 -0.476048,0.1265286 -0.566247,0.3257174 h -0.02506 v -0.942075 h -0.295652 v 2.5656506 h 0.295652 z"
         style="stroke-width:0.264583"
         id="path3954" />
      <path
         d="M 45.447185,8.1750011 H 45.03628 V 7.7139857 h -0.295652 v 0.4610154 h -0.29064 V 8.425553 h 0.29064 v 1.2026489 c 0,0.3357395 0.270596,0.4960931 0.521148,0.4960931 0.110243,0 0.180398,-0.02004 0.220486,-0.03508 L 45.42213,9.8236323 c -0.02506,0.00501 -0.06514,0.015033 -0.130287,0.015033 -0.130287,0 -0.255563,-0.040088 -0.255563,-0.2906401 V 8.425553 h 0.410905 z"
         style="stroke-width:0.264583"
         id="path3956" />
      <path
         d="m 47.717176,10.099239 c 0.781722,0 1.222693,-0.4860702 1.222693,-1.2878362 0,-0.7967548 -0.440971,-1.2778144 -1.187616,-1.2778144 H 46.925432 V 10.099239 Z M 47.236117,9.8236323 V 7.8091954 h 0.496092 c 0.601325,0 0.906998,0.3808389 0.906998,1.0022074 0,0.6263797 -0.305673,1.0122295 -0.942075,1.0122295 z"
         style="stroke-width:0.264583"
         id="path3958" />
      <path
         d="m 49.420922,10.099239 h 0.295651 V 8.8815574 c 0,-0.260574 0.205452,-0.4509934 0.486071,-0.4509934 0.07892,0 0.160353,0.015033 0.180397,0.020044 V 8.149946 c -0.03383,-0.00251 -0.111496,-0.00501 -0.155342,-0.00501 -0.230508,0 -0.430949,0.130287 -0.501104,0.3207064 h -0.02004 V 8.1750011 h -0.285629 z"
         style="stroke-width:0.264583"
         id="path3960" />
      <path
         d="m 50.733811,10.099239 h 0.295651 V 8.1750011 h -0.295651 z m 0.150331,-2.2449442 c 0.115254,0 0.210464,-0.090199 0.210464,-0.2004415 0,-0.1102428 -0.09521,-0.2004415 -0.210464,-0.2004415 -0.115254,0 -0.210464,0.090199 -0.210464,0.2004415 0,0.1102428 0.09521,0.2004415 0.210464,0.2004415 z"
         style="stroke-width:0.264583"
         id="path3962" />
      <path
         d="M 53.144116,8.1750011 H 52.82341 l -0.53117,1.5333774 h -0.02004 l -0.53117,-1.5333774 h -0.320707 l 0.711568,1.9242379 h 0.300662 z"
         style="stroke-width:0.264583"
         id="path3964" />
      <path
         d="m 54.271593,10.139328 c 0.39086,0 0.67649,-0.1954308 0.766688,-0.4860709 l -0.285629,-0.080177 c -0.07516,0.2004414 -0.249299,0.3006622 -0.481059,0.3006622 -0.347015,0 -0.586292,-0.2242439 -0.600072,-0.6364017 h 1.396826 V 9.1120651 c 0,-0.7165783 -0.425938,-0.9621191 -0.826821,-0.9621191 -0.521148,0 -0.866909,0.410905 -0.866909,1.0022074 0,0.5913023 0.34075,0.9871746 0.896976,0.9871746 z M 53.671521,8.9817781 c 0.02004,-0.2994095 0.23176,-0.5662472 0.570005,-0.5662472 0.320707,0 0.526159,0.2405298 0.526159,0.5662472 z"
         style="stroke-width:0.264583"
         id="path3966" />
      <path
         d="m 55.519341,10.099239 h 0.295651 V 8.8815574 c 0,-0.2593212 0.205453,-0.4509934 0.486071,-0.4509934 0.07391,0 0.129034,0.01378 0.170375,0.035077 l 0.100221,-0.2505519 c -0.06013,-0.042594 -0.139057,-0.070154 -0.245541,-0.070154 -0.233013,0 -0.432202,0.130287 -0.501104,0.3207064 H 55.80497 V 8.1750011 h -0.285629 z"
         style="stroke-width:0.264583"
         id="path3968" />
    </g>
    <g
       aria-label="SYSCTL UART"
       id="text130-3-5-6-9-2-7"
       style="font-size:3.52777px;line-height:1.25;font-family:Inter;-inkscape-font-specification:Inter;stroke-width:0.264583">
      <path
         d="m 41.995929,18.060379 h 0.300662 c -0.01378,-0.387103 -0.370817,-0.67649 -0.866909,-0.67649 -0.491082,0 -0.876932,0.285629 -0.876932,0.716578 0,0.345762 0.250552,0.551214 0.651435,0.666468 l 0.315695,0.0902 c 0.270596,0.07517 0.511126,0.170375 0.511126,0.425938 0,0.280618 -0.270596,0.466026 -0.62638,0.466026 -0.305673,0 -0.576269,-0.135298 -0.601324,-0.425938 h -0.320706 c 0.03007,0.420927 0.370816,0.706557 0.92203,0.706557 0.591303,0 0.927042,-0.325718 0.927042,-0.741634 0,-0.481059 -0.456004,-0.636402 -0.721589,-0.706556 l -0.260574,-0.07015 c -0.190419,-0.05011 -0.496093,-0.150331 -0.496093,-0.425938 0,-0.245541 0.225497,-0.425938 0.566247,-0.425938 0.310685,0 0.546204,0.147826 0.57627,0.400883 z"
         style="stroke-width:0.264583"
         id="path3971" />
      <path
         d="m 42.622305,17.418966 0.927041,1.508322 v 1.057329 h 0.310685 v -1.057329 l 0.927042,-1.508322 h -0.355784 l -0.711567,1.197638 h -0.03007 l -0.711567,-1.197638 z"
         style="stroke-width:0.264583"
         id="path3973" />
      <path
         d="m 46.591043,18.060379 h 0.300663 c -0.01378,-0.387103 -0.370817,-0.67649 -0.86691,-0.67649 -0.491081,0 -0.876931,0.285629 -0.876931,0.716578 0,0.345762 0.250552,0.551214 0.651435,0.666468 l 0.315695,0.0902 c 0.270596,0.07517 0.511126,0.170375 0.511126,0.425938 0,0.280618 -0.270596,0.466026 -0.62638,0.466026 -0.305673,0 -0.576269,-0.135298 -0.601324,-0.425938 H 45.07771 c 0.03007,0.420927 0.370817,0.706557 0.922031,0.706557 0.591302,0 0.927042,-0.325718 0.927042,-0.741634 0,-0.481059 -0.456004,-0.636402 -0.721589,-0.706556 l -0.260574,-0.07015 c -0.19042,-0.05011 -0.496093,-0.150331 -0.496093,-0.425938 0,-0.245541 0.225497,-0.425938 0.566247,-0.425938 0.310684,0 0.546203,0.147826 0.576269,0.400883 z"
         style="stroke-width:0.264583"
         id="path3975" />
      <path
         d="m 49.502452,18.220732 c -0.09521,-0.526159 -0.516137,-0.836843 -1.032273,-0.836843 -0.656446,0 -1.132495,0.506115 -1.132495,1.317903 0,0.811788 0.476049,1.317902 1.132495,1.317902 0.516136,0 0.937063,-0.310684 1.032273,-0.836843 h -0.310684 c -0.07517,0.355784 -0.380839,0.546203 -0.721589,0.546203 -0.466027,0 -0.831833,-0.360794 -0.831833,-1.027262 0,-0.666468 0.365806,-1.027263 0.831833,-1.027263 0.34075,0 0.646423,0.19042 0.721589,0.546203 z"
         style="stroke-width:0.264583"
         id="path3977" />
      <path
         d="m 49.863244,17.694573 h 0.806777 v 2.290044 h 0.310685 v -2.290044 h 0.806777 v -0.275607 h -1.924239 z"
         style="stroke-width:0.264583"
         id="path3979" />
      <path
         d="m 52.268538,19.984617 h 1.503311 V 19.70901 h -1.192627 v -2.290044 h -0.310684 z"
         style="stroke-width:0.264583"
         id="path3981" />
      <path
         d="m 56.928789,17.418966 v 1.698742 c 0,0.400883 -0.320707,0.621368 -0.686513,0.621368 -0.365805,0 -0.686512,-0.220485 -0.686512,-0.621368 V 17.418966 H 55.24508 v 1.698742 c 0,0.576269 0.456004,0.912009 0.997196,0.912009 0.541192,0 0.997197,-0.33574 0.997197,-0.912009 v -1.698742 z"
         style="stroke-width:0.264583"
         id="path3983" />
      <path
         d="m 57.966068,19.984617 0.258068,-0.7266 h 1.037285 l 0.258068,0.7266 h 0.325718 l -0.942075,-2.565651 h -0.320707 l -0.942075,2.565651 z m 0.355784,-1.002207 0.410905,-1.15755 h 0.02004 l 0.410905,1.15755 z"
         style="stroke-width:0.264583"
         id="path3985" />
      <path
         d="m 60.24609,19.984617 h 0.310684 V 18.98241 h 0.561236 c 0.02255,0 0.04385,0 0.06514,-0.0013 l 0.541192,1.00346 h 0.360795 l -0.580028,-1.059834 c 0.32697,-0.111496 0.479807,-0.378333 0.479807,-0.719084 0,-0.453499 -0.270596,-0.786733 -0.871921,-0.786733 H 60.24609 Z m 0.310684,-1.282825 v -1.007219 h 0.546203 c 0.415916,0 0.57627,0.202947 0.57627,0.511126 0,0.308179 -0.160354,0.496093 -0.571259,0.496093 z"
         style="stroke-width:0.264583"
         id="path3987" />
      <path
         d="m 62.360746,17.694573 h 0.806777 v 2.290044 h 0.310684 v -2.290044 h 0.806777 v -0.275607 h -1.924238 z"
         style="stroke-width:0.264583"
         id="path3989" />
    </g>
    <g
       aria-label="Flashing Switch"
       id="text130-3-5-6-9-2-7-5"
       style="font-size:3.52777px;line-height:1.25;font-family:Inter;-inkscape-font-specification:Inter;stroke-width:0.264583">
      <path
         d="m 50.630215,29.993105 h 0.310684 v -1.147528 h 1.11245 V 28.56997 h -1.11245 v -0.866909 h 1.227704 v -0.275607 h -1.538388 z"
         style="stroke-width:0.264583"
         id="path3992" />
      <path
         d="m 52.955333,27.427454 h -0.295651 v 2.565651 h 0.295651 z"
         style="stroke-width:0.264583"
         id="path3994" />
      <path
         d="m 54.06277,30.038204 c 0.335739,0 0.511125,-0.180397 0.571258,-0.305673 h 0.01503 v 0.260574 h 0.295651 v -1.267792 c 0,-0.611347 -0.466026,-0.681501 -0.711567,-0.681501 -0.29064,0 -0.621369,0.10022 -0.7717,0.450993 l 0.280618,0.100221 c 0.06514,-0.140309 0.219233,-0.290641 0.501104,-0.290641 0.271849,0 0.405894,0.144068 0.405894,0.390861 v 0.01002 c 0,0.142815 -0.14532,0.130287 -0.496093,0.175387 -0.357036,0.04635 -0.746644,0.125276 -0.746644,0.566247 0,0.375828 0.29064,0.591302 0.656446,0.591302 z m 0.0451,-0.265585 c -0.235519,0 -0.405894,-0.105231 -0.405894,-0.310684 0,-0.225497 0.205452,-0.295651 0.43596,-0.325717 0.125276,-0.01503 0.461016,-0.05011 0.511126,-0.110243 v 0.270596 c 0,0.24053 -0.19042,0.476048 -0.541192,0.476048 z"
         style="stroke-width:0.264583"
         id="path3996" />
      <path
         d="m 56.848901,28.499816 c -0.0927,-0.273102 -0.300662,-0.456004 -0.681501,-0.456004 -0.405894,0 -0.706556,0.230507 -0.706556,0.556225 0,0.265585 0.157847,0.443476 0.511126,0.526159 l 0.320706,0.07516 c 0.194178,0.0451 0.285629,0.137804 0.285629,0.270596 0,0.165364 -0.175386,0.300662 -0.450993,0.300662 -0.241783,0 -0.393367,-0.103979 -0.445983,-0.310684 l -0.280618,0.07015 c 0.0689,0.32697 0.338245,0.501103 0.731612,0.501103 0.447235,0 0.751655,-0.244288 0.751655,-0.576269 0,-0.268091 -0.167869,-0.437213 -0.511126,-0.521148 l -0.285629,-0.07015 c -0.228002,-0.05637 -0.330728,-0.132793 -0.330728,-0.280618 0,-0.165365 0.175386,-0.28563 0.410905,-0.28563 0.258068,0 0.364553,0.142815 0.415916,0.275607 z"
         style="stroke-width:0.264583"
         id="path3998" />
      <path
         d="m 57.625608,28.835555 c 0,-0.335739 0.214222,-0.526158 0.506114,-0.526158 0.278113,0 0.445983,0.175386 0.445983,0.481059 v 1.202649 h 0.295651 v -1.222693 c 0,-0.49484 -0.26308,-0.7266 -0.656446,-0.7266 -0.303168,0 -0.476048,0.126528 -0.566247,0.325717 h -0.02506 v -0.942075 h -0.295651 v 2.565651 h 0.295651 z"
         style="stroke-width:0.264583"
         id="path4000" />
      <path
         d="m 59.414545,29.993105 h 0.295651 v -1.924238 h -0.295651 z m 0.150331,-2.244945 c 0.115254,0 0.210463,-0.0902 0.210463,-0.200441 0,-0.110243 -0.09521,-0.200442 -0.210463,-0.200442 -0.115254,0 -0.210464,0.0902 -0.210464,0.200442 0,0.110243 0.09521,0.200441 0.210464,0.200441 z"
         style="stroke-width:0.264583"
         id="path4002" />
      <path
         d="m 60.547035,28.835555 c 0,-0.335739 0.207958,-0.526158 0.491082,-0.526158 0.274354,0 0.440971,0.179144 0.440971,0.481059 v 1.202649 h 0.295651 v -1.222693 c 0,-0.491082 -0.261826,-0.7266 -0.651434,-0.7266 -0.29064,0 -0.471038,0.130287 -0.561236,0.325717 h -0.02506 v -0.300662 h -0.285629 v 1.924238 h 0.295651 z"
         style="stroke-width:0.264583"
         id="path4004" />
      <path
         d="m 63.092638,30.754783 c 0.461015,0 0.831832,-0.210464 0.831832,-0.706557 v -1.979359 h -0.285629 v 0.305673 h -0.03007 c -0.06514,-0.100221 -0.185409,-0.330728 -0.561237,-0.330728 -0.48607,0 -0.82181,0.385849 -0.82181,0.977152 0,0.601324 0.350773,0.942075 0.816799,0.942075 0.375828,0 0.496093,-0.220486 0.561237,-0.325718 h 0.02506 v 0.390861 c 0,0.320707 -0.225497,0.466027 -0.536181,0.466027 -0.34952,0 -0.472291,-0.184156 -0.551214,-0.290641 l -0.235519,0.165365 c 0.120265,0.201694 0.357036,0.38585 0.786733,0.38585 z m -0.01002,-1.057329 c -0.370817,0 -0.561236,-0.280618 -0.561236,-0.681501 0,-0.390861 0.185408,-0.706556 0.561236,-0.706556 0.360794,0 0.551214,0.29064 0.551214,0.706556 0,0.425938 -0.195431,0.681501 -0.551214,0.681501 z"
         style="stroke-width:0.264583"
         id="path4006" />
      <path
         d="m 66.901012,28.068867 h 0.300663 c -0.01378,-0.387103 -0.370817,-0.67649 -0.86691,-0.67649 -0.491081,0 -0.876931,0.285629 -0.876931,0.716578 0,0.345762 0.250552,0.551214 0.651435,0.666468 l 0.315695,0.0902 c 0.270596,0.07517 0.511126,0.170375 0.511126,0.425938 0,0.280618 -0.270596,0.466026 -0.62638,0.466026 -0.305673,0 -0.576269,-0.135298 -0.601324,-0.425938 h -0.320707 c 0.03007,0.420927 0.370817,0.706556 0.922031,0.706556 0.591302,0 0.927042,-0.325717 0.927042,-0.741633 0,-0.48106 -0.456004,-0.636402 -0.721589,-0.706556 l -0.260574,-0.07015 c -0.19042,-0.05011 -0.496093,-0.150331 -0.496093,-0.425938 0,-0.245541 0.225497,-0.425938 0.566247,-0.425938 0.310684,0 0.546203,0.147825 0.576269,0.400883 z"
         style="stroke-width:0.264583"
         id="path4008" />
      <path
         d="m 68.143745,29.993105 h 0.29064 l 0.420928,-1.478256 h 0.03007 l 0.420927,1.478256 h 0.29064 l 0.586291,-1.924238 h -0.310684 l -0.415916,1.468234 h -0.02004 l -0.405894,-1.468234 h -0.315695 l -0.410905,1.473245 h -0.02004 l -0.415916,-1.473245 h -0.310684 z"
         style="stroke-width:0.264583"
         id="path4010" />
      <path
         d="m 70.574093,29.993105 h 0.295651 v -1.924238 h -0.295651 z m 0.150331,-2.244945 c 0.115254,0 0.210464,-0.0902 0.210464,-0.200441 0,-0.110243 -0.09521,-0.200442 -0.210464,-0.200442 -0.115253,0 -0.210463,0.0902 -0.210463,0.200442 0,0.110243 0.09521,0.200441 0.210463,0.200441 z"
         style="stroke-width:0.264583"
         id="path4012" />
      <path
         d="M 72.247776,28.068867 H 71.836871 V 27.607851 H 71.54122 v 0.461016 h -0.29064 v 0.250552 h 0.29064 v 1.202648 c 0,0.33574 0.270596,0.496093 0.521148,0.496093 0.110243,0 0.180397,-0.02004 0.220485,-0.03508 l -0.06013,-0.265585 c -0.02506,0.005 -0.06514,0.01503 -0.130287,0.01503 -0.130287,0 -0.255563,-0.04009 -0.255563,-0.29064 v -1.122472 h 0.410905 z"
         style="stroke-width:0.264583"
         id="path4014" />
      <path
         d="m 73.455434,30.033193 c 0.425938,0 0.706556,-0.260574 0.756667,-0.601324 h -0.295652 c -0.05512,0.210463 -0.230507,0.335739 -0.461015,0.335739 -0.350773,0 -0.576269,-0.29064 -0.576269,-0.736622 0,-0.43596 0.230507,-0.721589 0.576269,-0.721589 0.260574,0 0.415916,0.160353 0.461015,0.335739 h 0.295652 c -0.05011,-0.360795 -0.355784,-0.601324 -0.761678,-0.601324 -0.521148,0 -0.866909,0.410905 -0.866909,0.997196 0,0.576269 0.330728,0.992185 0.87192,0.992185 z"
         style="stroke-width:0.264583"
         id="path4016" />
      <path
         d="m 74.938695,28.835555 c 0,-0.335739 0.214222,-0.526158 0.506115,-0.526158 0.278112,0 0.445982,0.175386 0.445982,0.481059 v 1.202649 h 0.295651 v -1.222693 c 0,-0.49484 -0.263079,-0.7266 -0.656445,-0.7266 -0.303168,0 -0.476049,0.126528 -0.566248,0.325717 h -0.02506 v -0.942075 h -0.295651 v 2.565651 h 0.295651 z"
         style="stroke-width:0.264583"
         id="path4018" />
    </g>
    <g
       aria-label="OLED Connector"
       id="text130-3-5-6-9-2-7-5-5"
       style="font-size:3.52777px;line-height:1.25;font-family:Inter;-inkscape-font-specification:Inter;stroke-width:0.264583">
      <path
         d="m 74.062435,18.709028 c 0,-0.811788 -0.476049,-1.317902 -1.132494,-1.317902 -0.656446,0 -1.132495,0.506114 -1.132495,1.317902 0,0.811788 0.476049,1.317903 1.132495,1.317903 0.656445,0 1.132494,-0.506115 1.132494,-1.317903 z m -0.300662,0 c 0,0.666468 -0.365806,1.027263 -0.831832,1.027263 -0.466027,0 -0.831832,-0.360795 -0.831832,-1.027263 0,-0.666468 0.365805,-1.027262 0.831832,-1.027262 0.466026,0 0.831832,0.360794 0.831832,1.027262 z"
         style="stroke-width:0.264583"
         id="path4021" />
      <path
         d="m 74.583577,19.991854 h 1.503311 v -0.275607 h -1.192626 v -2.290044 h -0.310685 z"
         style="stroke-width:0.264583"
         id="path4023" />
      <path
         d="m 76.567941,19.991854 h 1.568455 v -0.275607 h -1.25777 v -0.871921 h 1.157549 V 18.568719 H 76.878626 V 17.70181 h 1.237726 v -0.275607 h -1.548411 z"
         style="stroke-width:0.264583"
         id="path4025" />
      <path
         d="m 79.46933,19.991854 c 0.781722,0 1.222694,-0.486071 1.222694,-1.287837 0,-0.796755 -0.440972,-1.277814 -1.187616,-1.277814 h -0.826821 v 2.565651 z M 78.988271,19.716247 V 17.70181 h 0.496093 c 0.601324,0 0.906997,0.380839 0.906997,1.002207 0,0.62638 -0.305673,1.01223 -0.942075,1.01223 z"
         style="stroke-width:0.264583"
         id="path4027" />
      <path
         d="m 84.269891,18.227969 c -0.09521,-0.526159 -0.516137,-0.836843 -1.032274,-0.836843 -0.656446,0 -1.132494,0.506114 -1.132494,1.317902 0,0.811788 0.476048,1.317903 1.132494,1.317903 0.516137,0 0.937064,-0.310684 1.032274,-0.836843 h -0.310685 c -0.07516,0.355783 -0.380839,0.546203 -0.721589,0.546203 -0.466026,0 -0.831832,-0.360795 -0.831832,-1.027263 0,-0.666468 0.365806,-1.027262 0.831832,-1.027262 0.34075,0 0.646424,0.190419 0.721589,0.546203 z"
         style="stroke-width:0.264583"
         id="path4029" />
      <path
         d="m 85.512625,20.031942 c 0.521148,0 0.87192,-0.395872 0.87192,-0.992185 0,-0.601325 -0.350772,-0.997197 -0.87192,-0.997197 -0.521148,0 -0.871921,0.395872 -0.871921,0.997197 0,0.596313 0.350773,0.992185 0.871921,0.992185 z m 0,-0.265585 c -0.395872,0 -0.576269,-0.34075 -0.576269,-0.7266 0,-0.38585 0.180397,-0.731612 0.576269,-0.731612 0.395872,0 0.576269,0.345762 0.576269,0.731612 0,0.38585 -0.180397,0.7266 -0.576269,0.7266 z"
         style="stroke-width:0.264583"
         id="path4031" />
      <path
         d="m 87.131187,18.834304 c 0,-0.335739 0.207958,-0.526159 0.491081,-0.526159 0.274355,0 0.440972,0.179145 0.440972,0.48106 v 1.202649 h 0.295651 v -1.222693 c 0,-0.491082 -0.261827,-0.726601 -0.651435,-0.726601 -0.29064,0 -0.471038,0.130287 -0.561236,0.325718 h -0.02505 v -0.300662 h -0.28563 v 1.924238 h 0.295652 z"
         style="stroke-width:0.264583"
         id="path4033" />
      <path
         d="m 89.195729,18.834304 c 0,-0.335739 0.207958,-0.526159 0.491082,-0.526159 0.274354,0 0.440971,0.179145 0.440971,0.48106 v 1.202649 h 0.295652 v -1.222693 c 0,-0.491082 -0.261827,-0.726601 -0.651435,-0.726601 -0.29064,0 -0.471038,0.130287 -0.561236,0.325718 h -0.02506 v -0.300662 h -0.285629 v 1.924238 h 0.295651 z"
         style="stroke-width:0.264583"
         id="path4035" />
      <path
         d="m 91.771398,20.031942 c 0.390861,0 0.67649,-0.19543 0.766689,-0.486071 l -0.285629,-0.08018 c -0.07517,0.200441 -0.2493,0.300662 -0.48106,0.300662 -0.347014,0 -0.586291,-0.224244 -0.600072,-0.636402 h 1.396827 v -0.125276 c 0,-0.716578 -0.425938,-0.962119 -0.826821,-0.962119 -0.521148,0 -0.86691,0.410905 -0.86691,1.002208 0,0.591302 0.340751,0.987174 0.896976,0.987174 z m -0.600072,-1.15755 c 0.02004,-0.299409 0.231761,-0.566247 0.570006,-0.566247 0.320706,0 0.526159,0.24053 0.526159,0.566247 z"
         style="stroke-width:0.264583"
         id="path4037" />
      <path
         d="m 93.800868,20.031942 c 0.425938,0 0.706556,-0.260574 0.756667,-0.601324 h -0.295651 c -0.05512,0.210463 -0.230508,0.335739 -0.461016,0.335739 -0.350772,0 -0.576269,-0.29064 -0.576269,-0.736622 0,-0.435961 0.230508,-0.72159 0.576269,-0.72159 0.260574,0 0.415916,0.160353 0.461016,0.33574 h 0.295651 c -0.05011,-0.360795 -0.355784,-0.601325 -0.761678,-0.601325 -0.521148,0 -0.866909,0.410905 -0.866909,0.997197 0,0.576269 0.330728,0.992185 0.87192,0.992185 z"
         style="stroke-width:0.264583"
         id="path4039" />
      <path
         d="M 95.825321,18.067616 H 95.414416 V 17.6066 h -0.295651 v 0.461016 h -0.29064 v 0.250551 h 0.29064 v 1.202649 c 0,0.33574 0.270596,0.496093 0.521148,0.496093 0.110243,0 0.180397,-0.02004 0.220486,-0.03508 l -0.06013,-0.265585 c -0.02505,0.005 -0.06514,0.01503 -0.130287,0.01503 -0.130287,0 -0.255563,-0.04009 -0.255563,-0.29064 v -1.122473 h 0.410905 z"
         style="stroke-width:0.264583"
         id="path4041" />
      <path
         d="m 97.032979,20.031942 c 0.521148,0 0.871921,-0.395872 0.871921,-0.992185 0,-0.601325 -0.350773,-0.997197 -0.871921,-0.997197 -0.521148,0 -0.87192,0.395872 -0.87192,0.997197 0,0.596313 0.350772,0.992185 0.87192,0.992185 z m 0,-0.265585 c -0.395872,0 -0.576269,-0.34075 -0.576269,-0.7266 0,-0.38585 0.180397,-0.731612 0.576269,-0.731612 0.395872,0 0.576269,0.345762 0.576269,0.731612 0,0.38585 -0.180397,0.7266 -0.576269,0.7266 z"
         style="stroke-width:0.264583"
         id="path4043" />
      <path
         d="m 98.355889,19.991854 h 0.295651 v -1.217682 c 0,-0.259321 0.205453,-0.450994 0.486071,-0.450994 0.07391,0 0.129034,0.01378 0.170375,0.03508 l 0.100221,-0.250552 c -0.06013,-0.04259 -0.139057,-0.07015 -0.245541,-0.07015 -0.233013,0 -0.432202,0.130287 -0.501104,0.320707 h -0.02004 v -0.29064 h -0.285629 z"
         style="stroke-width:0.264583"
         id="path4045" />
    </g>
    <g
       aria-label="USB"
       id="text130-3-5-6-9-2-7-5-5-7"
       style="font-size:3.52777px;line-height:1.25;font-family:Inter;-inkscape-font-specification:Inter;stroke-width:0.264583">
      <path
         d="m 122.26324,27.430893 v 1.698741 c 0,0.400883 -0.3207,0.621369 -0.68651,0.621369 -0.3658,0 -0.68651,-0.220486 -0.68651,-0.621369 v -1.698741 h -0.31068 v 1.698741 c 0,0.57627 0.456,0.912009 0.99719,0.912009 0.54119,0 0.9972,-0.335739 0.9972,-0.912009 v -1.698741 z"
         style="stroke-width:0.264583"
         id="path4091" />
      <path
         d="m 124.59838,28.072306 h 0.30067 c -0.0138,-0.387103 -0.37082,-0.67649 -0.86691,-0.67649 -0.49108,0 -0.87693,0.285629 -0.87693,0.716578 0,0.345762 0.25055,0.551214 0.65143,0.666468 l 0.3157,0.0902 c 0.27059,0.07517 0.51112,0.170375 0.51112,0.425938 0,0.280618 -0.27059,0.466026 -0.62638,0.466026 -0.30567,0 -0.57627,-0.135298 -0.60132,-0.425938 h -0.32071 c 0.0301,0.420927 0.37082,0.706556 0.92203,0.706556 0.5913,0 0.92704,-0.325717 0.92704,-0.741633 0,-0.48106 -0.456,-0.636402 -0.72159,-0.706556 l -0.26057,-0.07015 c -0.19042,-0.05011 -0.49609,-0.150331 -0.49609,-0.425938 0,-0.245541 0.22549,-0.425938 0.56624,-0.425938 0.31069,0 0.54621,0.147825 0.57627,0.400883 z"
         style="stroke-width:0.264583"
         id="path4093" />
      <path
         d="m 125.44525,29.996544 h 0.92704 c 0.60633,0 0.85688,-0.295651 0.85688,-0.681501 0,-0.405894 -0.28061,-0.62638 -0.51613,-0.641413 v -0.02505 c 0.22048,-0.06013 0.41591,-0.205453 0.41591,-0.536181 0,-0.375828 -0.25055,-0.681501 -0.78673,-0.681501 h -0.89697 z m 0.31068,-0.275607 v -0.891965 h 0.63139 c 0.33574,0 0.5462,0.225497 0.5462,0.486071 0,0.225497 -0.15534,0.405894 -0.56123,0.405894 z m 0,-1.162561 V 27.7065 h 0.58629 c 0.34075,0 0.49108,0.180397 0.49108,0.405894 0,0.270596 -0.22048,0.445982 -0.5011,0.445982 z"
         style="stroke-width:0.264583"
         id="path4095" />
    </g>
    <g
       aria-label="External USB
(inactive)"
       id="text130-3-5-6-9-2-7-5-5-7-4"
       style="font-size:3.52777px;line-height:1.25;font-family:Inter;-inkscape-font-specification:Inter;stroke-width:0.264583">
      <path
         d="m 110.69598,15.579937 h 1.56845 V 15.30433 h -1.25777 v -0.87192 h 1.15755 v -0.275608 h -1.15755 v -0.866909 h 1.23773 v -0.275607 h -1.54841 z"
         style="stroke-width:0.264583"
         id="path4048" />
      <path
         d="m 112.98602,13.655699 h -0.34075 l 0.61135,0.962119 -0.61135,0.962119 h 0.34075 l 0.46101,-0.746645 0.46102,0.746645 h 0.34075 l -0.62137,-0.962119 0.62137,-0.962119 h -0.34075 l -0.46102,0.786733 z"
         style="stroke-width:0.264583"
         id="path4050" />
      <path
         d="m 115.50657,13.655699 h -0.41091 v -0.461016 h -0.29565 v 0.461016 h -0.29064 v 0.250552 h 0.29064 V 15.1089 c 0,0.335739 0.2706,0.496092 0.52115,0.496092 0.11024,0 0.1804,-0.02004 0.22049,-0.03508 l -0.0601,-0.265585 c -0.025,0.005 -0.0651,0.01503 -0.13028,0.01503 -0.13029,0 -0.25557,-0.04009 -0.25557,-0.29064 v -1.122472 h 0.41091 z"
         style="stroke-width:0.264583"
         id="path4052" />
      <path
         d="m 116.73928,15.620025 c 0.39086,0 0.67649,-0.19543 0.76669,-0.48607 l -0.28563,-0.08018 c -0.0752,0.200442 -0.2493,0.300662 -0.48106,0.300662 -0.34701,0 -0.58629,-0.224244 -0.60007,-0.636401 h 1.39683 v -0.125276 c 0,-0.716579 -0.42594,-0.962119 -0.82682,-0.962119 -0.52115,0 -0.86691,0.410905 -0.86691,1.002207 0,0.591302 0.34075,0.987174 0.89697,0.987174 z m -0.60007,-1.157549 c 0.02,-0.29941 0.23176,-0.566247 0.57001,-0.566247 0.3207,0 0.52615,0.240529 0.52615,0.566247 z"
         style="stroke-width:0.264583"
         id="path4054" />
      <path
         d="m 117.98703,15.579937 h 0.29565 v -1.217682 c 0,-0.260574 0.20545,-0.450993 0.48607,-0.450993 0.0789,0 0.16035,0.01503 0.1804,0.02004 v -0.300662 c -0.0338,-0.0025 -0.1115,-0.005 -0.15534,-0.005 -0.23051,0 -0.43095,0.130287 -0.50111,0.320706 h -0.02 v -0.29064 h -0.28563 z"
         style="stroke-width:0.264583"
         id="path4056" />
      <path
         d="m 119.59557,14.422387 c 0,-0.335739 0.20796,-0.526158 0.49108,-0.526158 0.27435,0 0.44097,0.179144 0.44097,0.481059 v 1.202649 h 0.29565 v -1.222693 c 0,-0.491082 -0.26182,-0.7266 -0.65143,-0.7266 -0.29064,0 -0.47104,0.130287 -0.56124,0.325717 h -0.0251 v -0.300662 h -0.28563 v 1.924238 h 0.29565 z"
         style="stroke-width:0.264583"
         id="path4058" />
      <path
         d="m 121.93071,15.625036 c 0.33574,0 0.51112,-0.180397 0.57125,-0.305673 h 0.015 v 0.260574 h 0.29565 v -1.267792 c 0,-0.611347 -0.46603,-0.681501 -0.71157,-0.681501 -0.29064,0 -0.62137,0.10022 -0.7717,0.450993 l 0.28062,0.100221 c 0.0651,-0.140309 0.21923,-0.29064 0.5011,-0.29064 0.27185,0 0.4059,0.144067 0.4059,0.39086 v 0.01002 c 0,0.142815 -0.14532,0.130287 -0.49609,0.175387 -0.35704,0.04635 -0.74665,0.125276 -0.74665,0.566247 0,0.375828 0.29064,0.591302 0.65645,0.591302 z m 0.0451,-0.265585 c -0.23552,0 -0.4059,-0.105231 -0.4059,-0.310684 0,-0.225497 0.20545,-0.295651 0.43596,-0.325717 0.12528,-0.01503 0.46102,-0.05011 0.51113,-0.110243 v 0.270596 c 0,0.24053 -0.19042,0.476048 -0.54119,0.476048 z"
         style="stroke-width:0.264583"
         id="path4060" />
      <path
         d="m 123.64949,13.014286 h -0.29565 v 2.565651 h 0.29565 z"
         style="stroke-width:0.264583"
         id="path4062" />
      <path
         d="m 126.90665,13.014286 v 1.698742 c 0,0.400883 -0.3207,0.621368 -0.68651,0.621368 -0.36581,0 -0.68651,-0.220485 -0.68651,-0.621368 v -1.698742 h -0.31069 v 1.698742 c 0,0.576269 0.45601,0.912008 0.9972,0.912008 0.54119,0 0.9972,-0.335739 0.9972,-0.912008 v -1.698742 z"
         style="stroke-width:0.264583"
         id="path4064" />
      <path
         d="m 129.24179,13.655699 h 0.30066 c -0.0138,-0.387103 -0.37081,-0.67649 -0.86691,-0.67649 -0.49108,0 -0.87693,0.285629 -0.87693,0.716578 0,0.345762 0.25055,0.551214 0.65144,0.666468 l 0.31569,0.0902 c 0.2706,0.07517 0.51113,0.170375 0.51113,0.425938 0,0.280618 -0.2706,0.466026 -0.62638,0.466026 -0.30568,0 -0.57627,-0.135298 -0.60133,-0.425938 h -0.3207 c 0.0301,0.420927 0.37081,0.706556 0.92203,0.706556 0.5913,0 0.92704,-0.325717 0.92704,-0.741633 0,-0.48106 -0.45601,-0.636402 -0.72159,-0.706556 l -0.26057,-0.07015 c -0.19042,-0.05011 -0.4961,-0.150331 -0.4961,-0.425938 0,-0.245541 0.2255,-0.425938 0.56625,-0.425938 0.31068,0 0.5462,0.147825 0.57627,0.400883 z"
         style="stroke-width:0.264583"
         id="path4066" />
      <path
         d="m 130.08865,15.579937 h 0.92704 c 0.60634,0 0.85689,-0.295651 0.85689,-0.681501 0,-0.405894 -0.28062,-0.62638 -0.51614,-0.641413 v -0.02506 c 0.22049,-0.06013 0.41592,-0.205452 0.41592,-0.536181 0,-0.375828 -0.25055,-0.681501 -0.78673,-0.681501 h -0.89698 z m 0.31069,-0.275607 v -0.891965 h 0.63139 c 0.33574,0 0.5462,0.225497 0.5462,0.486071 0,0.225497 -0.15534,0.405894 -0.56124,0.405894 z m 0,-1.162561 v -0.851876 h 0.58629 c 0.34075,0 0.49108,0.180397 0.49108,0.405894 0,0.270596 -0.22049,0.445982 -0.5011,0.445982 z"
         style="stroke-width:0.264583"
         id="path4068" />
      <path
         d="m 110.76112,18.907266 c 0,0.63139 0.17038,1.157549 0.47605,1.603531 h 0.26057 c -0.24053,-0.330728 -0.43095,-1.007218 -0.43095,-1.603531 0,-0.596314 0.19042,-1.272804 0.43095,-1.603532 h -0.26057 c -0.30567,0.445982 -0.47605,0.972141 -0.47605,1.603532 z"
         style="stroke-width:0.264583"
         id="path4070" />
      <path
         d="m 111.9337,19.98965 h 0.29565 v -1.924239 h -0.29565 z m 0.15033,-2.244945 c 0.11525,0 0.21046,-0.0902 0.21046,-0.200442 0,-0.110242 -0.0952,-0.200441 -0.21046,-0.200441 -0.11525,0 -0.21046,0.0902 -0.21046,0.200441 0,0.110243 0.0952,0.200442 0.21046,0.200442 z"
         style="stroke-width:0.264583"
         id="path4072" />
      <path
         d="m 113.06619,18.8321 c 0,-0.335739 0.20796,-0.526159 0.49108,-0.526159 0.27436,0 0.44097,0.179145 0.44097,0.48106 v 1.202649 h 0.29565 v -1.222693 c 0,-0.491082 -0.26182,-0.726601 -0.65143,-0.726601 -0.29064,0 -0.47104,0.130287 -0.56124,0.325718 h -0.0251 v -0.300663 h -0.28563 v 1.924239 h 0.29565 z"
         style="stroke-width:0.264583"
         id="path4074" />
      <path
         d="m 115.40133,20.034749 c 0.33574,0 0.51113,-0.180397 0.57126,-0.305673 h 0.015 v 0.260574 h 0.29565 v -1.267793 c 0,-0.611346 -0.46602,-0.681501 -0.71157,-0.681501 -0.29064,0 -0.62136,0.100221 -0.77169,0.450993 l 0.28061,0.100221 c 0.0652,-0.140309 0.21924,-0.29064 0.50111,-0.29064 0.27185,0 0.40589,0.144067 0.40589,0.390861 v 0.01002 c 0,0.142815 -0.14532,0.130287 -0.49609,0.175386 -0.35704,0.04635 -0.74665,0.125276 -0.74665,0.566248 0,0.375827 0.29064,0.591302 0.65645,0.591302 z m 0.0451,-0.265585 c -0.23552,0 -0.40589,-0.105232 -0.40589,-0.310684 0,-0.225497 0.20545,-0.295652 0.43596,-0.325718 0.12527,-0.01503 0.46101,-0.05011 0.51112,-0.110243 v 0.270596 c 0,0.24053 -0.19042,0.476049 -0.54119,0.476049 z"
         style="stroke-width:0.264583"
         id="path4076" />
      <path
         d="m 117.60618,20.029738 c 0.42594,0 0.70656,-0.260574 0.75667,-0.601325 h -0.29565 c -0.0551,0.210464 -0.23051,0.33574 -0.46102,0.33574 -0.35077,0 -0.57627,-0.29064 -0.57627,-0.736623 0,-0.43596 0.23051,-0.721589 0.57627,-0.721589 0.26058,0 0.41592,0.160353 0.46102,0.33574 h 0.29565 c -0.0501,-0.360795 -0.35579,-0.601325 -0.76168,-0.601325 -0.52115,0 -0.86691,0.410905 -0.86691,0.997197 0,0.576269 0.33073,0.992185 0.87192,0.992185 z"
         style="stroke-width:0.264583"
         id="path4078" />
      <path
         d="m 119.63063,18.065411 h -0.4109 v -0.461015 h -0.29565 v 0.461015 h -0.29064 v 0.250552 h 0.29064 v 1.202649 c 0,0.33574 0.27059,0.496093 0.52115,0.496093 0.11024,0 0.18039,-0.02004 0.22048,-0.03508 l -0.0601,-0.265585 c -0.0251,0.005 -0.0651,0.01503 -0.13029,0.01503 -0.13028,0 -0.25556,-0.04009 -0.25556,-0.290641 v -1.122472 h 0.4109 z"
         style="stroke-width:0.264583"
         id="path4080" />
      <path
         d="m 120.07662,19.98965 h 0.29565 v -1.924239 h -0.29565 z m 0.15033,-2.244945 c 0.11525,0 0.21046,-0.0902 0.21046,-0.200442 0,-0.110242 -0.0952,-0.200441 -0.21046,-0.200441 -0.11526,0 -0.21047,0.0902 -0.21047,0.200441 0,0.110243 0.0952,0.200442 0.21047,0.200442 z"
         style="stroke-width:0.264583"
         id="path4082" />
      <path
         d="m 122.48692,18.065411 h -0.32071 l -0.53117,1.533378 h -0.02 l -0.53117,-1.533378 h -0.32071 l 0.71157,1.924239 h 0.30066 z"
         style="stroke-width:0.264583"
         id="path4084" />
      <path
         d="m 123.6144,20.029738 c 0.39086,0 0.67649,-0.195431 0.76669,-0.486071 l -0.28563,-0.08018 c -0.0752,0.200441 -0.2493,0.300662 -0.48106,0.300662 -0.34702,0 -0.58629,-0.224244 -0.60007,-0.636402 h 1.39682 v -0.125276 c 0,-0.716578 -0.42593,-0.962119 -0.82682,-0.962119 -0.52115,0 -0.86691,0.410905 -0.86691,1.002208 0,0.591302 0.34075,0.987174 0.89698,0.987174 z m -0.60007,-1.15755 c 0.02,-0.299409 0.23176,-0.566247 0.57,-0.566247 0.32071,0 0.52616,0.24053 0.52616,0.566247 z"
         style="stroke-width:0.264583"
         id="path4086" />
      <path
         d="m 125.49354,18.907266 c 0,-0.631391 -0.17038,-1.15755 -0.47605,-1.603532 h -0.26058 c 0.24053,0.330728 0.43095,1.007218 0.43095,1.603532 0,0.596313 -0.19042,1.272803 -0.43095,1.603531 h 0.26058 c 0.30567,-0.445982 0.47605,-0.972141 0.47605,-1.603531 z"
         style="stroke-width:0.264583"
         id="path4088" />
    </g>
    <path
       style="fill:none;stroke:#ff0000;stroke-width:0.25;stroke-linecap:butt;stroke-linejoin:miter;stroke-miterlimit:4;stroke-dasharray:none;stroke-opacity:1"
       d="M 39.434588,42.379468 V 20.007512 h 0.606834"
       id="path204-3-0"
       sodipodi:nodetypes="ccc" />
    <path
       style="fill:none;stroke:#ff0000;stroke-width:0.25;stroke-linecap:butt;stroke-linejoin:miter;stroke-miterlimit:4;stroke-dasharray:none;stroke-opacity:1"
       d="M 47.083929,41.818321 V 29.984893 h 2.910631"
       id="path204-3-0-7"
       sodipodi:nodetypes="ccc" />
    <g
       aria-label="Reset"
       id="text130-3-5-6-9-2-7-5-8"
       style="font-size:3.52777px;line-height:1.25;font-family:Inter;-inkscape-font-specification:Inter;stroke-width:0.264583">
      <path
         d="m 50.637196,110.02002 h 0.310684 v -1.00221 h 0.561236 c 0.02255,0 0.04385,0 0.06514,-0.001 l 0.541192,1.00346 h 0.360794 l -0.580027,-1.05983 c 0.32697,-0.1115 0.479807,-0.37834 0.479807,-0.71909 0,-0.4535 -0.270596,-0.78673 -0.871921,-0.78673 h -0.866909 z m 0.310684,-1.28283 v -1.00721 h 0.546203 c 0.415916,0 0.576269,0.20294 0.576269,0.51112 0,0.30818 -0.160353,0.49609 -0.571258,0.49609 z"
         style="stroke-width:0.264583"
         id="path4098" />
      <path
         d="m 53.638804,110.06011 c 0.390861,0 0.67649,-0.19543 0.766689,-0.48607 l -0.285629,-0.0802 c -0.07517,0.20044 -0.249299,0.30066 -0.48106,0.30066 -0.347014,0 -0.586291,-0.22424 -0.600071,-0.6364 h 1.396826 v -0.12527 c 0,-0.71658 -0.425938,-0.96212 -0.826821,-0.96212 -0.521148,0 -0.866909,0.4109 -0.866909,1.0022 0,0.59131 0.34075,0.98718 0.896975,0.98718 z m -0.600071,-1.15755 c 0.02004,-0.29941 0.23176,-0.56625 0.570005,-0.56625 0.320707,0 0.526159,0.24053 0.526159,0.56625 z"
         style="stroke-width:0.264583"
         id="path4100" />
      <path
         d="m 56.249553,108.52673 c -0.0927,-0.2731 -0.300662,-0.456 -0.681501,-0.456 -0.405894,0 -0.706556,0.2305 -0.706556,0.55622 0,0.26559 0.157848,0.44348 0.511126,0.52616 l 0.320706,0.0752 c 0.194178,0.0451 0.285629,0.1378 0.285629,0.27059 0,0.16537 -0.175386,0.30066 -0.450993,0.30066 -0.241782,0 -0.393366,-0.10398 -0.445982,-0.31068 l -0.280618,0.0701 c 0.0689,0.32697 0.338245,0.50111 0.731611,0.50111 0.447235,0 0.751656,-0.24429 0.751656,-0.57627 0,-0.26809 -0.16787,-0.43721 -0.511126,-0.52115 l -0.285629,-0.0701 c -0.228002,-0.0564 -0.330729,-0.1328 -0.330729,-0.28062 0,-0.16537 0.175387,-0.28563 0.410905,-0.28563 0.258069,0 0.364553,0.14281 0.415916,0.27561 z"
         style="stroke-width:0.264583"
         id="path4102" />
      <path
         d="m 57.537385,110.06011 c 0.390861,0 0.67649,-0.19543 0.766689,-0.48607 l -0.285629,-0.0802 c -0.07517,0.20044 -0.249299,0.30066 -0.48106,0.30066 -0.347014,0 -0.586291,-0.22424 -0.600071,-0.6364 h 1.396826 v -0.12527 c 0,-0.71658 -0.425938,-0.96212 -0.826821,-0.96212 -0.521148,0 -0.866909,0.4109 -0.866909,1.0022 0,0.59131 0.34075,0.98718 0.896975,0.98718 z m -0.600071,-1.15755 c 0.02004,-0.29941 0.23176,-0.56625 0.570005,-0.56625 0.320707,0 0.526159,0.24053 0.526159,0.56625 z"
         style="stroke-width:0.264583"
         id="path4104" />
      <path
         d="m 59.621976,108.09578 h -0.410905 v -0.46101 H 58.91542 v 0.46101 h -0.29064 v 0.25055 h 0.29064 v 1.20265 c 0,0.33574 0.270596,0.49609 0.521148,0.49609 0.110242,0 0.180397,-0.02 0.220485,-0.0351 l -0.06013,-0.26559 c -0.02506,0.005 -0.06514,0.015 -0.130287,0.015 -0.130287,0 -0.255563,-0.0401 -0.255563,-0.29064 v -1.12248 h 0.410905 z"
         style="stroke-width:0.264583"
         id="path4106" />
    </g>
    <path
       style="fill:none;stroke:#ff0000;stroke-width:0.25;stroke-linecap:butt;stroke-linejoin:miter;stroke-miterlimit:4;stroke-dasharray:none;stroke-opacity:1"
       d="m 46.714931,44.038868 v 65.983702 h 3.286577"
       id="path204-3-0-7-8"
       sodipodi:nodetypes="ccc" />
    <path
       style="fill:none;stroke:#ff0000;stroke-width:0.25;stroke-linecap:butt;stroke-linejoin:miter;stroke-miterlimit:4;stroke-dasharray:none;stroke-opacity:1"
       d="M 116.37648,41.819865 V 29.986437 l 3.61128,0"
       id="path204-3-0-7-84"
       sodipodi:nodetypes="ccc" />
    <path
       style="fill:none;stroke:#ff0000;stroke-width:0.25;stroke-linecap:butt;stroke-linejoin:miter;stroke-miterlimit:4;stroke-dasharray:none;stroke-opacity:1"
       d="m 109.46986,38.405437 0,-18.434723 h 0.52103"
       id="path204-3-0-7-84-3"
       sodipodi:nodetypes="ccc" />
    <path
       style="fill:none;stroke:#ff0000;stroke-width:0.25;stroke-linecap:butt;stroke-linejoin:miter;stroke-miterlimit:4;stroke-dasharray:none;stroke-opacity:1"
       d="m 100.52625,43.283428 0,-23.318284 h -0.52103"
       id="path204-3-0-7-84-3-1"
       sodipodi:nodetypes="ccc" />
  </g>
  <g
     inkscape:groupmode="layer"
     id="layer3"
     inkscape:label="callouts 2" />
</svg>
