<?xml version="1.0" encoding="iso-8859-1"?>
<svg version="1.1" xmlns="http://www.w3.org/2000/svg" xmlns:xlink="http://www.w3.org/1999/xlink" style="background:black" width="440" height="500">
  <g transform="translate(30 210)">
    <g transform="rotate(-45 0 0) translate(0 0)">
      <path style="fill:none;stroke:#fff;stroke-width:32;stroke-linecap:butt" d="m16,102 0,-64 64,64 0,-64 64,64 0,-64 64,64 0,-64 64,0" />
      <path style="fill:none;stroke:#fff;stroke-width:1;stroke-linecap:butt" d="m0,-300 0,800 m32,-800 0,800 m32,-800 0,800 m32,-800 0,800 m32,-800 0,800 m32,-800 0,800 m32,-800 0,800 m32,-800 0,800 m48,-800 0,800" />
      <path style="fill:none;stroke:#fff;stroke-width:1;stroke-linecap:butt" d="M-300,22 600,22 M-300,54 600,54 M-300,102 600,102" />
    </g>
    <path style="fill:none;stroke:#fff;stroke-width:1;stroke-linecap:butt" d="M-300,32 600,32 M-300,0 600,0 M-300,-14 600,-14 M-300,-46 600,-46 M-300,-59 600,-59 M-300,-91 600,-91" />
  </g>
</svg>